<svg width="10" height="11" viewBox="0 0 10 11" fill="none" xmlns="http://www.w3.org/2000/svg">
<path d="M8.30065 4.25495C7.6249 2.31808 5.51649 1.29241 3.59138 1.96405C1.66627 2.6357 0.653463 4.75032 1.32921 6.6872C1.93992 8.43765 3.72079 9.4438 5.47898 9.12551L4.62397 6.67484L3.73893 6.98362L3.38524 5.96987L4.27029 5.66109L4.00072 4.88845C3.69407 4.00951 4.04508 3.34244 4.84129 3.06466C5.22266 2.9316 5.64546 2.86093 5.64546 2.86093L5.94657 3.72398L5.50703 3.87733C5.07402 4.0284 5.0333 4.34585 5.13006 4.62319L5.35958 5.28105L6.32632 4.94377L6.52546 6.01144L5.71326 6.2948L6.56826 8.74547C8.14287 7.90099 8.91136 6.00541 8.30065 4.25495Z" fill="#191D23"/>
</svg>
