<svg width="69" height="13" viewBox="0 0 69 13" fill="none" xmlns="http://www.w3.org/2000/svg">
<rect opacity="0.2" x="14" y="0.5" width="3.5" height="11.5" rx="1" fill="black"/>
<path d="M9 4C9 3.44772 9.44772 3 10 3H11.5C12.0523 3 12.5 3.44772 12.5 4V11C12.5 11.5523 12.0523 12 11.5 12H10C9.44772 12 9 11.5523 9 11V4Z" fill="black"/>
<path d="M4 6.5C4 5.94772 4.44772 5.5 5 5.5H6.5C7.05228 5.5 7.5 5.94772 7.5 6.5V11C7.5 11.5523 7.05228 12 6.5 12H5C4.44772 12 4 11.5523 4 11V6.5Z" fill="black"/>
<path d="M0 8C0 7.44772 0.447715 7 1 7V7C1.55228 7 2 7.44772 2 8V11C2 11.5523 1.55228 12 1 12V12C0.447715 12 0 11.5523 0 11V8Z" fill="black"/>
<path d="M32.8263 9.78902C32.891 9.72547 32.9266 9.638 32.9248 9.54728C32.9229 9.45656 32.8837 9.37062 32.8165 9.30976C31.4802 8.17832 29.523 8.17832 28.1866 9.30976C28.1193 9.37057 28.0801 9.45648 28.0782 9.5472C28.0763 9.63793 28.1118 9.72542 28.1765 9.78902L30.2693 11.9029C30.3307 11.965 30.4143 12 30.5016 12C30.5888 12 30.6725 11.965 30.7338 11.9029L32.8263 9.78902Z" fill="black"/>
<path d="M30.5013 6.8691C31.7768 6.86902 33.0068 7.3436 33.9522 8.20062C34.0801 8.32225 34.2815 8.31961 34.4062 8.19467L35.6159 6.97117C35.6796 6.907 35.7149 6.81994 35.714 6.72947C35.7131 6.639 35.676 6.55268 35.611 6.48981C32.7319 3.8089 28.2732 3.8089 25.394 6.48981C25.329 6.55268 25.2919 6.63904 25.291 6.72954C25.2902 6.82004 25.3256 6.90709 25.3895 6.97117L26.5988 8.19467C26.7235 8.31961 26.9249 8.32225 27.0528 8.20062C27.9976 7.34416 29.2266 6.86963 30.5013 6.8691Z" fill="black"/>
<path opacity="0.2" d="M30.5004 2.88827C32.8219 2.88837 35.0546 3.78128 36.7371 5.38246C36.8638 5.50608 37.0663 5.50452 37.191 5.37896L38.4021 4.15546C38.4653 4.09178 38.5005 4.00552 38.5 3.91577C38.4995 3.82603 38.4632 3.74019 38.3993 3.67725C33.9834 -0.559083 27.0168 -0.559083 22.6009 3.67725C22.5369 3.74014 22.5006 3.82595 22.5 3.9157C22.4994 4.00545 22.5346 4.09174 22.5977 4.15546L23.8091 5.37896C23.9338 5.50471 24.1365 5.50627 24.2631 5.38246C25.9458 3.78118 28.1787 2.88826 30.5004 2.88827Z" fill="black"/>
<g clip-path="url(#clip0_1521_55867)">
<path d="M44.5 3.25C44.5 2.55964 45.0596 2 45.75 2H46.5V10.5H45.75C45.0596 10.5 44.5 9.94036 44.5 9.25V3.25Z" fill="black"/>
<path d="M46.5 2H48.5V10.5H46.5V2Z" fill="black"/>
<path d="M48.5 2H50.5V10.5H48.5V2Z" fill="black"/>
<path d="M50.5 2H52.5V10.5H50.5V2Z" fill="black"/>
<path d="M52.5 2H54.5V10.5H52.5V2Z" fill="black"/>
<path d="M54.5 2H56.5V10.5H54.5V2Z" fill="black"/>
<path d="M56.5 2H58.5V10.5H56.5V2Z" fill="black"/>
<path d="M60.5 3.25C60.5 2.55964 59.9404 2 59.25 2H58.5V10.5H59.25C59.9404 10.5 60.5 9.94036 60.5 9.25V3.25Z" fill="black"/>
</g>
<g opacity="0.5">
<path fill-rule="evenodd" clip-rule="evenodd" d="M42.5 3C42.5 1.34315 43.8431 0 45.5 0H63.5C65.1569 0 66.5 1.34315 66.5 3V9.5C66.5 11.1569 65.1569 12.5 63.5 12.5H45.5C43.8431 12.5 42.5 11.1569 42.5 9.5V3ZM45.5 1C44.3954 1 43.5 1.89543 43.5 3V9.5C43.5 10.6046 44.3954 11.5 45.5 11.5H63.5C64.6046 11.5 65.5 10.6046 65.5 9.5V3C65.5 1.89543 64.6046 1 63.5 1H45.5Z" fill="black"/>
<path d="M67.5 8.54196C68.383 8.15619 69 7.27515 69 6.24999C69 5.22483 68.383 4.34379 67.5 3.95801V8.54196Z" fill="black"/>
</g>
<defs>
<clipPath id="clip0_1521_55867">
<rect width="16" height="8.5" fill="white" transform="translate(44.5 2)"/>
</clipPath>
</defs>
</svg>
