<svg width="15" height="15" viewBox="0 0 15 15" fill="none" xmlns="http://www.w3.org/2000/svg">
<g clip-path="url(#clip0_4_39700)">
<path d="M12.1709 7.83861C12.1224 8.59085 11.8904 9.31975 11.4951 9.9616C11.0999 10.6034 10.5534 11.1387 9.90348 11.5205C9.25356 11.9024 8.52 12.1192 7.76692 12.1521C7.01384 12.185 6.26418 12.0328 5.58347 11.709C4.90277 11.3852 4.31174 10.8996 3.86208 10.2946C3.41241 9.68965 3.11778 8.98372 3.00396 8.23857C2.89015 7.49342 2.96059 6.73173 3.20915 6.02009C3.45771 5.30846 3.87682 4.66854 4.42982 4.1563" stroke="#191D23" stroke-width="0.922943" stroke-linecap="round" stroke-linejoin="round"/>
<path d="M11.9238 6.02358C11.7242 5.45139 11.4138 4.92413 11.0104 4.47189C10.607 4.01965 10.1185 3.65129 9.57272 3.38785C9.02696 3.12441 8.43466 2.97105 7.82963 2.93652C7.2246 2.90198 6.6187 2.98696 6.04651 3.18658L7.56666 7.54373L11.9238 6.02358Z" stroke="#191D23" stroke-width="0.922943" stroke-linecap="round" stroke-linejoin="round"/>
</g>
<defs>
<clipPath id="clip0_4_39700">
<rect width="11.0753" height="11.0753" fill="white" transform="translate(0.513901 4.13934) rotate(-19.2332)"/>
</clipPath>
</defs>
</svg>
