<svg width="20" height="20" viewBox="0 0 20 20" fill="none" xmlns="http://www.w3.org/2000/svg">
<rect x="0.815186" y="5.6601" width="14.7671" height="14.7671" rx="1.84589" transform="rotate(-19.2332 0.815186 5.6601)" fill="#F7F8F9"/>
<path fill-rule="evenodd" clip-rule="evenodd" d="M4.72037 8.45172C4.65041 8.25119 4.75625 8.03191 4.95678 7.96194L5.47908 7.77972C5.97892 7.60534 6.5333 7.79351 6.82371 8.23613L6.98193 8.47728L11.7283 6.82133C12.5594 6.53137 13.3944 7.24143 13.2445 8.10763L12.8693 10.275C12.7978 10.6878 12.5081 11.0295 12.1125 11.1675L9.47586 12.0874C8.97602 12.2618 8.42164 12.0736 8.13123 11.631L6.18065 8.65805C6.08384 8.51051 5.89905 8.44778 5.73244 8.50591L5.21014 8.68814C5.00961 8.7581 4.79033 8.65225 4.72037 8.45172ZM7.41684 9.14013L8.77429 11.2091C8.8711 11.3566 9.05589 11.4193 9.2225 11.3612L11.8592 10.4413C11.991 10.3953 12.0876 10.2814 12.1114 10.1438L12.4866 7.97644C12.5367 7.68695 12.258 7.45112 11.9817 7.54752L7.41684 9.14013Z" fill="#64748B"/>
<path d="M10.1418 13.4842C10.2817 13.8853 10.07 14.3239 9.66895 14.4638C9.26788 14.6037 8.82932 14.392 8.6894 13.9909C8.54947 13.5899 8.76116 13.1513 9.16223 13.0114C9.56329 12.8715 10.0019 13.0832 10.1418 13.4842Z" fill="#64748B"/>
<path d="M13.7727 12.2174C13.9127 12.6185 13.701 13.0571 13.2999 13.197C12.8988 13.3369 12.4603 13.1252 12.3204 12.7242C12.1804 12.3231 12.3921 11.8845 12.7932 11.7446C13.1943 11.6047 13.6328 11.8164 13.7727 12.2174Z" fill="#64748B"/>
</svg>
