<svg width="28" height="27" viewBox="0 0 28 27" fill="none" xmlns="http://www.w3.org/2000/svg">
<rect x="0.893677" y="7.21869" width="20.7662" height="20.7662" rx="10.3831" transform="rotate(-19.2332 0.893677 7.21869)" fill="#D1FAE5"/>
<path fill-rule="evenodd" clip-rule="evenodd" d="M17.5346 15.2514C17.1125 16.1259 16.3568 16.8394 15.3675 17.1846C13.3889 17.8749 11.2254 16.8305 10.5351 14.8519C9.84475 12.8733 10.8891 10.7098 12.8677 10.0195L14.1176 13.602L17.5346 15.2514ZM18.2735 15.6081C17.7601 16.6717 16.8409 17.5394 15.6377 17.9592C13.2314 18.7987 10.6 17.5285 9.76045 15.1222C8.92089 12.7158 10.1911 10.0844 12.5974 9.24486C13.7818 8.83164 15.0207 8.9295 16.0737 9.42237C16.117 9.44266 16.16 9.46362 16.2027 9.48524C17.2205 10.0006 18.0497 10.8917 18.4631 12.0488C18.4706 12.0698 18.4779 12.0909 18.4851 12.112C18.8927 13.306 18.7826 14.5534 18.2735 15.6081Z" fill="#064E3B"/>
</svg>
