<svg width="12" height="12" viewBox="0 0 12 12" fill="none" xmlns="http://www.w3.org/2000/svg">
<path fill-rule="evenodd" clip-rule="evenodd" d="M2.84289 4.30919C2.78254 4.43438 2.73724 4.57792 2.71686 4.69627C2.69009 4.84156 2.68548 4.99225 2.70296 5.14115L2.71609 5.23022C2.91019 6.59693 3.62939 7.62919 5.0521 8.30967C5.98558 8.75616 6.61 8.85561 7.36588 8.70774C7.48837 8.68377 7.6146 8.65383 7.76331 8.61399L8.06771 8.52811C8.23704 8.47868 8.51902 8.39578 8.61551 8.36817C8.74259 8.3318 8.89914 8.25043 9.1026 8.12123L9.13274 8.09969C9.30232 7.96388 9.44025 7.79142 9.53648 7.59178C9.88862 6.86125 9.58218 5.98291 8.85203 5.62997L8.78775 5.60075C8.09844 5.30692 7.29697 5.58166 6.93293 6.23585L6.8901 6.31434L6.67239 6.76599C6.62468 6.86496 6.51271 6.91518 6.40709 6.88497C6.18737 6.82213 5.55887 6.52704 5.38998 6.41066C5.29817 6.34739 5.26615 6.22659 5.31457 6.12618L5.50644 5.72844L5.5245 5.69913L5.54983 5.65138C5.55431 5.64252 5.55884 5.63337 5.56327 5.62417C5.92557 4.87256 5.61029 3.96888 4.85908 3.60576C4.10786 3.24264 3.20518 3.55757 2.84289 4.30919ZM3.45307 4.60413C3.65284 4.18969 4.15058 4.01604 4.5648 4.21627C4.97902 4.41649 5.15287 4.91478 4.95309 5.32922C4.94073 5.35486 4.9272 5.37968 4.91254 5.40363L4.70447 5.83107C4.51075 6.23275 4.63883 6.71598 5.00608 6.96903C5.23591 7.12741 5.9314 7.45395 6.22137 7.53689L6.2766 7.55084C6.68232 7.63988 7.10003 7.43963 7.28257 7.06094L7.48381 6.64329L7.48729 6.63967L7.50691 6.60011C7.69913 6.2126 8.16774 6.05195 8.55775 6.24047C8.95091 6.43052 9.11591 6.90347 8.9263 7.29684L8.89248 7.35973C8.85611 7.4207 8.8122 7.47579 8.76179 7.52413L8.7202 7.56048L8.6443 7.60726L8.56315 7.65382C8.50166 7.68755 8.45589 7.70853 8.42884 7.71627L7.7677 7.90909L7.59176 7.95793L7.43815 7.99744C7.36585 8.01509 7.2995 8.02978 7.23548 8.04231C6.63035 8.16069 6.15203 8.08451 5.34387 7.69796C4.16958 7.13629 3.58673 6.33486 3.40159 5.23124L3.38491 5.1235C3.36562 5.01391 3.36574 4.91364 3.38377 4.81573C3.39428 4.7548 3.42053 4.67164 3.45307 4.60413Z" fill="#B8C0CC"/>
</svg>
