<svg width="15" height="15" viewBox="0 0 15 15" fill="none" xmlns="http://www.w3.org/2000/svg">
<g clip-path="url(#clip0_4_42104)">
<path d="M7.34196 7.43697L8.7101 11.3584M7.34196 7.43697L6.5567 8.68843M7.34196 7.43697L8.73528 7.92836M3.86851 7.23974C3.4926 7.48721 3.21998 7.86343 3.1019 8.29772C2.98381 8.73202 3.02837 9.19448 3.22721 9.59824C3.42606 10.002 3.76549 10.3192 4.18174 10.4904C4.598 10.6615 5.06242 10.6748 5.48775 10.5276L5.92346 10.3756" stroke="black" stroke-width="0.922943" stroke-linecap="round" stroke-linejoin="round"/>
<path d="M8.27085 4.73656C7.91619 4.19881 7.37032 3.81604 6.7439 3.66583C6.11748 3.51563 5.45738 3.60923 4.89741 3.92767C4.33745 4.24611 3.91952 4.76555 3.72834 5.3807C3.53716 5.99586 3.58704 6.66069 3.86786 7.24043C3.86786 7.24043 4.06861 7.60147 4.28099 7.77175" stroke="black" stroke-width="0.922943" stroke-linecap="round" stroke-linejoin="round"/>
<path d="M10.279 8.85559C10.5866 8.74805 10.8678 8.57659 11.1044 8.35251C11.3409 8.12842 11.5273 7.85678 11.6512 7.55547C11.7752 7.25416 11.834 6.93001 11.8236 6.60436C11.8133 6.27871 11.7341 5.95893 11.5913 5.66609C11.4485 5.37325 11.2452 5.11397 10.995 4.90533C10.7447 4.69668 10.4531 4.5434 10.1394 4.45558C9.82563 4.36776 9.49683 4.34738 9.17463 4.39578C8.85243 4.44419 8.54413 4.56028 8.27003 4.73643L7.74556 5.09634" stroke="black" stroke-width="0.922943" stroke-linecap="round" stroke-linejoin="round"/>
</g>
<defs>
<clipPath id="clip0_4_42104">
<rect width="11.0753" height="11.0753" fill="white" transform="translate(0.289185 4.0332) rotate(-19.2332)"/>
</clipPath>
</defs>
</svg>
