<svg width="33" height="34" viewBox="0 0 33 34" fill="none" xmlns="http://www.w3.org/2000/svg">
<path d="M16.8838 25.1006L16.4508 25.3506C12.9867 27.3506 10.7546 27.4845 8.25464 23.1544L5.75464 18.8243C3.75464 15.3602 4.48669 12.6281 7.95079 10.6281L14.879 6.62813C18.3431 4.62813 21.0751 5.36018 23.0751 8.82428L25.5751 13.1544C27.5751 16.6185 26.8431 19.3506 23.379 21.3506L22.946 21.6006C22.6775 21.7556 22.4927 22.0355 22.4532 22.347L22.1541 24.829C22.0225 25.9211 21.0872 26.4611 20.0757 26.029L17.7766 25.047C17.5281 24.9364 17.1176 24.9656 16.8838 25.1006Z" stroke="#858585" stroke-width="1.5" stroke-miterlimit="10" stroke-linecap="round" stroke-linejoin="round"/>
<path d="M19.376 14.4241L19.3838 14.4196" stroke="#858585" stroke-width="2" stroke-linecap="round" stroke-linejoin="round"/>
<path d="M15.9112 16.4246L15.9189 16.4201" stroke="#858585" stroke-width="2" stroke-linecap="round" stroke-linejoin="round"/>
<path d="M12.4461 18.4251L12.4539 18.4206" stroke="#858585" stroke-width="2" stroke-linecap="round" stroke-linejoin="round"/>
</svg>
