<svg width="33" height="33" viewBox="0 0 33 33" fill="none" xmlns="http://www.w3.org/2000/svg">
<path d="M13.3904 16.8682C13.2988 16.9096 13.1949 16.9696 13.1046 17.0332C11.0035 18.1539 8.39168 17.4102 7.19168 15.3317C5.96668 13.21 6.68641 10.4966 8.81683 9.26657C10.9386 8.04157 13.657 8.76996 14.882 10.8917C16.0733 12.9752 15.4115 15.6089 13.3904 16.8682Z" stroke="#858585" stroke-width="1.5" stroke-linecap="round" stroke-linejoin="round"/>
<path d="M16.2342 7.29363C17.9143 6.32363 20.0503 6.90329 21.0153 8.57472C21.9603 10.2115 21.4312 12.2952 19.8467 13.2908C19.7725 13.3221 19.6945 13.3671 19.6216 13.4208" stroke="#858585" stroke-width="1.5" stroke-linecap="round" stroke-linejoin="round"/>
<path d="M10.9053 22.5639C9.61952 25.1768 10.9395 27.4631 13.8403 27.6474C17.1419 27.8659 21.0476 25.6109 22.5092 22.6424C23.795 20.0295 22.475 17.7432 19.5742 17.5589C16.2863 17.344 12.3805 19.599 10.9053 22.5639Z" stroke="#858585" stroke-width="1.5" stroke-linecap="round" stroke-linejoin="round"/>
<path d="M25.9055 20.185C26.4541 19.6951 26.898 19.104 27.1679 18.4516C27.9339 16.6583 26.9689 14.9869 25.0329 14.7537C24.3466 14.6649 23.6264 14.7574 22.9315 14.9739" stroke="#858585" stroke-width="1.5" stroke-linecap="round" stroke-linejoin="round"/>
</svg>
