<svg width="50" height="32" viewBox="0 0 50 32" fill="none" xmlns="http://www.w3.org/2000/svg">
<g id="Property 1=MasterCard">
<g id="MasterCard">
<g id="Group">
<g id="Group_2">
<path id="Vector" d="M29.3664 23.8652H20.6172V8.14136H29.3664V23.8652Z" fill="#FF5F00"/>
<g id="Group_3">
<path id="Vector_2" d="M21.1757 16.002C21.1757 12.8123 22.6692 9.97105 24.9948 8.14004C23.2941 6.80111 21.1478 6.00195 18.8151 6.00195C13.2929 6.00195 8.81641 10.479 8.81641 16.002C8.81641 21.5249 13.2929 26.002 18.8151 26.002C21.1478 26.002 23.2941 25.2028 24.9948 23.8639C22.6692 22.0329 21.1757 19.1916 21.1757 16.002Z" fill="#EB001B"/>
</g>
<g id="Group_4">
<path id="Vector_3" d="M41.1634 16.002C41.1634 21.5249 36.687 26.002 31.1647 26.002C28.832 26.002 26.6857 25.2028 24.9844 23.8639C27.3107 22.0329 28.8041 19.1916 28.8041 16.002C28.8041 12.8123 27.3107 9.97105 24.9844 8.14004C26.6857 6.80111 28.832 6.00195 31.1647 6.00195C36.687 6.00195 41.1634 10.479 41.1634 16.002Z" fill="#F79E1B"/>
</g>
</g>
<g id="Group_5">
<path id="Vector_4" d="M16.3388 16.0652C16.3388 15.6284 16.6251 15.2696 17.0928 15.2696C17.5397 15.2696 17.8414 15.6129 17.8414 16.0652C17.8414 16.5175 17.5397 16.8608 17.0928 16.8608C16.6251 16.8608 16.3388 16.502 16.3388 16.0652ZM18.3508 16.0652V14.8227H17.8105V15.1244C17.6391 14.9006 17.3791 14.7602 17.0256 14.7602C16.3287 14.7602 15.7824 15.3065 15.7824 16.0652C15.7824 16.8245 16.3287 17.3702 17.0256 17.3702C17.3791 17.3702 17.6391 17.2298 17.8105 17.006V17.3078H18.3508V16.0652ZM36.6106 16.0652C36.6106 15.6284 36.8969 15.2696 37.3646 15.2696C37.8121 15.2696 38.1132 15.6129 38.1132 16.0652C38.1132 16.5175 37.8121 16.8608 37.3646 16.8608C36.8969 16.8608 36.6106 16.502 36.6106 16.0652ZM38.6232 16.0652V13.8247H38.0823V15.1244C37.9109 14.9006 37.6509 14.7602 37.2974 14.7602C36.6005 14.7602 36.0542 15.3065 36.0542 16.0652C36.0542 16.8245 36.6005 17.3702 37.2974 17.3702C37.6509 17.3702 37.9109 17.2298 38.0823 17.006V17.3078H38.6232V16.0652ZM25.0581 15.244C25.4063 15.244 25.63 15.4624 25.6871 15.8468H24.3976C24.4553 15.488 24.6731 15.244 25.0581 15.244ZM25.0688 14.7602C24.3404 14.7602 23.831 15.2904 23.831 16.0652C23.831 16.8555 24.3613 17.3702 25.1051 17.3702C25.4794 17.3702 25.8222 17.2768 26.1239 17.0221L25.8591 16.6216C25.6508 16.7876 25.3854 16.8817 25.1361 16.8817C24.788 16.8817 24.4708 16.7204 24.3928 16.2729H26.2382C26.2435 16.2056 26.2489 16.1378 26.2489 16.0652C26.2435 15.2904 25.7651 14.7602 25.0688 14.7602ZM31.5934 16.0652C31.5934 15.6284 31.8797 15.2696 32.3474 15.2696C32.7943 15.2696 33.096 15.6129 33.096 16.0652C33.096 16.5175 32.7943 16.8608 32.3474 16.8608C31.8797 16.8608 31.5934 16.502 31.5934 16.0652ZM33.6054 16.0652V14.8227H33.0651V15.1244C32.8931 14.9006 32.6336 14.7602 32.2802 14.7602C31.5833 14.7602 31.037 15.3065 31.037 16.0652C31.037 16.8245 31.5833 17.3702 32.2802 17.3702C32.6336 17.3702 32.8931 17.2298 33.0651 17.006V17.3078H33.6054V16.0652ZM28.5418 16.0652C28.5418 16.8192 29.0667 17.3702 29.8677 17.3702C30.242 17.3702 30.4913 17.2869 30.7615 17.0739L30.502 16.6371C30.2991 16.7829 30.0861 16.8608 29.8516 16.8608C29.4201 16.8555 29.103 16.5437 29.103 16.0652C29.103 15.5867 29.4201 15.2749 29.8516 15.2696C30.0861 15.2696 30.2991 15.3475 30.502 15.4933L30.7615 15.0565C30.4913 14.8435 30.242 14.7602 29.8677 14.7602C29.0667 14.7602 28.5418 15.3112 28.5418 16.0652ZM35.5085 14.7602C35.1967 14.7602 34.9938 14.906 34.8533 15.1244V14.8227H34.3178V17.3078H34.8587V15.9146C34.8587 15.5034 35.0354 15.2749 35.3889 15.2749C35.4984 15.2749 35.6127 15.2904 35.7269 15.3374L35.8936 14.828C35.7739 14.781 35.618 14.7602 35.5085 14.7602ZM21.0234 15.0202C20.7633 14.8488 20.4051 14.7602 20.01 14.7602C19.3804 14.7602 18.9751 15.0619 18.9751 15.5558C18.9751 15.9611 19.2768 16.211 19.8326 16.289L20.0879 16.3253C20.3843 16.3669 20.5241 16.4449 20.5241 16.5853C20.5241 16.7775 20.3266 16.887 19.9576 16.887C19.5833 16.887 19.3131 16.7674 19.131 16.627L18.8763 17.0477C19.1727 17.2661 19.547 17.3702 19.9522 17.3702C20.6699 17.3702 21.0859 17.0322 21.0859 16.5591C21.0859 16.1223 20.7586 15.8938 20.2176 15.8159L19.963 15.779C19.7291 15.748 19.5416 15.7016 19.5416 15.535C19.5416 15.3529 19.7184 15.244 20.0147 15.244C20.3319 15.244 20.639 15.3636 20.7895 15.457L21.0234 15.0202ZM27.9955 14.7602C27.6837 14.7602 27.4807 14.906 27.3409 15.1244V14.8227H26.8053V17.3078H27.3457V15.9146C27.3457 15.5034 27.5224 15.2749 27.8759 15.2749C27.9854 15.2749 28.0996 15.2904 28.2139 15.3374L28.3805 14.828C28.2609 14.781 28.105 14.7602 27.9955 14.7602ZM23.3841 14.8227H22.5004V14.0687H21.9541V14.8227H21.4501V15.3166H21.9541V16.4502C21.9541 17.0269 22.1779 17.3702 22.817 17.3702C23.0515 17.3702 23.3216 17.2976 23.493 17.178L23.3371 16.715C23.1759 16.8085 22.9991 16.8555 22.8587 16.8555C22.5885 16.8555 22.5004 16.6889 22.5004 16.4395V15.3166H23.3841V14.8227ZM15.3046 17.3078V15.748C15.3046 15.1607 14.9303 14.7655 14.3268 14.7602C14.0097 14.7548 13.6824 14.8536 13.4532 15.2023C13.2819 14.9268 13.0117 14.7602 12.632 14.7602C12.3666 14.7602 12.1071 14.8381 11.9042 15.1291V14.8227H11.3633V17.3078H11.909V15.9301C11.909 15.4987 12.1482 15.2696 12.5178 15.2696C12.8766 15.2696 13.0581 15.5034 13.0581 15.9248V17.3078H13.6044V15.9301C13.6044 15.4987 13.8537 15.2696 14.2126 15.2696C14.5815 15.2696 14.7583 15.5034 14.7583 15.9248V17.3078H15.3046Z" fill="white"/>
</g>
</g>
</g>
</g>
</svg>
