<svg width="50" height="32" viewBox="0 0 50 32" fill="none" xmlns="http://www.w3.org/2000/svg">
<g id="Property 1=Bitcoin" clip-path="url(#clip0_4_1139)">
<g id="Bitcoin">
<rect id="Rectangle" width="50" height="32" rx="3" fill="#EDEDF0"/>
<g id="Group">
<g id="Group_2">
<path id="Vector" d="M14.3315 22.531C14.6317 22.531 14.891 22.5848 15.109 22.6904C15.3279 22.7971 15.5086 22.9407 15.6535 23.1214C15.7965 23.303 15.9029 23.5153 15.9716 23.7585C16.0399 24.0025 16.0741 24.2647 16.0741 24.5454C16.0741 24.9766 15.9951 25.384 15.8356 25.768C15.6761 26.1526 15.4597 26.4862 15.1844 26.7708C14.9093 27.055 14.5845 27.279 14.21 27.4446C13.836 27.6102 13.4294 27.693 12.9929 27.693C12.9365 27.693 12.8372 27.6914 12.697 27.6885C12.5568 27.6856 12.3957 27.6711 12.2153 27.6467C12.0337 27.6214 11.8416 27.5839 11.6389 27.5337C11.4362 27.4845 11.2438 27.4154 11.0625 27.3277L12.6833 20.5176L14.1349 20.2926L13.5546 22.7093C13.6788 22.6533 13.804 22.6099 13.9289 22.5783C14.0539 22.5472 14.1881 22.531 14.3315 22.531ZM13.1139 26.5414C13.3325 26.5414 13.5385 26.4876 13.732 26.382C13.9261 26.2763 14.0936 26.1336 14.2339 25.9558C14.3742 25.7772 14.4853 25.576 14.5662 25.3513C14.6472 25.1265 14.6882 24.8921 14.6882 24.6481C14.6882 24.3484 14.6381 24.1147 14.5382 23.9457C14.4384 23.7774 14.2537 23.6927 13.9855 23.6927C13.8976 23.6927 13.7843 23.7095 13.6439 23.7394C13.503 23.7712 13.3769 23.8373 13.2639 23.9366L12.646 26.5031C12.6833 26.5097 12.7162 26.516 12.7443 26.5219C12.7719 26.5282 12.8023 26.5327 12.8326 26.5359C12.8646 26.5394 12.9013 26.5413 12.9456 26.5413C12.9899 26.5413 13.0453 26.5414 13.1139 26.5414Z" fill="#4D4D4D"/>
<path id="Vector_2" d="M17.5779 27.5621H16.1914L17.3623 22.635H18.7583L17.5779 27.5621ZM18.2526 22.0346C18.0591 22.0346 17.8836 21.977 17.728 21.8616C17.571 21.7469 17.4933 21.5702 17.4933 21.3322C17.4933 21.2012 17.5199 21.0784 17.5726 20.9625C17.6262 20.8468 17.6961 20.7472 17.7838 20.6626C17.8714 20.5786 17.9728 20.5115 18.088 20.461C18.2039 20.4112 18.3272 20.3864 18.4586 20.3864C18.652 20.3864 18.8266 20.444 18.9829 20.5594C19.1385 20.6754 19.2169 20.852 19.2169 21.0888C19.2169 21.2202 19.1904 21.3435 19.1372 21.4592C19.0843 21.5749 19.0143 21.6744 18.9266 21.7591C18.8398 21.8432 18.7374 21.9101 18.6224 21.9601C18.5064 22.0107 18.3836 22.0346 18.2526 22.0346Z" fill="#4D4D4D"/>
<path id="Vector_3" d="M19.9735 21.4082L21.4257 21.1832L21.0691 22.6356H22.6244L22.3436 23.7782H20.7976L20.3858 25.5016C20.3479 25.6453 20.3264 25.7795 20.3204 25.9042C20.3136 26.0294 20.3294 26.137 20.3669 26.2276C20.4041 26.3184 20.4711 26.3883 20.5683 26.4379C20.665 26.4882 20.8034 26.5135 20.985 26.5135C21.1346 26.5135 21.2803 26.4993 21.4212 26.4711C21.5613 26.4433 21.7032 26.4047 21.8469 26.3541L21.9503 27.4224C21.7629 27.4911 21.56 27.5502 21.3414 27.6C21.1224 27.6504 20.8632 27.6747 20.5636 27.6747C20.1329 27.6747 19.7989 27.6107 19.561 27.4834C19.3234 27.3551 19.1555 27.1799 19.055 26.958C18.9558 26.737 18.9115 26.4822 18.9239 26.1951C18.9367 25.9073 18.9801 25.6048 19.055 25.2863L19.9735 21.4082Z" fill="#4D4D4D"/>
<path id="Vector_4" d="M22.5664 25.5955C22.5664 25.1711 22.6351 24.7709 22.7724 24.3962C22.9095 24.0212 23.1069 23.6933 23.3631 23.4119C23.6184 23.1319 23.9295 22.91 24.2955 22.7471C24.6599 22.5852 25.0679 22.5035 25.5175 22.5035C25.7989 22.5035 26.0503 22.5301 26.2714 22.5835C26.4935 22.6373 26.6944 22.7068 26.8761 22.794L26.398 23.8813C26.273 23.8306 26.1434 23.786 26.0093 23.7455C25.8751 23.7042 25.7113 23.6843 25.5176 23.6843C25.0548 23.6843 24.6889 23.8438 24.4167 24.1618C24.1454 24.48 24.0088 24.9083 24.0088 25.4456C24.0088 25.764 24.0775 26.0215 24.2154 26.2185C24.3526 26.4155 24.606 26.5134 24.9739 26.5134C25.1555 26.5134 25.3308 26.4945 25.4986 26.4575C25.6677 26.42 25.8171 26.3728 25.9486 26.317L26.0521 27.4316C25.8767 27.4996 25.6833 27.5611 25.4712 27.6149C25.2586 27.6668 25.0055 27.6937 24.7121 27.6937C24.3247 27.6937 23.9968 27.6371 23.7285 27.5254C23.4602 27.4121 23.2384 27.2616 23.0638 27.071C22.8882 26.8799 22.7621 26.6568 22.6842 26.4007C22.6062 26.1448 22.5664 25.876 22.5664 25.5955Z" fill="#4D4D4D"/>
<path id="Vector_5" d="M28.7251 27.6933C28.3942 27.6933 28.1067 27.6428 27.8629 27.543C27.6198 27.4432 27.4184 27.3031 27.2591 27.1215C27.0996 26.9408 26.9802 26.7267 26.8984 26.48C26.8167 26.2334 26.7773 25.9603 26.7773 25.6611C26.7773 25.2857 26.8376 24.9105 26.9594 24.5363C27.0806 24.1613 27.2605 23.8243 27.4985 23.5249C27.7347 23.2249 28.0261 22.9797 28.3692 22.7885C28.7119 22.5986 29.1061 22.5031 29.5489 22.5031C29.8738 22.5031 30.1597 22.5536 30.4069 22.6534C30.653 22.753 30.8556 22.8942 31.0158 23.0749C31.1743 23.2565 31.2947 23.4697 31.3757 23.7168C31.4572 23.9629 31.4975 24.2367 31.4975 24.5362C31.4975 24.9104 31.438 25.2856 31.32 25.6609C31.2019 26.0344 31.0267 26.3722 30.7953 26.6724C30.5645 26.9718 30.2758 27.2169 29.929 27.4073C29.5827 27.5977 29.1811 27.6933 28.7251 27.6933ZM29.4181 23.6839C29.2125 23.6839 29.0308 23.7436 28.8752 23.8615C28.7191 23.9807 28.5879 24.1306 28.4822 24.3114C28.3753 24.493 28.2961 24.6911 28.2425 24.9063C28.1894 25.122 28.1634 25.326 28.1634 25.5197C28.1634 25.8324 28.2138 26.0758 28.313 26.2511C28.4135 26.4254 28.594 26.5131 28.8565 26.5131C29.0627 26.5131 29.2435 26.4539 29.4 26.3347C29.5553 26.2164 29.6865 26.0664 29.7931 25.8852C29.8993 25.7045 29.9792 25.5059 30.0327 25.2903C30.0851 25.0753 30.1119 24.8702 30.1119 24.6768C30.1119 24.365 30.0617 24.1209 29.9616 23.9459C29.8617 23.7716 29.6803 23.6839 29.4181 23.6839Z" fill="#4D4D4D"/>
<path id="Vector_6" d="M33.0049 27.5621H31.6172L32.7881 22.635H34.1848L33.0049 27.5621ZM33.6785 22.0346C33.4851 22.0346 33.3098 21.977 33.1543 21.8616C32.9982 21.7469 32.9197 21.5702 32.9197 21.3322C32.9197 21.2012 32.9467 21.0784 32.9996 20.9625C33.0524 20.8468 33.1229 20.7472 33.2105 20.6626C33.2976 20.5786 33.4 20.5115 33.515 20.461C33.6302 20.4112 33.7535 20.3864 33.8844 20.3864C34.0783 20.3864 34.2534 20.444 34.4093 20.5594C34.5654 20.6754 34.6441 20.852 34.6441 21.0888C34.6441 21.2202 34.6161 21.3435 34.5637 21.4592C34.5113 21.5749 34.4409 21.6744 34.3536 21.7591C34.2657 21.8432 34.1646 21.9101 34.0494 21.9601C33.9332 22.0107 33.8102 22.0346 33.6785 22.0346Z" fill="#4D4D4D"/>
<path id="Vector_7" d="M35.1849 22.8607C35.2902 22.8299 35.4077 22.7929 35.5355 22.7527C35.6638 22.7124 35.8071 22.6749 35.9672 22.6412C36.1255 22.6064 36.3043 22.5781 36.5008 22.5563C36.6973 22.5339 36.9212 22.5231 37.17 22.5231C37.9013 22.5231 38.4054 22.736 38.6837 23.1606C38.9618 23.5853 39.0099 24.1664 38.8294 24.903L38.1916 27.5634H36.796L37.4141 24.959C37.4518 24.7963 37.4814 24.6391 37.5033 24.4855C37.5254 24.3333 37.5241 24.1991 37.4983 24.083C37.4737 23.9682 37.4156 23.8743 37.3255 23.8016C37.234 23.73 37.0958 23.694 36.9083 23.694C36.7275 23.694 36.5436 23.7134 36.3558 23.7509L35.447 27.5632H34.0508L35.1849 22.8607Z" fill="#4D4D4D"/>
</g>
<g id="Bitcoin_2">
<g id="Group_3">
<path id="Vector_8" d="M31.3022 12.6726C30.4345 16.1528 26.9092 18.2708 23.4282 17.4029C19.9486 16.5352 17.8303 13.0102 18.6985 9.53016C19.5659 6.04956 23.0911 3.93135 26.5711 4.79902C30.0519 5.66668 32.17 9.19215 31.3022 12.6726Z" fill="#F7931A"/>
<path id="Vector_9" d="M27.8635 10.1755C27.9928 9.31111 27.3346 8.84642 26.4345 8.53642L26.7265 7.36546L26.0137 7.18782L25.7294 8.32793C25.542 8.28124 25.3495 8.23718 25.1583 8.19354L25.4446 7.04592L24.7321 6.86829L24.4399 8.03884C24.2848 8.00352 24.1325 7.9686 23.9847 7.93186L23.9855 7.9282L23.0025 7.68276L22.8128 8.44405C22.8128 8.44405 23.3417 8.56525 23.3306 8.57276C23.6193 8.64483 23.6715 8.83586 23.6627 8.9873L23.3302 10.3213C23.3501 10.3264 23.3758 10.3337 23.4043 10.345C23.3805 10.3391 23.3551 10.3327 23.3289 10.3264L22.8628 12.1951C22.8274 12.2828 22.7379 12.4143 22.5361 12.3644C22.5432 12.3747 22.018 12.2351 22.018 12.2351L21.6641 13.051L22.5917 13.2822C22.7643 13.3254 22.9334 13.3707 23.0999 13.4133L22.8049 14.5977L23.5169 14.7753L23.8091 13.6036C24.0036 13.6563 24.1924 13.7051 24.3772 13.7509L24.0861 14.9172L24.7989 15.0949L25.0939 13.9127C26.3095 14.1427 27.2235 14.05 27.6083 12.9507C27.9183 12.0655 27.5928 11.555 26.9533 11.222C27.4191 11.1146 27.7699 10.8083 27.8635 10.1755ZM26.2348 12.4592C26.0145 13.3443 24.524 12.8658 24.0408 12.7458L24.4322 11.1768C24.9154 11.2974 26.465 11.5361 26.2348 12.4592ZM26.4553 10.1627C26.2542 10.9679 25.0137 10.5588 24.6113 10.4585L24.9662 9.03542C25.3686 9.13571 26.6646 9.32288 26.4553 10.1627Z" fill="white"/>
</g>
</g>
</g>
</g>
</g>
<defs>
<clipPath id="clip0_4_1139">
<rect width="50" height="32" fill="white"/>
</clipPath>
</defs>
</svg>
