<svg width="13" height="12" viewBox="0 0 13 12" fill="none" xmlns="http://www.w3.org/2000/svg">
<path fill-rule="evenodd" clip-rule="evenodd" d="M4.72816 3.26839C4.82117 2.65801 5.55924 2.4005 6.01176 2.82056L10.4327 6.92435C10.8575 7.31866 10.71 8.0233 10.1628 8.21423L4.83319 10.0737C4.28595 10.2646 3.73218 9.80458 3.81949 9.2316L4.72816 3.26839ZM9.90942 7.48804L5.48851 3.38425L4.57983 9.34746L9.90942 7.48804Z" fill="#B91C1C"/>
<path d="M5.74142 5.27657C5.67145 5.07604 5.7773 4.85676 5.97783 4.78679C6.17837 4.71683 6.39765 4.82268 6.46761 5.02321L6.97433 6.47559C7.04429 6.67612 6.93844 6.8954 6.73791 6.96537C6.53738 7.03533 6.3181 6.92948 6.24813 6.72895L5.74142 5.27657Z" fill="#B91C1C"/>
<path d="M7.35436 7.56488C7.42433 7.76541 7.31848 7.98469 7.11795 8.05465C6.91742 8.12462 6.69814 8.01877 6.62817 7.81824C6.55821 7.6177 6.66406 7.39843 6.86459 7.32846C7.06512 7.2585 7.2844 7.36435 7.35436 7.56488Z" fill="#B91C1C"/>
</svg>
