<svg width="33" height="34" viewBox="0 0 33 34" fill="none" xmlns="http://www.w3.org/2000/svg">
<rect x="0.574371" y="9.04892" width="25.3809" height="25.3809" rx="12.6905" transform="rotate(-19.2332 0.574371 9.04892)" fill="#D1FAE5"/>
<path fill-rule="evenodd" clip-rule="evenodd" d="M16.5619 16.3268C16.9779 16.1817 17.3192 15.8772 17.5107 15.4804C17.7023 15.0836 17.7283 14.627 17.5832 14.211C17.4381 13.795 17.1336 13.4537 16.7368 13.2621C16.34 13.0706 15.8834 13.0445 15.4674 13.1897C15.0514 13.3348 14.7101 13.6393 14.5185 14.0361C14.327 14.4329 14.3009 14.8895 14.4461 15.3055C14.5912 15.7215 14.8957 16.0628 15.2925 16.2544C15.6892 16.4459 16.1459 16.472 16.5619 16.3268ZM15.9809 21.808C15.1871 22.085 14.2857 21.651 14.3336 20.8117C14.3626 20.3034 14.4914 19.8059 14.7127 19.3475C14.934 18.889 15.2434 18.4787 15.6233 18.1398C16.0032 17.801 16.4461 17.5402 16.9267 17.3725C17.4074 17.2049 17.9163 17.1335 18.4245 17.1625C18.9328 17.1915 19.4303 17.3203 19.8887 17.5416C20.3472 17.7629 20.7575 18.0723 21.0964 18.4522C21.656 19.0796 21.2202 19.9801 20.4264 20.2571L15.9809 21.808Z" fill="#064E3B"/>
</svg>
