<svg width="27" height="13" viewBox="0 0 27 13" fill="none" xmlns="http://www.w3.org/2000/svg">
<g opacity="0.5">
<path fill-rule="evenodd" clip-rule="evenodd" d="M0.5 3C0.5 1.34315 1.84315 0 3.5 0H21.5C23.1569 0 24.5 1.34315 24.5 3V9.5C24.5 11.1569 23.1569 12.5 21.5 12.5H3.5C1.84315 12.5 0.5 11.1569 0.5 9.5V3ZM3.5 1C2.39543 1 1.5 1.89543 1.5 3V9.5C1.5 10.6046 2.39543 11.5 3.5 11.5H21.5C22.6046 11.5 23.5 10.6046 23.5 9.5V3C23.5 1.89543 22.6046 1 21.5 1H3.5Z" fill="black"/>
<path d="M25.5 8.54196C26.383 8.15619 27 7.27515 27 6.24999C27 5.22483 26.383 4.34379 25.5 3.95801V8.54196Z" fill="black"/>
</g>
</svg>
