<svg width="170" height="74" viewBox="0 0 170 74" fill="none" xmlns="http://www.w3.org/2000/svg">
<rect x="0.403198" y="57.6064" width="173.05" height="16.9089" rx="1.51747" transform="rotate(-19.2332 0.403198 57.6064)" stroke="#D0D5DD" stroke-width="0.433563"/>
<path d="M7.27929 66.1539L5.83965 62.0275L8.41864 61.1278L8.5596 61.5318L6.40185 62.2846L6.89972 63.7117L8.71361 63.0788L8.85458 63.4829L7.04069 64.1157L7.55956 65.6029L9.71731 64.8501L9.85828 65.2542L7.27929 66.1539ZM12.7829 64.2338L12.2321 62.6549C12.1721 62.4829 12.1009 62.331 12.0184 62.1991C11.9353 62.0652 11.8387 61.9574 11.7288 61.8758C11.6201 61.7916 11.4982 61.7398 11.3629 61.7206C11.2295 61.7007 11.0816 61.7191 10.9192 61.7757C10.7702 61.8277 10.6474 61.8995 10.5508 61.9911C10.4561 62.082 10.3866 62.1898 10.3422 62.3145C10.2991 62.4367 10.2815 62.5736 10.2894 62.7251C10.2973 62.8767 10.3319 63.0403 10.3932 63.2161L10.0722 63.2541C9.96153 62.937 9.92395 62.6512 9.95944 62.3967C9.99492 62.1421 10.0908 61.9255 10.247 61.7467C10.4032 61.5679 10.6074 61.4345 10.8595 61.3466C11.0448 61.2819 11.2162 61.2542 11.3738 61.2636C11.5332 61.2722 11.6777 61.3086 11.8072 61.3727C11.9387 61.4361 12.056 61.5206 12.1592 61.626C12.2617 61.7295 12.351 61.8473 12.4271 61.9793C12.5025 62.1094 12.5645 62.2442 12.6132 62.3837L13.207 64.0858L12.7829 64.2338ZM10.5449 65.0146L9.4652 61.9198L9.84632 61.7868L10.1123 62.5491L10.1552 62.5341L10.969 64.8666L10.5449 65.0146ZM15.6356 63.2385C15.4744 63.3355 15.3075 63.4098 15.1348 63.4615C14.964 63.5125 14.8004 63.5288 14.644 63.5105C14.4895 63.4916 14.3539 63.4253 14.2372 63.3118C14.1418 63.2165 14.0709 63.1116 14.0245 62.997C13.9794 62.8799 13.9305 62.7459 13.8778 62.595L12.8891 59.761L13.3074 59.615L14.2902 62.4318C14.3355 62.5617 14.3744 62.6703 14.407 62.7575C14.4408 62.8421 14.4875 62.9116 14.5472 62.9658C14.6606 63.0698 14.7961 63.1082 14.9538 63.081C15.1134 63.0532 15.2977 62.9825 15.5066 62.8689L15.6356 63.2385ZM12.653 61.2126L12.527 60.8516L14.5558 60.1437L14.6818 60.5048L12.653 61.2126ZM17.4729 62.6939C17.1711 62.7992 16.886 62.8237 16.6178 62.7673C16.3514 62.7102 16.1148 62.5817 15.9079 62.3817C15.701 62.1818 15.5405 61.9184 15.4266 61.5918C15.3086 61.2536 15.2668 60.9404 15.3012 60.6519C15.3356 60.3635 15.4383 60.1144 15.6094 59.9047C15.7825 59.6944 16.018 59.5372 16.316 59.4332C16.6217 59.3266 16.9071 59.3063 17.1723 59.3723C17.4368 59.4365 17.6701 59.5801 17.8722 59.8031C18.0744 60.0262 18.234 60.3209 18.351 60.6872L17.9212 60.8372L17.8692 60.6881C17.7216 60.2896 17.529 60.0172 17.2915 59.8707C17.0559 59.7237 16.7796 59.7054 16.4624 59.8161C16.13 59.932 15.9127 60.1289 15.8103 60.4068C15.7099 60.684 15.7293 61.0222 15.8686 61.4215C16.0046 61.8112 16.1981 62.0833 16.4492 62.2379C16.7015 62.3899 16.99 62.4092 17.3148 62.2959C17.5364 62.2186 17.7116 62.1006 17.8406 61.9421C17.9708 61.7809 18.05 61.5872 18.0782 61.3609L18.5238 61.3759C18.4955 61.6879 18.388 61.96 18.2012 62.1924C18.0156 62.4221 17.7728 62.5893 17.4729 62.6939ZM15.7606 61.591L15.6376 61.2385L18.0017 60.4137L18.1247 60.7662L15.7606 61.591ZM19.4858 61.8952L18.4061 58.8004L18.7844 58.6685L19.0443 59.4135L18.9358 59.3421C18.9382 59.2384 18.9538 59.1387 18.9825 59.0429C19.0106 58.9453 19.0484 58.8603 19.096 58.7879C19.1516 58.6893 19.2266 58.6031 19.3209 58.5295C19.4145 58.454 19.5148 58.3943 19.6217 58.3506C19.7279 58.305 19.8299 58.278 19.9277 58.2696L20.0657 58.665C19.943 58.6757 19.8174 58.712 19.689 58.7739C19.5606 58.8359 19.4561 58.9323 19.3754 59.0634C19.3002 59.1796 19.2565 59.3031 19.2442 59.4338C19.2313 59.5626 19.2382 59.693 19.265 59.8251C19.2912 59.9553 19.3255 60.0815 19.3682 60.2037L19.9071 61.7483L19.4858 61.8952ZM23.6138 60.5515C23.3808 60.6328 23.1703 60.6591 22.9824 60.6303C22.7964 60.6009 22.6399 60.5302 22.513 60.418C22.386 60.3059 22.2938 60.1677 22.2365 60.0034C22.1779 59.8353 22.1613 59.6803 22.1869 59.5386C22.2136 59.3942 22.272 59.2635 22.3618 59.1464C22.4536 59.0287 22.5699 58.9228 22.7106 58.8287C22.8539 58.7358 23.0152 58.6421 23.1943 58.5474C23.3747 58.4502 23.5519 58.3594 23.7261 58.2751C23.9015 58.1882 24.0543 58.1102 24.1845 58.0412L24.0675 58.1849C23.9666 57.8773 23.8284 57.6716 23.6529 57.5678C23.4774 57.464 23.2359 57.4658 22.9283 57.5731C22.7162 57.6471 22.5533 57.7575 22.4396 57.9043C22.3277 58.0505 22.2781 58.2371 22.2909 58.464L21.8391 58.4866C21.8132 58.185 21.8805 57.9204 22.0412 57.6929C22.2018 57.4655 22.4531 57.2921 22.7951 57.1728C23.0778 57.0741 23.3362 57.044 23.5703 57.0823C23.8056 57.118 23.9994 57.2219 24.1515 57.3938C24.221 57.4703 24.2808 57.5619 24.331 57.6687C24.3811 57.7755 24.4261 57.8862 24.4661 58.0008L25.137 59.9236L24.7616 60.0546L24.4906 59.278L24.6155 59.2859C24.6031 59.5881 24.5104 59.8476 24.3375 60.0643C24.1645 60.2811 23.9233 60.4435 23.6138 60.5515ZM23.5356 60.1705C23.7323 60.1019 23.8919 60.0066 24.0144 59.8846C24.1368 59.7626 24.2216 59.6248 24.2687 59.4712C24.3152 59.3157 24.3248 59.1559 24.2976 58.9918C24.2858 58.8845 24.2603 58.7713 24.2208 58.6521C24.1808 58.5311 24.1504 58.441 24.1297 58.3818L24.3192 58.4089C24.1826 58.478 24.0336 58.5514 23.8721 58.6292C23.7126 58.7063 23.5559 58.7855 23.4022 58.867C23.2504 58.9479 23.1156 59.0281 22.9977 59.1078C22.9184 59.1633 22.8458 59.2283 22.7796 59.3028C22.7128 59.3754 22.6656 59.4583 22.6381 59.5515C22.6126 59.644 22.6191 59.7456 22.6578 59.8564C22.6891 59.9462 22.7414 60.0255 22.8146 60.0942C22.8898 60.1623 22.9867 60.2067 23.1054 60.2274C23.226 60.2475 23.3694 60.2285 23.5356 60.1705ZM28.2609 58.9301C27.9725 59.0308 27.701 59.0451 27.4466 58.9732C27.1916 58.8993 26.9666 58.7581 26.7717 58.5497C26.5769 58.3412 26.4255 58.0823 26.3175 57.7728C26.2102 57.4652 26.167 57.1696 26.188 56.8858C26.2109 56.6014 26.2986 56.3522 26.4512 56.1383C26.6037 55.9243 26.8213 55.7681 27.104 55.6694C27.3944 55.5681 27.6636 55.5535 27.9116 55.6255C28.1596 55.6976 28.3772 55.8392 28.5644 56.0503C28.7529 56.2588 28.9018 56.5197 29.0111 56.833C29.1184 57.1406 29.1648 57.4362 29.1501 57.7199C29.1349 58.0017 29.0542 58.2495 28.9081 58.4633C28.7613 58.6752 28.5456 58.8308 28.2609 58.9301ZM28.167 58.5226C28.3866 58.4459 28.5495 58.3291 28.6554 58.1721C28.7614 58.0152 28.817 57.8308 28.8224 57.6189C28.8271 57.4051 28.7878 57.1788 28.7045 56.94C28.6198 56.6974 28.5098 56.4958 28.3745 56.3351C28.2385 56.1726 28.0805 56.0637 27.9006 56.0087C27.7226 55.9529 27.5256 55.9627 27.3098 56.038C27.0882 56.1153 26.9238 56.2337 26.8166 56.3933C26.7094 56.5528 26.6531 56.7385 26.6477 56.9504C26.6443 57.1616 26.6832 57.3838 26.7645 57.6168C26.8465 57.8518 26.9558 58.0515 27.0925 58.216C27.2304 58.3779 27.39 58.4883 27.5712 58.5472C27.7525 58.6061 27.9511 58.5979 28.167 58.5226ZM29.2453 58.4903L28.4325 56.1606L28.3867 56.1766L27.7599 54.3799L28.184 54.2319L29.6236 58.3583L29.2453 58.4903ZM31.343 57.8549C31.1099 57.9362 30.8994 57.9625 30.7115 57.9337C30.5256 57.9043 30.3691 57.8336 30.2421 57.7214C30.1151 57.6093 30.023 57.4711 29.9657 57.3068C29.907 57.1387 29.8904 56.9837 29.916 56.842C29.9428 56.6976 30.0011 56.5669 30.091 56.4498C30.1828 56.3321 30.299 56.2262 30.4398 56.1321C30.5831 56.0392 30.7443 55.9455 30.9234 55.8508C31.1038 55.7536 31.2811 55.6628 31.4552 55.5785C31.6306 55.4916 31.7834 55.4137 31.9136 55.3446L31.7966 55.4883C31.6957 55.1807 31.5575 54.975 31.382 54.8712C31.2065 54.7674 30.965 54.7692 30.6574 54.8765C30.4454 54.9505 30.2825 55.0609 30.1687 55.2077C30.0568 55.3539 30.0073 55.5405 30.02 55.7674L29.5683 55.7901C29.5423 55.4884 29.6097 55.2238 29.7703 54.9963C29.9309 54.7689 30.1822 54.5955 30.5242 54.4762C30.8069 54.3775 31.0653 54.3474 31.2994 54.3857C31.5348 54.4215 31.7285 54.5253 31.8806 54.6972C31.9502 54.7737 32.01 54.8653 32.0601 54.9721C32.1102 55.0789 32.1553 55.1896 32.1953 55.3043L32.8661 57.227L32.4907 57.358L32.2198 56.5814L32.3447 56.5893C32.3322 56.8915 32.2395 57.151 32.0666 57.3677C31.8937 57.5845 31.6524 57.7469 31.343 57.8549ZM31.2647 57.4739C31.4615 57.4053 31.6211 57.31 31.7435 57.188C31.866 57.066 31.9507 56.9282 31.9979 56.7746C32.0443 56.6191 32.0539 56.4593 32.0267 56.2952C32.015 56.1879 31.9894 56.0747 31.95 55.9556C31.9099 55.8345 31.8795 55.7444 31.8589 55.6852L32.0483 55.7123C31.9117 55.7814 31.7627 55.8548 31.6012 55.9326C31.4417 56.0097 31.2851 56.089 31.1314 56.1704C30.9796 56.2513 30.8447 56.3315 30.7268 56.4112C30.6476 56.4667 30.5749 56.5317 30.5088 56.6062C30.4419 56.6788 30.3948 56.7617 30.3673 56.8549C30.3417 56.9474 30.3482 57.049 30.3869 57.1598C30.4182 57.2496 30.4705 57.3289 30.5438 57.3976C30.619 57.4657 30.7159 57.5101 30.8345 57.5308C30.9551 57.5509 31.0985 57.5319 31.2647 57.4739ZM35.297 56.3789C35.1358 56.4759 34.9689 56.5502 34.7962 56.6019C34.6254 56.6529 34.4619 56.6692 34.3055 56.6509C34.151 56.632 34.0154 56.5657 33.8986 56.4521C33.8032 56.3569 33.7323 56.2519 33.6859 56.1374C33.6408 56.0203 33.5919 55.8863 33.5392 55.7354L32.5505 52.9013L32.9689 52.7554L33.9516 55.5722C33.9969 55.7021 34.0359 55.8107 34.0685 55.8979C34.1023 55.9825 34.149 56.0519 34.2086 56.1061C34.322 56.2101 34.4576 56.2486 34.6153 56.2214C34.7749 56.1936 34.9591 56.1229 35.168 56.0093L35.297 56.3789ZM32.3144 54.353L32.1885 53.9919L34.2173 53.2841L34.3433 53.6452L32.3144 54.353ZM37.1344 55.8343C36.8325 55.9396 36.5475 55.9641 36.2792 55.9077C36.0129 55.8506 35.7762 55.7221 35.5693 55.5221C35.3624 55.3221 35.202 55.0588 35.088 54.7322C34.97 54.394 34.9282 54.0807 34.9626 53.7923C34.997 53.5039 35.0997 53.2548 35.2709 53.0451C35.4439 52.8347 35.6794 52.6776 35.9775 52.5736C36.2831 52.467 36.5685 52.4467 36.8337 52.5127C37.0983 52.5769 37.3316 52.7205 37.5337 52.9435C37.7358 53.1666 37.8954 53.4613 38.0125 53.8276L37.5826 53.9775L37.5307 53.8285C37.3831 53.43 37.1905 53.1575 36.953 53.0111C36.7174 52.864 36.441 52.8458 36.1239 52.9564C35.7915 53.0724 35.5741 53.2693 35.4718 53.5472C35.3713 53.8244 35.3907 54.1626 35.53 54.5619C35.666 54.9516 35.8595 55.2237 36.1106 55.3783C36.3629 55.5302 36.6514 55.5496 36.9762 55.4363C37.1978 55.359 37.3731 55.241 37.5021 55.0825C37.6323 54.9213 37.7115 54.7276 37.7397 54.5013L38.1852 54.5162C38.157 54.8283 38.0494 55.1004 37.8626 55.3327C37.677 55.5625 37.4343 55.7297 37.1344 55.8343ZM35.422 54.7313L35.2991 54.3789L37.6631 53.5541L37.7861 53.9065L35.422 54.7313Z" fill="#64748B"/>
<path fill-rule="evenodd" clip-rule="evenodd" d="M160.368 13.8114C161.876 13.2855 162.671 11.6374 162.145 10.1301C161.619 8.62289 159.971 7.82732 158.464 8.35318C156.957 8.87903 156.161 10.5272 156.687 12.0344C157.213 13.5416 158.861 14.3372 160.368 13.8114ZM160.606 14.4936C162.49 13.8363 163.485 11.7761 162.828 9.89209C162.17 8.00804 160.11 7.01359 158.226 7.6709C156.342 8.32822 155.347 10.3884 156.005 12.2724C156.662 14.1565 158.722 15.1509 160.606 14.4936Z" fill="#64748B"/>
<path d="M158.821 9.37659C158.633 9.44232 158.533 9.64834 158.599 9.83674L159.194 11.5424C159.26 11.7308 159.466 11.8303 159.654 11.7645L161.019 11.2885C161.207 11.2227 161.307 11.0167 161.241 10.8283C161.175 10.6399 160.969 10.5405 160.781 10.6062L159.757 10.9632L159.281 9.5987C159.215 9.4103 159.009 9.31085 158.821 9.37659Z" fill="#64748B"/>
</svg>
