<svg width="171" height="74" viewBox="0 0 171 74" fill="none" xmlns="http://www.w3.org/2000/svg">
<rect x="0.884384" y="57.3414" width="173.05" height="16.9089" rx="1.51747" transform="rotate(-19.2332 0.884384 57.3414)" stroke="#D0D5DD" stroke-width="0.433563"/>
<path d="M7.76047 65.889L6.32083 61.7626L6.74493 61.6146L10.197 64.2032L9.01731 60.8218L9.44141 60.6739L10.8811 64.8003L10.457 64.9482L7.00387 62.3568L8.18457 65.741L7.76047 65.889ZM12.5993 64.2972C12.3662 64.3785 12.1557 64.4048 11.9678 64.3761C11.7819 64.3467 11.6254 64.2759 11.4984 64.1638C11.3714 64.0517 11.2793 63.9134 11.2219 63.7492C11.1633 63.581 11.1467 63.4261 11.1723 63.2843C11.1991 63.14 11.2574 63.0093 11.3473 62.8922C11.439 62.7745 11.5553 62.6685 11.696 62.5744C11.8394 62.4816 12.0006 62.3878 12.1797 62.2932C12.3601 62.196 12.5374 62.1052 12.7115 62.0209C12.8869 61.934 13.0397 61.856 13.1699 61.787L13.0529 61.9307C12.952 61.623 12.8138 61.4173 12.6383 61.3135C12.4628 61.2098 12.2213 61.2115 11.9137 61.3188C11.7017 61.3928 11.5387 61.5032 11.425 61.6501C11.3131 61.7962 11.2636 61.9828 11.2763 62.2098L10.8246 62.2324C10.7986 61.9307 10.8659 61.6662 11.0266 61.4387C11.1872 61.2112 11.4385 61.0378 11.7805 60.9185C12.0632 60.8199 12.3216 60.7897 12.5557 60.8281C12.7911 60.8638 12.9848 60.9677 13.1369 61.1396C13.2064 61.216 13.2663 61.3077 13.3164 61.4145C13.3665 61.5213 13.4116 61.632 13.4516 61.7466L14.1224 63.6694L13.747 63.8004L13.4761 63.0238L13.601 63.0317C13.5885 63.3339 13.4958 63.5933 13.3229 63.8101C13.1499 64.0269 12.9087 64.1892 12.5993 64.2972ZM12.521 63.9163C12.7178 63.8477 12.8774 63.7523 12.9998 63.6303C13.1222 63.5083 13.207 63.3705 13.2542 63.2169C13.3006 63.0614 13.3102 62.9016 13.283 62.7376C13.2713 62.6302 13.2457 62.517 13.2063 62.3979C13.1662 62.2769 13.1358 62.1868 13.1152 62.1275L13.3046 62.1547C13.168 62.2238 13.019 62.2972 12.8575 62.3749C12.698 62.452 12.5414 62.5313 12.3877 62.6128C12.2359 62.6936 12.101 62.7739 11.9831 62.8536C11.9039 62.9091 11.8312 62.9741 11.765 63.0486C11.6982 63.1212 11.6511 63.2041 11.6236 63.2972C11.598 63.3897 11.6045 63.4914 11.6432 63.6022C11.6745 63.692 11.7268 63.7712 11.8001 63.84C11.8752 63.908 11.9722 63.9524 12.0908 63.9732C12.2114 63.9932 12.3548 63.9743 12.521 63.9163ZM18.5592 62.1214L17.8532 60.0888C17.7699 59.85 17.6377 59.6861 17.4567 59.5971C17.2769 59.5056 17.0848 59.4954 16.8804 59.5668C16.7638 59.6074 16.6595 59.6738 16.5674 59.766C16.4752 59.8581 16.4135 59.9761 16.3823 60.1198C16.3529 60.2629 16.3715 60.43 16.4382 60.621L16.1639 60.6364C16.0808 60.4168 16.0562 60.2079 16.0899 60.0097C16.1255 59.8108 16.2085 59.6372 16.3389 59.4889C16.4705 59.3379 16.6395 59.2265 16.8458 59.1545C17.1572 59.0459 17.4402 59.0554 17.6947 59.183C17.9486 59.3087 18.1325 59.5349 18.2465 59.8616L18.9804 61.9745L18.5592 62.1214ZM14.8655 63.4101L13.7858 60.3153L14.164 60.1834L14.43 60.9456L14.4758 60.9296L15.2896 63.2622L14.8655 63.4101ZM16.7166 62.7643L16.0207 60.7603C15.9347 60.5138 15.8011 60.3429 15.62 60.2476C15.4401 60.1496 15.2432 60.1379 15.0292 60.2126C14.8153 60.2872 14.668 60.4211 14.5875 60.6142C14.5064 60.8054 14.5081 61.0223 14.5928 61.2649L14.2926 61.2153C14.2233 61.0166 14.2081 60.8226 14.2471 60.6333C14.2854 60.4421 14.37 60.2733 14.5011 60.1268C14.6315 59.9785 14.7998 59.8683 15.0062 59.7963C15.2029 59.7277 15.3924 59.7087 15.5745 59.7395C15.7586 59.7695 15.9226 59.8495 16.0664 59.9793C16.2103 60.1091 16.3222 60.2886 16.4022 60.5179L17.1321 62.6193L16.7166 62.7643ZM21.0491 61.3492C20.7473 61.4545 20.4622 61.4789 20.194 61.4225C19.9276 61.3654 19.691 61.2369 19.4841 61.037C19.2772 60.837 19.1167 60.5737 19.0028 60.247C18.8848 59.9089 18.843 59.5956 18.8774 59.3072C18.9118 59.0187 19.0145 58.7697 19.1856 58.56C19.3587 58.3496 19.5942 58.1924 19.8922 58.0885C20.1979 57.9818 20.4833 57.9615 20.7485 58.0276C21.013 58.0917 21.2463 58.2353 21.4484 58.4584C21.6506 58.6814 21.8101 58.9761 21.9272 59.3424L21.4974 59.4924L21.4454 59.3434C21.2978 58.9449 21.1052 58.6724 20.8677 58.526C20.6321 58.3789 20.3558 58.3607 20.0386 58.4713C19.7062 58.5873 19.4889 58.7842 19.3865 59.062C19.2861 59.3392 19.3055 59.6775 19.4448 60.0767C19.5808 60.4664 19.7743 60.7386 20.0253 60.8931C20.2777 61.0451 20.5662 61.0644 20.891 60.9511C21.1126 60.8738 21.2878 60.7559 21.4168 60.5973C21.547 60.4362 21.6262 60.2425 21.6544 60.0162L22.1 60.0311C22.0717 60.3431 21.9642 60.6153 21.7774 60.8476C21.5918 61.0773 21.349 61.2445 21.0491 61.3492ZM19.3368 60.2462L19.2138 59.8937L21.5779 59.0689L21.7009 59.4214L19.3368 60.2462ZM25.5317 59.7853C25.2242 59.8926 24.9372 59.9145 24.6707 59.851C24.4043 59.7875 24.1698 59.6529 23.9673 59.4471C23.7648 59.2413 23.6079 58.9789 23.4966 58.6599C23.3833 58.3351 23.3432 58.0298 23.3763 57.744C23.4094 57.4581 23.5112 57.2094 23.6817 56.9978C23.8534 56.7836 24.0902 56.6238 24.392 56.5185C24.7015 56.4106 24.9894 56.3883 25.2559 56.4518C25.5236 56.5127 25.7577 56.6464 25.9583 56.8528C26.1601 57.0567 26.3167 57.3181 26.428 57.6372C26.5413 57.9619 26.5827 58.2678 26.5522 58.5549C26.5209 58.8401 26.4195 59.0898 26.2478 59.304C26.0761 59.5182 25.8374 59.6786 25.5317 59.7853ZM25.3908 59.3812C25.7346 59.2612 25.951 59.0583 26.0398 58.7723C26.1279 58.4844 26.1083 58.158 25.981 57.7931C25.8504 57.4187 25.6614 57.1503 25.414 56.988C25.1686 56.8251 24.8749 56.8033 24.533 56.9226C24.3018 57.0032 24.1291 57.1224 24.0149 57.2801C23.9018 57.4353 23.8404 57.6185 23.8305 57.8298C23.8219 58.0385 23.8596 58.2632 23.9436 58.5039C24.0736 58.8765 24.2638 59.1454 24.5144 59.3109C24.7643 59.4744 25.0564 59.4978 25.3908 59.3812ZM27.9076 58.8599L26.7479 55.5359C26.7199 55.4556 26.6961 55.375 26.6764 55.294C26.6586 55.2124 26.6508 55.1315 26.6529 55.0515C26.6543 54.9696 26.673 54.8881 26.709 54.8069C26.748 54.7162 26.7995 54.6425 26.8633 54.586C26.9265 54.5275 26.9965 54.4795 27.0734 54.4419C27.1522 54.4037 27.2308 54.371 27.3091 54.3436L27.7046 54.2057L27.8285 54.561L27.4617 54.689C27.3013 54.7449 27.1946 54.8261 27.1417 54.9324C27.0907 55.0381 27.0945 55.1749 27.1532 55.3431L28.3289 58.7129L27.9076 58.8599ZM26.418 56.3131L26.292 55.9521L28.0945 55.3232L28.2204 55.6843L26.418 56.3131ZM32.1195 57.4869C31.8177 57.5922 31.5326 57.6166 31.2644 57.5602C30.998 57.5031 30.7614 57.3746 30.5545 57.1746C30.3476 56.9747 30.1871 56.7114 30.0732 56.3847C29.9552 56.0466 29.9134 55.7333 29.9478 55.4449C29.9822 55.1564 30.0849 54.9074 30.256 54.6977C30.4291 54.4873 30.6646 54.3301 30.9626 54.2261C31.2683 54.1195 31.5537 54.0992 31.8189 54.1653C32.0834 54.2294 32.3167 54.373 32.5188 54.5961C32.721 54.8191 32.8806 55.1138 32.9976 55.4801L32.5678 55.6301L32.5158 55.4811C32.3682 55.0825 32.1756 54.8101 31.9381 54.6637C31.7025 54.5166 31.4262 54.4983 31.109 54.609C30.7766 54.725 30.5593 54.9219 30.4569 55.1997C30.3565 55.4769 30.3759 55.8151 30.5152 56.2144C30.6512 56.6041 30.8447 56.8763 31.0958 57.0308C31.3481 57.1828 31.6366 57.2021 31.9614 57.0888C32.183 57.0115 32.3583 56.8936 32.4872 56.735C32.6174 56.5738 32.6966 56.3801 32.7248 56.1539L33.1704 56.1688C33.1421 56.4808 33.0346 56.753 32.8478 56.9853C32.6622 57.215 32.4194 57.3822 32.1195 57.4869ZM30.4072 56.3839L30.2842 56.0314L32.6483 55.2066L32.7713 55.5591L30.4072 56.3839ZM34.8572 56.4353L32.6542 53.7324L33.0812 53.5834L34.8831 55.8091L34.9037 52.9476L35.3364 52.7966L35.2928 56.2833L34.8572 56.4353ZM38.1584 55.38C37.8566 55.4853 37.5716 55.5097 37.3033 55.4533C37.0369 55.3962 36.8003 55.2677 36.5934 55.0677C36.3865 54.8678 36.2261 54.6045 36.1121 54.2778C35.9941 53.9397 35.9523 53.6264 35.9867 53.338C36.0211 53.0495 36.1238 52.8005 36.2949 52.5908C36.468 52.3804 36.7035 52.2232 37.0015 52.1192C37.3072 52.0126 37.5926 51.9923 37.8578 52.0584C38.1223 52.1225 38.3556 52.2661 38.5578 52.4892C38.7599 52.7122 38.9195 53.0069 39.0365 53.3732L38.6067 53.5232L38.5547 53.3742C38.4071 52.9757 38.2146 52.7032 37.977 52.5568C37.7414 52.4097 37.4651 52.3914 37.148 52.5021C36.8156 52.6181 36.5982 52.815 36.4958 53.0928C36.3954 53.37 36.4148 53.7082 36.5541 54.1075C36.6901 54.4972 36.8836 54.7694 37.1347 54.9239C37.387 55.0759 37.6755 55.0952 38.0003 54.9819C38.2219 54.9046 38.3972 54.7867 38.5261 54.6281C38.6563 54.4669 38.7355 54.2732 38.7637 54.047L39.2093 54.0619C39.181 54.3739 39.0735 54.6461 38.8867 54.8784C38.7011 55.1081 38.4584 55.2753 38.1584 55.38ZM36.4461 54.277L36.3231 53.9245L38.6872 53.0997L38.8102 53.4522L36.4461 54.277ZM42.3225 53.8307L41.7717 52.2518C41.7117 52.0799 41.6405 51.9279 41.558 51.796C41.4749 51.6621 41.3783 51.5544 41.2684 51.4727C41.1597 51.3885 41.0378 51.3368 40.9025 51.3175C40.7691 51.2976 40.6212 51.316 40.4589 51.3727C40.3098 51.4247 40.187 51.4964 40.0904 51.588C39.9957 51.6789 39.9262 51.7867 39.8818 51.9115C39.8387 52.0337 39.8211 52.1705 39.829 52.3221C39.8369 52.4736 39.8715 52.6373 39.9328 52.813L39.6118 52.8511C39.5011 52.534 39.4636 52.2481 39.499 51.9936C39.5345 51.7391 39.6304 51.5224 39.7866 51.3436C39.9428 51.1649 40.147 51.0315 40.3991 50.9435C40.5844 50.8789 40.7559 50.8512 40.9134 50.8605C41.0728 50.8692 41.2173 50.9055 41.3468 50.9697C41.4783 51.0331 41.5956 51.1175 41.6988 51.2229C41.8013 51.3265 41.8906 51.4442 41.9667 51.5763C42.0421 51.7064 42.1041 51.8412 42.1528 51.9806L42.7466 53.6828L42.3225 53.8307ZM40.0845 54.6115L39.0048 51.5167L39.3859 51.3838L39.6519 52.146L39.6948 52.131L40.5086 54.4636L40.0845 54.6115ZM45.1752 52.8355C45.014 52.9324 44.8471 53.0067 44.6744 53.0584C44.5036 53.1094 44.34 53.1258 44.1836 53.1075C44.0292 53.0885 43.8935 53.0223 43.7768 52.9087C43.6814 52.8134 43.6105 52.7085 43.5641 52.594C43.519 52.4769 43.4701 52.3429 43.4174 52.1919L42.4287 49.3579L42.847 49.2119L43.8298 52.0288C43.8751 52.1587 43.914 52.2672 43.9466 52.3544C43.9804 52.4391 44.0271 52.5085 44.0868 52.5627C44.2002 52.6667 44.3358 52.7051 44.4934 52.678C44.653 52.6502 44.8373 52.5794 45.0462 52.4658L45.1752 52.8355ZM42.1926 50.8096L42.0666 50.4485L44.0954 49.7407L44.2214 50.1018L42.1926 50.8096Z" fill="#64748B"/>
</svg>
