<svg width="124" height="59" viewBox="0 0 124 59" fill="none" xmlns="http://www.w3.org/2000/svg">
<rect x="0.42194" y="41.1767" width="123.594" height="17.9974" rx="1.61515" transform="rotate(-19.2332 0.42194 41.1767)" stroke="#E7EAEE" stroke-width="0.461471"/>
<path fill-rule="evenodd" clip-rule="evenodd" d="M8.64701 44.9049C7.52403 45.2966 6.93129 46.5246 7.32308 47.6476C7.71487 48.7706 8.94284 49.3633 10.0658 48.9715C10.5225 48.8122 10.8916 48.5145 11.1423 48.1419L12.7491 48.9175C12.9021 48.9913 13.086 48.9272 13.1599 48.7741C13.2337 48.6211 13.1696 48.4372 13.0166 48.3633L11.4098 47.5877C11.5456 47.1596 11.5491 46.6855 11.3897 46.2288C10.998 45.1058 9.76999 44.5131 8.64701 44.9049ZM7.90403 47.4449C7.62418 46.6428 8.04757 45.7657 8.8497 45.4858C9.65183 45.206 10.5289 45.6293 10.8088 46.4315C11.0886 47.2336 10.6653 48.1107 9.86313 48.3906C9.061 48.6704 8.18388 48.247 7.90403 47.4449Z" fill="#64748B"/>
<path d="M19.9569 46.7651C19.6499 46.8722 19.3556 46.9179 19.0741 46.9021C18.7939 46.8835 18.5405 46.8077 18.3139 46.6746C18.0894 46.5408 17.9073 46.3523 17.7677 46.1091L18.1986 45.8732C18.3711 46.1324 18.6036 46.3021 18.8963 46.3825C19.1882 46.4608 19.4978 46.4429 19.8252 46.3287C20.0407 46.2535 20.2222 46.1525 20.3696 46.0259C20.5162 45.8971 20.6164 45.7527 20.67 45.5926C20.7236 45.4325 20.7203 45.266 20.66 45.0932C20.6203 44.9793 20.5662 44.8898 20.4979 44.8247C20.4289 44.7575 20.3516 44.7092 20.266 44.6798C20.1805 44.6503 20.092 44.6322 20.0007 44.6253C19.9086 44.6163 19.821 44.6138 19.738 44.6177L18.5088 44.6736C18.3611 44.6818 18.22 44.6763 18.0856 44.657C17.9504 44.6358 17.8256 44.5984 17.7111 44.5448C17.598 44.4885 17.4981 44.4115 17.4116 44.314C17.3252 44.2164 17.2564 44.0945 17.2053 43.9481C17.1187 43.7 17.109 43.4628 17.176 43.2364C17.243 43.01 17.3723 42.8087 17.5639 42.6323C17.7556 42.456 17.9961 42.3185 18.2856 42.2198C18.5784 42.1176 18.8577 42.0783 19.1237 42.1018C19.3917 42.1247 19.6346 42.2064 19.8525 42.3471C20.0696 42.4857 20.2483 42.6777 20.3886 42.923L19.9487 43.1722C19.8516 42.9917 19.7236 42.8505 19.5648 42.7485C19.4061 42.6465 19.2282 42.5877 19.0311 42.572C18.8354 42.5537 18.6355 42.5789 18.4315 42.6478C18.2343 42.7166 18.0701 42.8116 17.939 42.9326C17.8092 43.0508 17.7194 43.1825 17.6697 43.3276C17.6199 43.4727 17.6206 43.6184 17.6717 43.7648C17.7234 43.9133 17.8056 44.018 17.9182 44.0791C18.0327 44.1395 18.1589 44.1742 18.2966 44.1831C18.4363 44.1914 18.5688 44.192 18.694 44.1848L19.6424 44.1378C19.7404 44.131 19.8575 44.1301 19.9938 44.135C20.1314 44.1371 20.2721 44.1611 20.4157 44.2067C20.5607 44.2497 20.6946 44.3261 20.8174 44.4361C20.9401 44.5461 21.038 44.7058 21.1111 44.9152C21.182 45.1186 21.2049 45.3148 21.1796 45.5038C21.1563 45.6921 21.0906 45.8667 20.9826 46.0275C20.8765 46.1877 20.7358 46.3303 20.5605 46.4553C20.3879 46.5817 20.1867 46.685 19.9569 46.7651ZM23.5847 45.4994C23.2634 45.6115 22.96 45.6376 22.6745 45.5775C22.391 45.5168 22.1391 45.38 21.9189 45.1671C21.6987 44.9543 21.5279 44.674 21.4066 44.3263C21.281 43.9664 21.2365 43.633 21.2731 43.326C21.3097 43.019 21.4191 42.7539 21.6012 42.5307C21.7854 42.3068 22.0361 42.1395 22.3533 42.0288C22.6786 41.9153 22.9824 41.8937 23.2647 41.964C23.5462 42.0323 23.7946 42.1851 24.0097 42.4226C24.2248 42.66 24.3947 42.9736 24.5193 43.3635L24.0618 43.5231L24.0065 43.3645C23.8494 42.9404 23.6444 42.6504 23.3916 42.4945C23.1408 42.338 22.8467 42.3186 22.5091 42.4363C22.1553 42.5598 21.924 42.7693 21.815 43.0651C21.7081 43.3601 21.7288 43.7201 21.8771 44.1451C22.0218 44.5599 22.2278 44.8495 22.495 45.014C22.7635 45.1758 23.0707 45.1964 23.4163 45.0758C23.6522 44.9935 23.8388 44.868 23.976 44.6992C24.1146 44.5277 24.1989 44.3215 24.2289 44.0806L24.7032 44.0965C24.6731 44.4286 24.5586 44.7183 24.3598 44.9656C24.1623 45.2101 23.9039 45.3881 23.5847 45.4994ZM21.7621 44.3255L21.6312 43.9503L24.1475 43.0724L24.2783 43.4476L21.7621 44.3255ZM26.642 44.4328C26.3939 44.5193 26.1699 44.5473 25.9699 44.5167C25.7719 44.4854 25.6054 44.4101 25.4702 44.2908C25.3351 44.1714 25.237 44.0243 25.176 43.8495C25.1136 43.6705 25.0959 43.5056 25.1231 43.3547C25.1516 43.2011 25.2137 43.0619 25.3094 42.9373C25.4071 42.812 25.5308 42.6993 25.6806 42.5991C25.8332 42.5003 26.0048 42.4005 26.1954 42.2998C26.3874 42.1963 26.5761 42.0997 26.7614 42.0099C26.9481 41.9174 27.1108 41.8344 27.2494 41.761L27.1248 41.9139C27.0174 41.5865 26.8703 41.3675 26.6835 41.2571C26.4967 41.1466 26.2396 41.1485 25.9123 41.2627C25.6866 41.3414 25.5132 41.459 25.3921 41.6152C25.273 41.7708 25.2203 41.9694 25.2339 42.211L24.753 42.2351C24.7254 41.914 24.7971 41.6324 24.968 41.3903C25.139 41.1481 25.4065 40.9636 25.7705 40.8366C26.0714 40.7316 26.3465 40.6995 26.5956 40.7403C26.8461 40.7784 27.0523 40.8889 27.2142 41.0719C27.2882 41.1533 27.3519 41.2508 27.4053 41.3645C27.4586 41.4782 27.5066 41.596 27.5491 41.718L28.2631 43.7646L27.8636 43.9039L27.5752 43.0774L27.7081 43.0858C27.6949 43.4074 27.5963 43.6836 27.4122 43.9143C27.2281 44.145 26.9714 44.3179 26.642 44.4328ZM26.5587 44.0274C26.7681 43.9543 26.938 43.8528 27.0683 43.723C27.1986 43.5931 27.2889 43.4464 27.339 43.283C27.3885 43.1175 27.3987 42.9474 27.3697 42.7728C27.3572 42.6585 27.33 42.538 27.288 42.4112C27.2454 42.2824 27.2131 42.1865 27.1911 42.1235L27.3927 42.1523C27.2473 42.2259 27.0887 42.304 26.9169 42.3868C26.7471 42.4688 26.5803 42.5532 26.4167 42.6399C26.2552 42.726 26.1116 42.8114 25.9861 42.8962C25.9018 42.9553 25.8245 43.0245 25.754 43.1038C25.6829 43.1811 25.6327 43.2693 25.6035 43.3684C25.5762 43.4669 25.5832 43.5751 25.6243 43.693C25.6577 43.7886 25.7133 43.873 25.7913 43.9461C25.8713 44.0185 25.9745 44.0658 26.1008 44.0879C26.2291 44.1092 26.3818 44.0891 26.5587 44.0274ZM29.0571 43.4875L27.9079 40.1935L28.3105 40.0531L28.5872 40.8461L28.4717 40.77C28.4742 40.6597 28.4908 40.5535 28.5214 40.4516C28.5513 40.3477 28.5916 40.2572 28.6422 40.1802C28.7014 40.0752 28.7812 39.9835 28.8816 39.9052C28.9812 39.8248 29.088 39.7613 29.2017 39.7148C29.3148 39.6662 29.4234 39.6374 29.5274 39.6285L29.6743 40.0494C29.5437 40.0607 29.4101 40.0994 29.2734 40.1653C29.1367 40.2312 29.0255 40.3339 28.9395 40.4734C28.8595 40.5971 28.813 40.7285 28.8 40.8676C28.7862 41.0047 28.7936 41.1435 28.8221 41.2841C28.8499 41.4227 28.8865 41.557 28.9319 41.6872L29.5055 43.3311L29.0571 43.4875ZM32.594 42.3562C32.2626 42.4718 31.9561 42.4955 31.6746 42.4272C31.393 42.359 31.1468 42.2156 30.9361 41.9972C30.7266 41.7761 30.5606 41.4964 30.4381 41.1583C30.3216 40.8112 30.2789 40.4862 30.3101 40.1834C30.3406 39.8785 30.4455 39.6138 30.6249 39.3893C30.8036 39.1627 31.0566 38.9923 31.384 38.8781C31.7175 38.7618 32.0356 38.742 32.3384 38.8189C32.6432 38.895 32.8907 39.0584 33.0808 39.3091L32.6905 39.6026C32.5444 39.4324 32.3682 39.3228 32.1619 39.2739C31.9568 39.2223 31.7465 39.234 31.531 39.3092C31.289 39.3937 31.1083 39.5195 30.9887 39.6866C30.8684 39.8518 30.804 40.0464 30.7955 40.2706C30.7871 40.4948 30.8265 40.7353 30.9139 40.9923C31.0556 41.3853 31.2578 41.6706 31.5204 41.8481C31.7823 42.0236 32.0902 42.0496 32.444 41.9261C32.6677 41.8481 32.84 41.7309 32.9611 41.5747C33.0836 41.4156 33.151 41.2233 33.1636 40.9977L33.6618 40.9744C33.6419 41.3098 33.541 41.5959 33.3591 41.8327C33.1764 42.0675 32.9214 42.242 32.594 42.3562ZM36.9524 40.733L36.366 39.0524C36.3022 38.8694 36.2264 38.7077 36.1386 38.5673C36.0501 38.4248 35.9474 38.3101 35.8304 38.2232C35.7147 38.1336 35.5849 38.0785 35.4409 38.058C35.2989 38.0368 35.1415 38.0564 34.9687 38.1167C34.8101 38.172 34.6794 38.2484 34.5765 38.3459C34.4757 38.4427 34.4017 38.5574 34.3545 38.6902C34.3087 38.8203 34.2899 38.9659 34.2983 39.1272C34.3067 39.2885 34.3435 39.4627 34.4088 39.6498L34.0671 39.6903C33.9493 39.3528 33.9093 39.0485 33.9471 38.7776C33.9849 38.5067 34.0869 38.2761 34.2532 38.0858C34.4194 37.8955 34.6367 37.7536 34.9051 37.6599C35.1024 37.5911 35.2848 37.5617 35.4525 37.5716C35.6222 37.5808 35.776 37.6195 35.9139 37.6877C36.0537 37.7553 36.1786 37.8451 36.2885 37.9573C36.3976 38.0675 36.4927 38.1929 36.5736 38.3334C36.6539 38.4719 36.7199 38.6154 36.7717 38.7638L37.4038 40.5755L36.9524 40.733ZM34.5703 41.5641L33.038 37.1721L33.4436 37.0305L34.3088 39.5102L34.3545 39.4942L35.0217 41.4066L34.5703 41.5641ZM40.8239 39.4849C40.4965 39.5991 40.1911 39.6224 39.9075 39.5549C39.6239 39.4873 39.3743 39.344 39.1588 39.125C38.9432 38.906 38.7762 38.6267 38.6577 38.2871C38.5371 37.9414 38.4945 37.6165 38.5297 37.3122C38.565 37.008 38.6733 36.7432 38.8548 36.518C39.0375 36.29 39.2895 36.12 39.6108 36.0079C39.9402 35.893 40.2467 35.8693 40.5303 35.9369C40.8152 36.0017 41.0644 36.144 41.2779 36.3637C41.4928 36.5807 41.6594 36.859 41.7779 37.1985C41.8985 37.5442 41.9425 37.8698 41.91 38.1754C41.8768 38.4789 41.7688 38.7447 41.586 38.9727C41.4033 39.2007 41.1492 39.3714 40.8239 39.4849ZM40.6739 39.0549C41.0399 38.9272 41.2701 38.7111 41.3646 38.4067C41.4584 38.1003 41.4376 37.7529 41.3021 37.3645C41.163 36.966 40.9619 36.6804 40.6986 36.5076C40.4374 36.3342 40.1248 36.311 39.7609 36.4379C39.5148 36.5238 39.331 36.6506 39.2094 36.8185C39.0891 36.9837 39.0237 37.1787 39.0132 37.4036C39.004 37.6257 39.0442 37.8649 39.1335 38.1211C39.2719 38.5176 39.4744 38.8039 39.7411 38.98C40.0071 39.154 40.318 39.179 40.6739 39.0549ZM44.3148 38.2567C44.1175 38.3255 43.9341 38.3553 43.7643 38.3461C43.5967 38.3362 43.4429 38.2975 43.303 38.23C43.1652 38.1617 43.0417 38.0725 42.9325 37.9623C42.8227 37.8501 42.7276 37.7248 42.6474 37.5863C42.5664 37.4457 42.5 37.3013 42.4482 37.1528L41.8162 35.3411L42.2676 35.1836L42.8539 36.8642C42.917 37.0452 42.9928 37.2069 43.0813 37.3493C43.1698 37.4918 43.2719 37.6079 43.3875 37.6975C43.5045 37.7844 43.634 37.8385 43.776 37.8597C43.9199 37.8801 44.0784 37.8602 44.2512 37.7999C44.4098 37.7446 44.5395 37.6685 44.6403 37.5718C44.7432 37.4743 44.8175 37.3606 44.8634 37.2305C44.9106 37.0977 44.93 36.9507 44.9216 36.7894C44.9125 36.6261 44.8757 36.4519 44.8111 36.2669L45.1528 36.2263C45.2706 36.5639 45.3106 36.8681 45.2728 37.139C45.235 37.4099 45.133 37.6405 44.9668 37.8308C44.8005 38.0211 44.5832 38.1631 44.3148 38.2567ZM45.3932 37.7881L45.1101 36.9768L45.0644 36.9928L44.1982 34.5101L44.6466 34.3536L45.7958 37.6476L45.3932 37.7881ZM46.6483 37.3502L45.499 34.0562L45.9016 33.9158L46.1783 34.7088L46.0628 34.6327C46.0654 34.5224 46.0819 34.4162 46.1125 34.3143C46.1424 34.2104 46.1827 34.1199 46.2334 34.0429C46.2925 33.9379 46.3723 33.8462 46.4727 33.7678C46.5724 33.6874 46.6791 33.624 46.7929 33.5774C46.9059 33.5289 47.0145 33.5001 47.1186 33.4912L47.2654 33.9121C47.1348 33.9234 47.0012 33.9621 46.8645 34.028C46.7279 34.0939 46.6166 34.1966 46.5307 34.3361C46.4507 34.4598 46.4041 34.5912 46.3911 34.7303C46.3773 34.8674 46.3847 35.0062 46.4132 35.1468C46.4411 35.2854 46.4777 35.4197 46.5231 35.5498L47.0966 37.1938L46.6483 37.3502ZM51.3276 35.8169C50.9413 35.9517 50.594 35.9793 50.2857 35.8998C49.9795 35.8196 49.7461 35.6411 49.5856 35.3641L50.0165 35.1282C50.1306 35.2982 50.2935 35.409 50.5054 35.4605C50.7185 35.5093 50.9532 35.489 51.2094 35.3997C51.4595 35.3124 51.6387 35.1917 51.7469 35.0377C51.8543 34.8816 51.8765 34.713 51.8134 34.5321C51.7779 34.4304 51.7258 34.3562 51.657 34.3095C51.5896 34.26 51.4761 34.2323 51.3167 34.2264C51.1572 34.2204 50.9251 34.2284 50.6203 34.2504C50.293 34.2733 50.0308 34.2736 49.8337 34.2511C49.6365 34.2287 49.4839 34.177 49.3759 34.0961C49.2671 34.0132 49.1858 33.8944 49.1318 33.7399C49.0666 33.5528 49.0623 33.3707 49.1191 33.1935C49.1752 33.0143 49.2833 32.8534 49.4434 32.7109C49.6028 32.5663 49.8065 32.4507 50.0546 32.3642C50.3027 32.2777 50.5385 32.241 50.7621 32.2542C50.987 32.2647 51.1846 32.3212 51.3549 32.4237C51.5253 32.5262 51.6549 32.6692 51.744 32.8525L51.3152 33.0945C51.2173 32.9119 51.0675 32.7931 50.8659 32.738C50.6655 32.6802 50.4406 32.6925 50.1911 32.775C49.9551 32.8505 49.7806 32.9616 49.6676 33.1082C49.5538 33.2528 49.5242 33.4034 49.5788 33.56C49.6093 33.6474 49.662 33.7134 49.7369 33.758C49.811 33.8006 49.9268 33.8252 50.0842 33.8318C50.2437 33.8378 50.4639 33.8283 50.7448 33.8032C51.0748 33.7748 51.341 33.7731 51.5437 33.7982C51.7463 33.8233 51.9044 33.8811 52.0181 33.9714C52.1317 34.0618 52.2183 34.1924 52.2779 34.3632C52.3864 34.6743 52.356 34.9597 52.1866 35.2195C52.0186 35.4766 51.7323 35.6757 51.3276 35.8169ZM51.9661 31.0986L51.7905 30.5953L52.2389 30.4389L52.4145 30.9422L51.9661 31.0986ZM53.3335 35.0178L52.1843 31.7238L52.6326 31.5674L53.7818 34.8614L53.3335 35.0178ZM56.4896 33.9167C56.3181 34.0199 56.1404 34.099 55.9566 34.154C55.7748 34.2083 55.6007 34.2257 55.4343 34.2062C55.2698 34.186 55.1255 34.1155 55.0012 33.9946C54.8997 33.8932 54.8242 33.7816 54.7748 33.6596C54.7268 33.535 54.6748 33.3924 54.6187 33.2317L53.5663 30.2153L54.0116 30.0599L55.0576 33.0581C55.1059 33.1963 55.1473 33.3119 55.182 33.4047C55.218 33.4948 55.2677 33.5687 55.3312 33.6264C55.4519 33.7371 55.5962 33.7779 55.764 33.749C55.9338 33.7194 56.13 33.6442 56.3524 33.5232L56.4896 33.9167ZM53.3151 31.7604L53.181 31.3761L55.3404 30.6227L55.4745 31.007L53.3151 31.7604ZM58.4452 33.337C58.124 33.4491 57.8206 33.4752 57.5351 33.4151C57.2516 33.3544 56.9997 33.2176 56.7795 33.0047C56.5592 32.7919 56.3885 32.5116 56.2672 32.1639C56.1416 31.804 56.0971 31.4706 56.1337 31.1636C56.1703 30.8566 56.2797 30.5915 56.4618 30.3683C56.646 30.1444 56.8967 29.9771 57.2139 29.8664C57.5392 29.7529 57.843 29.7313 58.1253 29.8016C58.4068 29.8699 58.6551 30.0227 58.8703 30.2602C59.0854 30.4976 59.2553 30.8112 59.3799 31.2011L58.9224 31.3607L58.867 31.2021C58.7099 30.778 58.505 30.488 58.2522 30.3321C58.0014 30.1756 57.7072 30.1562 57.3697 30.2739C57.0159 30.3974 56.7845 30.6069 56.6756 30.9027C56.5687 31.1977 56.5894 31.5577 56.7377 31.9827C56.8824 32.3975 57.0883 32.6871 57.3556 32.8516C57.6241 33.0134 57.9312 33.034 58.2769 32.9134C58.5128 32.8311 58.6993 32.7056 58.8366 32.5368C58.9752 32.3653 59.0595 32.1591 59.0895 31.9182L59.5638 31.9341C59.5337 32.2662 59.4192 32.5559 59.2204 32.8032C59.0228 33.0477 58.7645 33.2257 58.4452 33.337ZM56.6227 32.1631L56.4918 31.7879L59.008 30.91L59.1389 31.2852L56.6227 32.1631Z" fill="#B8C0CC"/>
</svg>
