<svg width="186" height="90" viewBox="0 0 186 90" fill="none" xmlns="http://www.w3.org/2000/svg">
<path d="M5.01342 67.8441C4.57625 67.9966 4.17147 68.0295 3.79908 67.9427C3.42668 67.8559 3.10022 67.6688 2.8197 67.3812C2.54121 67.0929 2.32322 66.723 2.16573 66.2716C2.00825 65.8202 1.94886 65.395 1.98757 64.9961C2.02831 64.5964 2.16749 64.2468 2.4051 63.9472C2.6427 63.6476 2.98009 63.4216 3.41726 63.269C3.92559 63.0917 4.38849 63.075 4.80595 63.2191C5.22544 63.3624 5.57347 63.631 5.85003 64.0249L5.34905 64.3639C5.14537 64.0677 4.89566 63.8652 4.59992 63.7562C4.30418 63.6473 3.97026 63.6577 3.59816 63.7875C3.27079 63.9018 3.02421 64.071 2.85843 64.2954C2.69265 64.5197 2.60133 64.7842 2.58446 65.0889C2.56688 65.3915 2.61844 65.7191 2.73914 66.0716C2.85912 66.422 3.02048 66.7113 3.22321 66.9393C3.42523 67.1654 3.66229 67.3153 3.93439 67.3891C4.20577 67.461 4.50515 67.4398 4.83252 67.3256C5.20462 67.1957 5.47257 66.9962 5.63636 66.7269C5.79944 66.4556 5.86896 66.1417 5.84493 65.7852L6.44805 65.739C6.47583 66.2174 6.37042 66.6442 6.13183 67.0194C5.89455 67.3918 5.52175 67.6667 5.01342 67.8441ZM9.01902 66.4465C8.69166 66.5608 8.38313 66.5852 8.09344 66.5197C7.80579 66.4536 7.55216 66.3117 7.33254 66.0941C7.11293 65.8765 6.94389 65.5979 6.82542 65.2583C6.70482 64.9127 6.66418 64.587 6.70351 64.2813C6.74284 63.9757 6.85628 63.7091 7.04381 63.4818C7.23063 63.2524 7.48468 63.0816 7.80594 62.9695C8.13534 62.8546 8.44489 62.8299 8.73457 62.8953C9.02355 62.9587 9.27683 63.0996 9.49441 63.3179C9.71331 63.5335 9.882 63.811 10.0005 64.1506C10.1204 64.4942 10.162 64.8195 10.1254 65.1265C10.0881 65.4315 9.97642 65.6997 9.79031 65.9311C9.60349 66.1605 9.34639 66.3323 9.01902 66.4465ZM8.83919 65.9311C9.18079 65.8119 9.39523 65.6094 9.48251 65.3235C9.56979 65.0376 9.55029 64.7136 9.42402 64.3517C9.2942 63.9796 9.1066 63.7132 8.86122 63.5525C8.61512 63.3897 8.32331 63.3672 7.98578 63.485C7.75601 63.5652 7.585 63.683 7.47275 63.8385C7.36049 63.994 7.29969 64.176 7.29033 64.3845C7.28098 64.593 7.31816 64.8173 7.40187 65.0572C7.53098 65.4273 7.71995 65.6944 7.96879 65.8584C8.21762 66.0225 8.50776 66.0467 8.83919 65.9311ZM13.5931 64.7481L13.0174 63.098C12.9628 62.9414 12.8961 62.7959 12.8173 62.6615C12.7405 62.5264 12.6476 62.4139 12.5388 62.3242C12.4312 62.2317 12.3078 62.1721 12.1685 62.1454C12.0312 62.1181 11.8752 62.1349 11.7003 62.1959C11.5641 62.2434 11.4482 62.3101 11.3527 62.3959C11.2585 62.4789 11.188 62.581 11.1414 62.7022C11.0947 62.8234 11.0738 62.963 11.0788 63.1209C11.085 63.2761 11.1215 63.4493 11.1882 63.6404L10.793 63.6551C10.6816 63.3359 10.6431 63.0426 10.6775 62.7751C10.7133 62.5049 10.8136 62.2726 10.9784 62.0783C11.1446 61.8812 11.369 61.7333 11.6516 61.6347C11.8651 61.5602 12.0588 61.5303 12.2327 61.5449C12.4065 61.5595 12.5628 61.6053 12.7015 61.6824C12.8394 61.7574 12.961 61.8541 13.0661 61.9725C13.1706 62.0889 13.2588 62.2144 13.3309 62.3489C13.4042 62.4807 13.4629 62.6096 13.5069 62.7357L14.1421 64.5565L13.5931 64.7481ZM11.2446 65.5674L10.0954 62.2734L10.5834 62.1032L10.8909 62.9846L10.9519 62.9633L11.7936 65.3759L11.2446 65.5674ZM15.2492 64.1703L14.0372 60.6963C14.0074 60.6109 13.9813 60.5231 13.959 60.4328C13.9359 60.3405 13.924 60.2477 13.9234 60.1544C13.9221 60.0591 13.9415 59.9645 13.9818 59.8706C14.0279 59.761 14.0897 59.6733 14.1671 59.6075C14.2438 59.5397 14.3265 59.4858 14.4152 59.4457C14.5059 59.4049 14.5929 59.37 14.6763 59.3409L15.0941 59.1952L15.2516 59.6466L14.8642 59.7817C14.7036 59.8377 14.5975 59.9192 14.5458 60.0262C14.4935 60.1311 14.495 60.2629 14.5503 60.4215L15.7921 63.9809L15.2492 64.1703ZM13.6983 61.5194L13.5418 61.071L15.5091 60.3847L15.6655 60.833L13.6983 61.5194ZM15.9464 59.5786L15.7506 59.0174L16.2935 58.828L16.4893 59.3892L15.9464 59.5786ZM17.2988 63.4552L16.1496 60.1612L16.6925 59.9718L17.8417 63.2658L17.2988 63.4552ZM18.7595 62.9456L17.6103 59.6516L18.0952 59.4824L18.373 60.2784L18.2575 60.2024C18.2606 60.0873 18.2778 59.9763 18.309 59.8697C18.3423 59.7623 18.3879 59.6677 18.4461 59.5858C18.5073 59.4869 18.5855 59.4003 18.6805 59.3261C18.7755 59.2519 18.8778 59.1922 18.9875 59.1471C19.0965 59.1 19.2037 59.0706 19.3091 59.0589L19.4868 59.5682C19.3623 59.5775 19.2344 59.6129 19.1032 59.6747C18.9719 59.7365 18.8632 59.8303 18.7771 59.9561C18.6976 60.0682 18.6472 60.1885 18.6258 60.3168C18.6065 60.4444 18.6076 60.5752 18.6292 60.7091C18.6502 60.8409 18.6833 60.9719 18.7287 61.102L19.3055 62.7551L18.7595 62.9456ZM24.9726 60.7779L24.2404 58.6693C24.1546 58.4233 24.0214 58.2542 23.841 58.162C23.6619 58.0671 23.4677 58.0562 23.2583 58.1293C23.1363 58.1718 23.0303 58.2407 22.9404 58.336C22.8497 58.4292 22.7907 58.5478 22.7635 58.6919C22.7355 58.834 22.7538 58.9975 22.8183 59.1825L22.4912 59.1667C22.4055 58.9342 22.382 58.7132 22.4206 58.5036C22.4606 58.2912 22.551 58.1057 22.6918 57.9471C22.8326 57.7885 23.0128 57.6709 23.2324 57.5943C23.576 57.4744 23.883 57.4848 24.1533 57.6254C24.4229 57.764 24.6191 58.0092 24.7418 58.3609L25.5155 60.5885L24.9726 60.7779ZM21.032 62.1527L19.8828 58.8587L20.3678 58.6895L20.6753 59.571L20.7363 59.5497L21.578 61.9623L21.032 62.1527ZM23.0054 61.4643L22.2806 59.377C22.1926 59.1249 22.0587 58.9503 21.879 58.8534C21.6985 58.7544 21.5004 58.7425 21.2849 58.8177C21.0714 58.8922 20.9241 59.0257 20.843 59.2182C20.7619 59.4107 20.7636 59.628 20.848 59.87L20.5017 59.7992C20.4272 59.5857 20.4114 59.3768 20.4542 59.1726C20.497 58.9683 20.5891 58.7879 20.7306 58.6314C20.8715 58.4727 21.0527 58.3548 21.2743 58.2775C21.4959 58.2001 21.7054 58.1795 21.9028 58.2156C22.1001 58.2516 22.274 58.3415 22.4245 58.4852C22.5742 58.6268 22.691 58.8176 22.7747 59.0575L23.5452 61.2759L23.0054 61.4643ZM27.5342 59.8842L26.0019 55.4922L27.7374 54.8867C27.7801 54.8718 27.8316 54.8561 27.892 54.8396C27.9517 54.8211 28.0107 54.8073 28.0692 54.7983C28.3198 54.7519 28.5475 54.7637 28.7521 54.8338C28.9588 54.9031 29.1364 55.0201 29.2852 55.1849C29.4332 55.3477 29.548 55.546 29.6296 55.7798C29.7104 56.0116 29.7429 56.2386 29.7269 56.4609C29.7123 56.6804 29.646 56.8826 29.528 57.0674C29.4113 57.2495 29.2415 57.4 29.0184 57.5189C28.9663 57.5462 28.9115 57.5722 28.8539 57.5968C28.7964 57.6215 28.7463 57.6412 28.7036 57.6561L27.511 58.0722L28.0771 59.6948L27.5342 59.8842ZM27.3312 57.5567L28.5054 57.1471C28.5441 57.1336 28.5871 57.1163 28.6345 57.0952C28.6839 57.0734 28.7292 57.0496 28.7704 57.0238C28.8993 56.9424 28.9926 56.8437 29.0502 56.7278C29.1092 56.6091 29.1388 56.4847 29.139 56.3547C29.1385 56.2225 29.117 56.0955 29.0745 55.9735C29.0319 55.8515 28.9701 55.7396 28.889 55.6379C28.8072 55.5342 28.7063 55.4542 28.5863 55.398C28.4684 55.341 28.3339 55.3218 28.183 55.3402C28.134 55.3436 28.0837 55.3532 28.0322 55.3689C27.982 55.3819 27.9375 55.3951 27.8989 55.4086L26.7246 55.8182L27.3312 57.5567ZM32.1303 58.3833C31.8843 58.4692 31.6623 58.4964 31.4644 58.4651C31.2677 58.4311 31.1008 58.3548 30.9636 58.2361C30.8285 58.1168 30.7301 57.9686 30.6683 57.7917C30.608 57.6189 30.5884 57.4581 30.6095 57.3093C30.6319 57.1578 30.6886 57.0195 30.7794 56.8942C30.8696 56.767 30.9896 56.6499 31.1393 56.5429C31.2809 56.4456 31.443 56.348 31.6256 56.2501C31.8094 56.1494 31.9964 56.0511 32.1864 55.9552C32.3764 55.8592 32.5536 55.7689 32.7179 55.6842L32.5621 55.8652C32.4661 55.5702 32.3315 55.3743 32.1586 55.2772C31.9876 55.1795 31.7517 55.1831 31.4507 55.2881C31.2515 55.3576 31.0926 55.4644 30.974 55.6084C30.8568 55.7496 30.8032 55.9326 30.8131 56.1572L30.2434 56.1815C30.2219 55.8651 30.2964 55.5848 30.4666 55.3406C30.6369 55.0965 30.9081 54.9095 31.2802 54.7797C31.5791 54.6754 31.8541 54.6399 32.1052 54.6732C32.3576 54.7037 32.5682 54.8104 32.7369 54.9933C32.8192 55.0787 32.8873 55.1792 32.9414 55.2949C32.9947 55.4086 33.0441 55.5305 33.0895 55.6606L33.8003 57.698L33.3184 57.8662L33.0428 57.0762L33.1812 57.1101C33.1501 57.4197 33.0465 57.6816 32.8703 57.8959C32.6962 58.1095 32.4496 58.2719 32.1303 58.3833ZM32.0541 57.9001C32.2493 57.832 32.406 57.7386 32.5242 57.6198C32.6438 57.4983 32.7274 57.3653 32.7751 57.2209C32.8221 57.0745 32.8351 56.9286 32.814 56.7831C32.809 56.6708 32.7859 56.5523 32.7447 56.4276C32.7047 56.3001 32.6731 56.2028 32.6497 56.1357L32.8675 56.1521C32.6991 56.2382 32.5334 56.3222 32.3704 56.4042C32.2074 56.4861 32.0543 56.5669 31.911 56.6466C31.767 56.7242 31.6401 56.8015 31.5301 56.8787C31.4506 56.9384 31.379 57.0044 31.3153 57.0768C31.2536 57.1485 31.2108 57.2284 31.1868 57.3166C31.1642 57.4021 31.1709 57.4966 31.2071 57.6003C31.2383 57.6898 31.2905 57.7674 31.3636 57.8331C31.4388 57.8982 31.533 57.9394 31.6463 57.9569C31.7616 57.9737 31.8976 57.9548 32.0541 57.9001ZM35.8686 57.0757C35.4761 57.2126 35.1241 57.2396 34.8123 57.1568C34.5019 57.0712 34.2644 56.8838 34.0996 56.5946L34.6238 56.3125C34.731 56.4758 34.8833 56.5823 35.0809 56.632C35.2777 56.6797 35.495 56.662 35.7329 56.579C35.9586 56.5003 36.1192 56.3918 36.2147 56.2536C36.3101 56.1153 36.3299 55.9659 36.2738 55.8053C36.2412 55.7117 36.1936 55.644 36.131 55.6019C36.0677 55.5579 35.9601 55.5338 35.8082 55.5298C35.6583 55.5251 35.4367 55.534 35.1435 55.5564C34.8258 55.5806 34.569 55.5801 34.3732 55.5549C34.1774 55.5297 34.0247 55.4746 33.9153 55.3897C33.8058 55.3047 33.7237 55.1839 33.6691 55.0273C33.6017 54.8342 33.5957 54.647 33.6511 54.4657C33.7057 54.2824 33.8138 54.1181 33.9752 53.9729C34.1387 53.8269 34.3465 53.7099 34.5986 53.6219C34.8487 53.5347 35.0862 53.4963 35.3111 53.5068C35.536 53.5173 35.734 53.5748 35.905 53.6793C36.0774 53.7811 36.2085 53.9247 36.2982 54.1101L35.7782 54.4044C35.6901 54.2367 35.5561 54.1272 35.3762 54.0759C35.1984 54.0239 34.9956 54.0342 34.7678 54.1069C34.5515 54.1732 34.3907 54.2715 34.2856 54.4017C34.1825 54.5312 34.1558 54.6671 34.2055 54.8094C34.2331 54.8887 34.2813 54.9483 34.35 54.9882C34.4207 55.0274 34.532 55.049 34.6839 55.053C34.8379 55.0564 35.0553 55.0455 35.3363 55.0205C35.6526 54.9922 35.9094 54.9927 36.1066 55.022C36.3052 55.0485 36.4606 55.1083 36.5729 55.2014C36.6845 55.2925 36.7701 55.4234 36.8297 55.5942C36.9404 55.9114 36.9107 56.2023 36.7407 56.4669C36.57 56.7295 36.2793 56.9324 35.8686 57.0757ZM39.1032 55.9471C38.7108 56.0841 38.3587 56.1111 38.047 56.0283C37.7366 55.9427 37.499 55.7553 37.3343 55.4661L37.8585 55.184C37.9657 55.3473 38.118 55.4538 38.3155 55.5035C38.5123 55.5512 38.7297 55.5335 38.9676 55.4505C39.1933 55.3717 39.3539 55.2633 39.4493 55.125C39.5448 54.9868 39.5645 54.8374 39.5085 54.6767C39.4759 54.5832 39.4283 54.5154 39.3657 54.4734C39.3024 54.4293 39.1948 54.4053 39.0429 54.4013C38.893 54.3965 38.6714 54.4054 38.3782 54.4279C38.0605 54.4521 37.8037 54.4516 37.6079 54.4264C37.412 54.4012 37.2594 54.3461 37.1499 54.2611C37.0405 54.1761 36.9584 54.0554 36.9038 53.8988C36.8364 53.7056 36.8304 53.5184 36.8857 53.3372C36.9404 53.1539 37.0484 52.9896 37.2099 52.8443C37.3733 52.6983 37.5811 52.5814 37.8333 52.4934C38.0834 52.4061 38.3209 52.3678 38.5458 52.3783C38.7707 52.3887 38.9686 52.4463 39.1397 52.5508C39.3121 52.6526 39.4431 52.7962 39.5329 52.9816L39.0129 53.2759C38.9247 53.1082 38.7908 52.9987 38.6109 52.9474C38.4331 52.8954 38.2303 52.9057 38.0025 52.9784C37.7861 53.0447 37.6254 53.143 37.5203 53.2732C37.4172 53.4026 37.3905 53.5386 37.4402 53.6809C37.4678 53.7602 37.516 53.8198 37.5846 53.8597C37.6553 53.8989 37.7667 53.9205 37.9186 53.9245C38.0726 53.9278 38.29 53.917 38.571 53.8919C38.8873 53.8637 39.144 53.8642 39.3413 53.8935C39.5398 53.92 39.6953 53.9798 39.8076 54.0729C39.9192 54.164 40.0048 54.2949 40.0644 54.4657C40.175 54.7829 40.1454 55.0738 39.9754 55.3384C39.8047 55.6009 39.514 55.8038 39.1032 55.9471ZM41.645 54.9611L39.4882 52.0152L40.0291 51.8299L41.6048 53.983L41.5053 51.3149L41.9842 51.1478L43.5629 53.2998L43.4604 50.6328L43.9972 50.4455L44.1399 54.0907L43.6885 54.2482L42.0188 52.0219L42.0964 54.8036L41.645 54.9611ZM47.013 53.1909C46.6856 53.3052 46.3771 53.3296 46.0874 53.2641C45.7998 53.198 45.5461 53.0561 45.3265 52.8385C45.1069 52.6209 44.9379 52.3423 44.8194 52.0027C44.6988 51.6571 44.6582 51.3314 44.6975 51.0257C44.7368 50.7201 44.8503 50.4535 45.0378 50.2262C45.2246 49.9968 45.4787 49.826 45.7999 49.7139C46.1293 49.599 46.4389 49.5743 46.7286 49.6397C47.0175 49.7031 47.2708 49.844 47.4884 50.0623C47.7073 50.2779 47.876 50.5554 47.9945 50.895C48.1143 51.2386 48.156 51.5639 48.1194 51.8709C48.0821 52.1759 47.9704 52.4441 47.7843 52.6755C47.5975 52.9049 47.3404 53.0767 47.013 53.1909ZM46.8332 52.6755C47.1748 52.5563 47.3892 52.3538 47.4765 52.0679C47.5638 51.782 47.5443 51.458 47.418 51.0961C47.2882 50.724 47.1006 50.4576 46.8552 50.2969C46.6091 50.1341 46.3173 50.1116 45.9798 50.2294C45.75 50.3096 45.579 50.4274 45.4667 50.5829C45.3545 50.7384 45.2937 50.9204 45.2843 51.1289C45.275 51.3374 45.3121 51.5617 45.3959 51.8016C45.525 52.1717 45.7139 52.4388 45.9628 52.6028C46.2116 52.7669 46.5017 52.7911 46.8332 52.6755ZM49.2417 52.3108L48.0924 49.0168L48.5774 48.8476L48.8551 49.6436L48.7396 49.5676C48.7428 49.4524 48.76 49.3415 48.7912 49.2348C48.8244 49.1274 48.8701 49.0328 48.9282 48.951C48.9895 48.852 49.0676 48.7655 49.1626 48.6913C49.2576 48.6171 49.36 48.5574 49.4697 48.5123C49.5787 48.4652 49.6859 48.4357 49.7913 48.4241L49.969 48.9334C49.8445 48.9426 49.7166 48.9781 49.5853 49.0399C49.4541 49.1017 49.3454 49.1954 49.2593 49.3213C49.1798 49.4334 49.1294 49.5536 49.108 49.682C49.0886 49.8096 49.0898 49.9404 49.1114 50.0742C49.1323 50.2061 49.1655 50.3371 49.2109 50.4672L49.7876 52.1203L49.2417 52.3108ZM52.7828 51.1779C52.4758 51.2851 52.1859 51.3007 51.913 51.2248C51.6395 51.1469 51.397 50.9977 51.1856 50.7772C50.9761 50.5561 50.8139 50.2808 50.699 49.9514C50.5841 49.622 50.5398 49.3056 50.5662 49.0021C50.5947 48.698 50.6925 48.4324 50.8596 48.2053C51.026 47.9762 51.2617 47.8084 51.5667 47.702C51.8778 47.5935 52.1653 47.5775 52.4293 47.6542C52.6932 47.7309 52.9249 47.8816 53.1241 48.1063C53.3254 48.3303 53.4839 48.608 53.5996 48.9395C53.7138 49.2668 53.7621 49.5818 53.7445 49.8845C53.7283 50.1844 53.6414 50.4485 53.4838 50.6768C53.3255 50.9031 53.0919 51.0701 52.7828 51.1779ZM52.6765 50.6574C52.8981 50.5801 53.0616 50.4637 53.1671 50.3083C53.2718 50.1509 53.3251 49.9669 53.3269 49.7565C53.3301 49.5432 53.2898 49.3167 53.2061 49.0767C53.121 48.8327 53.0116 48.6303 52.8779 48.4694C52.7455 48.3057 52.5911 48.1965 52.4146 48.1417C52.2374 48.085 52.0411 48.0942 51.8255 48.1694C51.6019 48.2474 51.436 48.3668 51.3279 48.5277C51.2218 48.6879 51.1658 48.8739 51.1599 49.0858C51.1561 49.297 51.1946 49.5185 51.2755 49.7503C51.357 49.9841 51.4664 50.1832 51.6035 50.3475C51.74 50.5097 51.8985 50.6209 52.0791 50.681C52.2618 50.7405 52.4609 50.7326 52.6765 50.6574ZM53.7818 50.7268L52.9358 48.302L52.8748 48.3233L52.1885 46.3561L52.7344 46.1656L54.2667 50.5576L53.7818 50.7268Z" fill="black"/>
<rect x="4.30967" y="72.3046" width="185.05" height="17.9974" rx="1.61515" transform="rotate(-19.2332 4.30967 72.3046)" stroke="#D0D5DD" stroke-width="0.461471"/>
<path fill-rule="evenodd" clip-rule="evenodd" d="M172.691 23.0893C172.939 23.2621 173.435 23.5782 174.02 23.7999C174.627 24.0297 175.282 24.14 175.85 23.942C176.418 23.7439 176.862 23.25 177.194 22.6925C177.515 22.1549 177.706 21.5989 177.794 21.3089C177.545 21.1361 177.049 20.82 176.464 20.5983C175.857 20.3685 175.202 20.2582 174.634 20.4562C174.066 20.6543 173.622 21.1482 173.29 21.7057C172.969 22.2433 172.778 22.7993 172.691 23.0893ZM172.761 21.3907C173.123 20.7831 173.663 20.1432 174.431 19.8753C175.199 19.6074 176.02 19.7725 176.682 20.0229C177.349 20.2758 177.903 20.6343 178.166 20.8184C178.372 20.9632 178.462 21.2197 178.39 21.4615C178.299 21.7688 178.088 22.394 177.723 23.0075C177.361 23.6151 176.821 24.255 176.053 24.5229C175.285 24.7908 174.464 24.6258 173.802 24.3753C173.135 24.1224 172.581 23.7639 172.318 23.5798C172.112 23.435 172.022 23.1785 172.094 22.9367C172.185 22.6294 172.396 22.0042 172.761 21.3907Z" fill="#64748B"/>
<path fill-rule="evenodd" clip-rule="evenodd" d="M175.445 22.7801C175.766 22.6681 175.935 22.3173 175.823 21.9964C175.711 21.6756 175.36 21.5062 175.039 21.6182C174.718 21.7301 174.549 22.0809 174.661 22.4018C174.773 22.7226 175.124 22.892 175.445 22.7801ZM175.647 23.361C176.289 23.1371 176.628 22.4354 176.404 21.7937C176.18 21.152 175.478 20.8133 174.837 21.0372C174.195 21.2611 173.856 21.9628 174.08 22.6045C174.304 23.2462 175.006 23.5849 175.647 23.361Z" fill="#64748B"/>
</svg>
