<svg width="92" height="57" viewBox="0 0 92 57" fill="none" xmlns="http://www.w3.org/2000/svg">
<path d="M3.01033 35.2991L1.47802 30.9071L2.02092 30.7177L3.3734 34.5943L5.4108 33.8834L5.59063 34.3989L3.01033 35.2991ZM7.07483 33.9837C6.8288 34.0696 6.60681 34.0968 6.40886 34.0655C6.21224 34.0315 6.04533 33.9551 5.90815 33.8365C5.77299 33.7172 5.67456 33.569 5.61284 33.3921C5.55254 33.2193 5.53293 33.0585 5.55402 32.9097C5.57642 32.7582 5.63307 32.6199 5.72395 32.4946C5.81412 32.3674 5.93406 32.2503 6.08377 32.1433C6.22544 32.046 6.38754 31.9484 6.57006 31.8505C6.75391 31.7498 6.94086 31.6515 7.1309 31.5556C7.32095 31.4596 7.49813 31.3693 7.66245 31.2846L7.50662 31.4656C7.41057 31.1706 7.27605 30.9747 7.10307 30.8776C6.93212 30.7799 6.69618 30.7835 6.39524 30.8885C6.19598 30.958 6.03707 31.0648 5.91853 31.2088C5.80131 31.35 5.74767 31.533 5.75761 31.7576L5.18789 31.7819C5.16645 31.4655 5.24087 31.1852 5.41114 30.941C5.58142 30.6969 5.8526 30.5099 6.2247 30.3801C6.5236 30.2758 6.7986 30.2403 7.0497 30.2736C7.30212 30.3041 7.5127 30.4108 7.68143 30.5937C7.76367 30.6791 7.83181 30.7796 7.88587 30.8953C7.93921 31.009 7.98859 31.1309 8.03399 31.261L8.74481 33.2984L8.26291 33.4666L7.98731 32.6766L8.1257 32.7104C8.0946 33.0201 7.99098 33.282 7.81484 33.4963C7.64074 33.7099 7.39407 33.8723 7.07483 33.9837ZM6.99863 33.5005C7.19383 33.4324 7.35054 33.339 7.46875 33.2202C7.58829 33.0987 7.67191 32.9657 7.71962 32.8213C7.76662 32.6749 7.77957 32.529 7.75847 32.3835C7.7535 32.2712 7.73039 32.1527 7.68915 32.028C7.64924 31.9005 7.61757 31.8032 7.59416 31.7361L7.812 31.7525C7.64361 31.8386 7.47792 31.9226 7.31492 32.0046C7.15192 32.0865 6.99879 32.1673 6.85551 32.247C6.71152 32.3246 6.58456 32.4019 6.47462 32.4791C6.39508 32.5388 6.32347 32.6048 6.25977 32.6772C6.19811 32.7489 6.1553 32.8288 6.13133 32.917C6.10868 33.0025 6.11545 33.097 6.15163 33.2007C6.18284 33.2902 6.235 33.3678 6.30811 33.4335C6.38325 33.4985 6.47748 33.5398 6.59078 33.5573C6.70611 33.5741 6.84206 33.5552 6.99863 33.5005ZM10.8131 32.6761C10.4206 32.813 10.0686 32.84 9.75684 32.7572C9.44644 32.6716 9.20886 32.4842 9.04409 32.195L9.56833 31.9129C9.6755 32.0762 9.82784 32.1827 10.0254 32.2324C10.2222 32.2801 10.4395 32.2624 10.6774 32.1794C10.9031 32.1007 11.0637 31.9922 11.1592 31.854C11.2546 31.7157 11.2744 31.5663 11.2183 31.4057C11.1857 31.3121 11.1381 31.2444 11.0755 31.2023C11.0123 31.1582 10.9046 31.1342 10.7527 31.1302C10.6028 31.1255 10.3812 31.1343 10.088 31.1568C9.77029 31.181 9.51352 31.1805 9.3177 31.1553C9.12188 31.1301 8.96923 31.075 8.85976 30.99C8.75029 30.9051 8.66824 30.7843 8.61361 30.6277C8.54622 30.4346 8.5402 30.2474 8.59557 30.0661C8.65023 29.8828 8.75827 29.7185 8.91971 29.5733C9.08317 29.4273 9.29097 29.3103 9.54311 29.2223C9.79321 29.1351 10.0307 29.0967 10.2556 29.1072C10.4805 29.1177 10.6785 29.1752 10.8495 29.2797C11.0219 29.3815 11.153 29.5251 11.2427 29.7105L10.7227 30.0048C10.6346 29.8371 10.5006 29.7276 10.3207 29.6763C10.1429 29.6243 9.94013 29.6346 9.7123 29.7073C9.49596 29.7736 9.33523 29.8719 9.23012 30.0021C9.12704 30.1316 9.10033 30.2675 9.14999 30.4098C9.17765 30.4891 9.22582 30.5487 9.29448 30.5886C9.36518 30.6278 9.47649 30.6494 9.62843 30.6534C9.7824 30.6567 9.99985 30.6459 10.2808 30.6209C10.5971 30.5926 10.8539 30.5931 11.0511 30.6224C11.2497 30.6489 11.4051 30.7087 11.5174 30.8018C11.629 30.8929 11.7146 31.0238 11.7742 31.1946C11.8849 31.5118 11.8552 31.8027 11.6852 32.0673C11.5145 32.3298 11.2238 32.5328 10.8131 32.6761ZM14.6116 31.2516C14.4299 31.3583 14.2421 31.441 14.0481 31.4995C13.8569 31.5594 13.675 31.5807 13.5024 31.5633C13.3292 31.5439 13.178 31.4735 13.049 31.352C12.9385 31.2446 12.8571 31.1259 12.8049 30.9958C12.754 30.863 12.6992 30.7123 12.6403 30.5435L11.606 27.5789L12.1489 27.3895L13.1747 30.3297C13.2215 30.4639 13.2626 30.5784 13.298 30.6733C13.3354 30.7674 13.3855 30.8423 13.4482 30.898C13.5668 31.0026 13.7093 31.0384 13.8757 31.0054C14.0441 30.9717 14.2352 30.8982 14.4488 30.7849L14.6116 31.2516ZM11.4137 29.1753L11.2572 28.7269L13.4624 27.9576L13.6188 28.4059L11.4137 29.1753ZM16.5016 30.5922L14.9693 26.2002L15.5183 26.0087L19.006 28.6408L17.8088 25.2095L18.3578 25.018L19.8901 29.41L19.3411 29.6015L15.8524 26.9664L17.0506 30.4007L16.5016 30.5922ZM21.7113 28.8773C21.4652 28.9631 21.2433 28.9904 21.0453 28.9591C20.8487 28.925 20.6818 28.8487 20.5446 28.73C20.4094 28.6107 20.311 28.4626 20.2493 28.2857C20.189 28.1128 20.1694 27.952 20.1905 27.8033C20.2129 27.6518 20.2695 27.5134 20.3604 27.3882C20.4506 27.2609 20.5705 27.1438 20.7202 27.0368C20.8619 26.9395 21.024 26.8419 21.2065 26.744C21.3904 26.6434 21.5773 26.5451 21.7673 26.4491C21.9574 26.3532 22.1346 26.2628 22.2989 26.1781L22.1431 26.3591C22.047 26.0642 21.9125 25.8682 21.7395 25.7712C21.5686 25.6734 21.3326 25.6771 21.0317 25.782C20.8324 25.8516 20.6735 25.9583 20.555 26.1023C20.4378 26.2436 20.3841 26.4265 20.3941 26.6511L19.8243 26.6754C19.8029 26.359 19.8773 26.0787 20.0476 25.8346C20.2179 25.5904 20.489 25.4034 20.8611 25.2736C21.16 25.1693 21.435 25.1338 21.6861 25.1671C21.9386 25.1976 22.1491 25.3044 22.3179 25.4873C22.4001 25.5726 22.4683 25.6732 22.5223 25.7889C22.5757 25.9025 22.625 26.0244 22.6704 26.1546L23.3813 28.192L22.8994 28.3601L22.6238 27.5702L22.7621 27.604C22.731 27.9136 22.6274 28.1756 22.4513 28.3898C22.2772 28.6034 22.0305 28.7659 21.7113 28.8773ZM21.6351 28.3941C21.8303 28.326 21.987 28.2325 22.1052 28.1137C22.2247 27.9922 22.3084 27.8592 22.3561 27.7149C22.4031 27.5685 22.416 27.4225 22.3949 27.2771C22.3899 27.1648 22.3668 27.0462 22.3256 26.9215C22.2857 26.794 22.254 26.6967 22.2306 26.6296L22.4484 26.646C22.2801 26.7321 22.1144 26.8162 21.9514 26.8981C21.7884 26.9801 21.6352 27.0609 21.4919 27.1405C21.348 27.2181 21.221 27.2955 21.1111 27.3726C21.0315 27.4323 20.9599 27.4983 20.8962 27.5707C20.8346 27.6424 20.7917 27.7224 20.7678 27.8106C20.7451 27.896 20.7519 27.9906 20.7881 28.0943C20.8193 28.1837 20.8714 28.2613 20.9446 28.3271C21.0197 28.3921 21.1139 28.4333 21.2272 28.4508C21.3426 28.4676 21.4785 28.4487 21.6351 28.3941ZM28.1118 26.5415L27.3796 24.4329C27.2937 24.1869 27.1606 24.0178 26.9802 23.9256C26.8011 23.8308 26.6069 23.8198 26.3974 23.8929C26.2754 23.9355 26.1695 24.0044 26.0795 24.0996C25.9889 24.1928 25.9299 24.3115 25.9026 24.4556C25.8746 24.5976 25.8929 24.7612 25.9575 24.9462L25.6303 24.9303C25.5447 24.6979 25.5212 24.4769 25.5598 24.2672C25.5998 24.0549 25.6901 23.8694 25.831 23.7108C25.9718 23.5522 26.152 23.4346 26.3716 23.3579C26.7152 23.2381 27.0222 23.2484 27.2925 23.389C27.5621 23.5276 27.7582 23.7728 27.881 24.1246L28.6547 26.3521L28.1118 26.5415ZM24.1712 27.9164L23.022 24.6224L23.5069 24.4532L23.8144 25.3346L23.8754 25.3133L24.7172 27.7259L24.1712 27.9164ZM26.1446 27.2279L25.4198 25.1406C25.3318 24.8885 25.1979 24.714 25.0181 24.617C24.8376 24.5181 24.6396 24.5062 24.4241 24.5814C24.2106 24.6559 24.0633 24.7894 23.9822 24.9819C23.9011 25.1744 23.9028 25.3916 23.9872 25.6336L23.6409 25.5628C23.5664 25.3493 23.5506 25.1405 23.5933 24.9362C23.6361 24.732 23.7283 24.5516 23.8698 24.395C24.0106 24.2364 24.1918 24.1184 24.4135 24.0411C24.6351 23.9638 24.8446 23.9431 25.0419 23.9792C25.2393 24.0153 25.4132 24.1052 25.5636 24.2488C25.7134 24.3904 25.8301 24.5812 25.9139 24.8211L26.6844 27.0396L26.1446 27.2279ZM30.8817 25.6778C30.5584 25.7906 30.251 25.818 29.9593 25.7601C29.669 25.6995 29.4121 25.5644 29.1885 25.3551C28.9642 25.1437 28.7921 24.8661 28.6722 24.5225C28.5467 24.1626 28.5042 23.8284 28.5449 23.52C28.5848 23.2096 28.6979 22.942 28.8841 22.7174C29.0716 22.4901 29.325 22.3207 29.6442 22.2093C29.9757 22.0937 30.2839 22.0717 30.5689 22.1433C30.8559 22.2142 31.1067 22.3708 31.3212 22.613C31.5378 22.8545 31.706 23.1732 31.8259 23.5693L31.2769 23.7609L31.2088 23.5657C31.0616 23.1632 30.8739 22.8899 30.6458 22.746C30.4169 22.6 30.1459 22.5817 29.8328 22.6909C29.4973 22.808 29.2797 23.0048 29.1801 23.2813C29.0804 23.5579 29.1008 23.8974 29.2412 24.3C29.3767 24.6884 29.5692 24.9588 29.8185 25.1113C30.0679 25.2638 30.3542 25.2837 30.6775 25.1709C30.8951 25.095 31.0668 24.9792 31.1927 24.8235C31.3185 24.6678 31.3946 24.4805 31.4208 24.2615L32.0051 24.2595C31.9785 24.5949 31.8641 24.888 31.6619 25.1388C31.461 25.3867 31.201 25.5664 30.8817 25.6778ZM29.1114 24.5164L28.9593 24.0802L31.3932 23.2311L31.5453 23.6672L29.1114 24.5164Z" fill="black"/>
<rect x="4.08311" y="39.2425" width="85.8337" height="17.9974" rx="1.61515" transform="rotate(-19.2332 4.08311 39.2425)" stroke="#D0D5DD" stroke-width="0.461471"/>
<path d="M11.5658 48.8103L10.0335 44.4183L11.3663 43.9533C11.4131 43.9369 11.4927 43.9103 11.6053 43.8733C11.7199 43.8356 11.8315 43.8058 11.9402 43.7838C12.2899 43.7143 12.6118 43.7411 12.9057 43.8644C13.1996 43.9876 13.4567 44.1853 13.6771 44.4574C13.8974 44.7295 14.0729 45.0526 14.2034 45.4267C14.334 45.8009 14.3976 46.163 14.3943 46.5131C14.391 46.8632 14.3126 47.178 14.1592 47.4573C14.0058 47.7366 13.7705 47.9578 13.4533 48.121C13.3559 48.1686 13.25 48.2147 13.1355 48.2592C13.0203 48.3017 12.9413 48.3304 12.8986 48.3453L11.5658 48.8103ZM11.8793 48.2185L12.7486 47.9152C12.832 47.8861 12.9207 47.8529 13.0149 47.8155C13.1103 47.7753 13.1902 47.7361 13.2543 47.6977C13.4949 47.5636 13.6651 47.3879 13.7649 47.1706C13.8668 46.9526 13.9117 46.7088 13.8998 46.4393C13.8872 46.1677 13.8298 45.8855 13.7276 45.5927C13.6248 45.2979 13.4938 45.0402 13.3348 44.8197C13.1757 44.5992 12.9889 44.4363 12.7743 44.331C12.5596 44.2257 12.3174 44.1951 12.0476 44.239C11.9735 44.2489 11.886 44.2692 11.7849 44.2999C11.6852 44.3278 11.5957 44.3556 11.5164 44.3833L10.6471 44.6866L11.8793 48.2185ZM17.0717 46.992C16.7443 47.1062 16.4389 47.1295 16.1553 47.062C15.8717 46.9944 15.6221 46.8511 15.4066 46.6321C15.191 46.413 15.024 46.1337 14.9055 45.7942C14.7849 45.4485 14.7423 45.1236 14.7775 44.8193C14.8128 44.5151 14.9212 44.2503 15.1026 44.0251C15.2853 43.7971 15.5374 43.6271 15.8586 43.515C16.188 43.4 16.4945 43.3764 16.7781 43.4439C17.063 43.5087 17.3122 43.651 17.5257 43.8708C17.7406 44.0878 17.9072 44.366 18.0257 44.7056C18.1463 45.0513 18.1903 45.3769 18.1578 45.6825C18.1246 45.986 18.0166 46.2518 17.8338 46.4797C17.6511 46.7077 17.397 46.8785 17.0717 46.992ZM16.9217 46.5619C17.2877 46.4342 17.5179 46.2182 17.6124 45.9138C17.7062 45.6074 17.6854 45.26 17.5499 44.8716C17.4109 44.4731 17.2097 44.1874 16.9464 44.0147C16.6852 43.8413 16.3726 43.818 16.0087 43.945C15.7626 44.0309 15.5788 44.1577 15.4572 44.3256C15.3369 44.4907 15.2715 44.6857 15.261 44.9106C15.2518 45.1328 15.292 45.372 15.3813 45.6282C15.5197 46.0247 15.7222 46.311 15.9889 46.4871C16.2549 46.6611 16.5658 46.6861 16.9217 46.5619ZM20.7 45.7261C20.3787 45.8382 20.0753 45.8642 19.7898 45.8042C19.5063 45.7434 19.2544 45.6066 19.0342 45.3938C18.814 45.181 18.6432 44.9007 18.5219 44.553C18.3963 44.1931 18.3518 43.8597 18.3884 43.5527C18.425 43.2457 18.5344 42.9806 18.7165 42.7574C18.9007 42.5335 19.1514 42.3662 19.4686 42.2555C19.7939 42.142 20.0977 42.1204 20.38 42.1907C20.6615 42.259 20.9099 42.4118 21.125 42.6492C21.3401 42.8867 21.51 43.2003 21.6346 43.5902L21.1771 43.7498L21.1218 43.5912C20.9647 43.167 20.7597 42.877 20.5069 42.7212C20.2561 42.5646 19.962 42.5452 19.6244 42.663C19.2706 42.7864 19.0393 42.996 18.9303 43.2918C18.8234 43.5868 18.8441 43.9468 18.9924 44.3718C19.1371 44.7866 19.3431 45.0762 19.6103 45.2407C19.8788 45.4025 20.186 45.4231 20.5316 45.3025C20.7675 45.2202 20.9541 45.0946 21.0913 44.9259C21.2299 44.7543 21.3142 44.5482 21.3442 44.3073L21.8185 44.3232C21.7884 44.6553 21.6739 44.945 21.4751 45.1923C21.2776 45.4368 21.0192 45.6147 20.7 45.7261ZM18.8774 44.5521L18.7465 44.177L21.2628 43.2991L21.3937 43.6743L18.8774 44.5521Z" fill="#64748B"/>
</svg>
