<svg width="173" height="76" viewBox="0 0 173 76" fill="none" xmlns="http://www.w3.org/2000/svg">
<rect x="0.43095" y="58.4324" width="126.054" height="17.9974" rx="1.61515" transform="rotate(-19.2332 0.43095 58.4324)" stroke="#D0D5DD" stroke-width="0.461471"/>
<path d="M9.88316 69.6388L9.71047 69.1438L9.9231 69.0696C10.0927 69.0104 10.2121 68.9193 10.2812 68.7961C10.3535 68.6744 10.3539 68.5114 10.2826 68.3069L8.75636 63.9323L9.26527 63.7547L10.8365 68.2583C10.9459 68.572 10.9519 68.8319 10.8544 69.038C10.76 69.2455 10.5582 69.4032 10.2492 69.5111L9.88316 69.6388ZM8.50705 63.2177L8.30639 62.6426L8.81531 62.465L9.01597 63.0402L8.50705 63.2177ZM13.2153 66.7167C12.8412 66.8472 12.4921 66.8739 12.168 66.7967C11.8439 66.7195 11.5587 66.5557 11.3123 66.3054C11.066 66.0551 10.8751 65.7359 10.7397 65.3478C10.6019 64.9528 10.5531 64.5814 10.5935 64.2337C10.6338 63.8859 10.7576 63.5834 10.9649 63.326C11.1738 63.0654 11.4618 62.8711 11.829 62.743C12.2054 62.6117 12.5557 62.5846 12.8798 62.6618C13.2054 62.7359 13.4902 62.8985 13.7342 63.1496C13.9798 63.3976 14.1702 63.7156 14.3056 64.1037C14.4435 64.4988 14.4938 64.8709 14.4566 65.2201C14.4186 65.567 14.2952 65.8708 14.0864 66.1313C13.8775 66.3919 13.5872 66.587 13.2153 66.7167ZM13.0439 66.2252C13.4622 66.0793 13.7253 65.8324 13.8333 65.4845C13.9405 65.1343 13.9167 64.7373 13.7619 64.2934C13.603 63.838 13.3731 63.5115 13.0722 63.3141C12.7737 63.1159 12.4164 63.0894 12.0004 63.2345C11.7193 63.3326 11.5092 63.4776 11.3702 63.6694C11.2327 63.8581 11.158 64.081 11.146 64.338C11.1355 64.5919 11.1814 64.8653 11.2835 65.1581C11.4416 65.6112 11.6731 65.9384 11.9779 66.1397C12.2819 66.3386 12.6372 66.3671 13.0439 66.2252ZM18.4513 64.7726L17.7813 62.852C17.7083 62.6429 17.6216 62.458 17.5213 62.2975C17.4202 62.1347 17.3028 62.0036 17.1691 61.9043C17.0369 61.8019 16.8885 61.7389 16.724 61.7155C16.5617 61.6913 16.3818 61.7137 16.1843 61.7826C16.0031 61.8458 15.8537 61.9331 15.7361 62.0445C15.6209 62.1551 15.5363 62.2863 15.4824 62.438C15.43 62.5867 15.4086 62.7531 15.4181 62.9375C15.4277 63.1218 15.4698 63.3209 15.5444 63.5347L15.1539 63.581C15.0193 63.1952 14.9736 62.8475 15.0168 62.5379C15.0599 62.2283 15.1765 61.9648 15.3665 61.7473C15.5565 61.5298 15.8049 61.3676 16.1117 61.2605C16.3371 61.1819 16.5456 61.1483 16.7372 61.1596C16.9312 61.1701 17.1069 61.2144 17.2645 61.2924C17.4243 61.3695 17.567 61.4722 17.6926 61.6005C17.8173 61.7264 17.926 61.8696 18.0185 62.0303C18.1102 62.1885 18.1857 62.3525 18.2448 62.5221L18.9672 64.5927L18.4513 64.7726ZM15.729 65.7224L13.9778 60.703L14.4414 60.5413L15.4301 63.3751L15.4824 63.3569L16.2449 65.5424L15.729 65.7224ZM22.5906 63.3285L21.9205 61.4079C21.8476 61.1987 21.7609 61.0139 21.6606 60.8534C21.5595 60.6906 21.4421 60.5595 21.3084 60.4602C21.1762 60.3577 21.0278 60.2948 20.8633 60.2714C20.701 60.2472 20.5211 60.2695 20.3236 60.3385C20.1424 60.4017 19.993 60.489 19.8754 60.6004C19.7602 60.711 19.6756 60.8421 19.6217 60.9939C19.5693 61.1425 19.5479 61.309 19.5574 61.4933C19.567 61.6777 19.6091 61.8767 19.6837 62.0905L19.2932 62.1368C19.1586 61.7511 19.1129 61.4034 19.1561 61.0938C19.1992 60.7842 19.3158 60.5206 19.5058 60.3031C19.6958 60.0857 19.9442 59.9234 20.251 59.8164C20.4764 59.7378 20.6849 59.7041 20.8765 59.7154C21.0705 59.726 21.2462 59.7702 21.4038 59.8482C21.5636 59.9254 21.7063 60.0281 21.8319 60.1563C21.9566 60.2822 22.0653 60.4255 22.1578 60.5861C22.2495 60.7444 22.325 60.9084 22.3841 61.078L23.1065 63.1485L22.5906 63.3285ZM19.8683 64.2783L18.5549 60.5137L19.0185 60.352L19.342 61.2792L19.3942 61.2609L20.3842 64.0983L19.8683 64.2783ZM25.4876 62.4351C25.1367 62.5575 24.8066 62.5749 24.4971 62.4874C24.1868 62.3975 23.9132 62.2258 23.6761 61.9723C23.4391 61.7187 23.2549 61.4037 23.1236 61.0272C22.993 60.6531 22.9405 60.2935 22.9661 59.9483C22.994 59.6023 23.1007 59.2992 23.2862 59.039C23.4717 58.7787 23.7364 58.5886 24.0803 58.4686C24.4336 58.3454 24.761 58.3276 25.0627 58.4153C25.3643 58.5029 25.6291 58.6751 25.8568 58.9319C26.0861 59.1856 26.2672 59.503 26.4001 59.8841C26.5307 60.2582 26.5871 60.6178 26.5693 60.9629C26.5507 61.3056 26.4526 61.6071 26.2748 61.8672C26.0963 62.125 25.8339 62.3143 25.4876 62.4351ZM25.3733 61.9393C25.6405 61.846 25.8386 61.704 25.9675 61.513C26.0964 61.3221 26.1641 61.0977 26.1706 60.84C26.1763 60.58 26.1285 60.3047 26.0272 60.0142C25.9242 59.7191 25.7904 59.4738 25.6258 59.2784C25.4604 59.0807 25.2682 58.9483 25.0493 58.8813C24.8328 58.8135 24.5932 58.8254 24.3306 58.917C24.061 59.0111 23.8611 59.1551 23.7307 59.3492C23.6003 59.5433 23.5318 59.7692 23.5253 60.0269C23.5211 60.2838 23.5684 60.554 23.6673 60.8375C23.7671 61.1234 23.9 61.3663 24.0663 61.5664C24.2341 61.7633 24.4282 61.8976 24.6487 61.9692C24.8692 62.0409 25.1107 62.0309 25.3733 61.9393ZM26.6851 61.9L25.6964 59.0661L25.6406 59.0856L24.8781 56.9L25.394 56.72L27.1452 61.7395L26.6851 61.9ZM29.7317 60.9544C29.3575 61.0849 29.0084 61.1116 28.6843 61.0344C28.3602 60.9571 28.075 60.7934 27.8287 60.5431C27.5823 60.2928 27.3914 59.9736 27.2561 59.5855C27.1182 59.1904 27.0695 58.8191 27.1098 58.4713C27.1501 58.1236 27.2739 57.8211 27.4812 57.5636C27.6901 57.3031 27.9781 57.1088 28.3453 56.9807C28.7217 56.8493 29.072 56.8223 29.3961 56.8995C29.7217 56.9736 30.0065 57.1362 30.2506 57.3873C30.4961 57.6353 30.6865 57.9533 30.8219 58.3414C30.9598 58.7364 31.0101 59.1086 30.9729 59.4578C30.935 59.8047 30.8115 60.1084 30.6027 60.369C30.3938 60.6295 30.1035 60.8247 29.7317 60.9544ZM29.5602 60.4629C29.9785 60.317 30.2416 60.0701 30.3496 59.7222C30.4568 59.372 30.433 58.975 30.2782 58.5311C30.1193 58.0756 29.8894 57.7492 29.5885 57.5518C29.29 57.3536 28.9327 57.327 28.5168 57.4722C28.2356 57.5703 28.0255 57.7152 27.8865 57.9071C27.749 58.0958 27.6743 58.3187 27.6623 58.5757C27.6518 58.8296 27.6977 59.103 27.7998 59.3958C27.9579 59.8489 28.1894 60.1761 28.4942 60.3773C28.7982 60.5763 29.1535 60.6048 29.5602 60.4629ZM33.8782 59.5077C33.5111 59.6358 33.1643 59.6655 32.838 59.5969C32.514 59.5275 32.2262 59.3711 31.9745 59.1279C31.7228 58.8847 31.5277 58.5644 31.389 58.167C31.2455 57.7557 31.1947 57.3746 31.2365 57.0238C31.2783 56.6729 31.4033 56.3699 31.6115 56.1148C31.8219 55.8589 32.1084 55.6678 32.471 55.5413C32.8428 55.4116 33.19 55.3869 33.5125 55.4672C33.8343 55.5452 34.1181 55.7199 34.364 55.9913C34.6098 56.2626 34.804 56.6211 34.9464 57.0666L34.4235 57.2491L34.3603 57.0678C34.1808 56.583 33.9465 56.2516 33.6576 56.0735C33.371 55.8946 33.0348 55.8724 32.6491 56.007C32.2447 56.1481 31.9803 56.3876 31.8558 56.7256C31.7336 57.0628 31.7573 57.4742 31.9267 57.9599C32.0921 58.4339 32.3275 58.7649 32.6329 58.9529C32.9398 59.1378 33.2908 59.1613 33.6859 59.0235C33.9554 58.9295 34.1686 58.786 34.3255 58.5931C34.4839 58.3971 34.5803 58.1615 34.6146 57.8862L35.1566 57.9043C35.1222 58.2839 34.9913 58.615 34.7641 58.8976C34.5384 59.177 34.2431 59.3804 33.8782 59.5077ZM31.7953 58.166L31.6457 57.7373L34.5215 56.734L34.671 57.1627L31.7953 58.166ZM39.2557 58.3354C38.8839 58.4651 38.5173 58.52 38.1559 58.5001C37.7952 58.4826 37.4574 58.3997 37.1425 58.2516C36.8267 58.1011 36.5478 57.8921 36.3059 57.6246C36.0663 57.3562 35.8821 57.0373 35.7532 56.6679C35.6162 56.2751 35.5552 55.895 35.5703 55.5274C35.5846 55.1574 35.667 54.8146 35.8175 54.4988C35.9696 54.1799 36.1836 53.9006 36.4597 53.6609C36.7358 53.4212 37.0656 53.2345 37.449 53.1007C37.8882 52.9475 38.2963 52.8846 38.6735 52.912C39.0521 52.9363 39.3904 53.032 39.6886 53.1991C39.9859 53.3639 40.2356 53.5791 40.4378 53.8448C40.6423 54.1097 40.7924 54.4054 40.888 54.7317C41.018 55.179 41.0289 55.5467 40.9209 55.8346C40.8151 56.1217 40.5972 56.3229 40.2673 56.438C40.0535 56.5126 39.8501 56.5275 39.6572 56.4827C39.4644 56.4379 39.3096 56.3342 39.1929 56.1716L39.3663 56.1306C39.3425 56.324 39.2623 56.4863 39.1256 56.6174C38.9912 56.7477 38.8368 56.8432 38.6625 56.904C38.4511 56.9778 38.2493 56.9974 38.0574 56.9627C37.8669 56.9248 37.698 56.8404 37.5506 56.7094C37.4056 56.5775 37.2958 56.4047 37.2212 56.1909C37.1433 55.9678 37.1225 55.7587 37.1587 55.5636C37.1949 55.3685 37.279 55.1984 37.4108 55.0534C37.5427 54.9083 37.7108 54.8001 37.9153 54.7288C38.0664 54.6761 38.233 54.6531 38.4153 54.6599C38.5998 54.6659 38.7598 54.7248 38.8953 54.8366L38.8128 55.0374L38.6535 54.5807L39.023 54.4518L39.4147 55.5859C39.4747 55.7579 39.5633 55.8847 39.6804 55.9663C39.799 56.0448 39.9513 56.0517 40.1372 55.9868C40.2627 55.943 40.3551 55.8717 40.4144 55.7728C40.4761 55.6731 40.5083 55.5524 40.511 55.4107C40.5129 55.2666 40.4873 55.1074 40.4343 54.933C40.325 54.575 40.1718 54.2817 39.9748 54.0533C39.7778 53.8248 39.5521 53.656 39.2976 53.5466C39.0423 53.435 38.7714 53.3796 38.485 53.3805C38.2009 53.3806 37.9148 53.4309 37.6266 53.5314C37.278 53.653 36.9881 53.8193 36.7567 54.0304C36.5277 54.2406 36.3548 54.4808 36.2379 54.751C36.1233 55.0203 36.065 55.3053 36.063 55.6057C36.0601 55.9039 36.1133 56.202 36.2225 56.5002C36.3327 56.8085 36.4882 57.0748 36.689 57.2993C36.8914 57.5207 37.1238 57.6937 37.3863 57.8185C37.648 57.9409 37.9272 58.0091 38.2239 58.0228C38.5215 58.0389 38.8225 57.9939 39.1269 57.8876C39.3244 57.8187 39.513 57.7243 39.6927 57.6042C39.8747 57.4834 40.0278 57.3505 40.1519 57.2055L40.4519 57.5388C40.2894 57.7232 40.1064 57.8822 39.9028 58.0158C39.6992 58.1494 39.4835 58.2559 39.2557 58.3354ZM38.5347 56.4481C38.716 56.3849 38.8453 56.2811 38.9227 56.1368C39.0024 55.9917 39.0042 55.8099 38.928 55.5915C38.8534 55.3777 38.7412 55.2357 38.5916 55.1654C38.4443 55.0943 38.2788 55.0907 38.0952 55.1548C37.8861 55.2277 37.7456 55.3406 37.6738 55.4934C37.6043 55.6454 37.6052 55.8236 37.6766 56.0281C37.7487 56.2349 37.8612 56.3742 38.014 56.446C38.166 56.5155 38.3395 56.5162 38.5347 56.4481ZM44.2537 55.8878C43.8865 56.0159 43.5398 56.0457 43.2135 55.9771C42.8895 55.9076 42.6017 55.7513 42.35 55.5081C42.0983 55.2648 41.9031 54.9445 41.7645 54.5471C41.621 54.1358 41.5701 53.7547 41.6119 53.4039C41.6538 53.053 41.7787 52.7501 41.9869 52.495C42.1974 52.2391 42.4839 52.0479 42.8464 51.9214C43.2182 51.7917 43.5654 51.767 43.888 51.8474C44.2098 51.9254 44.4936 52.1001 44.7394 52.3714C44.9853 52.6427 45.1794 53.0012 45.3219 53.4468L44.799 53.6292L44.7358 53.4479C44.5562 52.9632 44.322 52.6317 44.0331 52.4536C43.7465 52.2747 43.4103 52.2525 43.0245 52.3871C42.6202 52.5282 42.3558 52.7677 42.2313 53.1057C42.1091 53.4429 42.1327 53.8543 42.3022 54.34C42.4676 54.8141 42.703 55.1451 43.0084 55.3331C43.3153 55.518 43.6663 55.5415 44.0613 55.4036C44.3309 55.3096 44.5441 55.1661 44.701 54.9732C44.8594 54.7772 44.9557 54.5416 44.99 54.2664L45.532 54.2845C45.4976 54.664 45.3668 54.9951 45.1395 55.2777C44.9138 55.5572 44.6185 55.7605 44.2537 55.8878ZM42.1708 54.5461L42.0212 54.1174L44.8969 53.1141L45.0465 53.5428L42.1708 54.5461ZM46.1478 55.1097L46.9548 52.6933L44.8658 51.3342L45.4793 51.1201L47.1171 52.1948L47.7206 50.3382L48.3341 50.1241L47.5439 52.4878L49.6823 53.8766L49.0654 54.0918L47.392 52.9826L46.7648 54.8945L46.1478 55.1097ZM51.2199 53.4574C50.9363 53.5563 50.6803 53.5883 50.4518 53.5534C50.2255 53.5176 50.0352 53.4315 49.8807 53.2951C49.7263 53.1587 49.6142 52.9906 49.5445 52.7908C49.4731 52.5863 49.453 52.3978 49.484 52.2253C49.5166 52.0497 49.5876 51.8907 49.6969 51.7483C49.8085 51.6051 49.95 51.4763 50.1212 51.3618C50.2955 51.2489 50.4916 51.1348 50.7095 51.0197C50.9289 50.9014 51.1446 50.791 51.3564 50.6884C51.5698 50.5827 51.7556 50.4879 51.914 50.404L51.7717 50.5787C51.6489 50.2045 51.4808 49.9543 51.2674 49.828C51.0539 49.7018 50.7601 49.7039 50.3859 49.8345C50.128 49.9245 49.9298 50.0588 49.7914 50.2374C49.6554 50.4152 49.5951 50.6421 49.6106 50.9182L49.0611 50.9458C49.0295 50.5788 49.1114 50.257 49.3068 49.9803C49.5022 49.7036 49.8079 49.4926 50.2239 49.3475C50.5678 49.2275 50.8821 49.1908 51.1669 49.2375C51.4532 49.281 51.6888 49.4073 51.8739 49.6164C51.9585 49.7094 52.0312 49.8209 52.0922 49.9508C52.1532 50.0807 52.208 50.2154 52.2566 50.3548L53.0726 52.6937L52.616 52.853L52.2864 51.9084L52.4383 51.918C52.4232 52.2856 52.3105 52.6012 52.1001 52.8649C51.8897 53.1286 51.5963 53.3261 51.2199 53.4574ZM51.1247 52.9941C51.364 52.9106 51.5582 52.7946 51.7071 52.6462C51.856 52.4978 51.9592 52.3302 52.0165 52.1433C52.073 51.9542 52.0847 51.7598 52.0516 51.5602C52.0373 51.4297 52.0062 51.292 51.9582 51.1471C51.9095 50.9999 51.8726 50.8902 51.8474 50.8182L52.0779 50.8512C51.9117 50.9352 51.7304 51.0245 51.534 51.1191C51.34 51.2129 51.1494 51.3093 50.9625 51.4085C50.7778 51.5068 50.6138 51.6044 50.4703 51.7014C50.374 51.7689 50.2856 51.8479 50.2051 51.9386C50.1238 52.0269 50.0665 52.1277 50.033 52.241C50.0019 52.3536 50.0098 52.4772 50.0569 52.612C50.095 52.7212 50.1586 52.8176 50.2477 52.9012C50.3391 52.984 50.457 53.038 50.6014 53.0632C50.7481 53.0877 50.9225 53.0646 51.1247 52.9941ZM58.4697 50.8108L57.6109 48.3382C57.5096 48.0477 57.3488 47.8483 57.1286 47.7401C56.9098 47.6287 56.6762 47.6164 56.4275 47.7032C56.2858 47.7526 56.1588 47.8334 56.0468 47.9455C55.9347 48.0576 55.8596 48.2011 55.8216 48.376C55.7859 48.55 55.8086 48.7533 55.8896 48.9856L55.556 49.0043C55.4549 48.7372 55.4249 48.4831 55.466 48.242C55.5093 48.0001 55.6103 47.7889 55.7689 47.6084C55.929 47.4248 56.1345 47.2893 56.3855 47.2017C56.7643 47.0696 57.1085 47.0811 57.4181 47.2364C57.7269 47.3893 57.9506 47.6644 58.0893 48.0618L58.9821 50.632L58.4697 50.8108ZM53.9766 52.3784L52.6632 48.6138L53.1233 48.4532L53.4468 49.3805L53.5025 49.361L54.4925 52.1984L53.9766 52.3784ZM56.2284 51.5927L55.3818 49.155C55.2772 48.8552 55.1147 48.6473 54.8944 48.5313C54.6756 48.4122 54.436 48.398 54.1757 48.4888C53.9155 48.5796 53.7364 48.7424 53.6385 48.9773C53.5397 49.2099 53.5419 49.4737 53.6448 49.7688L53.2797 49.7085C53.1954 49.4668 53.1769 49.2309 53.2243 49.0006C53.2709 48.768 53.3739 48.5626 53.5333 48.3845C53.6919 48.204 53.8967 48.07 54.1477 47.9825C54.387 47.899 54.6175 47.8759 54.8391 47.9133C55.063 47.9499 55.2624 48.0471 55.4374 48.205C55.6124 48.3629 55.7486 48.5813 55.8458 48.8602L56.7338 51.4164L56.2284 51.5927ZM61.6165 49.8302C61.2703 49.951 60.947 49.966 60.6469 49.8752C60.3459 49.7821 60.0816 49.6072 59.8538 49.3504C59.6253 49.0912 59.4457 48.7746 59.3152 48.4005C59.1822 48.0194 59.1254 47.6586 59.1448 47.3182C59.1657 46.9746 59.267 46.6747 59.4487 46.4184C59.6304 46.1622 59.8978 45.9724 60.251 45.8492C60.595 45.7292 60.9205 45.7134 61.2276 45.8017C61.5347 45.8901 61.8057 46.0614 62.0404 46.3158C62.2774 46.5693 62.4612 46.8832 62.5918 47.2573C62.7231 47.6338 62.7748 47.995 62.747 48.341C62.7191 48.687 62.6116 48.9916 62.4246 49.255C62.2368 49.516 61.9674 49.7078 61.6165 49.8302ZM60.4697 51.9898L58.5725 46.5521L59.0327 46.3915L60.0214 49.2254L60.0771 49.206L60.9856 51.8098L60.4697 51.9898ZM61.3976 49.3709C61.6602 49.2793 61.8555 49.1368 61.9836 48.9436C62.1117 48.7503 62.179 48.5248 62.1855 48.2671C62.1935 48.0062 62.1477 47.7329 62.048 47.447C61.9491 47.1635 61.8169 46.9229 61.6515 46.7252C61.486 46.5274 61.2919 46.3931 61.0691 46.3223C60.8486 46.2507 60.6035 46.2619 60.334 46.3559C60.0714 46.4475 59.8753 46.5876 59.7456 46.7762C59.6182 46.9641 59.5512 47.1868 59.5447 47.4445C59.5374 47.7 59.5852 47.9752 59.6881 48.2703C59.7895 48.5608 59.9233 48.8061 60.0895 49.0062C60.255 49.2039 60.4475 49.3374 60.6672 49.4067C60.8869 49.4761 61.1304 49.4641 61.3976 49.3709ZM64.0848 48.8517L62.2971 43.7277L62.8095 43.5489L64.5972 48.6729L64.0848 48.8517ZM67.2717 47.8572C66.9045 47.9853 66.5578 48.015 66.2315 47.9464C65.9075 47.8769 65.6196 47.7206 65.368 47.4774C65.1163 47.2341 64.9211 46.9138 64.7825 46.5165C64.639 46.1052 64.5881 45.7241 64.6299 45.3732C64.6717 45.0224 64.7967 44.7194 65.0049 44.4643C65.2154 44.2084 65.5019 44.0172 65.8644 43.8907C66.2362 43.761 66.5834 43.7363 66.906 43.8167C67.2278 43.8947 67.5116 44.0694 67.7574 44.3407C68.0033 44.6121 68.1974 44.9705 68.3399 45.4161L67.817 45.5985L67.7538 45.4173C67.5742 44.9325 67.34 44.6011 67.051 44.423C66.7644 44.244 66.4283 44.2219 66.0425 44.3564C65.6382 44.4975 65.3738 44.737 65.2493 45.075C65.1271 45.4122 65.1507 45.8236 65.3202 46.3093C65.4856 46.7834 65.721 47.1144 66.0264 47.3024C66.3333 47.4873 66.6843 47.5108 67.0793 47.373C67.3489 47.2789 67.5621 47.1355 67.719 46.9426C67.8774 46.7466 67.9737 46.5109 68.008 46.2357L68.55 46.2538C68.5156 46.6334 68.3848 46.9644 68.1575 47.247C67.9318 47.5265 67.6365 47.7299 67.2717 47.8572ZM65.1888 46.5155L65.0392 46.0867L67.9149 45.0834L68.0645 45.5122L65.1888 46.5155ZM69.6817 46.899L69.4737 46.303L70.0698 46.095L70.2778 46.6911L69.6817 46.899ZM72.9523 45.8753C72.5735 46.0074 72.2232 46.0345 71.9014 45.9565C71.5797 45.8785 71.2983 45.7146 71.0575 45.465C70.8181 45.2123 70.6284 44.8927 70.4883 44.5062C70.3552 44.1095 70.3064 43.7382 70.342 43.3921C70.3769 43.0437 70.4968 42.7411 70.7019 42.4845C70.9061 42.2256 71.1952 42.0309 71.5694 41.9003C71.9505 41.7674 72.3141 41.7448 72.6601 41.8326C73.0085 41.9196 73.2913 42.1064 73.5085 42.3929L73.0625 42.7284C72.8956 42.5338 72.6942 42.4085 72.4584 42.3526C72.224 42.2936 71.9837 42.3071 71.7374 42.3931C71.4608 42.4895 71.2542 42.6333 71.1176 42.8243C70.9801 43.0131 70.9065 43.2355 70.8969 43.4918C70.8872 43.748 70.9323 44.0229 71.0321 44.3165C71.194 44.7657 71.4251 45.0917 71.7253 45.2946C72.0246 45.4951 72.3765 45.5249 72.7808 45.3838C73.0364 45.2946 73.2334 45.1607 73.3718 44.9821C73.5117 44.8003 73.5888 44.5805 73.6031 44.3227L74.1725 44.2961C74.1499 44.6794 74.0346 45.0063 73.8266 45.277C73.6178 45.5453 73.3264 45.7448 72.9523 45.8753ZM76.7208 44.5605C76.3466 44.691 75.9975 44.7177 75.6734 44.6405C75.3493 44.5633 75.0641 44.3995 74.8178 44.1492C74.5714 43.8989 74.3806 43.5797 74.2452 43.1916C74.1073 42.7965 74.0586 42.4252 74.0989 42.0775C74.1392 41.7297 74.263 41.4272 74.4704 41.1698C74.6792 40.9092 74.9672 40.7149 75.3344 40.5868C75.7108 40.4554 76.0611 40.4284 76.3852 40.5056C76.7108 40.5797 76.9957 40.7423 77.2397 40.9934C77.4852 41.2414 77.6757 41.5594 77.8111 41.9475C77.9489 42.3426 77.9992 42.7147 77.962 43.0639C77.9241 43.4108 77.8006 43.7145 77.5918 43.9751C77.3829 44.2356 77.0926 44.4308 76.7208 44.5605ZM76.5493 44.069C76.9676 43.9231 77.2307 43.6762 77.3387 43.3283C77.446 42.9781 77.4221 42.5811 77.2673 42.1372C77.1084 41.6818 76.8785 41.3553 76.5776 41.1579C76.2791 40.9597 75.9218 40.9331 75.5059 41.0783C75.2247 41.1764 75.0146 41.3214 74.8756 41.5132C74.7381 41.7019 74.6634 41.9248 74.6514 42.1818C74.6409 42.4357 74.6868 42.7091 74.7889 43.0019C74.947 43.455 75.1785 43.7822 75.4833 43.9835C75.7873 44.1824 76.1426 44.2109 76.5493 44.069ZM83.7275 41.9986L82.8688 39.5261C82.7674 39.2356 82.6066 39.0362 82.3864 38.928C82.1677 38.8166 81.934 38.8043 81.6854 38.891C81.5436 38.9405 81.4167 39.0213 81.3046 39.1334C81.1925 39.2455 81.1175 39.3889 81.0794 39.5638C81.0437 39.7379 81.0664 39.9411 81.1475 40.1735L80.8138 40.1922C80.7128 39.925 80.6828 39.6709 80.7238 39.4298C80.7671 39.1879 80.8681 38.9768 81.0267 38.7963C81.1868 38.6127 81.3924 38.4771 81.6433 38.3896C82.0221 38.2574 82.3663 38.269 82.6759 38.4242C82.9848 38.5772 83.2085 38.8523 83.3471 39.2497L84.2399 41.8199L83.7275 41.9986ZM79.2344 43.5662L77.921 39.8016L78.3811 39.6411L78.7046 40.5683L78.7604 40.5489L79.7503 43.3862L79.2344 43.5662ZM81.4862 42.7806L80.6396 40.3429C80.535 40.0431 80.3726 39.8352 80.1522 39.7192C79.9334 39.6 79.6938 39.5859 79.4336 39.6767C79.1733 39.7675 78.9942 39.9303 78.8963 40.1652C78.7976 40.3977 78.7997 40.6616 78.9027 40.9567L78.5375 40.8964C78.4532 40.6547 78.4348 40.4187 78.4822 40.1885C78.5287 39.9559 78.6317 39.7505 78.7911 39.5724C78.9497 39.3919 79.1545 39.2579 79.4055 39.1703C79.6449 39.0868 79.8753 39.0638 80.0969 39.1012C80.3208 39.1377 80.5203 39.235 80.6953 39.3929C80.8703 39.5508 81.0064 39.7692 81.1037 40.048L81.9916 42.6043L81.4862 42.7806Z" fill="#64748B"/>
<rect x="123.077" y="15.3986" width="46.0753" height="18.4589" rx="1.84589" transform="rotate(-19.2332 123.077 15.3986)" fill="#059669"/>
<path d="M134.516 23.9328C134.201 24.0428 133.898 24.0882 133.606 24.0691C133.315 24.0473 133.053 23.9645 132.818 23.8206C132.584 23.6741 132.394 23.47 132.248 23.2085L132.878 22.8758C133.039 23.1208 133.252 23.2813 133.518 23.3573C133.784 23.4312 134.059 23.4185 134.343 23.3192C134.52 23.2575 134.673 23.1733 134.802 23.0666C134.931 22.9579 135.022 22.8361 135.075 22.7012C135.13 22.5635 135.132 22.4215 135.081 22.2751C135.053 22.1958 135.014 22.1306 134.964 22.0795C134.917 22.0278 134.861 21.988 134.796 21.9603C134.733 21.9299 134.661 21.9104 134.581 21.902C134.502 21.8909 134.417 21.8873 134.327 21.8912L133.086 21.9514C132.965 21.9572 132.838 21.9546 132.707 21.9434C132.575 21.9303 132.446 21.8987 132.321 21.8487C132.198 21.7959 132.085 21.7178 131.983 21.6144C131.88 21.5089 131.797 21.3666 131.735 21.1877C131.641 20.9173 131.63 20.6644 131.703 20.4291C131.777 20.1911 131.917 19.9827 132.121 19.8042C132.325 19.6236 132.574 19.4818 132.869 19.379C133.168 19.2795 133.451 19.2398 133.721 19.2599C133.992 19.2792 134.238 19.3575 134.46 19.4947C134.682 19.6292 134.87 19.8214 135.023 20.0713L134.381 20.4255C134.293 20.2715 134.178 20.1528 134.037 20.0697C133.896 19.9845 133.742 19.9355 133.576 19.9229C133.409 19.9082 133.24 19.9292 133.071 19.9861C132.907 20.0388 132.766 20.1153 132.648 20.2157C132.532 20.3154 132.45 20.4272 132.402 20.5511C132.356 20.6744 132.355 20.798 132.398 20.922C132.441 21.044 132.511 21.1302 132.608 21.1807C132.706 21.2311 132.814 21.2605 132.933 21.2691C133.054 21.2749 133.171 21.274 133.285 21.2662L134.176 21.2119C134.288 21.2049 134.416 21.2035 134.561 21.2076C134.707 21.209 134.856 21.2314 135.005 21.275C135.157 21.3178 135.298 21.3965 135.426 21.5112C135.555 21.6238 135.656 21.7869 135.731 22.0004C135.808 22.222 135.831 22.4329 135.801 22.6328C135.769 22.8308 135.695 23.014 135.578 23.1825C135.463 23.3482 135.313 23.495 135.13 23.6229C134.947 23.7508 134.742 23.8541 134.516 23.9328ZM138.311 22.609C137.983 22.7232 137.671 22.7524 137.373 22.6966C137.077 22.6381 136.815 22.5049 136.587 22.2969C136.361 22.0862 136.188 21.8111 136.07 21.4715C135.944 21.1116 135.903 20.7761 135.944 20.4649C135.988 20.153 136.106 19.8827 136.298 19.6539C136.489 19.4251 136.746 19.2547 137.067 19.1426C137.403 19.0256 137.716 19.0042 138.006 19.0785C138.296 19.1507 138.549 19.31 138.765 19.5562C138.983 19.8018 139.148 20.126 139.262 20.529L138.624 20.7514L138.543 20.5196C138.406 20.1388 138.234 19.8817 138.028 19.7483C137.824 19.6143 137.577 19.5976 137.288 19.6984C136.969 19.8097 136.764 19.9941 136.674 20.2514C136.584 20.5088 136.605 20.8276 136.737 21.2078C136.864 21.5697 137.042 21.8223 137.272 21.9655C137.501 22.1067 137.768 22.1245 138.071 22.0188C138.27 21.9493 138.426 21.8446 138.539 21.7047C138.654 21.5622 138.722 21.3923 138.745 21.1952L139.439 21.1753C139.414 21.5148 139.299 21.8113 139.096 22.0648C138.892 22.3162 138.63 22.4976 138.311 22.609ZM136.593 21.4601L136.419 20.963L138.771 20.1425L138.944 20.6397L136.593 21.4601ZM142.68 20.9819L142.115 19.3624C142.07 19.2343 142.014 19.107 141.944 18.9806C141.876 18.8515 141.792 18.7396 141.69 18.645C141.591 18.5497 141.474 18.4856 141.339 18.4527C141.207 18.4191 141.053 18.4329 140.878 18.4939C140.764 18.5336 140.663 18.5905 140.575 18.6646C140.486 18.7367 140.418 18.8279 140.369 18.9382C140.323 19.0478 140.302 19.1785 140.304 19.3304C140.309 19.4815 140.346 19.6547 140.414 19.8499L139.965 19.8388C139.861 19.5399 139.825 19.257 139.857 18.9903C139.889 18.7215 139.987 18.4865 140.152 18.2854C140.317 18.0842 140.547 17.9318 140.844 17.8282C141.072 17.7488 141.276 17.7187 141.456 17.738C141.636 17.7573 141.795 17.8102 141.932 17.8969C142.071 17.9807 142.19 18.084 142.29 18.2065C142.39 18.3291 142.472 18.4543 142.537 18.5821C142.603 18.7099 142.653 18.8247 142.688 18.9263L143.327 20.7563L142.68 20.9819ZM140.365 21.7896L139.216 18.4956L139.786 18.2966L140.118 19.2482L140.195 19.2216L141.012 21.564L140.365 21.7896ZM145.42 20.1287C145.113 20.2358 144.821 20.2522 144.544 20.1777C144.269 20.1025 144.025 19.9551 143.812 19.7353C143.599 19.5128 143.436 19.2369 143.321 18.9075C143.205 18.5761 143.163 18.2589 143.194 17.9561C143.225 17.6512 143.326 17.3846 143.497 17.1561C143.669 16.9248 143.91 16.7553 144.219 16.6474C144.53 16.5389 144.818 16.524 145.083 16.6027C145.349 16.6787 145.581 16.829 145.781 17.0537C145.982 17.2777 146.14 17.5544 146.255 17.8838C146.37 18.2132 146.418 18.5282 146.4 18.8288C146.382 19.1295 146.293 19.3943 146.133 19.6233C145.973 19.8503 145.735 20.0187 145.42 20.1287ZM145.307 19.5214C145.517 19.4483 145.67 19.3389 145.767 19.1932C145.865 19.0474 145.914 18.8765 145.914 18.6803C145.914 18.4842 145.874 18.2722 145.794 18.0445C145.715 17.8168 145.613 17.6265 145.489 17.4736C145.367 17.32 145.224 17.2171 145.06 17.1649C144.898 17.112 144.717 17.1203 144.518 17.1898C144.306 17.2636 144.151 17.3761 144.05 17.5274C143.95 17.6786 143.897 17.8533 143.891 18.0516C143.887 18.2492 143.923 18.4557 143.998 18.6713C144.074 18.8888 144.175 19.0747 144.302 19.2289C144.43 19.3804 144.578 19.4849 144.747 19.5425C144.917 19.5994 145.104 19.5923 145.307 19.5214ZM146.37 19.6946L145.543 17.3247L145.47 17.3502L144.765 15.3281L145.405 15.1046L146.937 19.4966L146.37 19.6946ZM149.073 18.7516L147.541 14.3596L148.178 14.1372L149.71 18.5292L149.073 18.7516ZM152.938 17.403L152.373 15.7835C152.328 15.6554 152.272 15.5281 152.202 15.4017C152.134 15.2726 152.05 15.1607 151.948 15.0661C151.849 14.9708 151.732 14.9067 151.597 14.8738C151.465 14.8402 151.311 14.854 151.136 14.915C151.022 14.9547 150.921 15.0116 150.833 15.0857C150.744 15.1578 150.676 15.249 150.627 15.3593C150.581 15.4689 150.56 15.5997 150.562 15.7515C150.567 15.9026 150.604 16.0758 150.672 16.271L150.223 16.2599C150.119 15.961 150.083 15.6781 150.115 15.4114C150.147 15.1426 150.245 14.9076 150.41 14.7065C150.575 14.5053 150.806 14.3529 151.102 14.2494C151.33 14.1699 151.534 14.1398 151.714 14.1591C151.894 14.1784 152.053 14.2313 152.19 14.318C152.329 14.4019 152.448 14.5051 152.548 14.6276C152.648 14.7502 152.73 14.8754 152.795 15.0032C152.861 15.131 152.911 15.2458 152.946 15.3474L153.585 17.1774L152.938 17.403ZM150.623 18.2107L149.474 14.9167L150.044 14.7177L150.376 15.6693L150.453 15.6427L151.27 17.9851L150.623 18.2107ZM155.27 16.5895L152.925 13.7127L153.569 13.4881L155.314 15.6777L155.319 12.8774L155.963 12.6528L155.916 16.364L155.27 16.5895ZM156.385 11.9L156.169 11.2808L156.806 11.0584L157.022 11.6776L156.385 11.9ZM157.723 15.7338L156.573 12.4398L157.211 12.2174L158.36 15.5114L157.723 15.7338ZM161.161 14.5343C160.968 14.6473 160.77 14.7355 160.569 14.7989C160.368 14.8624 160.176 14.8858 159.995 14.8693C159.813 14.8527 159.656 14.782 159.524 14.6572C159.405 14.5458 159.318 14.421 159.263 14.2828C159.21 14.1419 159.151 13.982 159.089 13.8031L158.073 10.8903L158.713 10.6668L159.719 13.5491C159.765 13.6813 159.806 13.7958 159.842 13.8927C159.88 13.9889 159.93 14.0638 159.992 14.1174C160.11 14.2179 160.251 14.2497 160.416 14.2126C160.582 14.1728 160.768 14.1001 160.972 13.9944L161.161 14.5343ZM157.939 12.538L157.761 12.0256L160.012 11.2403L160.19 11.7527L157.939 12.538ZM163.199 13.9257C162.872 14.0399 162.559 14.0691 162.262 14.0134C161.965 13.9548 161.703 13.8216 161.476 13.6136C161.249 13.4029 161.077 13.1278 160.958 12.7882C160.833 12.4283 160.791 12.0928 160.833 11.7816C160.877 11.4698 160.995 11.1994 161.186 10.9707C161.378 10.7419 161.634 10.5714 161.956 10.4594C162.291 10.3423 162.604 10.3209 162.895 10.3952C163.184 10.4674 163.437 10.6267 163.653 10.8729C163.871 11.1185 164.037 11.4428 164.15 11.8457L163.513 12.0681L163.432 11.8363C163.294 11.4555 163.122 11.1984 162.916 11.0651C162.712 10.931 162.466 10.9144 162.177 11.0151C161.858 11.1265 161.653 11.3108 161.563 11.5682C161.472 11.8255 161.493 12.1443 161.626 12.5245C161.752 12.8865 161.93 13.139 162.161 13.2823C162.39 13.4235 162.656 13.4412 162.959 13.3355C163.158 13.266 163.315 13.1613 163.428 13.0215C163.542 12.8789 163.611 12.709 163.633 12.5119L164.328 12.492C164.302 12.8315 164.188 13.128 163.984 13.3815C163.78 13.6329 163.519 13.8143 163.199 13.9257ZM161.481 12.7768L161.308 12.2797L163.659 11.4593L163.833 11.9564L161.481 12.7768Z" fill="white"/>
</svg>
