<svg width="156" height="70" viewBox="0 0 156 70" fill="none" xmlns="http://www.w3.org/2000/svg">
<rect x="0.731731" y="52.5825" width="135.211" height="17.9974" rx="1.61515" transform="rotate(-19.2332 0.731731 52.5825)" stroke="#D0D5DD" stroke-width="0.461471"/>
<path d="M11.3495 60.6296C11.0425 60.7368 10.7482 60.7824 10.4667 60.7666C10.1865 60.748 9.93313 60.6722 9.70652 60.5391C9.48195 60.4054 9.29986 60.2169 9.16025 59.9736L9.59115 59.7377C9.76367 59.9969 9.99623 60.1666 10.2889 60.247C10.5808 60.3253 10.8904 60.3074 11.2178 60.1932C11.4333 60.118 11.6148 60.0171 11.7622 59.8904C11.9088 59.7616 12.009 59.6172 12.0626 59.4571C12.1162 59.297 12.1129 59.1305 12.0526 58.9577C12.0129 58.8438 11.9588 58.7543 11.8905 58.6892C11.8214 58.6221 11.7442 58.5738 11.6586 58.5443C11.5731 58.5148 11.4846 58.4967 11.3932 58.4898C11.3012 58.4808 11.2136 58.4783 11.1306 58.4822L9.90135 58.5381C9.75367 58.5463 9.61261 58.5408 9.47817 58.5216C9.34302 58.5003 9.21821 58.4629 9.10372 58.4093C8.99056 58.353 8.89073 58.276 8.80424 58.1785C8.71775 58.0809 8.64896 57.959 8.59788 57.8126C8.51134 57.5645 8.50156 57.3273 8.56856 57.1009C8.63555 56.8745 8.76488 56.6732 8.95653 56.4968C9.14817 56.3205 9.38872 56.183 9.67816 56.0843C9.97096 55.9821 10.2503 55.9428 10.5163 55.9664C10.7843 55.9892 11.0272 56.0709 11.245 56.2116C11.4622 56.3502 11.6409 56.5422 11.7812 56.7875L11.3413 57.0367C11.2442 56.8563 11.1162 56.715 10.9574 56.613C10.7987 56.511 10.6208 56.4522 10.4237 56.4366C10.228 56.4182 10.0281 56.4434 9.82409 56.5123C9.62685 56.5812 9.46268 56.6761 9.33155 56.7971C9.20175 56.9154 9.11198 57.047 9.06224 57.1921C9.0125 57.3372 9.01317 57.4829 9.06425 57.6293C9.11604 57.7778 9.1982 57.8825 9.31075 57.9436C9.42533 58.004 9.55147 58.0387 9.68917 58.0477C9.82891 58.0559 9.96138 58.0565 10.0866 58.0493L11.035 58.0023C11.133 57.9955 11.2501 57.9946 11.3864 57.9995C11.524 58.0017 11.6647 58.0256 11.8083 58.0713C11.9533 58.1142 12.0872 58.1906 12.2099 58.3006C12.3327 58.4106 12.4306 58.5703 12.5037 58.7798C12.5746 58.9831 12.5975 59.1793 12.5722 59.3683C12.5489 59.5566 12.4832 59.7312 12.3751 59.892C12.2691 60.0522 12.1284 60.1948 11.953 60.3198C11.7805 60.4462 11.5793 60.5495 11.3495 60.6296ZM15.3449 59.1331C15.1733 59.2363 14.9956 59.3153 14.8118 59.3704C14.6301 59.4246 14.456 59.4421 14.2895 59.4226C14.1251 59.4024 13.9807 59.3319 13.8565 59.211C13.7549 59.1096 13.6795 58.9979 13.6301 58.876C13.582 58.7514 13.53 58.6087 13.474 58.4481L12.4216 55.4316L12.8669 55.2763L13.9129 58.2744C13.9611 58.4127 14.0026 58.5282 14.0372 58.6211C14.0732 58.7111 14.1229 58.785 14.1864 58.8427C14.3071 58.9534 14.4514 58.9943 14.6192 58.9654C14.7891 58.9358 14.9852 58.8605 15.2076 58.7396L15.3449 59.1331ZM12.1703 56.9767L12.0362 56.5924L14.1956 55.8391L14.3297 56.2234L12.1703 56.9767ZM16.9682 58.6693C16.7202 58.7559 16.4961 58.7839 16.2962 58.7533C16.0982 58.722 15.9317 58.6467 15.7965 58.5273C15.6614 58.408 15.5633 58.2609 15.5023 58.086C15.4398 57.9071 15.4222 57.7421 15.4494 57.5912C15.4779 57.4376 15.54 57.2985 15.6357 57.1739C15.7333 57.0486 15.8571 56.9358 16.0069 56.8357C16.1594 56.7368 16.331 56.637 16.5217 56.5363C16.7137 56.4328 16.9024 56.3362 17.0877 56.2465C17.2744 56.1539 17.437 56.071 17.5756 55.9975L17.4511 56.1505C17.3437 55.823 17.1966 55.604 17.0098 55.4936C16.823 55.3831 16.5659 55.385 16.2386 55.4992C16.0129 55.578 15.8395 55.6955 15.7184 55.8518C15.5993 56.0074 15.5466 56.2059 15.5601 56.4475L15.0793 56.4716C15.0517 56.1505 15.1233 55.8689 15.2943 55.6268C15.4653 55.3847 15.7328 55.2001 16.0968 55.0731C16.3977 54.9682 16.6727 54.9361 16.9219 54.9769C17.1724 55.0149 17.3786 55.1254 17.5405 55.3084C17.6145 55.3898 17.6782 55.4873 17.7315 55.601C17.7849 55.7147 17.8328 55.8325 17.8754 55.9545L18.5894 58.0011L18.1899 58.1405L17.9015 57.3139L18.0344 57.3223C18.0212 57.6439 17.9225 57.9201 17.7385 58.1509C17.5544 58.3816 17.2976 58.5544 16.9682 58.6693ZM16.8849 58.2639C17.0944 58.1908 17.2643 58.0894 17.3946 57.9595C17.5249 57.8296 17.6151 57.683 17.6653 57.5195C17.7148 57.354 17.725 57.1839 17.696 57.0093C17.6835 56.895 17.6563 56.7745 17.6143 56.6478C17.5717 56.5189 17.5393 56.423 17.5174 56.36L17.719 56.3889C17.5736 56.4624 17.415 56.5405 17.2431 56.6233C17.0733 56.7054 16.9066 56.7897 16.743 56.8765C16.5814 56.9625 16.4379 57.0479 16.3124 57.1328C16.2281 57.1918 16.1507 57.261 16.0803 57.3403C16.0092 57.4176 15.959 57.5058 15.9298 57.605C15.9025 57.7034 15.9095 57.8116 15.9506 57.9296C15.984 58.0251 16.0396 58.1095 16.1176 58.1826C16.1976 58.2551 16.3008 58.3023 16.4271 58.3244C16.5554 58.3458 16.708 58.3256 16.8849 58.2639ZM19.3834 57.7241L18.2342 54.4301L18.6368 54.2896L18.9134 55.0826L18.798 55.0066C18.8005 54.8962 18.8171 54.7901 18.8477 54.6882C18.8776 54.5842 18.9178 54.4938 18.9685 54.4168C19.0277 54.3117 19.1075 54.22 19.2078 54.1417C19.3075 54.0613 19.4142 53.9978 19.528 53.9513C19.6411 53.9027 19.7497 53.874 19.8537 53.865L20.0006 54.2859C19.87 54.2973 19.7363 54.3359 19.5997 54.4018C19.463 54.4678 19.3517 54.5705 19.2658 54.7099C19.1858 54.8336 19.1393 54.965 19.1262 55.1042C19.1125 55.2412 19.1199 55.3801 19.1484 55.5207C19.1762 55.6592 19.2128 55.7936 19.2582 55.9237L19.8318 57.5676L19.3834 57.7241ZM23.375 56.3315C23.2034 56.4347 23.0257 56.5138 22.8419 56.5688C22.6602 56.6231 22.486 56.6405 22.3196 56.621C22.1552 56.6008 22.0108 56.5303 21.8865 56.4094C21.785 56.308 21.7096 56.1963 21.6602 56.0744C21.6121 55.9498 21.5601 55.8071 21.504 55.6465L20.4516 52.63L20.8969 52.4747L21.943 55.4728C21.9912 55.6111 22.0327 55.7267 22.0673 55.8195C22.1033 55.9096 22.153 55.9834 22.2165 56.0411C22.3372 56.1518 22.4815 56.1927 22.6493 56.1638C22.8192 56.1342 23.0153 56.0589 23.2377 55.938L23.375 56.3315ZM20.2004 54.1752L20.0663 53.7909L22.2257 53.0375L22.3598 53.4218L20.2004 54.1752ZM27.0385 55.0533C26.867 55.1565 26.6893 55.2356 26.5055 55.2906C26.3237 55.3449 26.1496 55.3623 25.9832 55.3428C25.8187 55.3226 25.6744 55.2521 25.5501 55.1312C25.4486 55.0298 25.3731 54.9182 25.3238 54.7962C25.2757 54.6716 25.2237 54.529 25.1676 54.3683L24.1152 51.3519L24.5605 51.1965L25.6065 54.1947C25.6548 54.3329 25.6962 54.4485 25.7309 54.5413C25.7669 54.6314 25.8166 54.7053 25.8801 54.763C26.0008 54.8737 26.1451 54.9145 26.3129 54.8856C26.4828 54.856 26.6789 54.7808 26.9013 54.6598L27.0385 55.0533ZM23.864 52.897L23.7299 52.5127L25.8893 51.7593L26.0234 52.1436L23.864 52.897ZM28.5786 56.1582L28.6127 54.2064L28.8007 54.7156L26.1226 51.6779L26.5984 51.5119L28.815 54.0606L28.6198 54.1287L28.6785 50.7862L29.136 50.6266L29.027 56.0018L28.5786 56.1582ZM32.3261 53.3112C32.0232 53.4169 31.7404 53.43 31.4777 53.3506C31.2144 53.2691 30.9831 53.116 30.7838 52.8913C30.5838 52.6646 30.4267 52.3875 30.3125 52.0602C30.1961 51.7267 30.1465 51.411 30.1634 51.1132C30.1817 50.8126 30.2703 50.5501 30.4293 50.3259C30.5883 50.1016 30.8223 49.9356 31.1314 49.8278C31.4323 49.7228 31.7171 49.7089 31.9859 49.7862C32.2546 49.8635 32.4917 50.0135 32.6971 50.2361C32.9045 50.4579 33.0653 50.7325 33.1795 51.0599C33.2944 51.3893 33.3397 51.7054 33.3153 52.0081C33.2909 52.3108 33.1969 52.5774 33.0332 52.8079C32.8689 53.0363 32.6332 53.204 32.3261 53.3112ZM31.3227 55.2008L29.6627 50.4428L30.0653 50.3023L30.9304 52.782L30.9792 52.765L31.7741 55.0433L31.3227 55.2008ZM32.1346 52.9093C32.3644 52.8291 32.5353 52.7045 32.6474 52.5354C32.7594 52.3663 32.8183 52.169 32.824 51.9434C32.8311 51.7152 32.7909 51.476 32.7037 51.2259C32.6171 50.9778 32.5015 50.7673 32.3567 50.5943C32.212 50.4213 32.0421 50.3038 31.8472 50.2418C31.6542 50.1791 31.4398 50.1889 31.2039 50.2712C30.9742 50.3513 30.8026 50.4739 30.6891 50.639C30.5776 50.8033 30.519 50.9982 30.5133 51.2237C30.5069 51.4472 30.5487 51.6881 30.6388 51.9463C30.7275 52.2005 30.8446 52.4151 30.99 52.5901C31.1348 52.7631 31.3033 52.88 31.4955 52.9407C31.6877 53.0013 31.9008 52.9909 32.1346 52.9093ZM33.1186 48.5357L32.943 48.0325L33.3913 47.8761L33.5669 48.3793L33.1186 48.5357ZM34.4859 52.455L33.3367 49.161L33.7851 49.0046L34.9343 52.2986L34.4859 52.455ZM38.2277 51.1496L37.6413 49.469C37.5775 49.286 37.5017 49.1243 37.4139 48.9838C37.3254 48.8414 37.2227 48.7267 37.1057 48.6398C36.99 48.5501 36.8602 48.4951 36.7162 48.4746C36.5743 48.4534 36.4169 48.473 36.244 48.5333C36.0854 48.5886 35.9547 48.665 35.8519 48.7625C35.751 48.8592 35.677 48.974 35.6299 49.1068C35.584 49.2368 35.5653 49.3825 35.5736 49.5438C35.582 49.7051 35.6188 49.8793 35.6841 50.0663L35.3424 50.1069C35.2247 49.7693 35.1847 49.4651 35.2224 49.1942C35.2602 48.9233 35.3622 48.6927 35.5285 48.5024C35.6947 48.3121 35.9121 48.1701 36.1805 48.0765C36.3777 48.0077 36.5601 47.9782 36.7278 47.9881C36.8975 47.9974 37.0513 48.0361 37.1892 48.1043C37.329 48.1718 37.4539 48.2617 37.5638 48.3739C37.6729 48.4841 37.768 48.6094 37.8489 48.75C37.9292 48.8885 37.9952 49.0319 38.047 49.1804L38.6791 50.9921L38.2277 51.1496ZM35.8456 51.9806L34.6964 48.6866L35.102 48.5451L35.3851 49.3564L35.4308 49.3404L36.297 51.8231L35.8456 51.9806ZM41.3217 51.8149C41.1529 51.8738 40.9773 51.9066 40.7949 51.9132C40.6152 51.9212 40.4374 51.8954 40.2616 51.8358C40.0864 51.7783 39.9223 51.6805 39.7691 51.5423L40.096 51.1751C40.2514 51.3262 40.4252 51.4127 40.6176 51.4345C40.8127 51.4577 40.9967 51.4391 41.1695 51.3788C41.4074 51.2958 41.584 51.184 41.6992 51.0435C41.8171 50.9042 41.8794 50.7365 41.8862 50.5403C41.893 50.344 41.8504 50.1171 41.7583 49.8596L41.4518 48.9812L41.5036 48.9631L40.679 46.5994L41.0785 46.46L42.2118 49.7082C42.2444 49.8018 42.2726 49.8923 42.2963 49.9798C42.3227 50.0687 42.3434 50.1573 42.3582 50.2456C42.4054 50.5051 42.3957 50.7355 42.329 50.9366C42.2644 51.1371 42.1469 51.3103 41.9767 51.4564C41.8084 51.6018 41.5901 51.7213 41.3217 51.8149ZM40.7804 50.3616C40.4734 50.4687 40.1845 50.484 39.9137 50.4074C39.6422 50.3287 39.4028 50.1785 39.1954 49.9566C38.988 49.7348 38.8268 49.4591 38.7119 49.1297C38.5976 48.8024 38.5517 48.4877 38.5741 48.1856C38.5985 47.8829 38.6918 47.6177 38.8541 47.39C39.0165 47.1623 39.2481 46.9959 39.549 46.891C39.8581 46.7831 40.1446 46.7676 40.4086 46.8442C40.6725 46.9209 40.9042 47.0716 41.1034 47.2963C41.3041 47.5183 41.4625 47.796 41.5789 48.1295C41.6931 48.4568 41.7424 48.7715 41.7269 49.0734C41.7106 49.3733 41.6247 49.6371 41.4692 49.8647C41.313 50.0902 41.0834 50.2559 40.7804 50.3616ZM40.6804 49.9278C40.9142 49.8462 41.0875 49.7219 41.2003 49.5548C41.3131 49.3877 41.3723 49.1914 41.378 48.9659C41.383 48.7384 41.3412 48.4975 41.2525 48.2433C41.1624 47.9851 41.0454 47.7705 40.9013 47.5995C40.7566 47.4265 40.5884 47.3107 40.3969 47.252C40.2074 47.1927 39.9978 47.2031 39.768 47.2833C39.5322 47.3656 39.3572 47.4916 39.2431 47.6614C39.129 47.8312 39.0691 48.0289 39.0634 48.2544C39.0597 48.4792 39.1011 48.7157 39.1877 48.9637C39.2749 49.2138 39.3913 49.4264 39.5367 49.6015C39.6835 49.7738 39.8534 49.8913 40.0463 49.954C40.2393 50.0167 40.4506 50.0079 40.6804 49.9278ZM43.1659 49.4267L42.9839 48.9051L43.5055 48.7232L43.6875 49.2447L43.1659 49.4267ZM44.7147 48.8863L44.5328 48.3648L45.0543 48.1828L45.2363 48.7043L44.7147 48.8863ZM46.2636 48.3459L46.0816 47.8244L46.6032 47.6424L46.7851 48.164L46.2636 48.3459Z" fill="#64748B"/>
<rect x="132.024" y="6.5321" width="18.4589" height="18.4589" rx="2.76883" transform="rotate(-19.2332 132.024 6.5321)" fill="#059669"/>
<path fill-rule="evenodd" clip-rule="evenodd" d="M142.157 14.2689C142.03 13.9058 142.03 13.9059 142.03 13.9059L142.029 13.9061L142.028 13.9064L142.025 13.9074L142.018 13.91C142.012 13.9122 142.004 13.9151 141.995 13.9188C141.976 13.9261 141.95 13.9365 141.92 13.95C141.858 13.9768 141.774 14.0169 141.683 14.0706C141.514 14.1703 141.263 14.3499 141.13 14.6272C141.031 14.8321 141.056 15.0745 141.083 15.2334C141.115 15.4161 141.173 15.6099 141.232 15.7794C141.292 15.9511 141.357 16.1097 141.407 16.2246C141.431 16.2823 141.453 16.3296 141.468 16.3629C141.476 16.3795 141.482 16.3927 141.486 16.4019L141.491 16.4127L141.493 16.4158L141.493 16.4172C141.493 16.4172 141.493 16.4173 141.84 16.2513L141.493 16.4172C141.571 16.5794 141.751 16.6663 141.926 16.6261L141.84 16.2513C141.926 16.6261 141.926 16.6261 141.926 16.6261L141.927 16.626L141.928 16.6258L141.931 16.625L141.943 16.6223C141.952 16.6199 141.967 16.6165 141.984 16.6121C142.02 16.6034 142.07 16.5906 142.131 16.5741C142.252 16.5415 142.416 16.4936 142.588 16.4337C142.757 16.3746 142.945 16.2997 143.108 16.2107C143.249 16.1333 143.455 16.0023 143.554 15.7974C143.688 15.5202 143.672 15.2119 143.645 15.0174C143.63 14.9128 143.61 14.8222 143.593 14.7576C143.584 14.725 143.576 14.6984 143.57 14.6791C143.567 14.6694 143.565 14.6615 143.563 14.6556L143.56 14.6481L143.559 14.6456L143.559 14.6445L143.559 14.6441C143.559 14.6441 142.952 14.8552 143.559 14.6437C143.489 14.4432 143.269 14.3374 143.069 14.4073C142.868 14.4773 142.763 14.6964 142.832 14.8969L142.832 14.8965L142.832 14.896L142.832 14.8969C142.833 14.8987 142.834 14.9022 142.836 14.9073C142.839 14.9174 142.844 14.9335 142.849 14.9545C142.86 14.997 142.874 15.0565 142.883 15.1235C142.903 15.2641 142.895 15.3805 142.866 15.4511C142.863 15.4532 142.832 15.4848 142.739 15.5361C142.629 15.596 142.486 15.6547 142.334 15.7075C142.239 15.7409 142.145 15.7703 142.06 15.795C142.027 15.7137 141.992 15.6216 141.958 15.526C141.906 15.3746 141.862 15.2258 141.841 15.1029C141.823 14.9976 141.829 14.9543 141.828 14.95C141.866 14.8833 141.952 14.8051 142.074 14.733C142.133 14.6986 142.188 14.6722 142.228 14.6546C142.248 14.6459 142.263 14.6396 142.273 14.6358C142.278 14.6339 142.282 14.6326 142.283 14.632M142.284 14.6316C142.484 14.5611 142.589 14.3423 142.52 14.1422C142.45 13.9417 142.23 13.8359 142.03 13.9059L142.157 14.2689" fill="white"/>
<path fill-rule="evenodd" clip-rule="evenodd" d="M145.511 8.08495C145.689 8.04217 145.873 8.13073 145.95 8.29668C146.569 9.62642 146.569 10.955 146.206 12.0098C146.119 12.2647 146.008 12.5069 145.879 12.7304C146.251 13.0606 146.471 13.5235 146.435 14.0405C146.387 14.738 145.884 15.3999 144.96 15.8781C144.861 15.9293 144.744 15.9351 144.641 15.8939C144.537 15.8526 144.456 15.7685 144.42 15.6632C144.166 14.9355 144.131 14.4803 144.108 14.1938L144.108 14.1933C144.106 14.1635 144.104 14.1355 144.101 14.1092C144.053 14.106 144.005 14.0934 143.96 14.0719L142.228 13.2359C142.18 13.2125 142.137 13.1793 142.103 13.1388C142.079 13.1543 142.054 13.1712 142.027 13.1892C141.789 13.35 141.411 13.6055 140.683 13.8595C140.58 13.8955 140.466 13.8859 140.37 13.8331C140.275 13.7803 140.206 13.6892 140.182 13.5827C139.944 12.5495 140.121 11.7253 140.646 11.2458C141.043 10.8823 141.571 10.7807 142.089 10.8892C142.182 10.6519 142.302 10.4183 142.445 10.1941C143.045 9.25391 144.085 8.4278 145.511 8.08495ZM145.421 13.3542C145.244 13.544 145.05 13.7064 144.841 13.8346C144.854 13.902 144.861 13.9659 144.866 14.0226C144.869 14.0565 144.872 14.0919 144.875 14.1292C144.89 14.3288 144.91 14.5828 145.006 14.9526C145.48 14.6128 145.649 14.2575 145.668 13.9873C145.684 13.7633 145.601 13.5374 145.421 13.3542ZM145.479 11.7597C145.397 11.9973 145.296 12.2122 145.18 12.402C145.178 12.4024 145.177 12.4027 145.175 12.403C144.893 12.8653 144.525 13.1791 144.156 13.3126L142.694 12.6069C142.518 12.0817 142.625 11.3354 143.09 10.6065C143.541 9.89988 144.308 9.25004 145.376 8.91719C145.377 8.91792 145.377 8.91865 145.377 8.91938C145.378 8.91915 145.379 8.91891 145.379 8.91868C145.783 9.96177 145.752 10.967 145.479 11.7597ZM141.864 12.3861C141.836 12.1422 141.843 11.8884 141.884 11.6319C141.587 11.5818 141.335 11.6579 141.164 11.8135C140.968 11.9929 140.8 12.3534 140.857 12.9662C141.217 12.8083 141.432 12.6629 141.601 12.5491C141.632 12.5281 141.662 12.5083 141.69 12.4896C141.741 12.4564 141.799 12.4193 141.864 12.3861Z" fill="white"/>
<path d="M144.902 11.7508C144.717 12.1333 144.257 12.2938 143.875 12.1091C143.492 11.9245 143.332 11.4647 143.516 11.0821C143.701 10.6996 144.161 10.5392 144.543 10.7238C144.926 10.9085 145.086 11.3683 144.902 11.7508Z" fill="white"/>
</svg>
