<svg width="185" height="90" viewBox="0 0 185 90" fill="none" xmlns="http://www.w3.org/2000/svg">
<path d="M4.71166 67.7178C4.27449 67.8703 3.86971 67.9032 3.49732 67.8164C3.12492 67.7297 2.79847 67.5425 2.51794 67.2549C2.23945 66.9666 2.02146 66.5968 1.86398 66.1454C1.70649 65.694 1.6471 65.2688 1.68581 64.8698C1.72656 64.4701 1.86573 64.1205 2.10334 63.8209C2.34095 63.5213 2.67833 63.2953 3.1155 63.1428C3.62383 62.9654 4.08673 62.9488 4.50419 63.0928C4.92369 63.2361 5.27171 63.5047 5.54827 63.8986L5.04729 64.2376C4.84361 63.9414 4.5939 63.7389 4.29816 63.63C4.00242 63.521 3.6685 63.5315 3.2964 63.6613C2.96903 63.7755 2.72246 63.9448 2.55668 64.1691C2.3909 64.3934 2.29957 64.658 2.2827 64.9626C2.26513 65.2653 2.31668 65.5928 2.43738 65.9453C2.55736 66.2957 2.71872 66.585 2.92145 66.8131C3.12347 67.0391 3.36053 67.189 3.63263 67.2629C3.90402 67.3347 4.20339 67.3135 4.53076 67.1993C4.90286 67.0695 5.17081 66.8699 5.3346 66.6007C5.49768 66.3294 5.56721 66.0154 5.54317 65.6589L6.1463 65.6127C6.17407 66.0911 6.06867 66.5179 5.83007 66.8931C5.5928 67.2655 5.21999 67.5404 4.71166 67.7178ZM7.28234 66.7183L6.13311 63.4243L6.61806 63.2551L6.89579 64.0511L6.78031 63.9751C6.78347 63.8599 6.80066 63.749 6.83186 63.6423C6.8651 63.535 6.91078 63.4403 6.96889 63.3585C7.03017 63.2595 7.10831 63.173 7.20331 63.0988C7.2983 63.0246 7.40065 62.9649 7.51036 62.9198C7.61936 62.8727 7.72656 62.8432 7.83196 62.8316L8.00966 63.3409C7.88516 63.3501 7.75727 63.3856 7.626 63.4474C7.49473 63.5092 7.38605 63.603 7.29994 63.7288C7.22046 63.8409 7.17003 63.9611 7.14866 64.0895C7.12933 64.2171 7.13047 64.3479 7.15208 64.4817C7.17299 64.6136 7.20614 64.7446 7.25155 64.8747L7.82829 66.5278L7.28234 66.7183ZM10.9577 65.5386C10.6344 65.6514 10.3269 65.6789 10.0353 65.6209C9.745 65.5603 9.48805 65.4253 9.26447 65.2159C9.04017 65.0045 8.86808 64.727 8.74819 64.3833C8.62263 64.0234 8.58017 63.6893 8.62082 63.3809C8.66077 63.0704 8.77385 62.8029 8.96005 62.5782C9.14759 62.3509 9.40097 62.1815 9.7202 62.0701C10.0516 61.9545 10.3599 61.9325 10.6449 62.0041C10.9319 62.075 11.1827 62.2316 11.3972 62.4738C11.6137 62.7153 11.782 63.0341 11.9019 63.4301L11.3529 63.6217L11.2848 63.4265C11.1375 63.024 10.9498 62.7508 10.7217 62.6068C10.4929 62.4609 10.2219 62.4425 9.90876 62.5517C9.57326 62.6688 9.35568 62.8656 9.25601 63.1421C9.15634 63.4187 9.17673 63.7583 9.31719 64.1609C9.45269 64.5492 9.64511 64.8196 9.89447 64.9721C10.1438 65.1246 10.4302 65.1445 10.7535 65.0317C10.971 64.9558 11.1427 64.84 11.2686 64.6843C11.3945 64.5286 11.4705 64.3413 11.4968 64.1223L12.0811 64.1203C12.0544 64.4558 11.94 64.7489 11.7378 64.9996C11.537 65.2476 11.2769 65.4272 10.9577 65.5386ZM9.1874 64.3772L9.03523 63.941L11.4691 63.0919L11.6213 63.528L9.1874 64.3772ZM14.0111 64.4733C13.765 64.5592 13.543 64.5864 13.3451 64.5552C13.1485 64.5211 12.9816 64.4448 12.8444 64.3261C12.7092 64.2068 12.6108 64.0587 12.5491 63.8818C12.4888 63.7089 12.4692 63.5481 12.4903 63.3994C12.5127 63.2479 12.5693 63.1095 12.6602 62.9843C12.7504 62.857 12.8703 62.7399 13.02 62.6329C13.1617 62.5356 13.3238 62.438 13.5063 62.3401C13.6902 62.2395 13.8771 62.1412 14.0671 62.0452C14.2572 61.9493 14.4344 61.8589 14.5987 61.7742L14.4429 61.9552C14.3468 61.6603 14.2123 61.4643 14.0393 61.3672C13.8684 61.2695 13.6324 61.2731 13.3315 61.3781C13.1322 61.4477 12.9733 61.5544 12.8548 61.6984C12.7375 61.8397 12.6839 62.0226 12.6938 62.2472L12.1241 62.2715C12.1027 61.9551 12.1771 61.6748 12.3474 61.4307C12.5177 61.1865 12.7888 60.9995 13.1609 60.8697C13.4598 60.7654 13.7348 60.7299 13.9859 60.7632C14.2384 60.7937 14.4489 60.9005 14.6177 61.0834C14.6999 61.1687 14.7681 61.2692 14.8221 61.3849C14.8755 61.4986 14.9248 61.6205 14.9702 61.7507L15.6811 63.7881L15.1992 63.9562L14.9235 63.1662L15.0619 63.2001C15.0308 63.5097 14.9272 63.7717 14.7511 63.9859C14.577 64.1995 14.3303 64.362 14.0111 64.4733ZM13.9349 63.9902C14.1301 63.9221 14.2868 63.8286 14.405 63.7098C14.5245 63.5883 14.6082 63.4553 14.6559 63.311C14.7029 63.1646 14.7158 63.0186 14.6947 62.8732C14.6897 62.7609 14.6666 62.6423 14.6254 62.5176C14.5855 62.3901 14.5538 62.2928 14.5304 62.2257L14.7482 62.2421C14.5798 62.3282 14.4142 62.4122 14.2512 62.4942C14.0882 62.5762 13.935 62.657 13.7917 62.7366C13.6478 62.8142 13.5208 62.8916 13.4109 62.9687C13.3313 63.0284 13.2597 63.0944 13.196 63.1668C13.1344 63.2385 13.0915 63.3184 13.0676 63.4066C13.0449 63.4921 13.0517 63.5867 13.0879 63.6904C13.1191 63.7798 13.1712 63.8574 13.2444 63.9232C13.3195 63.9882 13.4137 64.0294 13.527 64.0469C13.6424 64.0637 13.7783 64.0448 13.9349 63.9902ZM18.3132 62.8697C18.1315 62.9765 17.9436 63.0591 17.7497 63.1177C17.5584 63.1775 17.3765 63.1988 17.204 63.1815C17.0307 63.1621 16.8796 63.0917 16.7505 62.9702C16.64 62.8627 16.5587 62.744 16.5065 62.614C16.4556 62.4812 16.4007 62.3304 16.3418 62.1617L15.3075 59.197L15.8504 59.0076L16.8762 61.9478C16.9231 62.082 16.9642 62.1966 16.9995 62.2914C17.0369 62.3856 17.087 62.4605 17.1498 62.5161C17.2684 62.6207 17.4109 62.6565 17.5773 62.6236C17.7457 62.5899 17.9368 62.5164 18.1504 62.4031L18.3132 62.8697ZM15.1152 60.7934L14.9588 60.3451L17.164 59.5757L17.3204 60.0241L15.1152 60.7934ZM20.3043 62.2777C19.981 62.3905 19.6735 62.418 19.3819 62.36C19.0916 62.2994 18.8346 62.1644 18.6111 61.955C18.3868 61.7436 18.2147 61.466 18.0948 61.1224C17.9692 60.7625 17.9268 60.4284 17.9674 60.1199C18.0074 59.8095 18.1204 59.542 18.3066 59.3173C18.4942 59.09 18.7476 58.9206 19.0668 58.8092C19.3982 58.6936 19.7065 58.6716 19.9915 58.7432C20.2785 58.8141 20.5293 58.9707 20.7438 59.2129C20.9603 59.4544 21.1286 59.7732 21.2485 60.1692L20.6995 60.3608L20.6314 60.1656C20.4841 59.7631 20.2964 59.4899 20.0683 59.3459C19.8395 59.2 19.5685 59.1816 19.2554 59.2908C18.9199 59.4079 18.7023 59.6047 18.6026 59.8812C18.5029 60.1578 18.5233 60.4973 18.6638 60.8999C18.7993 61.2883 18.9917 61.5587 19.2411 61.7112C19.4904 61.8637 19.7767 61.8836 20.1 61.7708C20.3176 61.6949 20.4893 61.5791 20.6152 61.4234C20.7411 61.2677 20.8171 61.0804 20.8434 60.8614L21.4277 60.8594C21.401 61.1949 21.2866 61.4879 21.0844 61.7387C20.8836 61.9867 20.6235 62.1663 20.3043 62.2777ZM18.534 61.1163L18.3818 60.6801L20.8157 59.831L20.9679 60.2671L18.534 61.1163ZM23.6702 61.0008L22.1378 56.6088L23.8733 56.0033C23.916 55.9884 23.9675 55.9727 24.0279 55.9562C24.0876 55.9376 24.1467 55.9239 24.2051 55.9149C24.4558 55.8685 24.6834 55.8803 24.888 55.9503C25.0947 56.0196 25.2724 56.1367 25.4211 56.3015C25.5691 56.4642 25.6839 56.6625 25.7655 56.8964C25.8464 57.1282 25.8788 57.3552 25.8628 57.5775C25.8482 57.797 25.7819 57.9991 25.6639 58.184C25.5473 58.3661 25.3774 58.5166 25.1543 58.6355C25.1022 58.6628 25.0474 58.6887 24.9899 58.7134C24.9323 58.738 24.8822 58.7578 24.8395 58.7727L23.6469 59.1888L24.2131 60.8114L23.6702 61.0008ZM23.4671 58.6733L24.6414 58.2636C24.68 58.2501 24.723 58.2329 24.7704 58.2118C24.8198 58.19 24.8651 58.1662 24.9063 58.1404C25.0352 58.0589 25.1285 57.9602 25.1862 57.8443C25.2451 57.7257 25.2747 57.6013 25.275 57.4712C25.2745 57.3391 25.253 57.212 25.2104 57.09C25.1678 56.968 25.106 56.8562 25.0249 56.7545C24.9431 56.6507 24.8422 56.5707 24.7222 56.5145C24.6043 56.4576 24.4698 56.4384 24.3189 56.4568C24.2699 56.4602 24.2196 56.4698 24.1681 56.4855C24.1179 56.4984 24.0735 56.5116 24.0348 56.5251L22.8606 56.9348L23.4671 58.6733ZM28.2663 59.4999C28.0202 59.5857 27.7982 59.613 27.6003 59.5817C27.4037 59.5477 27.2368 59.4713 27.0996 59.3527C26.9644 59.2333 26.866 59.0852 26.8043 58.9083C26.744 58.7355 26.7244 58.5747 26.7454 58.4259C26.7679 58.2744 26.8245 58.136 26.9154 58.0108C27.0056 57.8836 27.1255 57.7664 27.2752 57.6595C27.4169 57.5622 27.579 57.4645 27.7615 57.3666C27.9453 57.266 28.1323 57.1677 28.3223 57.0718C28.5124 56.9758 28.6896 56.8855 28.8539 56.8008L28.6981 56.9817C28.602 56.6868 28.4675 56.4908 28.2945 56.3938C28.1235 56.2961 27.8876 56.2997 27.5867 56.4047C27.3874 56.4742 27.2285 56.581 27.11 56.725C26.9927 56.8662 26.9391 57.0491 26.949 57.2738L26.3793 57.298C26.3579 56.9816 26.4323 56.7014 26.6026 56.4572C26.7728 56.2131 27.044 56.0261 27.4161 55.8963C27.715 55.792 27.99 55.7565 28.2411 55.7898C28.4936 55.8203 28.7041 55.927 28.8729 56.1099C28.9551 56.1953 29.0232 56.2958 29.0773 56.4115C29.1306 56.5252 29.18 56.6471 29.2254 56.7772L29.9362 58.8146L29.4543 58.9827L29.1787 58.1928L29.3171 58.2266C29.286 58.5363 29.1824 58.7982 29.0063 59.0125C28.8322 59.226 28.5855 59.3885 28.2663 59.4999ZM28.1901 59.0167C28.3853 58.9486 28.542 58.8552 28.6602 58.7364C28.7797 58.6148 28.8633 58.4819 28.911 58.3375C28.958 58.1911 28.971 58.0452 28.9499 57.8997C28.9449 57.7874 28.9218 57.6689 28.8806 57.5441C28.8407 57.4167 28.809 57.3194 28.7856 57.2523L29.0034 57.2686C28.835 57.3548 28.6693 57.4388 28.5063 57.5207C28.3434 57.6027 28.1902 57.6835 28.0469 57.7631C27.9029 57.8407 27.776 57.9181 27.666 57.9952C27.5865 58.0549 27.5149 58.121 27.4512 58.1934C27.3895 58.2651 27.3467 58.345 27.3228 58.4332C27.3001 58.5186 27.3069 58.6132 27.3431 58.7169C27.3743 58.8064 27.4264 58.884 27.4995 58.9497C27.5747 59.0147 27.6689 59.056 27.7822 59.0735C27.8975 59.0903 28.0335 59.0713 28.1901 59.0167ZM32.0045 58.1922C31.6121 58.3292 31.26 58.3562 30.9483 58.2734C30.6379 58.1878 30.4003 58.0004 30.2355 57.7112L30.7598 57.4291C30.8669 57.5924 31.0193 57.6989 31.2168 57.7486C31.4136 57.7963 31.631 57.7786 31.8689 57.6956C32.0946 57.6168 32.2551 57.5084 32.3506 57.3701C32.4461 57.2319 32.4658 57.0825 32.4097 56.9218C32.3771 56.8283 32.3295 56.7605 32.267 56.7185C32.2037 56.6744 32.0961 56.6504 31.9441 56.6464C31.7942 56.6416 31.5727 56.6505 31.2794 56.673C30.9617 56.6972 30.7049 56.6967 30.5091 56.6715C30.3133 56.6463 30.1607 56.5912 30.0512 56.5062C29.9417 56.4212 29.8597 56.3005 29.805 56.1439C29.7376 55.9507 29.7316 55.7635 29.787 55.5823C29.8417 55.399 29.9497 55.2347 30.1111 55.0894C30.2746 54.9434 30.4824 54.8265 30.7345 54.7385C30.9846 54.6513 31.2221 54.6129 31.447 54.6234C31.6719 54.6338 31.8699 54.6914 32.041 54.7959C32.2133 54.8977 32.3444 55.0413 32.4341 55.2267L31.9142 55.521C31.826 55.3533 31.692 55.2438 31.5122 55.1925C31.3344 55.1405 31.1316 55.1508 30.9037 55.2235C30.6874 55.2898 30.5267 55.3881 30.4216 55.5183C30.3185 55.6477 30.2918 55.7837 30.3414 55.926C30.3691 56.0053 30.4172 56.0649 30.4859 56.1048C30.5566 56.144 30.6679 56.1656 30.8199 56.1696C30.9738 56.1729 31.1913 56.1621 31.4722 56.137C31.7885 56.1088 32.0453 56.1093 32.2425 56.1386C32.4411 56.1651 32.5965 56.2249 32.7088 56.318C32.8204 56.4091 32.906 56.54 32.9656 56.7108C33.0763 57.028 33.0466 57.3189 32.8766 57.5835C32.706 57.846 32.4152 58.0489 32.0045 58.1922ZM35.2392 57.0637C34.8467 57.2006 34.4947 57.2277 34.1829 57.1448C33.8725 57.0593 33.635 56.8719 33.4702 56.5827L33.9944 56.3005C34.1016 56.4639 34.2539 56.5704 34.4515 56.6201C34.6483 56.6677 34.8656 56.6501 35.1035 56.5671C35.3292 56.4883 35.4898 56.3798 35.5853 56.2416C35.6808 56.1034 35.7005 55.9539 35.6444 55.7933C35.6118 55.6998 35.5642 55.632 35.5016 55.59C35.4384 55.5459 35.3308 55.5218 35.1788 55.5178C35.0289 55.5131 34.8073 55.522 34.5141 55.5445C34.1964 55.5686 33.9396 55.5681 33.7438 55.5429C33.548 55.5177 33.3953 55.4627 33.2859 55.3777C33.1764 55.2927 33.0943 55.1719 33.0397 55.0154C32.9723 54.8222 32.9663 54.635 33.0217 54.4537C33.0763 54.2705 33.1844 54.1062 33.3458 53.9609C33.5093 53.8149 33.7171 53.6979 33.9692 53.61C34.2193 53.5227 34.4568 53.4843 34.6817 53.4948C34.9066 53.5053 35.1046 53.5628 35.2756 53.6674C35.448 53.7692 35.5791 53.9128 35.6688 54.0981L35.1488 54.3924C35.0607 54.2248 34.9267 54.1153 34.7468 54.064C34.569 54.012 34.3662 54.0223 34.1384 54.0949C33.9221 54.1613 33.7613 54.2595 33.6562 54.3897C33.5531 54.5192 33.5264 54.6551 33.5761 54.7975C33.6038 54.8768 33.6519 54.9364 33.7206 54.9763C33.7913 55.0155 33.9026 55.0371 34.0545 55.0411C34.2085 55.0444 34.426 55.0335 34.7069 55.0085C35.0232 54.9803 35.28 54.9808 35.4772 55.01C35.6758 55.0365 35.8312 55.0964 35.9435 55.1895C36.0551 55.2805 36.1407 55.4115 36.2003 55.5823C36.311 55.8995 36.2813 56.1904 36.1113 56.4549C35.9406 56.7175 35.6499 56.9204 35.2392 57.0637ZM37.7809 56.0777L35.6241 53.1318L36.1651 52.9465L37.7408 55.0996L37.6413 52.4315L38.1201 52.2644L39.6989 54.4164L39.5963 51.7494L40.1331 51.5621L40.2758 55.2073L39.8244 55.3648L38.1548 53.1384L38.2323 55.9202L37.7809 56.0777ZM43.1489 54.3075C42.8216 54.4217 42.5131 54.4461 42.2234 54.3807C41.9357 54.3145 41.6821 54.1727 41.4625 53.9551C41.2429 53.7375 41.0738 53.4589 40.9553 53.1193C40.8347 52.7736 40.7941 52.448 40.8334 52.1423C40.8728 51.8366 40.9862 51.5701 41.1737 51.3427C41.3606 51.1133 41.6146 50.9426 41.9359 50.8305C42.2653 50.7156 42.5748 50.6908 42.8645 50.7563C43.1535 50.8197 43.4068 50.9605 43.6243 51.1789C43.8432 51.3944 44.0119 51.672 44.1304 52.0116C44.2503 52.3552 44.2919 52.6805 44.2553 52.9875C44.2181 53.2925 44.1063 53.5607 43.9202 53.7921C43.7334 54.0215 43.4763 54.1933 43.1489 54.3075ZM42.9691 53.7921C43.3107 53.6729 43.5252 53.4703 43.6124 53.1844C43.6997 52.8985 43.6802 52.5746 43.5539 52.2127C43.4241 51.8406 43.2365 51.5742 42.9911 51.4135C42.745 51.2507 42.4532 51.2282 42.1157 51.346C41.8859 51.4261 41.7149 51.5439 41.6027 51.6994C41.4904 51.8549 41.4296 52.0369 41.4203 52.2455C41.4109 52.454 41.4481 52.6782 41.5318 52.9182C41.6609 53.2882 41.8499 53.5553 42.0987 53.7194C42.3475 53.8835 42.6377 53.9077 42.9691 53.7921ZM45.3776 53.4273L44.2284 50.1333L44.7133 49.9641L44.991 50.7602L44.8756 50.6842C44.8787 50.569 44.8959 50.4581 44.9271 50.3514C44.9604 50.244 45.006 50.1494 45.0641 50.0675C45.1254 49.9686 45.2036 49.882 45.2986 49.8078C45.3936 49.7336 45.4959 49.674 45.6056 49.6289C45.7146 49.5817 45.8218 49.5523 45.9272 49.5406L46.1049 50.05C45.9804 50.0592 45.8525 50.0947 45.7213 50.1565C45.59 50.2182 45.4813 50.312 45.3952 50.4379C45.3157 50.55 45.2653 50.6702 45.2439 50.7985C45.2246 50.9262 45.2257 51.0569 45.2473 51.1908C45.2682 51.3226 45.3014 51.4536 45.3468 51.5838L45.9235 53.2369L45.3776 53.4273ZM48.9187 52.2945C48.6117 52.4016 48.3218 52.4172 48.049 52.3414C47.7755 52.2634 47.533 52.1143 47.3215 51.8938C47.112 51.6727 46.9499 51.3974 46.8349 51.068C46.72 50.7386 46.6758 50.4222 46.7022 50.1187C46.7306 49.8146 46.8284 49.5489 46.9955 49.3219C47.1619 49.0927 47.3976 48.925 47.7026 48.8186C48.0137 48.71 48.3012 48.6941 48.5652 48.7708C48.8292 48.8475 49.0608 48.9982 49.2601 49.2229C49.4614 49.4469 49.6199 49.7246 49.7355 50.056C49.8497 50.3834 49.898 50.6984 49.8804 51.001C49.8642 51.3009 49.7773 51.565 49.6197 51.7933C49.4615 52.0196 49.2278 52.1867 48.9187 52.2945ZM48.8124 51.7739C49.034 51.6966 49.1976 51.5803 49.303 51.4249C49.4077 51.2674 49.461 51.0835 49.4629 50.873C49.466 50.6598 49.4257 50.4332 49.342 50.1933C49.2569 49.9493 49.1475 49.7468 49.0138 49.5859C48.8814 49.4223 48.727 49.3131 48.5505 49.2583C48.3734 49.2015 48.177 49.2107 47.9615 49.2859C47.7378 49.364 47.5719 49.4834 47.4638 49.6443C47.3578 49.8045 47.3018 49.9905 47.2959 50.2024C47.292 50.4136 47.3305 50.6351 47.4114 50.8669C47.493 51.1007 47.6023 51.2998 47.7395 51.464C47.8759 51.6263 48.0344 51.7375 48.2151 51.7976C48.3978 51.857 48.5969 51.8491 48.8124 51.7739ZM49.9177 51.8433L49.0718 49.4186L49.0108 49.4399L48.3244 47.4726L48.8704 47.2821L50.4027 51.6741L49.9177 51.8433Z" fill="black"/>
<rect x="4.00792" y="72.1783" width="185.05" height="17.9974" rx="1.61515" transform="rotate(-19.2332 4.00792 72.1783)" stroke="#D0D5DD" stroke-width="0.461471"/>
<path d="M12.465 81.5088C12.2169 81.5953 11.9929 81.6233 11.7929 81.5927C11.5949 81.5614 11.4284 81.4861 11.2932 81.3668C11.1581 81.2474 11.06 81.1003 10.999 80.9255C10.9366 80.7465 10.9189 80.5816 10.9461 80.4307C10.9746 80.2771 11.0367 80.1379 11.1324 80.0133C11.2301 79.888 11.3538 79.7753 11.5036 79.6751C11.6562 79.5763 11.8278 79.4765 12.0184 79.3758C12.2104 79.2723 12.3991 79.1757 12.5844 79.0859C12.7711 78.9934 12.9338 78.9104 13.0724 78.837L12.9478 78.9899C12.8404 78.6625 12.6933 78.4435 12.5065 78.3331C12.3197 78.2226 12.0627 78.2245 11.7353 78.3387C11.5096 78.4174 11.3362 78.535 11.2151 78.6912C11.096 78.8468 11.0433 79.0454 11.0569 79.287L10.576 79.3111C10.5484 78.99 10.6201 78.7084 10.7911 78.4663C10.962 78.2241 11.2295 78.0396 11.5935 77.9126C11.8944 77.8076 12.1695 77.7755 12.4186 77.8163C12.6691 77.8544 12.8753 77.9649 13.0372 78.1479C13.1112 78.2293 13.1749 78.3268 13.2283 78.4405C13.2816 78.5542 13.3296 78.672 13.3721 78.794L14.0861 80.8406L13.6866 80.9799L13.3982 80.1534L13.5311 80.1618C13.5179 80.4834 13.4193 80.7596 13.2352 80.9903C13.0511 81.2211 12.7944 81.3939 12.465 81.5088ZM12.3817 81.1034C12.5911 81.0303 12.761 80.9288 12.8913 80.799C13.0216 80.6691 13.1119 80.5224 13.162 80.359C13.2115 80.1935 13.2217 80.0234 13.1927 79.8488C13.1802 79.7345 13.153 79.614 13.1111 79.4872C13.0684 79.3584 13.0361 79.2625 13.0141 79.1995L13.2157 79.2283C13.0703 79.3019 12.9117 79.38 12.7399 79.4628C12.5701 79.5448 12.4034 79.6292 12.2397 79.7159C12.0782 79.802 11.9346 79.8874 11.8091 79.9722C11.7248 80.0313 11.6475 80.1005 11.5771 80.1798C11.5059 80.2571 11.4557 80.3453 11.4265 80.4444C11.3992 80.5429 11.4062 80.6511 11.4473 80.769C11.4807 80.8646 11.5364 80.949 11.6143 81.0221C11.6943 81.0945 11.7975 81.1418 11.9238 81.1639C12.0522 81.1853 12.2048 81.1651 12.3817 81.1034ZM16.6735 79.9378C16.502 80.041 16.3243 80.1201 16.1405 80.1751C15.9587 80.2294 15.7846 80.2468 15.6182 80.2274C15.4537 80.2072 15.3094 80.1367 15.1851 80.0158C15.0836 79.9144 15.0081 79.8027 14.9588 79.6808C14.9107 79.5561 14.8587 79.4135 14.8026 79.2529L13.7502 76.2364L14.1955 76.0811L15.2415 79.0792C15.2898 79.2175 15.3312 79.333 15.3659 79.4258C15.4019 79.5159 15.4516 79.5898 15.5151 79.6475C15.6358 79.7582 15.7801 79.7991 15.9479 79.7702C16.1178 79.7406 16.3139 79.6653 16.5363 79.5444L16.6735 79.9378ZM13.499 77.7815L13.3649 77.3972L15.5243 76.6438L15.6584 77.0281L13.499 77.7815ZM18.6047 79.2641L17.0405 74.7806L17.4888 74.6242L19.0531 79.1077L18.6047 79.2641ZM21.3932 78.3938C21.072 78.5059 20.7686 78.532 20.483 78.4719C20.1995 78.4112 19.9477 78.2744 19.7275 78.0615C19.5072 77.8487 19.3365 77.5684 19.2152 77.2207C19.0896 76.8608 19.0451 76.5274 19.0817 76.2204C19.1183 75.9134 19.2276 75.6483 19.4098 75.4251C19.594 75.2012 19.8446 75.0339 20.1618 74.9232C20.4872 74.8097 20.791 74.7881 21.0732 74.8584C21.3548 74.9267 21.6031 75.0795 21.8183 75.317C22.0334 75.5544 22.2032 75.868 22.3279 76.2579L21.8704 76.4175L21.815 76.2589C21.6579 75.8348 21.453 75.5448 21.2002 75.3889C20.9494 75.2324 20.6552 75.213 20.3177 75.3307C19.9639 75.4542 19.7325 75.6637 19.6236 75.9595C19.5167 76.2545 19.5374 76.6145 19.6856 77.0395C19.8304 77.4543 20.0363 77.7439 20.3036 77.9084C20.5721 78.0702 20.8792 78.0908 21.2249 77.9702C21.4608 77.8879 21.6473 77.7624 21.7846 77.5936C21.9232 77.4221 22.0075 77.2159 22.0375 76.975L22.5118 76.9909C22.4816 77.323 22.3672 77.6127 22.1683 77.86C21.9708 78.1045 21.7125 78.2825 21.3932 78.3938ZM19.5707 77.2199L19.4398 76.8447L21.956 75.9668L22.0869 76.342L19.5707 77.2199ZM24.4505 77.3272C24.2025 77.4137 23.9784 77.4417 23.7785 77.4111C23.5805 77.3798 23.414 77.3045 23.2788 77.1852C23.1436 77.0658 23.0456 76.9187 22.9846 76.7438C22.9221 76.5649 22.9045 76.4 22.9317 76.2491C22.9602 76.0955 23.0223 75.9563 23.1179 75.8317C23.2156 75.7064 23.3394 75.5937 23.4892 75.4935C23.6417 75.3947 23.8133 75.2949 24.004 75.1942C24.196 75.0907 24.3846 74.9941 24.57 74.9043C24.7567 74.8118 24.9193 74.7288 25.0579 74.6554L24.9334 74.8083C24.826 74.4809 24.6789 74.2619 24.4921 74.1515C24.3053 74.041 24.0482 74.0429 23.7209 74.1571C23.4952 74.2358 23.3218 74.3533 23.2007 74.5096C23.0816 74.6652 23.0289 74.8638 23.0424 75.1054L22.5616 75.1295C22.534 74.8084 22.6056 74.5268 22.7766 74.2847C22.9476 74.0425 23.2151 73.858 23.579 73.731C23.88 73.626 24.155 73.5939 24.4042 73.6347C24.6547 73.6728 24.8609 73.7833 25.0228 73.9663C25.0968 74.0477 25.1605 74.1452 25.2138 74.2589C25.2672 74.3726 25.3151 74.4904 25.3577 74.6124L26.0717 76.6589L25.6722 76.7983L25.3838 75.9718L25.5167 75.9802C25.5035 76.3018 25.4048 76.578 25.2207 76.8087C25.0367 77.0394 24.7799 77.2123 24.4505 77.3272ZM24.3672 76.9218C24.5767 76.8487 24.7465 76.7472 24.8769 76.6174C25.0072 76.4875 25.0974 76.3408 25.1476 76.1774C25.197 76.0119 25.2073 75.8418 25.1783 75.6672C25.1658 75.5529 25.1386 75.4324 25.0966 75.3056C25.054 75.1768 25.0216 75.0809 24.9996 75.0179L25.2013 75.0467C25.0559 75.1203 24.8973 75.1984 24.7254 75.2812C24.5556 75.3632 24.3889 75.4476 24.2253 75.5343C24.0637 75.6204 23.9202 75.7058 23.7947 75.7906C23.7104 75.8497 23.633 75.9189 23.5626 75.9982C23.4915 76.0755 23.4413 76.1637 23.412 76.2628C23.3848 76.3613 23.3918 76.4695 23.4329 76.5874C23.4663 76.683 23.5219 76.7673 23.5999 76.8405C23.6799 76.9129 23.7831 76.9602 23.9094 76.9823C24.0377 77.0036 24.1903 76.9835 24.3672 76.9218ZM28.1257 76.0415C27.7394 76.1763 27.3921 76.204 27.0838 76.1245C26.7776 76.0443 26.5442 75.8657 26.3837 75.5887L26.8146 75.3529C26.9287 75.5229 27.0916 75.6337 27.3035 75.6852C27.5166 75.734 27.7513 75.7137 28.0075 75.6243C28.2576 75.5371 28.4368 75.4164 28.545 75.2623C28.6524 75.1062 28.6746 74.9377 28.6115 74.7567C28.576 74.6551 28.5239 74.5809 28.4551 74.5342C28.3877 74.4847 28.2742 74.457 28.1148 74.4511C27.9553 74.4451 27.7232 74.4531 27.4184 74.4751C27.0911 74.498 26.8289 74.4983 26.6318 74.4758C26.4346 74.4533 26.282 74.4017 26.174 74.3208C26.0652 74.2378 25.9839 74.1191 25.9299 73.9646C25.8647 73.7775 25.8604 73.5954 25.9172 73.4182C25.9733 73.239 26.0814 73.0781 26.2415 72.9355C26.4009 72.791 26.6046 72.6754 26.8527 72.5889C27.1008 72.5023 27.3366 72.4657 27.5602 72.4789C27.7851 72.4894 27.9827 72.5459 28.153 72.6484C28.3233 72.7509 28.453 72.8938 28.5421 73.0772L28.1133 73.3191C28.0154 73.1366 27.8656 73.0178 27.664 72.9627C27.4636 72.9049 27.2387 72.9172 26.9892 72.9997C26.7532 73.0752 26.5787 73.1862 26.4657 73.3329C26.3519 73.4775 26.3223 73.6281 26.3769 73.7847C26.4074 73.8721 26.4601 73.9381 26.535 73.9827C26.6091 74.0252 26.7249 74.0499 26.8823 74.0565C27.0418 74.0625 27.262 74.0529 27.5429 74.0279C27.8728 73.9995 28.1391 73.9978 28.3418 74.0229C28.5444 74.048 28.7025 74.1057 28.8161 74.1961C28.9298 74.2865 29.0164 74.417 29.076 74.5878C29.1845 74.8989 29.1541 75.1844 28.9847 75.4442C28.8167 75.7013 28.5303 75.9004 28.1257 76.0415ZM31.864 74.6381C31.6924 74.7413 31.5148 74.8204 31.331 74.8754C31.1492 74.9297 30.9751 74.9471 30.8086 74.9276C30.6442 74.9074 30.4998 74.8369 30.3756 74.716C30.274 74.6146 30.1986 74.5029 30.1492 74.381C30.1012 74.2564 30.0491 74.1138 29.9931 73.9531L28.9407 70.9367L29.386 70.7813L30.432 73.7795C30.4802 73.9177 30.5217 74.0333 30.5563 74.1261C30.5923 74.2162 30.6421 74.2901 30.7055 74.3478C30.8263 74.4584 30.9705 74.4993 31.1384 74.4704C31.3082 74.4408 31.5043 74.3656 31.7267 74.2446L31.864 74.6381ZM28.6894 72.4818L28.5554 72.0975L30.7148 71.3441L30.8488 71.7284L28.6894 72.4818ZM35.105 73.61C34.8305 73.7057 34.5684 73.7356 34.3186 73.6996C34.0709 73.6629 33.8526 73.5668 33.6638 73.4114C33.4764 73.2533 33.3362 73.0411 33.2433 72.7747C33.1482 72.5022 33.1299 72.2372 33.1883 71.9796C33.2459 71.72 33.3908 71.4881 33.623 71.284L33.6786 71.463C33.4238 71.4584 33.2045 71.3821 33.0205 71.2341C32.8366 71.0862 32.7046 70.8973 32.6244 70.6676C32.5393 70.4236 32.5222 70.1946 32.573 69.9807C32.6231 69.7648 32.7281 69.5754 32.8879 69.4124C33.0498 69.2488 33.2567 69.1229 33.5089 69.035C33.761 68.947 34.0014 68.9167 34.2299 68.9442C34.4584 68.9717 34.6595 69.0544 34.833 69.1922C35.0059 69.3281 35.1349 69.518 35.22 69.762C35.3002 69.9918 35.3159 70.2201 35.2673 70.4468C35.2208 70.6729 35.0968 70.8701 34.8955 71.0384L34.8186 70.8669C35.1266 70.8803 35.385 70.9703 35.5937 71.137C35.8044 71.303 35.9573 71.5222 36.0523 71.7947C36.1453 72.061 36.1665 72.3148 36.1161 72.5559C36.0649 72.795 35.9527 73.0063 35.7796 73.1899C35.6064 73.3735 35.3816 73.5135 35.105 73.61ZM34.955 73.1799C35.2315 73.0834 35.4296 72.9288 35.5492 72.716C35.6682 72.5012 35.6773 72.2494 35.5765 71.9607C35.4744 71.6679 35.3116 71.476 35.0883 71.3851C34.8643 71.2922 34.612 71.2947 34.3314 71.3926C34.0508 71.4905 33.8528 71.6452 33.7372 71.8565C33.6209 72.0659 33.6139 72.317 33.716 72.6098C33.8168 72.8985 33.9795 73.0903 34.2042 73.1853C34.4282 73.2782 34.6785 73.2764 34.955 73.1799ZM34.1803 70.9595C34.4243 70.8744 34.6009 70.7432 34.7102 70.566C34.8187 70.3867 34.83 70.174 34.7442 69.928C34.6584 69.682 34.5179 69.5246 34.3228 69.4558C34.1271 69.3849 33.9072 69.3921 33.6632 69.4772C33.4192 69.5623 33.2426 69.6935 33.1333 69.8708C33.0254 70.0453 33.0144 70.2555 33.1002 70.5016C33.1861 70.7476 33.3262 70.9074 33.5207 70.981C33.7164 71.0518 33.9363 71.0446 34.1803 70.9595ZM39.8922 71.9398C39.5607 72.0554 39.2542 72.0791 38.9727 72.0108C38.6911 71.9426 38.445 71.7992 38.2342 71.5808C38.0248 71.3597 37.8588 71.08 37.7362 70.7419C37.6197 70.3948 37.577 70.0698 37.6082 69.767C37.6387 69.4621 37.7437 69.1974 37.9231 68.9729C38.1017 68.7463 38.3548 68.576 38.6821 68.4617C39.0156 68.3454 39.3337 68.3256 39.6365 68.4025C39.9413 68.4786 40.1888 68.642 40.3789 68.8927L39.9887 69.1862C39.8426 69.016 39.6664 68.9064 39.46 68.8575C39.2549 68.8059 39.0447 68.8177 38.8291 68.8929C38.5872 68.9773 38.4064 69.1031 38.2868 69.2702C38.1665 69.4354 38.1021 69.63 38.0937 69.8542C38.0852 70.0784 38.1247 70.319 38.212 70.5759C38.3537 70.9689 38.5559 71.2542 38.8185 71.4317C39.0805 71.6072 39.3883 71.6332 39.7421 71.5098C39.9658 71.4317 40.1382 71.3146 40.2593 71.1583C40.3817 70.9992 40.4492 70.8069 40.4617 70.5813L40.9599 70.558C40.9401 70.8934 40.8392 71.1795 40.6572 71.4163C40.4745 71.6511 40.2195 71.8256 39.8922 71.9398ZM44.2505 70.3166L43.6642 68.6361C43.6003 68.4531 43.5245 68.2913 43.4367 68.1509C43.3483 68.0084 43.2455 67.8937 43.1285 67.8068C43.0129 67.7172 42.883 67.6621 42.739 67.6416C42.5971 67.6205 42.4397 67.64 42.2668 67.7003C42.1082 67.7557 41.9775 67.8321 41.8747 67.9295C41.7739 68.0263 41.6999 68.141 41.6527 68.2738C41.6068 68.4039 41.5881 68.5495 41.5964 68.7108C41.6048 68.8721 41.6416 69.0463 41.7069 69.2334L41.3652 69.2739C41.2475 68.9364 41.2075 68.6321 41.2452 68.3612C41.283 68.0903 41.385 67.8597 41.5513 67.6694C41.7175 67.4791 41.9349 67.3372 42.2033 67.2435C42.4005 67.1747 42.583 67.1453 42.7506 67.1552C42.9204 67.1644 43.0741 67.2031 43.212 67.2714C43.3519 67.3389 43.4767 67.4287 43.5866 67.541C43.6957 67.6511 43.7908 67.7765 43.8717 67.917C43.952 68.0555 44.018 68.199 44.0698 68.3474L44.7019 70.1591L44.2505 70.3166ZM41.8684 71.1477L40.3361 66.7557L40.7418 66.6141L41.6069 69.0938L41.6526 69.0778L42.3198 70.9902L41.8684 71.1477ZM46.4677 69.6457C46.2197 69.7322 45.9956 69.7602 45.7957 69.7296C45.5977 69.6983 45.4312 69.623 45.296 69.5037C45.1609 69.3843 45.0628 69.2372 45.0018 69.0623C44.9393 68.8834 44.9217 68.7185 44.9489 68.5676C44.9774 68.4139 45.0395 68.2748 45.1352 68.1502C45.2328 68.0249 45.3566 67.9122 45.5064 67.812C45.6589 67.7132 45.8305 67.6134 46.0212 67.5126C46.2132 67.4092 46.4019 67.3126 46.5872 67.2228C46.7739 67.1303 46.9365 67.0473 47.0751 66.9739L46.9506 67.1268C46.8432 66.7993 46.6961 66.5804 46.5093 66.4699C46.3225 66.3595 46.0654 66.3614 45.7381 66.4756C45.5124 66.5543 45.339 66.6718 45.2179 66.8281C45.0988 66.9837 45.0461 67.1823 45.0596 67.4239L44.5788 67.448C44.5512 67.1269 44.6229 66.8453 44.7938 66.6031C44.9648 66.361 45.2323 66.1765 45.5963 66.0495C45.8972 65.9445 46.1722 65.9124 46.4214 65.9532C46.6719 65.9913 46.8781 66.1018 47.04 66.2848C47.114 66.3662 47.1777 66.4637 47.231 66.5774C47.2844 66.691 47.3323 66.8089 47.3749 66.9309L48.0889 68.9774L47.6894 69.1168L47.401 68.2903L47.5339 68.2986C47.5207 68.6203 47.422 68.8965 47.238 69.1272C47.0539 69.3579 46.7971 69.5308 46.4677 69.6457ZM46.3844 69.2402C46.5939 69.1672 46.7638 69.0657 46.8941 68.9358C47.0244 68.806 47.1146 68.6593 47.1648 68.4958C47.2143 68.3303 47.2245 68.1603 47.1955 67.9856C47.183 67.8714 47.1558 67.7509 47.1138 67.6241C47.0712 67.4953 47.0388 67.3994 47.0169 67.3363L47.2185 67.3652C47.0731 67.4387 46.9145 67.5169 46.7426 67.5996C46.5728 67.6817 46.4061 67.7661 46.2425 67.8528C46.0809 67.9388 45.9374 68.0243 45.8119 68.1091C45.7276 68.1682 45.6502 68.2374 45.5798 68.3167C45.5087 68.3939 45.4585 68.4822 45.4293 68.5813C45.402 68.6798 45.409 68.788 45.4501 68.9059C45.4835 69.0015 45.5391 69.0858 45.6171 69.159C45.6971 69.2314 45.8003 69.2787 45.9266 69.3008C46.0549 69.3221 46.2075 69.302 46.3844 69.2402ZM48.8829 68.7004L47.7337 65.4064L48.1363 65.2659L48.4129 66.0589L48.2975 65.9829C48.3 65.8725 48.3166 65.7664 48.3472 65.6645C48.3771 65.5606 48.4173 65.4701 48.468 65.3931C48.5272 65.2881 48.607 65.1964 48.7073 65.118C48.807 65.0376 48.9137 64.9742 49.0275 64.9276C49.1406 64.8791 49.2492 64.8503 49.3532 64.8414L49.5001 65.2623C49.3695 65.2736 49.2358 65.3123 49.0992 65.3782C48.9625 65.4441 48.8512 65.5468 48.7653 65.6863C48.6853 65.81 48.6388 65.9414 48.6257 66.0805C48.612 66.2176 48.6194 66.3564 48.6479 66.497C48.6757 66.6356 48.7123 66.7699 48.7577 66.9L49.3313 68.544L48.8829 68.7004ZM51.9303 67.7398C51.6823 67.8264 51.4582 67.8544 51.2583 67.8238C51.0603 67.7925 50.8938 67.7172 50.7586 67.5978C50.6235 67.4785 50.5254 67.3314 50.4644 67.1565C50.4019 66.9776 50.3843 66.8127 50.4115 66.6618C50.44 66.5081 50.5021 66.369 50.5978 66.2444C50.6954 66.1191 50.8192 66.0063 50.969 65.9062C51.1215 65.8073 51.2931 65.7075 51.4838 65.6068C51.6758 65.5033 51.8645 65.4067 52.0498 65.317C52.2365 65.2245 52.3992 65.1415 52.5377 65.068L52.4132 65.221C52.3058 64.8935 52.1587 64.6746 51.9719 64.5641C51.7851 64.4536 51.528 64.4555 51.2007 64.5697C50.975 64.6485 50.8016 64.766 50.6805 64.9223C50.5614 65.0779 50.5087 65.2765 50.5223 65.5181L50.0414 65.5421C50.0138 65.221 50.0855 64.9394 50.2564 64.6973C50.4274 64.4552 50.6949 64.2706 51.0589 64.1437C51.3598 64.0387 51.6348 64.0066 51.884 64.0474C52.1345 64.0854 52.3407 64.196 52.5026 64.3789C52.5766 64.4603 52.6403 64.5579 52.6936 64.6715C52.747 64.7852 52.7949 64.903 52.8375 65.025L53.5515 67.0716L53.152 67.211L52.8636 66.3844L52.9965 66.3928C52.9833 66.7145 52.8846 66.9907 52.7006 67.2214C52.5165 67.4521 52.2597 67.6249 51.9303 67.7398ZM51.847 67.3344C52.0565 67.2613 52.2264 67.1599 52.3567 67.03C52.487 66.9002 52.5772 66.7535 52.6274 66.59C52.6769 66.4245 52.6871 66.2544 52.6581 66.0798C52.6456 65.9656 52.6184 65.845 52.5764 65.7183C52.5338 65.5895 52.5015 65.4935 52.4795 65.4305L52.6811 65.4594C52.5357 65.5329 52.3771 65.6111 52.2053 65.6938C52.0354 65.7759 51.8687 65.8603 51.7051 65.947C51.5435 66.033 51.4 66.1184 51.2745 66.2033C51.1902 66.2624 51.1128 66.3315 51.0424 66.4108C50.9713 66.4881 50.9211 66.5763 50.8919 66.6755C50.8646 66.7739 50.8716 66.8821 50.9127 67.0001C50.9461 67.0956 51.0017 67.18 51.0797 67.2532C51.1597 67.3256 51.2629 67.3729 51.3892 67.3949C51.5175 67.4163 51.6701 67.3961 51.847 67.3344ZM55.7438 66.4094C55.4124 66.525 55.1059 66.5487 54.8244 66.4804C54.5428 66.4121 54.2966 66.2688 54.0859 66.0504C53.8764 65.8292 53.7104 65.5496 53.5879 65.2114C53.4714 64.8643 53.4287 64.5394 53.4599 64.2366C53.4904 63.9317 53.5953 63.667 53.7747 63.4425C53.9534 63.2159 54.2064 63.0455 54.5338 62.9313C54.8673 62.815 55.1854 62.7952 55.4882 62.872C55.793 62.9481 56.0405 63.1116 56.2306 63.3623L55.8403 63.6558C55.6943 63.4855 55.518 63.3759 55.3117 63.3271C55.1066 63.2754 54.8963 63.2872 54.6808 63.3624C54.4388 63.4468 54.2581 63.5726 54.1385 63.7398C54.0182 63.9049 53.9538 64.0996 53.9454 64.3238C53.9369 64.548 53.9764 64.7885 54.0637 65.0454C54.2054 65.4385 54.4076 65.7238 54.6702 65.9013C54.9321 66.0767 55.24 66.1028 55.5938 65.9793C55.8175 65.9013 55.9899 65.7841 56.111 65.6278C56.2334 65.4688 56.3008 65.2765 56.3134 65.0509L56.8116 65.0276C56.7917 65.3629 56.6908 65.649 56.5089 65.8859C56.3262 66.1206 56.0712 66.2952 55.7438 66.4094ZM59.5166 64.9905C59.345 65.0937 59.1673 65.1728 58.9835 65.2278C58.8018 65.2821 58.6276 65.2995 58.4612 65.28C58.2968 65.2598 58.1524 65.1893 58.0281 65.0684C57.9266 64.967 57.8512 64.8553 57.8018 64.7334C57.7537 64.6088 57.7017 64.4661 57.6456 64.3055L56.5932 61.289L57.0385 61.1337L58.0846 64.1318C58.1328 64.2701 58.1743 64.3857 58.2089 64.4785C58.2449 64.5686 58.2946 64.6424 58.3581 64.7001C58.4788 64.8108 58.6231 64.8517 58.7909 64.8228C58.9608 64.7932 59.1569 64.7179 59.3793 64.597L59.5166 64.9905ZM56.342 62.8342L56.2079 62.4499L58.3673 61.6965L58.5014 62.0808L56.342 62.8342ZM61.4722 64.4108C61.1509 64.5229 60.8475 64.5489 60.562 64.4889C60.2785 64.4281 60.0266 64.2913 59.8064 64.0785C59.5862 63.8657 59.4154 63.5854 59.2941 63.2377C59.1685 62.8778 59.1241 62.5444 59.1606 62.2374C59.1972 61.9304 59.3066 61.6653 59.4887 61.4421C59.6729 61.2182 59.9236 61.0509 60.2408 60.9402C60.5661 60.8267 60.8699 60.8051 61.1522 60.8754C61.4337 60.9437 61.6821 61.0965 61.8972 61.3339C62.1123 61.5714 62.2822 61.885 62.4068 62.2749L61.9493 62.4345L61.894 62.2759C61.7369 61.8517 61.5319 61.5617 61.2791 61.4059C61.0283 61.2493 60.7342 61.2299 60.3967 61.3477C60.0429 61.4711 59.8115 61.6807 59.7025 61.9765C59.5956 62.2715 59.6163 62.6315 59.7646 63.0565C59.9093 63.4713 60.1153 63.7609 60.3825 63.9254C60.6511 64.0872 60.9582 64.1078 61.3038 63.9872C61.5397 63.9049 61.7263 63.7793 61.8635 63.6106C62.0021 63.439 62.0864 63.2329 62.1165 62.992L62.5907 63.0079C62.5606 63.34 62.4461 63.6297 62.2473 63.877C62.0498 64.1215 61.7914 64.2994 61.4722 64.4108ZM59.6496 63.2368L59.5187 62.8617L62.035 61.9838L62.1659 62.359L59.6496 63.2368ZM63.6147 63.5607L62.4654 60.2667L62.868 60.1262L63.1447 60.9192L63.0292 60.8432C63.0318 60.7328 63.0483 60.6267 63.0789 60.5248C63.1088 60.4208 63.1491 60.3304 63.1998 60.2534C63.2589 60.1484 63.3387 60.0567 63.4391 59.9783C63.5388 59.8979 63.6455 59.8345 63.7593 59.7879C63.8723 59.7394 63.9809 59.7106 64.085 59.7017L64.2318 60.1226C64.1012 60.1339 63.9676 60.1726 63.8309 60.2385C63.6943 60.3044 63.583 60.4071 63.4971 60.5465C63.4171 60.6703 63.3705 60.8017 63.3575 60.9408C63.3437 61.0779 63.3511 61.2167 63.3796 61.3573C63.4075 61.4958 63.4441 61.6302 63.4895 61.7603L64.063 63.4043L63.6147 63.5607ZM66.9537 62.495C66.5674 62.6298 66.2201 62.6574 65.9118 62.5779C65.6055 62.4978 65.3722 62.3192 65.2117 62.0422L65.6426 61.8063C65.7566 61.9763 65.9196 62.0871 66.1314 62.1387C66.3446 62.1874 66.5793 62.1671 66.8355 62.0778C67.0856 61.9905 67.2647 61.8698 67.3729 61.7158C67.4804 61.5597 67.5026 61.3911 67.4394 61.2102C67.404 61.1085 67.3519 61.0343 67.2831 60.9876C67.2157 60.9381 67.1022 60.9104 66.9428 60.9045C66.7833 60.8985 66.5512 60.9065 66.2464 60.9285C65.9191 60.9514 65.6569 60.9517 65.4597 60.9292C65.2626 60.9068 65.11 60.8551 65.0019 60.7742C64.8932 60.6913 64.8118 60.5725 64.7579 60.418C64.6926 60.2309 64.6884 60.0488 64.7452 59.8716C64.8013 59.6924 64.9094 59.5315 65.0695 59.389C65.2289 59.2444 65.4326 59.1289 65.6807 59.0423C65.9287 58.9558 66.1646 58.9191 66.3881 58.9323C66.613 58.9428 66.8107 58.9993 66.981 59.1018C67.1513 59.2043 67.281 59.3473 67.3701 59.5306L66.9413 59.7726C66.8434 59.59 66.6936 59.4712 66.4919 59.4161C66.2916 59.3583 66.0666 59.3707 65.8172 59.4531C65.5812 59.5286 65.4067 59.6397 65.2936 59.7863C65.1799 59.9309 65.1503 60.0815 65.2049 60.2381C65.2354 60.3255 65.2881 60.3915 65.363 60.4361C65.4371 60.4787 65.5529 60.5033 65.7103 60.5099C65.8698 60.5159 66.09 60.5064 66.3709 60.4813C66.7008 60.4529 66.9671 60.4512 67.1697 60.4763C67.3724 60.5014 67.5305 60.5592 67.6441 60.6495C67.7578 60.7399 67.8444 60.8705 67.904 61.0413C68.0125 61.3524 67.9821 61.6378 67.8127 61.8976C67.6447 62.1547 67.3583 62.3538 66.9537 62.495Z" fill="#64748B"/>
<path fill-rule="evenodd" clip-rule="evenodd" d="M172.389 22.963C172.637 23.1359 173.133 23.452 173.719 23.6736C174.325 23.9034 174.981 24.0138 175.548 23.8157C176.116 23.6177 176.56 23.1237 176.893 22.5663C177.213 22.0287 177.405 21.4726 177.492 21.1827C177.243 21.0098 176.747 20.6938 176.162 20.4721C175.555 20.2423 174.9 20.132 174.332 20.33C173.765 20.5281 173.32 21.022 172.988 21.5795C172.668 22.1171 172.476 22.6731 172.389 22.963ZM172.459 21.2645C172.821 20.6569 173.362 20.017 174.13 19.7491C174.897 19.4811 175.718 19.6462 176.38 19.8967C177.048 20.1496 177.602 20.5081 177.864 20.6921C178.07 20.8369 178.16 21.0935 178.088 21.3352C177.997 21.6426 177.787 22.2678 177.421 22.8813C177.059 23.4888 176.519 24.1288 175.751 24.3967C174.983 24.6646 174.162 24.4995 173.501 24.249C172.833 23.9961 172.279 23.6377 172.017 23.4536C171.81 23.3088 171.721 23.0522 171.792 22.8105C171.883 22.5031 172.094 21.8779 172.459 21.2645Z" fill="#64748B"/>
<path fill-rule="evenodd" clip-rule="evenodd" d="M175.143 22.6538C175.464 22.5419 175.633 22.191 175.521 21.8702C175.409 21.5493 175.058 21.38 174.738 21.4919C174.417 21.6039 174.247 21.9547 174.359 22.2756C174.471 22.5964 174.822 22.7658 175.143 22.6538ZM175.346 23.2348C175.987 23.0109 176.326 22.3092 176.102 21.6675C175.878 21.0258 175.177 20.6871 174.535 20.911C173.893 21.1348 173.554 21.8365 173.778 22.4782C174.002 23.1199 174.704 23.4587 175.346 23.2348Z" fill="#64748B"/>
</svg>
