<svg width="81" height="44" viewBox="0 0 81 44" fill="none" xmlns="http://www.w3.org/2000/svg">
<rect x="1.14753" y="26.6461" width="77.0658" height="17.9974" rx="1.61515" transform="rotate(-19.2332 1.14753 26.6461)" stroke="#E7EAEE" stroke-width="0.461471"/>
<path fill-rule="evenodd" clip-rule="evenodd" d="M9.37239 30.3748C8.24941 30.7666 7.65666 31.9946 8.04845 33.1176C8.44025 34.2405 9.66821 34.8333 10.7912 34.4415C11.2479 34.2821 11.6169 33.9845 11.8677 33.6118L13.4745 34.3874C13.6275 34.4613 13.8114 34.3971 13.8853 34.2441C13.9591 34.0911 13.895 33.9072 13.7419 33.8333L12.1352 33.0577C12.271 32.6296 12.2745 32.1555 12.1151 31.6988C11.7233 30.5758 10.4954 29.983 9.37239 30.3748ZM8.62941 32.9149C8.34955 32.1127 8.77294 31.2356 9.57507 30.9558C10.3772 30.6759 11.2543 31.0993 11.5342 31.9014C11.814 32.7036 11.3906 33.5807 10.5885 33.8605C9.78638 34.1404 8.90926 33.717 8.62941 32.9149Z" fill="#64748B"/>
<path d="M20.6443 32.125C20.3373 32.2321 20.043 32.2778 19.7615 32.2619C19.4813 32.2434 19.2279 32.1675 19.0013 32.0345C18.7768 31.9007 18.5947 31.7122 18.4551 31.469L18.886 31.2331C19.0585 31.4922 19.291 31.662 19.5837 31.7424C19.8756 31.8207 20.1852 31.8028 20.5126 31.6886C20.7281 31.6134 20.9096 31.5124 21.057 31.3857C21.2036 31.257 21.3038 31.1126 21.3574 30.9525C21.411 30.7924 21.4077 30.6259 21.3474 30.453C21.3077 30.3392 21.2536 30.2497 21.1853 30.1846C21.1163 30.1174 21.039 30.0691 20.9534 30.0397C20.8679 30.0102 20.7794 29.992 20.6881 29.9851C20.596 29.9762 20.5084 29.9737 20.4254 29.9776L19.1962 30.0335C19.0485 30.0417 18.9074 30.0362 18.773 30.0169C18.6378 29.9957 18.513 29.9582 18.3985 29.9047C18.2854 29.8483 18.1855 29.7714 18.099 29.6739C18.0126 29.5763 17.9438 29.4543 17.8927 29.3079C17.8061 29.0599 17.7964 28.8227 17.8634 28.5963C17.9304 28.3699 18.0597 28.1686 18.2513 27.9922C18.443 27.8159 18.6835 27.6783 18.973 27.5796C19.2658 27.4775 19.5451 27.4382 19.8111 27.4617C20.0791 27.4845 20.322 27.5663 20.5399 27.707C20.757 27.8456 20.9357 28.0376 21.076 28.2828L20.6361 28.5321C20.539 28.3516 20.411 28.2104 20.2522 28.1084C20.0935 28.0064 19.9156 27.9476 19.7185 27.9319C19.5228 27.9135 19.3229 27.9388 19.1189 28.0077C18.9217 28.0765 18.7575 28.1714 18.6264 28.2924C18.4966 28.4107 18.4068 28.5424 18.3571 28.6875C18.3073 28.8326 18.308 28.9783 18.3591 29.1247C18.4108 29.2731 18.493 29.3779 18.6056 29.439C18.7201 29.4994 18.8463 29.534 18.984 29.543C19.1237 29.5513 19.2562 29.5518 19.3814 29.5446L20.3298 29.4977C20.4278 29.4909 20.5449 29.4899 20.6812 29.4949C20.8188 29.497 20.9595 29.5209 21.1031 29.5666C21.2481 29.6096 21.382 29.686 21.5048 29.796C21.6275 29.906 21.7254 30.0657 21.7985 30.2751C21.8694 30.4785 21.8923 30.6746 21.867 30.8636C21.8437 31.0519 21.778 31.2265 21.67 31.3874C21.5639 31.5476 21.4232 31.6902 21.2479 31.8152C21.0753 31.9416 20.8741 32.0448 20.6443 32.125ZM24.2721 30.8593C23.9508 30.9714 23.6474 30.9974 23.3619 30.9374C23.0784 30.8766 22.8265 30.7398 22.6063 30.527C22.3861 30.3142 22.2153 30.0339 22.094 29.6862C21.9684 29.3263 21.9239 28.9929 21.9605 28.6859C21.9971 28.3789 22.1065 28.1138 22.2886 27.8906C22.4728 27.6667 22.7235 27.4994 23.0407 27.3887C23.366 27.2752 23.6698 27.2536 23.9521 27.3239C24.2336 27.3922 24.482 27.545 24.6971 27.7824C24.9122 28.0199 25.0821 28.3335 25.2067 28.7234L24.7492 28.883L24.6939 28.7244C24.5368 28.3002 24.3318 28.0102 24.079 27.8544C23.8282 27.6978 23.5341 27.6784 23.1965 27.7962C22.8427 27.9196 22.6114 28.1292 22.5024 28.425C22.3955 28.72 22.4162 29.08 22.5645 29.505C22.7092 29.9198 22.9152 30.2094 23.1824 30.3739C23.4509 30.5357 23.7581 30.5563 24.1037 30.4357C24.3396 30.3534 24.5262 30.2278 24.6634 30.0591C24.802 29.8875 24.8863 29.6814 24.9163 29.4405L25.3906 29.4564C25.3605 29.7885 25.246 30.0782 25.0472 30.3255C24.8497 30.57 24.5913 30.7479 24.2721 30.8593ZM22.4495 29.6853L22.3186 29.3102L24.8349 28.4323L24.9657 28.8075L22.4495 29.6853ZM27.3294 29.7927C27.0813 29.8792 26.8573 29.9072 26.6573 29.8766C26.4593 29.8453 26.2928 29.77 26.1576 29.6507C26.0225 29.5313 25.9244 29.3842 25.8634 29.2093C25.801 29.0304 25.7833 28.8655 25.8105 28.7146C25.839 28.5609 25.9011 28.4218 25.9968 28.2972C26.0945 28.1719 26.2182 28.0592 26.368 27.959C26.5206 27.8602 26.6922 27.7604 26.8828 27.6596C27.0748 27.5562 27.2635 27.4596 27.4488 27.3698C27.6355 27.2773 27.7982 27.1943 27.9368 27.1209L27.8122 27.2738C27.7048 26.9463 27.5577 26.7274 27.3709 26.6169C27.1841 26.5065 26.927 26.5084 26.5997 26.6226C26.374 26.7013 26.2006 26.8188 26.0795 26.9751C25.9604 27.1307 25.9077 27.3293 25.9213 27.5709L25.4404 27.5949C25.4128 27.2739 25.4845 26.9923 25.6554 26.7501C25.8264 26.508 26.0939 26.3235 26.4579 26.1965C26.7588 26.0915 27.0339 26.0594 27.283 26.1002C27.5335 26.1383 27.7397 26.2488 27.9016 26.4318C27.9756 26.5132 28.0393 26.6107 28.0926 26.7244C28.146 26.838 28.194 26.9559 28.2365 27.0779L28.9505 29.1244L28.551 29.2638L28.2626 28.4373L28.3955 28.4456C28.3823 28.7673 28.2837 29.0435 28.0996 29.2742C27.9155 29.5049 27.6588 29.6778 27.3294 29.7927ZM27.2461 29.3872C27.4555 29.3142 27.6254 29.2127 27.7557 29.0828C27.886 28.953 27.9762 28.8063 28.0264 28.6428C28.0759 28.4773 28.0861 28.3073 28.0571 28.1326C28.0446 28.0184 28.0174 27.8979 27.9754 27.7711C27.9328 27.6423 27.9005 27.5464 27.8785 27.4833L28.0801 27.5122C27.9347 27.5857 27.7761 27.6639 27.6043 27.7466C27.4345 27.8287 27.2677 27.9131 27.1041 27.9998C26.9426 28.0858 26.799 28.1713 26.6735 28.2561C26.5892 28.3152 26.5119 28.3844 26.4414 28.4637C26.3703 28.5409 26.3201 28.6292 26.2909 28.7283C26.2636 28.8268 26.2706 28.935 26.3117 29.0529C26.3451 29.1485 26.4007 29.2328 26.4787 29.306C26.5587 29.3784 26.6619 29.4257 26.7882 29.4478C26.9165 29.4691 27.0692 29.449 27.2461 29.3872ZM29.7445 28.8474L28.5953 25.5534L28.9979 25.4129L29.2746 26.2059L29.1591 26.1299C29.1616 26.0195 29.1782 25.9134 29.2088 25.8115C29.2387 25.7076 29.279 25.6171 29.3296 25.5401C29.3888 25.4351 29.4686 25.3434 29.569 25.265C29.6686 25.1846 29.7754 25.1212 29.8891 25.0746C30.0022 25.0261 30.1108 24.9973 30.2148 24.9884L30.3617 25.4093C30.2311 25.4206 30.0975 25.4593 29.9608 25.5252C29.8241 25.5911 29.7129 25.6938 29.6269 25.8333C29.5469 25.957 29.5004 26.0884 29.4874 26.2275C29.4736 26.3646 29.481 26.5034 29.5095 26.644C29.5373 26.7826 29.5739 26.9169 29.6193 27.047L30.1929 28.691L29.7445 28.8474ZM33.2814 27.7161C32.95 27.8317 32.6435 27.8554 32.362 27.7871C32.0804 27.7188 31.8342 27.5755 31.6235 27.3571C31.414 27.1359 31.248 26.8563 31.1255 26.5181C31.009 26.171 30.9663 25.8461 30.9975 25.5433C31.028 25.2384 31.1329 24.9737 31.3123 24.7492C31.491 24.5226 31.744 24.3522 32.0714 24.238C32.4049 24.1217 32.723 24.1019 33.0258 24.1787C33.3306 24.2549 33.5781 24.4183 33.7682 24.669L33.3779 24.9625C33.2318 24.7922 33.0556 24.6827 32.8493 24.6338C32.6442 24.5821 32.4339 24.5939 32.2184 24.6691C31.9764 24.7535 31.7956 24.8793 31.6761 25.0465C31.5558 25.2116 31.4914 25.4063 31.4829 25.6305C31.4745 25.8547 31.5139 26.0952 31.6013 26.3521C31.743 26.7452 31.9451 27.0305 32.2078 27.208C32.4697 27.3834 32.7776 27.4095 33.1314 27.286C33.3551 27.208 33.5274 27.0908 33.6485 26.9345C33.771 26.7755 33.8384 26.5832 33.851 26.3576L34.3492 26.3343C34.3293 26.6696 34.2284 26.9557 34.0465 27.1926C33.8638 27.4274 33.6088 27.6019 33.2814 27.7161ZM37.6398 26.0929L37.0534 24.4123C36.9896 24.2293 36.9138 24.0676 36.826 23.9272C36.7375 23.7847 36.6348 23.67 36.5178 23.5831C36.4021 23.4934 36.2723 23.4384 36.1283 23.4179C35.9863 23.3967 35.8289 23.4163 35.6561 23.4766C35.4975 23.5319 35.3668 23.6083 35.2639 23.7058C35.1631 23.8025 35.0891 23.9173 35.0419 24.0501C34.9961 24.1801 34.9773 24.3258 34.9857 24.4871C34.9941 24.6484 35.0309 24.8226 35.0962 25.0097L34.7545 25.0502C34.6367 24.7126 34.5967 24.4084 34.6345 24.1375C34.6723 23.8666 34.7743 23.636 34.9406 23.4457C35.1068 23.2554 35.3241 23.1134 35.5925 23.0198C35.7898 22.951 35.9722 22.9215 36.1399 22.9315C36.3096 22.9407 36.4634 22.9794 36.6013 23.0476C36.7411 23.1151 36.866 23.205 36.9759 23.3172C37.085 23.4274 37.1801 23.5527 37.261 23.6933C37.3413 23.8318 37.4073 23.9753 37.4591 24.1237L38.0912 25.9354L37.6398 26.0929ZM35.2577 26.9239L33.7254 22.5319L34.131 22.3904L34.9962 24.8701L35.0419 24.8541L35.7091 26.7665L35.2577 26.9239Z" fill="#64748B"/>
</svg>
