<svg width="142" height="65" viewBox="0 0 142 65" fill="none" xmlns="http://www.w3.org/2000/svg">
<rect x="1.01448" y="47.2926" width="142.595" height="17.9974" rx="1.61515" transform="rotate(-19.2332 1.01448 47.2926)" stroke="#D0D5DD" stroke-width="0.461471"/>
<path fill-rule="evenodd" clip-rule="evenodd" d="M9.2393 51.0212C8.11632 51.413 7.52357 52.641 7.91537 53.7639C8.30716 54.8869 9.53513 55.4797 10.6581 55.0879C11.1148 54.9285 11.4839 54.6309 11.7346 54.2582L13.3414 55.0338C13.4944 55.1077 13.6783 55.0435 13.7522 54.8905C13.826 54.7375 13.7619 54.5536 13.6088 54.4797L12.0021 53.7041C12.1379 53.276 12.1414 52.8019 11.982 52.3451C11.5902 51.2222 10.3623 50.6294 9.2393 51.0212ZM8.49632 53.5613C8.21647 52.7591 8.63986 51.882 9.44199 51.6022C10.2441 51.3223 11.1212 51.7457 11.4011 52.5478C11.6809 53.35 11.2575 54.2271 10.4554 54.5069C9.65329 54.7868 8.77617 54.3634 8.49632 53.5613Z" fill="#64748B"/>
<path d="M20.4481 52.5904C20.141 52.6976 19.8468 52.7432 19.5653 52.7274C19.2851 52.7088 19.0317 52.633 18.8051 52.4999C18.5805 52.3662 18.3984 52.1777 18.2588 51.9344L18.6897 51.6985C18.8622 51.9577 19.0948 52.1274 19.3874 52.2078C19.6793 52.2861 19.989 52.2682 20.3163 52.154C20.5319 52.0788 20.7133 51.9779 20.8607 51.8512C21.0074 51.7224 21.1075 51.578 21.1612 51.4179C21.2148 51.2578 21.2114 51.0913 21.1511 50.9185C21.1114 50.8046 21.0574 50.7151 20.989 50.65C20.92 50.5829 20.8427 50.5346 20.7572 50.5051C20.6716 50.4757 20.5832 50.4575 20.4918 50.4506C20.3997 50.4416 20.3122 50.4391 20.2291 50.443L18.9999 50.4989C18.8522 50.5071 18.7112 50.5016 18.5767 50.4824C18.4416 50.4611 18.3168 50.4237 18.2023 50.3701C18.0891 50.3138 17.9893 50.2369 17.9028 50.1393C17.8163 50.0417 17.7475 49.9198 17.6964 49.7734C17.6099 49.5253 17.6001 49.2881 17.6671 49.0617C17.7341 48.8354 17.8634 48.634 18.0551 48.4577C18.2467 48.2813 18.4873 48.1438 18.7767 48.0451C19.0695 47.9429 19.3489 47.9036 19.6148 47.9272C19.8828 47.95 20.1257 48.0317 20.3436 48.1724C20.5608 48.311 20.7395 48.503 20.8798 48.7483L20.4399 48.9975C20.3427 48.8171 20.2147 48.6758 20.056 48.5738C19.8972 48.4718 19.7193 48.413 19.5223 48.3974C19.3266 48.379 19.1267 48.4042 18.9226 48.4731C18.7254 48.542 18.5612 48.6369 18.4301 48.7579C18.3003 48.8762 18.2105 49.0078 18.1608 49.1529C18.1111 49.298 18.1117 49.4437 18.1628 49.5901C18.2146 49.7386 18.2968 49.8433 18.4093 49.9044C18.5239 49.9648 18.65 49.9995 18.7877 50.0085C18.9275 50.0167 19.0599 50.0173 19.1852 50.0101L20.1336 49.9631C20.2316 49.9563 20.3487 49.9554 20.485 49.9603C20.6226 49.9625 20.7632 49.9864 20.9069 50.0321C21.0519 50.075 21.1857 50.1514 21.3085 50.2614C21.4313 50.3714 21.5292 50.5311 21.6022 50.7406C21.6732 50.9439 21.696 51.1401 21.6707 51.3291C21.6475 51.5174 21.5818 51.692 21.4737 51.8528C21.3676 52.013 21.2269 52.1556 21.0516 52.2807C20.879 52.407 20.6778 52.5103 20.4481 52.5904ZM24.0758 51.3248C23.7545 51.4368 23.4511 51.4629 23.1656 51.4028C22.8821 51.3421 22.6303 51.2053 22.41 50.9925C22.1898 50.7796 22.019 50.4994 21.8977 50.1517C21.7722 49.7918 21.7277 49.4583 21.7643 49.1513C21.8009 48.8443 21.9102 48.5792 22.0924 48.356C22.2765 48.1321 22.5272 47.9648 22.8444 47.8541C23.1698 47.7406 23.4736 47.719 23.7558 47.7893C24.0374 47.8576 24.2857 48.0105 24.5008 48.2479C24.716 48.4853 24.8858 48.799 25.0104 49.1888L24.5529 49.3485L24.4976 49.1899C24.3405 48.7657 24.1355 48.4757 23.8827 48.3198C23.632 48.1633 23.3378 48.1439 23.0003 48.2616C22.6465 48.3851 22.4151 48.5947 22.3062 48.8904C22.1993 49.1854 22.2199 49.5454 22.3682 49.9704C22.5129 50.3852 22.7189 50.6749 22.9861 50.8394C23.2547 51.0011 23.5618 51.0217 23.9075 50.9011C24.1433 50.8188 24.3299 50.6933 24.4672 50.5245C24.6058 50.353 24.6901 50.1468 24.7201 49.906L25.1943 49.9218C25.1642 50.2539 25.0498 50.5436 24.8509 50.7909C24.6534 51.0354 24.395 51.2134 24.0758 51.3248ZM22.2532 50.1508L22.1224 49.7756L24.6386 48.8977L24.7695 49.2729L22.2532 50.1508ZM27.1331 50.2581C26.885 50.3447 26.661 50.3726 26.461 50.3421C26.2631 50.3108 26.0965 50.2354 25.9614 50.1161C25.8262 49.9967 25.7281 49.8496 25.6671 49.6748C25.6047 49.4958 25.5871 49.3309 25.6143 49.18C25.6428 49.0264 25.7049 48.8873 25.8005 48.7627C25.8982 48.6373 26.022 48.5246 26.1718 48.4244C26.3243 48.3256 26.4959 48.2258 26.6866 48.1251C26.8785 48.0216 27.0672 47.925 27.2526 47.8352C27.4393 47.7427 27.6019 47.6598 27.7405 47.5863L27.616 47.7392C27.5086 47.4118 27.3615 47.1928 27.1747 47.0824C26.9879 46.9719 26.7308 46.9738 26.4034 47.088C26.1777 47.1668 26.0043 47.2843 25.8832 47.4406C25.7642 47.5961 25.7114 47.7947 25.725 48.0363L25.2442 48.0604C25.2165 47.7393 25.2882 47.4577 25.4592 47.2156C25.6302 46.9735 25.8977 46.7889 26.2616 46.6619C26.5626 46.5569 26.8376 46.5248 27.0868 46.5656C27.3372 46.6037 27.5434 46.7142 27.7054 46.8972C27.7794 46.9786 27.8431 47.0761 27.8964 47.1898C27.9497 47.3035 27.9977 47.4213 28.0403 47.5433L28.7543 49.5899L28.3547 49.7293L28.0664 48.9027L28.1993 48.9111C28.1861 49.2327 28.0874 49.5089 27.9033 49.7396C27.7192 49.9704 27.4625 50.1432 27.1331 50.2581ZM27.0498 49.8527C27.2592 49.7796 27.4291 49.6781 27.5594 49.5483C27.6898 49.4184 27.78 49.2718 27.8302 49.1083C27.8796 48.9428 27.8898 48.7727 27.8609 48.5981C27.8484 48.4838 27.8211 48.3633 27.7792 48.2365C27.7365 48.1077 27.7042 48.0118 27.6822 47.9488L27.8839 47.9776C27.7385 48.0512 27.5799 48.1293 27.408 48.2121C27.2382 48.2941 27.0715 48.3785 26.9079 48.4653C26.7463 48.5513 26.6028 48.6367 26.4773 48.7216C26.393 48.7806 26.3156 48.8498 26.2452 48.9291C26.1741 49.0064 26.1239 49.0946 26.0946 49.1938C26.0674 49.2922 26.0743 49.4004 26.1155 49.5183C26.1488 49.6139 26.2045 49.6983 26.2825 49.7714C26.3625 49.8439 26.4656 49.8911 26.5919 49.9132C26.7203 49.9346 26.8729 49.9144 27.0498 49.8527ZM29.5483 49.3129L28.399 46.0188L28.8016 45.8784L29.0783 46.6714L28.9628 46.5954C28.9654 46.485 28.982 46.3788 29.0125 46.2769C29.0424 46.173 29.0827 46.0825 29.1334 46.0056C29.1926 45.9005 29.2723 45.8088 29.3727 45.7305C29.4724 45.6501 29.5791 45.5866 29.6929 45.5401C29.8059 45.4915 29.9145 45.4627 30.0186 45.4538L30.1654 45.8747C30.0348 45.8861 29.9012 45.9247 29.7645 45.9906C29.6279 46.0566 29.5166 46.1592 29.4307 46.2987C29.3507 46.4224 29.3042 46.5538 29.2911 46.6929C29.2774 46.83 29.2847 46.9689 29.3133 47.1094C29.3411 47.248 29.3777 47.3823 29.4231 47.5125L29.9966 49.1564L29.5483 49.3129ZM33.0852 48.1815C32.7537 48.2971 32.4473 48.3208 32.1657 48.2526C31.8841 48.1843 31.638 48.0409 31.4272 47.8225C31.2178 47.6014 31.0518 47.3217 30.9292 46.9836C30.8127 46.6365 30.77 46.3115 30.8012 46.0087C30.8317 45.7038 30.9367 45.4391 31.1161 45.2146C31.2948 44.988 31.5478 44.8177 31.8752 44.7034C32.2086 44.5871 32.5267 44.5673 32.8295 44.6442C33.1344 44.7203 33.3818 44.8837 33.5719 45.1344L33.1817 45.4279C33.0356 45.2577 32.8594 45.1481 32.653 45.0992C32.448 45.0476 32.2377 45.0594 32.0221 45.1346C31.7802 45.219 31.5994 45.3448 31.4798 45.5119C31.3595 45.6771 31.2951 45.8717 31.2867 46.0959C31.2782 46.3201 31.3177 46.5607 31.405 46.8176C31.5467 47.2106 31.7489 47.4959 32.0115 47.6734C32.2735 47.8489 32.5813 47.8749 32.9351 47.7515C33.1588 47.6734 33.3312 47.5563 33.4523 47.4C33.5747 47.2409 33.6422 47.0486 33.6547 46.823L34.1529 46.7997C34.1331 47.1351 34.0322 47.4212 33.8502 47.658C33.6676 47.8928 33.4125 48.0673 33.0852 48.1815ZM37.4435 46.5583L36.8572 44.8778C36.7933 44.6948 36.7175 44.533 36.6298 44.3926C36.5413 44.2501 36.4385 44.1354 36.3215 44.0485C36.2059 43.9589 36.076 43.9038 35.932 43.8833C35.7901 43.8622 35.6327 43.8817 35.4599 43.942C35.3013 43.9974 35.1705 44.0738 35.0677 44.1712C34.9669 44.268 34.8929 44.3827 34.8457 44.5155C34.7998 44.6456 34.7811 44.7912 34.7895 44.9525C34.7978 45.1138 34.8347 45.288 34.8999 45.4751L34.5582 45.5156C34.4405 45.1781 34.4005 44.8738 34.4383 44.6029C34.476 44.332 34.578 44.1014 34.7443 43.9111C34.9106 43.7208 35.1279 43.5789 35.3963 43.4852C35.5935 43.4164 35.776 43.387 35.9437 43.3969C36.1134 43.4061 36.2672 43.4448 36.405 43.5131C36.5449 43.5806 36.6697 43.6704 36.7796 43.7827C36.8887 43.8928 36.9838 44.0182 37.0648 44.1587C37.145 44.2972 37.211 44.4407 37.2628 44.5891L37.8949 46.4008L37.4435 46.5583ZM35.0614 47.3894L33.5291 42.9974L33.9348 42.8558L34.7999 45.3355L34.8457 45.3195L35.5128 47.2319L35.0614 47.3894Z" fill="#64748B"/>
</svg>
