<svg width="73" height="30" viewBox="0 0 73 30" fill="none" xmlns="http://www.w3.org/2000/svg">
<g clip-path="url(#clip0_4_41676)">
<path d="M6.75087 24.3196C7.60102 24.023 8.04975 23.0933 7.75315 22.2432C7.45654 21.393 6.52692 20.9443 5.67677 21.2409C4.82663 21.5375 4.3779 22.4671 4.6745 23.3173C4.97111 24.1674 5.90073 24.6162 6.75087 24.3196Z" stroke="#64748B" stroke-width="0.257419" stroke-linecap="round" stroke-linejoin="round"/>
<path d="M8.50918 23.8874L8.07294 23.6768" stroke="#64748B" stroke-width="0.257419" stroke-linecap="round" stroke-linejoin="round"/>
<path d="M12.3478 22.0349C12.152 22.1032 11.9644 22.1323 11.785 22.1222C11.6064 22.1104 11.4448 22.062 11.3004 21.9772C11.1572 21.8919 11.0411 21.7717 10.9521 21.6167L11.2268 21.4663C11.3368 21.6315 11.4851 21.7397 11.6716 21.791C11.8577 21.8409 12.0551 21.8295 12.2638 21.7567C12.4012 21.7087 12.5169 21.6444 12.6108 21.5636C12.7044 21.4815 12.7682 21.3895 12.8024 21.2874C12.8366 21.1853 12.8344 21.0792 12.796 20.969C12.7707 20.8964 12.7362 20.8394 12.6927 20.7979C12.6486 20.755 12.5994 20.7243 12.5448 20.7055C12.4903 20.6867 12.4339 20.6751 12.3757 20.6707C12.317 20.665 12.2612 20.6634 12.2082 20.6659L11.4246 20.7015C11.3304 20.7068 11.2405 20.7032 11.1548 20.691C11.0686 20.6774 10.9891 20.6536 10.9161 20.6194C10.8439 20.5835 10.7803 20.5345 10.7251 20.4723C10.67 20.4101 10.6262 20.3323 10.5936 20.239C10.5384 20.0808 10.5322 19.9296 10.5749 19.7853C10.6176 19.641 10.7 19.5126 10.8222 19.4002C10.9444 19.2878 11.0978 19.2001 11.2823 19.1372C11.4689 19.0721 11.647 19.047 11.8166 19.062C11.9874 19.0766 12.1423 19.1287 12.2812 19.2184C12.4196 19.3067 12.5336 19.4291 12.623 19.5855L12.3426 19.7444C12.2806 19.6293 12.199 19.5393 12.0978 19.4743C11.9966 19.4092 11.8832 19.3717 11.7576 19.3618C11.6328 19.35 11.5054 19.3661 11.3753 19.4101C11.2496 19.4539 11.1449 19.5145 11.0613 19.5916C10.9786 19.667 10.9213 19.7509 10.8896 19.8434C10.8579 19.9359 10.8583 20.0288 10.8909 20.1222C10.9239 20.2168 10.9763 20.2836 11.048 20.3225C11.1211 20.361 11.2015 20.3831 11.2893 20.3889C11.3784 20.3941 11.4628 20.3945 11.5427 20.3899L12.1473 20.36C12.2098 20.3556 12.2844 20.355 12.3713 20.3582C12.459 20.3595 12.5487 20.3748 12.6403 20.4039C12.7327 20.4313 12.8181 20.48 12.8963 20.5501C12.9746 20.6202 13.037 20.7221 13.0836 20.8556C13.1288 20.9852 13.1434 21.1103 13.1272 21.2308C13.1124 21.3508 13.0705 21.4621 13.0016 21.5647C12.934 21.6668 12.8443 21.7577 12.7325 21.8374C12.6225 21.918 12.4943 21.9838 12.3478 22.0349ZM14.6605 21.228C14.4557 21.2995 14.2623 21.3161 14.0802 21.2778C13.8995 21.2391 13.739 21.1518 13.5986 21.0162C13.4582 20.8805 13.3493 20.7018 13.272 20.4801C13.1919 20.2507 13.1635 20.0381 13.1869 19.8424C13.2102 19.6467 13.2799 19.4777 13.396 19.3354C13.5134 19.1927 13.6733 19.086 13.8755 19.0155C14.0829 18.9431 14.2766 18.9293 14.4565 18.9741C14.636 19.0177 14.7943 19.1151 14.9315 19.2665C15.0686 19.4178 15.1769 19.6178 15.2563 19.8663L14.9647 19.9681L14.9294 19.867C14.8292 19.5966 14.6986 19.4117 14.5374 19.3123C14.3775 19.2125 14.19 19.2002 13.9748 19.2752C13.7493 19.3539 13.6018 19.4875 13.5323 19.6761C13.4642 19.8642 13.4774 20.0937 13.5719 20.3646C13.6642 20.629 13.7955 20.8137 13.9658 20.9186C14.137 21.0217 14.3328 21.0348 14.5532 20.9579C14.7036 20.9055 14.8225 20.8254 14.91 20.7178C14.9984 20.6085 15.0521 20.4771 15.0712 20.3235L15.3736 20.3336C15.3544 20.5453 15.2814 20.73 15.1546 20.8877C15.0287 21.0436 14.864 21.157 14.6605 21.228ZM13.4986 20.4796L13.4152 20.2404L15.0193 19.6808L15.1027 19.9199L13.4986 20.4796ZM16.6096 20.548C16.4514 20.6032 16.3086 20.621 16.1811 20.6015C16.0549 20.5816 15.9487 20.5336 15.8626 20.4575C15.7764 20.3814 15.7139 20.2876 15.675 20.1761C15.6352 20.0621 15.624 19.9569 15.6413 19.8607C15.6595 19.7628 15.699 19.6741 15.76 19.5946C15.8223 19.5148 15.9012 19.4429 15.9967 19.379C16.0939 19.316 16.2033 19.2524 16.3249 19.1882C16.4473 19.1222 16.5676 19.0606 16.6857 19.0034C16.8047 18.9444 16.9084 18.8915 16.9968 18.8447L16.9174 18.9422C16.8489 18.7334 16.7551 18.5939 16.6361 18.5234C16.517 18.453 16.3531 18.4542 16.1444 18.527C16.0005 18.5772 15.89 18.6522 15.8128 18.7518C15.7369 18.851 15.7032 18.9776 15.7119 19.1316L15.4053 19.1469C15.3877 18.9422 15.4334 18.7627 15.5424 18.6084C15.6514 18.454 15.8219 18.3364 16.054 18.2554C16.2458 18.1885 16.4212 18.168 16.58 18.194C16.7397 18.2183 16.8712 18.2887 16.9744 18.4054C17.0216 18.4573 17.0622 18.5195 17.0962 18.5919C17.1302 18.6644 17.1607 18.7395 17.1879 18.8173L17.6431 20.122L17.3884 20.2109L17.2045 19.6839L17.2893 19.6893C17.2808 19.8943 17.2179 20.0704 17.1006 20.2175C16.9832 20.3646 16.8196 20.4747 16.6096 20.548ZM16.5565 20.2895C16.69 20.243 16.7983 20.1783 16.8814 20.0955C16.9644 20.0127 17.022 19.9192 17.0539 19.815C17.0855 19.7095 17.092 19.6011 17.0735 19.4897C17.0655 19.4169 17.0482 19.3401 17.0215 19.2592C16.9943 19.1771 16.9736 19.116 16.9596 19.0758L17.0882 19.0942C16.9955 19.1411 16.8944 19.1909 16.7848 19.2436C16.6766 19.296 16.5703 19.3498 16.466 19.4051C16.363 19.4599 16.2715 19.5144 16.1915 19.5684C16.1377 19.6061 16.0884 19.6502 16.0435 19.7008C15.9982 19.75 15.9662 19.8063 15.9475 19.8695C15.9302 19.9322 15.9346 20.0012 15.9608 20.0764C15.9821 20.1373 16.0176 20.1911 16.0673 20.2377C16.1183 20.2839 16.184 20.3141 16.2646 20.3281C16.3464 20.3417 16.4437 20.3289 16.5565 20.2895ZM18.1493 19.9454L17.4166 17.8454L17.6733 17.7559L17.8497 18.2614L17.776 18.213C17.7777 18.1426 17.7882 18.0749 17.8077 18.01C17.8268 17.9437 17.8525 17.886 17.8848 17.837C17.9225 17.77 17.9733 17.7115 18.0373 17.6616C18.1009 17.6103 18.1689 17.5699 18.2414 17.5402C18.3135 17.5093 18.3827 17.4909 18.4491 17.4852L18.5427 17.7535C18.4594 17.7608 18.3743 17.7854 18.2871 17.8274C18.2 17.8695 18.1291 17.9349 18.0743 18.0238C18.0233 18.1027 17.9936 18.1865 17.9853 18.2752C17.9765 18.3626 17.9812 18.4511 17.9994 18.5407C18.0172 18.629 18.0405 18.7147 18.0694 18.7976L18.4351 19.8457L18.1493 19.9454ZM20.4041 19.2242C20.1928 19.2979 19.9974 19.313 19.8179 19.2694C19.6384 19.2259 19.4815 19.1345 19.3471 18.9953C19.2136 18.8543 19.1078 18.676 19.0296 18.4605C18.9553 18.2392 18.9281 18.032 18.948 17.839C18.9675 17.6446 19.0344 17.4759 19.1487 17.3327C19.2627 17.1883 19.424 17.0797 19.6327 17.0069C19.8453 16.9327 20.0481 16.9201 20.2411 16.9691C20.4354 17.0176 20.5932 17.1218 20.7144 17.2816L20.4656 17.4687C20.3725 17.3602 20.2601 17.2903 20.1286 17.2592C19.9978 17.2262 19.8638 17.2338 19.7264 17.2817C19.5721 17.3355 19.4569 17.4157 19.3806 17.5223C19.3039 17.6276 19.2629 17.7516 19.2575 17.8946C19.2521 18.0375 19.2773 18.1909 19.333 18.3546C19.4233 18.6052 19.5522 18.7871 19.7196 18.9002C19.8866 19.0121 20.0829 19.0287 20.3084 18.95C20.451 18.9002 20.5609 18.8256 20.6381 18.7259C20.7162 18.6245 20.7592 18.5019 20.7671 18.3581L21.0848 18.3433C21.0721 18.557 21.0078 18.7394 20.8918 18.8904C20.7753 19.0401 20.6128 19.1513 20.4041 19.2242ZM23.1825 18.1894L22.8088 17.118C22.7681 17.0013 22.7197 16.8982 22.6638 16.8087C22.6074 16.7179 22.5419 16.6447 22.4673 16.5893C22.3935 16.5322 22.3108 16.4971 22.219 16.484C22.1285 16.4705 22.0281 16.483 21.918 16.5214C21.8168 16.5567 21.7335 16.6054 21.6679 16.6676C21.6037 16.7292 21.5565 16.8024 21.5264 16.8871C21.4972 16.97 21.4852 17.0628 21.4906 17.1657C21.4959 17.2685 21.5194 17.3795 21.561 17.4988L21.3432 17.5246C21.2681 17.3094 21.2426 17.1155 21.2667 16.9428C21.2908 16.7701 21.3558 16.6231 21.4618 16.5017C21.5678 16.3804 21.7063 16.2899 21.8774 16.2302C22.0032 16.1864 22.1195 16.1676 22.2264 16.1739C22.3346 16.1798 22.4326 16.2045 22.5205 16.248C22.6097 16.291 22.6893 16.3483 22.7593 16.4198C22.8289 16.4901 22.8895 16.57 22.9411 16.6596C22.9923 16.7479 23.0343 16.8393 23.0674 16.934L23.4703 18.089L23.1825 18.1894ZM21.664 18.7192L20.6871 15.9192L20.9457 15.829L21.4972 17.4098L21.5264 17.3996L21.9517 18.6188L21.664 18.7192Z" fill="#64748B"/>
</g>
<rect x="0.902328" y="19.4088" width="72.6379" height="10.0393" rx="0.900966" transform="rotate(-19.2332 0.902328 19.4088)" stroke="#D0D5DD" stroke-width="0.257419"/>
<defs>
<clipPath id="clip0_4_41676">
<rect x="0.738403" y="19.3296" width="72.8953" height="10.2968" rx="1.02968" transform="rotate(-19.2332 0.738403 19.3296)" fill="white"/>
</clipPath>
</defs>
</svg>
