<svg width="22" height="21" viewBox="0 0 22 21" fill="none" xmlns="http://www.w3.org/2000/svg">
<rect x="0.506226" y="5.5144" width="16.1515" height="16.1515" rx="8.07575" transform="rotate(-19.2332 0.506226 5.5144)" fill="#F7F8F9"/>
<path d="M10.2716 7.81045C10.2016 7.60991 9.98231 7.50407 9.78178 7.57403C9.58125 7.64399 9.4754 7.86327 9.54536 8.0638L10.3054 10.2424L8.12686 11.0025C7.92633 11.0724 7.82049 11.2917 7.89045 11.4922C7.96041 11.6928 8.17969 11.7986 8.38022 11.7286L10.5588 10.9686L11.3189 13.1471C11.3888 13.3477 11.6081 13.4535 11.8086 13.3836C12.0092 13.3136 12.115 13.0943 12.0451 12.8938L11.285 10.7152L13.4636 9.95513C13.6641 9.88517 13.7699 9.66589 13.7 9.46536C13.63 9.26483 13.4107 9.15898 13.2102 9.22894L11.0316 9.98902L10.2716 7.81045Z" fill="#040921"/>
</svg>
