<svg width="13" height="13" viewBox="0 0 13 13" fill="none" xmlns="http://www.w3.org/2000/svg">
<path fill-rule="evenodd" clip-rule="evenodd" d="M4.61506 5.45629L4.60167 5.42419C4.53612 5.29024 4.37548 5.22455 4.22651 5.27653L4.1933 5.29024C4.0545 5.35688 3.98381 5.51481 4.03411 5.65897L5.05408 8.58248L5.06747 8.61458C5.13303 8.74853 5.29367 8.81422 5.44263 8.76224L5.47585 8.74853C5.61465 8.68189 5.68533 8.52395 5.63503 8.37979L4.61506 5.45629ZM5.6272 6.48949C5.52395 6.65575 5.60054 6.87527 5.7848 6.94122C5.78663 6.94187 5.78847 6.94251 5.79032 6.94313L8.14319 7.73687C8.38577 7.81871 8.61634 7.58574 8.53201 7.34402L7.52762 4.46519C7.44329 4.22347 7.11784 4.18449 6.97881 4.39946L5.63033 6.48456C5.62927 6.4862 5.62823 6.48784 5.6272 6.48949Z" fill="#191D23"/>
</svg>
