<svg width="26" height="17" viewBox="0 0 26 17" fill="none" xmlns="http://www.w3.org/2000/svg">
<rect x="0.577576" y="8.22473" width="23.4748" height="9.26708" rx="1.02968" transform="rotate(-19.2332 0.577576 8.22473)" fill="#059669"/>
<path d="M10.9424 11.6343L9.96553 8.83431L11.0466 8.45713C11.0738 8.44764 11.1048 8.4383 11.1394 8.42914C11.1748 8.41822 11.2112 8.4099 11.2484 8.40417C11.4026 8.3751 11.5443 8.38312 11.6734 8.42821C11.8034 8.47155 11.9153 8.54446 12.0093 8.64692C12.1045 8.74893 12.1776 8.87318 12.2287 9.01966C12.2794 9.16484 12.2992 9.30698 12.2881 9.44607C12.277 9.58517 12.2343 9.71277 12.1599 9.82886C12.0864 9.94321 11.9809 10.0367 11.8434 10.1094C11.8102 10.1268 11.7765 10.1429 11.7424 10.1577C11.7096 10.1721 11.6796 10.184 11.6524 10.1935L10.8571 10.4709L11.2282 11.5345L10.9424 11.6343ZM10.7622 10.1987L11.5497 9.92399C11.573 9.91585 11.5998 9.90505 11.63 9.89161C11.6602 9.87816 11.6891 9.86299 11.7166 9.84611C11.8053 9.7919 11.8699 9.72501 11.9105 9.64542C11.9524 9.56538 11.9742 9.47997 11.976 9.3892C11.979 9.29798 11.9654 9.20894 11.9351 9.12209C11.9048 9.03524 11.8601 8.95706 11.8009 8.88754C11.7426 8.81628 11.6722 8.76234 11.5896 8.72571C11.5084 8.68864 11.4161 8.67646 11.313 8.68919C11.2809 8.69311 11.2491 8.69985 11.2175 8.70941C11.1855 8.71767 11.1578 8.72587 11.1345 8.73401L10.347 9.00875L10.7622 10.1987ZM13.8194 10.6959C13.6612 10.7511 13.5184 10.769 13.3909 10.7495C13.2647 10.7295 13.1586 10.6815 13.0724 10.6054C12.9862 10.5293 12.9237 10.4355 12.8848 10.3241C12.845 10.21 12.8338 10.1049 12.8511 10.0087C12.8693 9.91071 12.9089 9.82202 12.9698 9.74258C13.0321 9.66269 13.111 9.59081 13.2065 9.52696C13.3038 9.46395 13.4132 9.40034 13.5347 9.33612C13.6571 9.27015 13.7774 9.20856 13.8956 9.15134C14.0146 9.09237 14.1183 9.03947 14.2066 8.99265L14.1272 9.09014C14.0587 8.88138 13.965 8.7418 13.8459 8.67138C13.7268 8.60096 13.5629 8.60216 13.3542 8.67497C13.2103 8.72517 13.0998 8.80009 13.0226 8.89973C12.9467 8.99891 12.9131 9.12551 12.9217 9.27953L12.6152 9.29488C12.5976 9.09018 12.6433 8.91066 12.7523 8.7563C12.8613 8.60195 13.0318 8.4843 13.2638 8.40334C13.4557 8.33641 13.631 8.31595 13.7898 8.34196C13.9495 8.36622 14.081 8.43668 14.1842 8.55334C14.2314 8.60522 14.272 8.6674 14.306 8.73987C14.34 8.81234 14.3706 8.88746 14.3977 8.96524L14.8529 10.2699L14.5982 10.3588L14.4143 9.83187L14.4991 9.8372C14.4907 10.0423 14.4278 10.2183 14.3104 10.3654C14.1931 10.5125 14.0294 10.6227 13.8194 10.6959ZM13.7663 10.4375C13.8998 10.3909 14.0081 10.3262 14.0912 10.2434C14.1743 10.1606 14.2318 10.0671 14.2638 9.96292C14.2953 9.85741 14.3018 9.74899 14.2833 9.63766C14.2754 9.56482 14.258 9.488 14.2313 9.40717C14.2041 9.32506 14.1835 9.26391 14.1695 9.22372L14.298 9.24212C14.2053 9.289 14.1042 9.33882 13.9946 9.39158C13.8864 9.44389 13.7801 9.49769 13.6758 9.55299C13.5728 9.60783 13.4813 9.66229 13.4013 9.71638C13.3475 9.75403 13.2982 9.79814 13.2533 9.8487C13.208 9.89796 13.176 9.9542 13.1573 10.0174C13.14 10.0802 13.1444 10.1492 13.1706 10.2243C13.1919 10.2853 13.2274 10.339 13.2771 10.3857C13.3281 10.4319 13.3939 10.462 13.4744 10.4761C13.5562 10.4897 13.6535 10.4768 13.7663 10.4375ZM15.8664 10.9633L15.8882 9.71899L16.008 10.0436L14.3007 8.10703L14.604 8.00121L16.0171 9.62602L15.8927 9.66943L15.9301 7.53855L16.2217 7.43679L16.1522 10.8635L15.8664 10.9633Z" fill="white"/>
</svg>
