<svg width="26" height="17" viewBox="0 0 26 17" fill="none" xmlns="http://www.w3.org/2000/svg">
<rect x="-0.000915527" y="7.90411" width="23.4748" height="9.26708" rx="1.02968" transform="rotate(-19.2332 -0.000915527 7.90411)" fill="#E7EAEE"/>
<path d="M10.3639 11.3136L9.38704 8.51369L10.4681 8.13652C10.4953 8.12702 10.5263 8.11769 10.5609 8.10852C10.5963 8.09761 10.6327 8.08928 10.6699 8.08355C10.8241 8.05449 10.9658 8.0625 11.0949 8.10759C11.2249 8.15094 11.3369 8.22384 11.4308 8.3263C11.526 8.42832 11.5991 8.55256 11.6502 8.69904C11.7009 8.84422 11.7207 8.98636 11.7096 9.12546C11.6985 9.26455 11.6558 9.39215 11.5814 9.50825C11.5079 9.62259 11.4024 9.71611 11.2649 9.7888C11.2317 9.8062 11.198 9.8223 11.1639 9.8371C11.1312 9.85145 11.1011 9.86338 11.0739 9.87287L10.2787 10.1503L10.6497 11.2139L10.3639 11.3136ZM10.1837 9.87811L10.9712 9.60337C10.9945 9.59523 11.0213 9.58443 11.0515 9.57099C11.0817 9.55754 11.1106 9.54238 11.1381 9.52549C11.2268 9.47129 11.2914 9.40439 11.332 9.3248C11.3739 9.24476 11.3957 9.15935 11.3975 9.06858C11.4005 8.97736 11.3869 8.88832 11.3566 8.80147C11.3263 8.71462 11.2816 8.63644 11.2225 8.56693C11.1641 8.49566 11.0937 8.44172 11.0111 8.4051C10.9299 8.36802 10.8376 8.35584 10.7345 8.36857C10.7024 8.37249 10.6706 8.37923 10.639 8.38879C10.607 8.39705 10.5793 8.40525 10.556 8.41339L9.76852 8.68813L10.1837 9.87811ZM13.2409 10.3753C13.0827 10.4305 12.9399 10.4483 12.8124 10.4288C12.6862 10.4089 12.5801 10.3609 12.4939 10.2848C12.4077 10.2087 12.3452 10.1149 12.3063 10.0034C12.2665 9.88937 12.2553 9.78423 12.2726 9.68804C12.2908 9.59009 12.3304 9.5014 12.3914 9.42196C12.4536 9.34207 12.5325 9.2702 12.628 9.20634C12.7253 9.14333 12.8347 9.07972 12.9562 9.0155C13.0786 8.94954 13.1989 8.88794 13.3171 8.83072C13.4361 8.77175 13.5398 8.71885 13.6281 8.67203L13.5487 8.76953C13.4802 8.56077 13.3865 8.42118 13.2674 8.35076C13.1483 8.28035 12.9844 8.28154 12.7757 8.35436C12.6318 8.40456 12.5213 8.47947 12.4441 8.57911C12.3682 8.6783 12.3346 8.8049 12.3432 8.95891L12.0367 8.97426C12.0191 8.76956 12.0648 8.59004 12.1738 8.43569C12.2828 8.28133 12.4533 8.16368 12.6853 8.08273C12.8772 8.01579 13.0525 7.99533 13.2114 8.02134C13.371 8.0456 13.5025 8.11606 13.6057 8.23272C13.6529 8.2846 13.6935 8.34678 13.7275 8.41925C13.7615 8.49172 13.7921 8.56684 13.8192 8.64462L14.2744 9.94932L14.0197 10.0382L13.8359 9.51125L13.9206 9.51658C13.9122 9.72164 13.8493 9.89771 13.7319 10.0448C13.6146 10.1919 13.4509 10.3021 13.2409 10.3753ZM13.1878 10.1169C13.3213 10.0703 13.4296 10.0056 13.5127 9.92281C13.5958 9.84002 13.6533 9.74652 13.6853 9.6423C13.7168 9.53679 13.7233 9.42837 13.7048 9.31704C13.6969 9.2442 13.6795 9.16738 13.6528 9.08656C13.6256 9.00444 13.605 8.94329 13.591 8.9031L13.7195 8.9215C13.6268 8.96838 13.5257 9.01821 13.4162 9.07097C13.3079 9.12327 13.2016 9.17708 13.0973 9.23237C12.9943 9.28721 12.9028 9.34167 12.8228 9.39576C12.769 9.43341 12.7197 9.47752 12.6748 9.52808C12.6295 9.57734 12.5975 9.63358 12.5788 9.6968C12.5615 9.75956 12.5659 9.82854 12.5922 9.90372C12.6134 9.96464 12.6489 10.0184 12.6986 10.0651C12.7496 10.1112 12.8154 10.1414 12.8959 10.1554C12.9777 10.1691 13.075 10.1562 13.1878 10.1169ZM15.2879 10.6426L15.3097 9.39837L15.4295 9.723L13.7222 7.78642L14.0255 7.68059L15.4386 9.3054L15.3142 9.34881L15.3516 7.21793L15.6432 7.11618L15.5738 10.5429L15.2879 10.6426Z" fill="#64748B"/>
</svg>
