<svg width="250" height="50" viewBox="0 0 250 50" fill="none" xmlns="http://www.w3.org/2000/svg">
<rect x="22.8613" width="201.327" height="50" fill="#69749B"/>
<ellipse cx="25.8112" cy="25" rx="25.8112" ry="25" fill="#69749B"/>
<ellipse cx="224.189" cy="25" rx="25.8112" ry="25" fill="#69749B"/>
<path d="M47.3492 25.6275V23.9475H47.7332C47.8772 23.9475 48.0532 23.9475 48.2612 23.9475C48.4692 23.9475 48.6772 23.9395 48.8852 23.9235C49.1092 23.9075 49.3172 23.8995 49.5092 23.8995C49.7172 23.8835 49.8852 23.8595 50.0132 23.8275C50.4292 23.7635 50.8212 23.6595 51.1892 23.5155C51.5572 23.3555 51.8772 23.1555 52.1492 22.9155C52.4212 22.6755 52.6372 22.3955 52.7972 22.0755C52.9572 21.7555 53.0372 21.4035 53.0372 21.0195C53.0372 20.4915 52.9492 20.0515 52.7732 19.6995C52.5972 19.3475 52.3492 19.0675 52.0292 18.8595C51.7252 18.6355 51.3652 18.4835 50.9492 18.4035C50.5492 18.3075 50.1172 18.2595 49.6532 18.2595C48.7892 18.2595 48.0532 18.3235 47.4452 18.4515C46.8372 18.5635 46.3492 18.7075 45.9812 18.8835L45.4532 17.2995C45.7732 17.1235 46.3492 16.9475 47.1812 16.7715C48.0132 16.5795 48.9492 16.4835 49.9892 16.4835C50.6292 16.4835 51.2532 16.5555 51.8612 16.6995C52.4852 16.8275 53.0372 17.0515 53.5172 17.3715C54.0132 17.6755 54.4052 18.0995 54.6932 18.6435C54.9972 19.1715 55.1492 19.8275 55.1492 20.6115C55.1492 21.4115 54.8852 22.1795 54.3572 22.9155C53.8292 23.6355 53.0372 24.1555 51.9812 24.4755V24.5715C53.1172 24.7315 54.0132 25.1555 54.6692 25.8435C55.3252 26.5315 55.6532 27.4515 55.6532 28.6035C55.6532 29.5155 55.4692 30.3075 55.1012 30.9795C54.7492 31.6355 54.2772 32.1795 53.6852 32.6115C53.1092 33.0435 52.4372 33.3635 51.6692 33.5715C50.9172 33.7635 50.1492 33.8595 49.3652 33.8595C48.3092 33.8595 47.4372 33.7955 46.7492 33.6675C46.0772 33.5555 45.5172 33.4115 45.0692 33.2355L45.5732 31.4355C45.9412 31.6115 46.4532 31.7635 47.1092 31.8915C47.7812 32.0195 48.5892 32.0835 49.5332 32.0835C50.0292 32.0835 50.5172 32.0195 50.9972 31.8915C51.4772 31.7475 51.9012 31.5395 52.2692 31.2675C52.6532 30.9795 52.9572 30.6275 53.1812 30.2115C53.4212 29.7955 53.5412 29.2995 53.5412 28.7235C53.5412 27.7155 53.1892 26.9795 52.4852 26.5155C51.7812 26.0355 50.8612 25.7555 49.7252 25.6755C49.5332 25.6595 49.3492 25.6515 49.1732 25.6515C49.0132 25.6355 48.8452 25.6275 48.6692 25.6275H47.3492ZM68.7576 26.4435L68.9016 24.1635H68.7816L67.9176 26.0115L65.0136 30.7155H64.3416L61.3176 26.0115L60.5256 24.1635H60.4296L60.6216 26.4195V33.5715H58.8456V21.5715H60.7416L64.1016 26.9475L64.7976 28.3395H64.8456L65.5656 26.8995L68.7096 21.5715H70.6296V33.5715H68.7576V26.4435ZM74.7223 21.5715H76.6423V33.5715H74.7223V21.5715ZM74.3143 17.9235C74.3143 17.5555 74.4343 17.2435 74.6743 16.9875C74.9303 16.7155 75.2503 16.5795 75.6343 16.5795C76.0183 16.5795 76.3463 16.7155 76.6183 16.9875C76.8903 17.2435 77.0263 17.5555 77.0263 17.9235C77.0263 18.2915 76.8903 18.5955 76.6183 18.8355C76.3463 19.0755 76.0183 19.1955 75.6343 19.1955C75.2503 19.1955 74.9303 19.0755 74.6743 18.8355C74.4343 18.5955 74.3143 18.2915 74.3143 17.9235ZM88.0802 28.2675H82.6562V33.5715H80.7362V21.5715H82.6562V26.5875H88.0802V21.5715H90.0002V33.5715H88.0802V28.2675ZM101.185 26.4675L101.257 24.9795H101.185L100.201 26.5155L94.8011 33.5715H93.6971V21.5715H95.6171V28.8915L95.5451 30.3075H95.6411L96.5771 28.8195L101.977 21.5715H103.105V33.5715H101.185V26.4675ZM114.455 23.2515H110.687V33.5715H108.767V23.2515H104.999V21.5715H114.455V23.2515ZM123.849 26.4675L123.921 24.9795H123.849L122.865 26.5155L117.465 33.5715H116.361V21.5715H118.281V28.8915L118.209 30.3075H118.305L119.241 28.8195L124.641 21.5715H125.769V33.5715H123.849V26.4675ZM135.669 22.4595C136.277 22.0915 136.981 21.8195 137.781 21.6435C138.597 21.4675 139.445 21.3795 140.325 21.3795C141.157 21.3795 141.821 21.4915 142.317 21.7155C142.829 21.9395 143.213 22.2355 143.469 22.6035C143.741 22.9555 143.917 23.3475 143.997 23.7795C144.093 24.2115 144.141 24.6435 144.141 25.0755C144.141 26.0355 144.117 26.9715 144.069 27.8835C144.021 28.7955 143.997 29.6595 143.997 30.4755C143.997 31.0675 144.021 31.6275 144.069 32.1555C144.117 32.6835 144.205 33.1715 144.333 33.6195H142.917L142.413 31.9395H142.293C142.149 32.1635 141.965 32.3875 141.741 32.6115C141.533 32.8195 141.277 33.0115 140.973 33.1875C140.669 33.3475 140.317 33.4835 139.917 33.5955C139.517 33.7075 139.061 33.7635 138.549 33.7635C138.037 33.7635 137.557 33.6835 137.109 33.5235C136.677 33.3635 136.301 33.1395 135.981 32.8515C135.661 32.5475 135.405 32.1875 135.213 31.7715C135.037 31.3555 134.949 30.8835 134.949 30.3555C134.949 29.6515 135.093 29.0675 135.381 28.6035C135.669 28.1235 136.069 27.7475 136.581 27.4755C137.109 27.1875 137.733 26.9875 138.453 26.8755C139.189 26.7475 139.997 26.6835 140.877 26.6835C141.101 26.6835 141.317 26.6835 141.525 26.6835C141.749 26.6835 141.973 26.6995 142.197 26.7315C142.245 26.2515 142.269 25.8195 142.269 25.4355C142.269 24.5555 142.093 23.9395 141.741 23.5875C141.389 23.2355 140.749 23.0595 139.821 23.0595C139.549 23.0595 139.253 23.0835 138.933 23.1315C138.629 23.1635 138.309 23.2195 137.973 23.2995C137.653 23.3635 137.341 23.4515 137.037 23.5635C136.749 23.6595 136.493 23.7715 136.269 23.8995L135.669 22.4595ZM139.077 32.0835C139.525 32.0835 139.925 32.0275 140.277 31.9155C140.629 31.7875 140.933 31.6355 141.189 31.4595C141.445 31.2675 141.653 31.0595 141.813 30.8355C141.989 30.6115 142.117 30.3955 142.197 30.1875V28.1955C141.973 28.1795 141.741 28.1715 141.501 28.1715C141.277 28.1555 141.053 28.1475 140.829 28.1475C140.333 28.1475 139.845 28.1795 139.365 28.2435C138.901 28.2915 138.485 28.3955 138.117 28.5555C137.765 28.6995 137.477 28.9075 137.253 29.1795C137.045 29.4355 136.941 29.7635 136.941 30.1635C136.941 30.7235 137.141 31.1875 137.541 31.5555C137.941 31.9075 138.453 32.0835 139.077 32.0835ZM147.767 21.5955C148.327 21.5635 148.911 21.5235 149.519 21.4755C150.143 21.4275 150.911 21.4035 151.823 21.4035C153.407 21.4035 154.543 21.6515 155.231 22.1475C155.919 22.6275 156.263 23.3635 156.263 24.3555C156.263 24.9155 156.095 25.4675 155.759 26.0115C155.439 26.5395 154.903 26.9315 154.151 27.1875V27.2835C155.095 27.4595 155.759 27.7875 156.143 28.2675C156.527 28.7475 156.719 29.3875 156.719 30.1875C156.719 31.4355 156.271 32.3395 155.375 32.8995C154.479 33.4595 153.135 33.7395 151.343 33.7395C150.671 33.7395 150.047 33.7155 149.471 33.6675C148.895 33.6355 148.327 33.5955 147.767 33.5475V21.5955ZM149.687 31.9635C149.991 31.9955 150.287 32.0195 150.575 32.0355C150.879 32.0515 151.231 32.0595 151.631 32.0595C152.703 32.0595 153.495 31.9075 154.007 31.6035C154.535 31.2995 154.799 30.7795 154.799 30.0435C154.799 29.4675 154.575 29.0035 154.127 28.6515C153.695 28.2835 152.919 28.0995 151.799 28.0995H149.687V31.9635ZM152.039 26.6355C152.327 26.6355 152.607 26.5875 152.879 26.4915C153.151 26.3955 153.391 26.2675 153.599 26.1075C153.823 25.9315 153.999 25.7315 154.127 25.5075C154.271 25.2835 154.343 25.0435 154.343 24.7875C154.343 24.1475 154.151 23.7075 153.767 23.4675C153.383 23.2115 152.711 23.0835 151.751 23.0835C151.239 23.0835 150.831 23.0915 150.527 23.1075C150.239 23.1235 149.959 23.1395 149.687 23.1555V26.6355H152.039ZM159.552 22.4595C160.16 22.0915 160.864 21.8195 161.664 21.6435C162.48 21.4675 163.328 21.3795 164.208 21.3795C165.04 21.3795 165.704 21.4915 166.2 21.7155C166.712 21.9395 167.096 22.2355 167.352 22.6035C167.624 22.9555 167.8 23.3475 167.88 23.7795C167.976 24.2115 168.024 24.6435 168.024 25.0755C168.024 26.0355 168 26.9715 167.952 27.8835C167.904 28.7955 167.88 29.6595 167.88 30.4755C167.88 31.0675 167.904 31.6275 167.952 32.1555C168 32.6835 168.088 33.1715 168.216 33.6195H166.8L166.296 31.9395H166.176C166.032 32.1635 165.848 32.3875 165.624 32.6115C165.416 32.8195 165.16 33.0115 164.856 33.1875C164.552 33.3475 164.2 33.4835 163.8 33.5955C163.4 33.7075 162.944 33.7635 162.432 33.7635C161.92 33.7635 161.44 33.6835 160.992 33.5235C160.56 33.3635 160.184 33.1395 159.864 32.8515C159.544 32.5475 159.288 32.1875 159.096 31.7715C158.92 31.3555 158.832 30.8835 158.832 30.3555C158.832 29.6515 158.976 29.0675 159.264 28.6035C159.552 28.1235 159.952 27.7475 160.464 27.4755C160.992 27.1875 161.616 26.9875 162.336 26.8755C163.072 26.7475 163.88 26.6835 164.76 26.6835C164.984 26.6835 165.2 26.6835 165.408 26.6835C165.632 26.6835 165.856 26.6995 166.08 26.7315C166.128 26.2515 166.152 25.8195 166.152 25.4355C166.152 24.5555 165.976 23.9395 165.624 23.5875C165.272 23.2355 164.632 23.0595 163.704 23.0595C163.432 23.0595 163.136 23.0835 162.816 23.1315C162.512 23.1635 162.192 23.2195 161.856 23.2995C161.536 23.3635 161.224 23.4515 160.92 23.5635C160.632 23.6595 160.376 23.7715 160.152 23.8995L159.552 22.4595ZM162.96 32.0835C163.408 32.0835 163.808 32.0275 164.16 31.9155C164.512 31.7875 164.816 31.6355 165.072 31.4595C165.328 31.2675 165.536 31.0595 165.696 30.8355C165.872 30.6115 166 30.3955 166.08 30.1875V28.1955C165.856 28.1795 165.624 28.1715 165.384 28.1715C165.16 28.1555 164.936 28.1475 164.712 28.1475C164.216 28.1475 163.728 28.1795 163.248 28.2435C162.784 28.2915 162.368 28.3955 162 28.5555C161.648 28.6995 161.36 28.9075 161.136 29.1795C160.928 29.4355 160.824 29.7635 160.824 30.1635C160.824 30.7235 161.024 31.1875 161.424 31.5555C161.824 31.9075 162.336 32.0835 162.96 32.0835ZM179.306 23.2515H175.538V33.5715H173.618V23.2515H169.85V21.5715H179.306V23.2515ZM181.021 22.4595C181.629 22.0915 182.333 21.8195 183.133 21.6435C183.949 21.4675 184.797 21.3795 185.677 21.3795C186.509 21.3795 187.173 21.4915 187.669 21.7155C188.181 21.9395 188.565 22.2355 188.821 22.6035C189.093 22.9555 189.269 23.3475 189.349 23.7795C189.445 24.2115 189.493 24.6435 189.493 25.0755C189.493 26.0355 189.469 26.9715 189.421 27.8835C189.373 28.7955 189.349 29.6595 189.349 30.4755C189.349 31.0675 189.373 31.6275 189.421 32.1555C189.469 32.6835 189.557 33.1715 189.685 33.6195H188.269L187.765 31.9395H187.645C187.501 32.1635 187.317 32.3875 187.093 32.6115C186.885 32.8195 186.629 33.0115 186.325 33.1875C186.021 33.3475 185.669 33.4835 185.269 33.5955C184.869 33.7075 184.413 33.7635 183.901 33.7635C183.389 33.7635 182.909 33.6835 182.461 33.5235C182.029 33.3635 181.653 33.1395 181.333 32.8515C181.013 32.5475 180.757 32.1875 180.565 31.7715C180.389 31.3555 180.301 30.8835 180.301 30.3555C180.301 29.6515 180.445 29.0675 180.733 28.6035C181.021 28.1235 181.421 27.7475 181.933 27.4755C182.461 27.1875 183.085 26.9875 183.805 26.8755C184.541 26.7475 185.349 26.6835 186.229 26.6835C186.453 26.6835 186.669 26.6835 186.877 26.6835C187.101 26.6835 187.325 26.6995 187.549 26.7315C187.597 26.2515 187.621 25.8195 187.621 25.4355C187.621 24.5555 187.445 23.9395 187.093 23.5875C186.741 23.2355 186.101 23.0595 185.173 23.0595C184.901 23.0595 184.605 23.0835 184.285 23.1315C183.981 23.1635 183.661 23.2195 183.325 23.2995C183.005 23.3635 182.693 23.4515 182.389 23.5635C182.101 23.6595 181.845 23.7715 181.621 23.8995L181.021 22.4595ZM184.429 32.0835C184.877 32.0835 185.277 32.0275 185.629 31.9155C185.981 31.7875 186.285 31.6355 186.541 31.4595C186.797 31.2675 187.005 31.0595 187.165 30.8355C187.341 30.6115 187.469 30.3955 187.549 30.1875V28.1955C187.325 28.1795 187.093 28.1715 186.853 28.1715C186.629 28.1555 186.405 28.1475 186.181 28.1475C185.685 28.1475 185.197 28.1795 184.717 28.2435C184.253 28.2915 183.837 28.3955 183.469 28.5555C183.117 28.6995 182.829 28.9075 182.605 29.1795C182.397 29.4355 182.293 29.7635 182.293 30.1635C182.293 30.7235 182.493 31.1875 182.893 31.5555C183.293 31.9075 183.805 32.0835 184.429 32.0835ZM193.119 21.5715H194.439L194.799 23.0115H194.895C195.263 22.4515 195.735 22.0275 196.311 21.7395C196.903 21.4355 197.575 21.2835 198.327 21.2835C199.927 21.2835 201.119 21.7555 201.903 22.6995C202.687 23.6435 203.079 25.1875 203.079 27.3315C203.079 28.3395 202.943 29.2515 202.671 30.0675C202.415 30.8675 202.047 31.5475 201.567 32.1075C201.087 32.6675 200.503 33.0995 199.815 33.4035C199.143 33.7075 198.391 33.8595 197.559 33.8595C196.967 33.8595 196.495 33.8195 196.143 33.7395C195.807 33.6755 195.439 33.5555 195.039 33.3795V38.3715H193.119V21.5715ZM197.967 22.9635C197.151 22.9635 196.503 23.1795 196.023 23.6115C195.559 24.0275 195.231 24.6675 195.039 25.5315V31.4835C195.327 31.7075 195.655 31.8835 196.023 32.0115C196.391 32.1235 196.879 32.1795 197.487 32.1795C198.591 32.1795 199.463 31.7715 200.103 30.9555C200.759 30.1235 201.087 28.9075 201.087 27.3075C201.087 26.6515 201.031 26.0595 200.919 25.5315C200.807 24.9875 200.623 24.5315 200.367 24.1635C200.127 23.7795 199.807 23.4835 199.407 23.2755C199.023 23.0675 198.543 22.9635 197.967 22.9635Z" fill="white"/>
</svg>
