<svg width="250" height="50" viewBox="0 0 250 50" fill="none" xmlns="http://www.w3.org/2000/svg">
<rect x="22.8613" width="201.327" height="50" fill="#484A54"/>
<ellipse cx="25.8112" cy="25" rx="25.8112" ry="25" fill="#484A54"/>
<ellipse cx="224.189" cy="25" rx="25.8112" ry="25" fill="#484A54"/>
<path d="M59.9217 25.8675H51.8577V33.5715H49.8657V16.7715H51.8577V24.0915H59.9217V16.7715H61.9137V33.5715H59.9217V25.8675ZM65.6067 22.4595C66.2147 22.0915 66.9187 21.8195 67.7187 21.6435C68.5347 21.4675 69.3827 21.3795 70.2627 21.3795C71.0947 21.3795 71.7587 21.4915 72.2547 21.7155C72.7667 21.9395 73.1507 22.2355 73.4067 22.6035C73.6787 22.9555 73.8547 23.3475 73.9347 23.7795C74.0307 24.2115 74.0787 24.6435 74.0787 25.0755C74.0787 26.0355 74.0547 26.9715 74.0067 27.8835C73.9587 28.7955 73.9347 29.6595 73.9347 30.4755C73.9347 31.0675 73.9587 31.6275 74.0067 32.1555C74.0547 32.6835 74.1427 33.1715 74.2707 33.6195H72.8547L72.3507 31.9395H72.2307C72.0867 32.1635 71.9027 32.3875 71.6787 32.6115C71.4707 32.8195 71.2147 33.0115 70.9107 33.1875C70.6067 33.3475 70.2547 33.4835 69.8547 33.5955C69.4547 33.7075 68.9987 33.7635 68.4867 33.7635C67.9747 33.7635 67.4947 33.6835 67.0467 33.5235C66.6147 33.3635 66.2387 33.1395 65.9187 32.8515C65.5987 32.5475 65.3427 32.1875 65.1507 31.7715C64.9747 31.3555 64.8867 30.8835 64.8867 30.3555C64.8867 29.6515 65.0307 29.0675 65.3187 28.6035C65.6067 28.1235 66.0067 27.7475 66.5187 27.4755C67.0467 27.1875 67.6707 26.9875 68.3907 26.8755C69.1267 26.7475 69.9347 26.6835 70.8147 26.6835C71.0387 26.6835 71.2547 26.6835 71.4627 26.6835C71.6867 26.6835 71.9107 26.6995 72.1347 26.7315C72.1827 26.2515 72.2067 25.8195 72.2067 25.4355C72.2067 24.5555 72.0307 23.9395 71.6787 23.5875C71.3267 23.2355 70.6867 23.0595 69.7587 23.0595C69.4867 23.0595 69.1907 23.0835 68.8707 23.1315C68.5667 23.1635 68.2467 23.2195 67.9107 23.2995C67.5907 23.3635 67.2787 23.4515 66.9747 23.5635C66.6867 23.6595 66.4307 23.7715 66.2067 23.8995L65.6067 22.4595ZM69.0147 32.0835C69.4627 32.0835 69.8627 32.0275 70.2147 31.9155C70.5667 31.7875 70.8707 31.6355 71.1267 31.4595C71.3827 31.2675 71.5907 31.0595 71.7507 30.8355C71.9267 30.6115 72.0547 30.3955 72.1347 30.1875V28.1955C71.9107 28.1795 71.6787 28.1715 71.4387 28.1715C71.2147 28.1555 70.9907 28.1475 70.7667 28.1475C70.2707 28.1475 69.7827 28.1795 69.3027 28.2435C68.8387 28.2915 68.4227 28.3955 68.0547 28.5555C67.7027 28.6995 67.4147 28.9075 67.1907 29.1795C66.9827 29.4355 66.8787 29.7635 66.8787 30.1635C66.8787 30.7235 67.0787 31.1875 67.4787 31.5555C67.8787 31.9075 68.3907 32.0835 69.0147 32.0835ZM84.1609 23.2515H80.6809C80.6329 23.9235 80.5849 24.6515 80.5369 25.4355C80.4889 26.2035 80.4169 26.9795 80.3209 27.7635C80.2249 28.5315 80.0969 29.2755 79.9369 29.9955C79.7769 30.6995 79.5689 31.3235 79.3129 31.8675C79.0729 32.4115 78.7689 32.8515 78.4009 33.1875C78.0489 33.5075 77.6249 33.6675 77.1289 33.6675C76.8249 33.6675 76.5609 33.6515 76.3369 33.6195C76.1129 33.5875 75.9129 33.5315 75.7369 33.4515L76.0249 31.8435C76.2169 31.9075 76.4249 31.9395 76.6489 31.9395C76.9689 31.9395 77.2569 31.8035 77.5129 31.5315C77.7689 31.2595 77.9929 30.7475 78.1849 29.9955C78.3769 29.2275 78.5369 28.1715 78.6649 26.8275C78.7929 25.4835 78.8809 23.7315 78.9289 21.5715H86.0809V33.5715H84.1609V23.2515ZM89.5832 22.4595C90.1912 22.0915 90.8952 21.8195 91.6952 21.6435C92.5112 21.4675 93.3592 21.3795 94.2392 21.3795C95.0712 21.3795 95.7352 21.4915 96.2312 21.7155C96.7432 21.9395 97.1272 22.2355 97.3832 22.6035C97.6552 22.9555 97.8312 23.3475 97.9112 23.7795C98.0072 24.2115 98.0552 24.6435 98.0552 25.0755C98.0552 26.0355 98.0312 26.9715 97.9832 27.8835C97.9352 28.7955 97.9112 29.6595 97.9112 30.4755C97.9112 31.0675 97.9352 31.6275 97.9832 32.1555C98.0312 32.6835 98.1192 33.1715 98.2472 33.6195H96.8312L96.3272 31.9395H96.2072C96.0632 32.1635 95.8792 32.3875 95.6552 32.6115C95.4472 32.8195 95.1912 33.0115 94.8872 33.1875C94.5832 33.3475 94.2312 33.4835 93.8312 33.5955C93.4312 33.7075 92.9752 33.7635 92.4632 33.7635C91.9512 33.7635 91.4712 33.6835 91.0232 33.5235C90.5912 33.3635 90.2152 33.1395 89.8952 32.8515C89.5752 32.5475 89.3192 32.1875 89.1272 31.7715C88.9512 31.3555 88.8632 30.8835 88.8632 30.3555C88.8632 29.6515 89.0072 29.0675 89.2952 28.6035C89.5832 28.1235 89.9832 27.7475 90.4952 27.4755C91.0232 27.1875 91.6472 26.9875 92.3672 26.8755C93.1032 26.7475 93.9112 26.6835 94.7912 26.6835C95.0152 26.6835 95.2312 26.6835 95.4392 26.6835C95.6632 26.6835 95.8872 26.6995 96.1112 26.7315C96.1592 26.2515 96.1832 25.8195 96.1832 25.4355C96.1832 24.5555 96.0072 23.9395 95.6552 23.5875C95.3032 23.2355 94.6632 23.0595 93.7352 23.0595C93.4632 23.0595 93.1672 23.0835 92.8472 23.1315C92.5432 23.1635 92.2232 23.2195 91.8872 23.2995C91.5672 23.3635 91.2552 23.4515 90.9512 23.5635C90.6632 23.6595 90.4072 23.7715 90.1832 23.8995L89.5832 22.4595ZM92.9912 32.0835C93.4392 32.0835 93.8392 32.0275 94.1912 31.9155C94.5432 31.7875 94.8472 31.6355 95.1032 31.4595C95.3592 31.2675 95.5672 31.0595 95.7272 30.8355C95.9032 30.6115 96.0312 30.3955 96.1112 30.1875V28.1955C95.8872 28.1795 95.6552 28.1715 95.4152 28.1715C95.1912 28.1555 94.9672 28.1475 94.7432 28.1475C94.2472 28.1475 93.7592 28.1795 93.2792 28.2435C92.8152 28.2915 92.3992 28.3955 92.0312 28.5555C91.6792 28.6995 91.3912 28.9075 91.1672 29.1795C90.9592 29.4355 90.8552 29.7635 90.8552 30.1635C90.8552 30.7235 91.0552 31.1875 91.4552 31.5555C91.8552 31.9075 92.3672 32.0835 92.9912 32.0835ZM101.681 33.5715V21.5715H103.601V31.8915H107.705V21.5715H109.625V31.8915H113.729V21.5715H115.649V33.5715H101.681ZM127.009 23.2515H123.241V33.5715H121.321V23.2515H117.553V21.5715H127.009V23.2515ZM132.444 29.3475L133.116 31.6515H133.236L133.764 29.3235L136.092 21.5715H138.036L134.484 32.3475C134.212 33.1315 133.94 33.8915 133.668 34.6275C133.412 35.3635 133.124 36.0195 132.804 36.5955C132.484 37.1715 132.124 37.6275 131.724 37.9635C131.324 38.3155 130.86 38.4915 130.332 38.4915C129.756 38.4915 129.284 38.4115 128.916 38.2515L129.252 36.5955C129.46 36.6755 129.66 36.7155 129.852 36.7155C130.3 36.7155 130.732 36.4755 131.148 35.9955C131.564 35.5315 131.908 34.7235 132.18 33.5715L127.356 21.5715H129.564L132.444 29.3475ZM140.096 21.5955C140.656 21.5635 141.24 21.5235 141.848 21.4755C142.472 21.4275 143.24 21.4035 144.152 21.4035C145.736 21.4035 146.872 21.6515 147.56 22.1475C148.248 22.6275 148.592 23.3635 148.592 24.3555C148.592 24.9155 148.424 25.4675 148.088 26.0115C147.768 26.5395 147.232 26.9315 146.48 27.1875V27.2835C147.424 27.4595 148.088 27.7875 148.472 28.2675C148.856 28.7475 149.048 29.3875 149.048 30.1875C149.048 31.4355 148.6 32.3395 147.704 32.8995C146.808 33.4595 145.464 33.7395 143.672 33.7395C143 33.7395 142.376 33.7155 141.8 33.6675C141.224 33.6355 140.656 33.5955 140.096 33.5475V21.5955ZM142.016 31.9635C142.32 31.9955 142.616 32.0195 142.904 32.0355C143.208 32.0515 143.56 32.0595 143.96 32.0595C145.032 32.0595 145.824 31.9075 146.336 31.6035C146.864 31.2995 147.128 30.7795 147.128 30.0435C147.128 29.4675 146.904 29.0035 146.456 28.6515C146.024 28.2835 145.248 28.0995 144.128 28.0995H142.016V31.9635ZM144.368 26.6355C144.656 26.6355 144.936 26.5875 145.208 26.4915C145.48 26.3955 145.72 26.2675 145.928 26.1075C146.152 25.9315 146.328 25.7315 146.456 25.5075C146.6 25.2835 146.672 25.0435 146.672 24.7875C146.672 24.1475 146.48 23.7075 146.096 23.4675C145.712 23.2115 145.04 23.0835 144.08 23.0835C143.568 23.0835 143.16 23.0915 142.856 23.1075C142.568 23.1235 142.288 23.1395 142.016 23.1555V26.6355H144.368ZM151.88 22.4595C152.488 22.0915 153.192 21.8195 153.992 21.6435C154.808 21.4675 155.656 21.3795 156.536 21.3795C157.368 21.3795 158.032 21.4915 158.528 21.7155C159.04 21.9395 159.424 22.2355 159.68 22.6035C159.952 22.9555 160.128 23.3475 160.208 23.7795C160.304 24.2115 160.352 24.6435 160.352 25.0755C160.352 26.0355 160.328 26.9715 160.28 27.8835C160.232 28.7955 160.208 29.6595 160.208 30.4755C160.208 31.0675 160.232 31.6275 160.28 32.1555C160.328 32.6835 160.416 33.1715 160.544 33.6195H159.128L158.624 31.9395H158.504C158.36 32.1635 158.176 32.3875 157.952 32.6115C157.744 32.8195 157.488 33.0115 157.184 33.1875C156.88 33.3475 156.528 33.4835 156.128 33.5955C155.728 33.7075 155.272 33.7635 154.76 33.7635C154.248 33.7635 153.768 33.6835 153.32 33.5235C152.888 33.3635 152.512 33.1395 152.192 32.8515C151.872 32.5475 151.616 32.1875 151.424 31.7715C151.248 31.3555 151.16 30.8835 151.16 30.3555C151.16 29.6515 151.304 29.0675 151.592 28.6035C151.88 28.1235 152.28 27.7475 152.792 27.4755C153.32 27.1875 153.944 26.9875 154.664 26.8755C155.4 26.7475 156.208 26.6835 157.088 26.6835C157.312 26.6835 157.528 26.6835 157.736 26.6835C157.96 26.6835 158.184 26.6995 158.408 26.7315C158.456 26.2515 158.48 25.8195 158.48 25.4355C158.48 24.5555 158.304 23.9395 157.952 23.5875C157.6 23.2355 156.96 23.0595 156.032 23.0595C155.76 23.0595 155.464 23.0835 155.144 23.1315C154.84 23.1635 154.52 23.2195 154.184 23.2995C153.864 23.3635 153.552 23.4515 153.248 23.5635C152.96 23.6595 152.704 23.7715 152.48 23.8995L151.88 22.4595ZM155.288 32.0835C155.736 32.0835 156.136 32.0275 156.488 31.9155C156.84 31.7875 157.144 31.6355 157.4 31.4595C157.656 31.2675 157.864 31.0595 158.024 30.8355C158.2 30.6115 158.328 30.3955 158.408 30.1875V28.1955C158.184 28.1795 157.952 28.1715 157.712 28.1715C157.488 28.1555 157.264 28.1475 157.04 28.1475C156.544 28.1475 156.056 28.1795 155.576 28.2435C155.112 28.2915 154.696 28.3955 154.328 28.5555C153.976 28.6995 153.688 28.9075 153.464 29.1795C153.256 29.4355 153.152 29.7635 153.152 30.1635C153.152 30.7235 153.352 31.1875 153.752 31.5555C154.152 31.9075 154.664 32.0835 155.288 32.0835ZM171.322 28.2675H165.898V33.5715H163.978V21.5715H165.898V26.5875H171.322V21.5715H173.242V33.5715H171.322V28.2675ZM184.283 28.2675H178.859V33.5715H176.939V21.5715H178.859V26.5875H184.283V21.5715H186.203V33.5715H184.283V28.2675ZM195.876 28.6035L194.028 28.8915L190.86 33.5715H188.532L191.412 29.4675L192.372 28.5795C191.54 28.4515 190.828 28.1155 190.236 27.5715C189.66 27.0275 189.372 26.2915 189.372 25.3635C189.372 24.6435 189.492 24.0275 189.732 23.5155C189.988 23.0035 190.348 22.5795 190.812 22.2435C191.276 21.9075 191.828 21.6675 192.468 21.5235C193.108 21.3635 193.828 21.2835 194.628 21.2835C195.22 21.2835 195.772 21.3235 196.284 21.4035C196.796 21.4835 197.3 21.5715 197.796 21.6675V33.5715H195.876V28.6035ZM195.876 23.2035C195.668 23.1235 195.436 23.0675 195.18 23.0355C194.924 22.9875 194.7 22.9635 194.508 22.9635C193.484 22.9635 192.7 23.1475 192.156 23.5155C191.628 23.8835 191.364 24.4675 191.364 25.2675C191.364 25.9875 191.644 26.5475 192.204 26.9475C192.78 27.3315 193.532 27.5235 194.46 27.5235C194.476 27.5235 194.5 27.5235 194.532 27.5235C194.564 27.5235 194.628 27.5235 194.724 27.5235C194.82 27.5235 194.956 27.5235 195.132 27.5235C195.308 27.5075 195.556 27.4915 195.876 27.4755V23.2035Z" fill="white"/>
</svg>
