<svg width="183" height="82" viewBox="0 0 183 82" fill="none" xmlns="http://www.w3.org/2000/svg">
<rect x="0.421326" y="62.0452" width="185.512" height="20.3048" rx="1.84589" transform="rotate(-19.2332 0.421326 62.0452)" fill="#059669"/>
<path d="M77.054 49.3562C76.6938 49.4819 76.347 49.5338 76.0135 49.512C75.6816 49.487 75.3814 49.3924 75.1129 49.228C74.8459 49.0605 74.629 48.8272 74.4621 48.5283L75.1819 48.1482C75.3656 48.4282 75.6095 48.6116 75.9134 48.6984C76.2166 48.7829 76.5309 48.7684 76.8562 48.6549C77.0584 48.5844 77.2334 48.4882 77.3811 48.3662C77.528 48.242 77.632 48.1028 77.6929 47.9486C77.7553 47.7913 77.7573 47.6289 77.6989 47.4616C77.6673 47.371 77.6231 47.2965 77.5662 47.2381C77.5117 47.179 77.4476 47.1335 77.374 47.1019C77.3019 47.0671 77.2199 47.0449 77.1279 47.0353C77.0374 47.0225 76.9408 47.0184 76.8382 47.023L75.4194 47.0918C75.2809 47.0984 75.1365 47.0953 74.9861 47.0826C74.8349 47.0676 74.688 47.0315 74.5456 46.9743C74.4046 46.914 74.2757 46.8248 74.1589 46.7065C74.0412 46.5859 73.9467 46.4234 73.8754 46.2189C73.7675 45.9099 73.7553 45.6209 73.8388 45.3519C73.9237 45.0799 74.0831 44.8418 74.3169 44.6377C74.5498 44.4313 74.8348 44.2694 75.1717 44.1518C75.5126 44.0381 75.837 43.9927 76.1448 44.0157C76.4549 44.0378 76.7363 44.1273 76.9891 44.2841C77.2435 44.4378 77.4582 44.6574 77.6335 44.943L76.8989 45.3478C76.7984 45.1718 76.6676 45.0362 76.5068 44.9411C76.3451 44.8438 76.1691 44.7878 75.979 44.7734C75.7881 44.7566 75.5958 44.7807 75.4021 44.8456C75.2146 44.9058 75.0535 44.9933 74.9189 45.108C74.7866 45.222 74.693 45.3498 74.6382 45.4914C74.5856 45.6323 74.5841 45.7735 74.6336 45.9153C74.6822 46.0547 74.7622 46.1532 74.8735 46.2109C74.9849 46.2685 75.1087 46.3021 75.245 46.3119C75.3829 46.3186 75.5168 46.3175 75.6466 46.3087L76.665 46.2466C76.7926 46.2386 76.9393 46.2369 77.1051 46.2416C77.2725 46.2432 77.4418 46.2689 77.6129 46.3186C77.7864 46.3676 77.9469 46.4576 78.0942 46.5886C78.2408 46.7174 78.3567 46.9037 78.4418 47.1477C78.5302 47.401 78.5569 47.6419 78.5219 47.8705C78.4861 48.0967 78.4015 48.3061 78.268 48.4987C78.1359 48.6881 77.9651 48.8559 77.7554 49.002C77.5457 49.1482 77.3119 49.2662 77.054 49.3562ZM78.2255 43.9153L77.9786 43.2077L78.7071 42.9535L78.954 43.6611L78.2255 43.9153ZM79.7542 48.2969L78.4407 44.5323L79.1693 44.2781L80.4827 48.0427L79.7542 48.2969ZM83.7008 48.914C83.4986 48.9846 83.2913 49.0217 83.0789 49.0254C82.8687 49.0284 82.6644 48.9954 82.4657 48.9266C82.2678 48.8601 82.0866 48.7552 81.9219 48.6119L82.4755 48.0356C82.6127 48.1676 82.7699 48.2444 82.9469 48.266C83.1239 48.2877 83.296 48.2693 83.4633 48.211C83.6701 48.1388 83.8338 48.04 83.9542 47.9146C84.0755 47.7915 84.1478 47.6437 84.1711 47.4714C84.1967 47.2982 84.1706 47.104 84.0929 46.8887L83.7256 45.836L83.8128 45.8056L82.8338 42.9996L83.4786 42.7746L84.8273 46.6403C84.8622 46.7402 84.8919 46.8367 84.9166 46.9298C84.9412 47.0228 84.9601 47.1179 84.9731 47.215C85.008 47.487 84.9787 47.7318 84.8853 47.9495C84.7941 48.1664 84.6465 48.356 84.4425 48.5184C84.2408 48.68 83.9936 48.8119 83.7008 48.914ZM83.0613 47.2603C82.7104 47.3828 82.3767 47.4014 82.0603 47.3163C81.7462 47.2304 81.4671 47.0619 81.2231 46.8108C80.9806 46.5565 80.7937 46.2411 80.6624 45.8647C80.5302 45.4859 80.482 45.1235 80.5176 44.7774C80.5525 44.429 80.6677 44.1242 80.8633 43.863C81.0604 43.5988 81.3356 43.405 81.6888 43.2818C82.0444 43.1577 82.3734 43.1407 82.6759 43.2307C82.9799 43.3175 83.2458 43.4893 83.4735 43.7461C83.7036 44.0021 83.8843 44.3183 84.0156 44.6948C84.147 45.0712 84.2022 45.4312 84.1813 45.7748C84.1604 46.1183 84.0587 46.421 83.8764 46.6827C83.6932 46.9421 83.4215 47.1347 83.0613 47.2603ZM82.9325 46.5663C83.1719 46.4828 83.3472 46.3577 83.4585 46.1912C83.5699 46.0246 83.6255 45.8292 83.6255 45.6051C83.6255 45.3809 83.5801 45.1387 83.4893 44.8784C83.3985 44.6181 83.2822 44.4007 83.1404 44.2259C83.001 44.0504 82.8374 43.9328 82.6498 43.8732C82.4645 43.8127 82.258 43.8222 82.0302 43.9017C81.7886 43.986 81.6105 44.1145 81.4962 44.2874C81.3819 44.4602 81.3212 44.6599 81.3142 44.8865C81.3096 45.1123 81.3502 45.3484 81.4362 45.5947C81.5229 45.8434 81.6388 46.0558 81.7837 46.232C81.9301 46.4051 82.0995 46.5246 82.2919 46.5904C82.4866 46.6554 82.7001 46.6474 82.9325 46.5663ZM88.413 45.2759L87.7672 43.425C87.7162 43.2786 87.6511 43.1332 87.572 42.9887C87.4945 42.8411 87.3977 42.7133 87.2818 42.6051C87.1682 42.4962 87.0345 42.4229 86.8806 42.3854C86.7291 42.347 86.5534 42.3627 86.3535 42.4324C86.2234 42.4778 86.1079 42.5429 86.0071 42.6276C85.9055 42.7099 85.8272 42.8141 85.7721 42.9402C85.7194 43.0655 85.6946 43.2149 85.6978 43.3884C85.7034 43.5612 85.745 43.7591 85.8229 43.9821L85.3101 43.9694C85.1909 43.6278 85.1499 43.3046 85.1869 42.9998C85.2231 42.6926 85.3353 42.424 85.5236 42.1941C85.7118 41.9642 85.9756 41.7901 86.3149 41.6717C86.5752 41.5809 86.8082 41.5465 87.014 41.5686C87.2198 41.5906 87.4012 41.6511 87.5583 41.7501C87.7168 41.846 87.8531 41.964 87.9672 42.104C88.0812 42.2441 88.1754 42.3872 88.2499 42.5333C88.3243 42.6793 88.3818 42.8105 88.4223 42.9267L89.152 45.0181L88.413 45.2759ZM85.7673 46.1989L84.4539 42.4344L85.1058 42.2069L85.4852 43.2945L85.5723 43.2641L86.5063 45.9411L85.7673 46.1989ZM92.9095 43.8205C92.6492 43.9113 92.4162 43.9457 92.2104 43.9237C92.0046 43.9016 91.8224 43.8427 91.6639 43.7468C91.5068 43.6478 91.3713 43.5283 91.2572 43.3882C91.1432 43.2481 91.049 43.105 90.9745 42.959C90.9001 42.8129 90.8426 42.6818 90.8021 42.5656L90.0724 40.4741L90.8114 40.2163L91.4572 42.0672C91.5082 42.2136 91.5726 42.3606 91.6501 42.5082C91.7292 42.6527 91.8255 42.7794 91.9391 42.8883C92.055 42.9965 92.1888 43.0697 92.3403 43.1081C92.4942 43.1456 92.671 43.1295 92.8709 43.0598C93.001 43.0144 93.1169 42.9505 93.2185 42.8682C93.3193 42.7835 93.396 42.6785 93.4488 42.5532C93.5038 42.4271 93.5286 42.2777 93.5231 42.105C93.5199 41.9315 93.4794 41.7332 93.4015 41.5101L93.9143 41.5228C94.0335 41.8644 94.0749 42.1888 94.0388 42.496C94.0017 42.8008 93.8891 43.0682 93.7008 43.2981C93.5126 43.528 93.2488 43.7022 92.9095 43.8205ZM94.1186 43.2853L93.7392 42.1977L93.6521 42.2281L92.7181 39.5511L93.4536 39.2945L94.767 43.0591L94.1186 43.2853ZM97.5484 42.206C97.1882 42.3317 96.8557 42.3499 96.5509 42.2608C96.2452 42.1693 95.9774 41.9955 95.7473 41.7396C95.5173 41.4836 95.3366 41.1673 95.2052 40.7909C95.0739 40.4144 95.0175 40.0548 95.0361 39.7121C95.057 39.3685 95.1583 39.0686 95.3399 38.8123C95.5231 38.5529 95.7925 38.3612 96.148 38.2371C96.5013 38.1139 96.8361 38.0948 97.1525 38.1799C97.4704 38.2619 97.7514 38.4285 97.9954 38.6796C98.2386 38.9284 98.4263 39.2422 98.5585 39.621C98.6898 39.9974 98.7385 40.361 98.7044 40.7118C98.6719 41.0594 98.5583 41.3649 98.3634 41.6284C98.1709 41.891 97.8993 42.0836 97.5484 42.206ZM96.3249 44.3924L94.4277 38.9546L95.0761 38.7284L96.021 41.4368L96.1046 41.4077L97.0569 44.137L96.3249 44.3924ZM97.2174 41.5825C97.4498 41.5014 97.6208 41.3752 97.7305 41.204C97.8426 41.032 97.9009 40.8331 97.9055 40.6073C97.9117 40.3784 97.8714 40.1396 97.7846 39.8909C97.6987 39.6446 97.5825 39.4349 97.4361 39.2618C97.292 39.0879 97.1215 38.9689 96.9244 38.9047C96.7274 38.8405 96.508 38.8505 96.2663 38.9349C96.0386 39.0143 95.8698 39.1358 95.76 39.2992C95.6525 39.4618 95.5976 39.6556 95.5953 39.8806C95.5953 40.1048 95.6407 40.347 95.7316 40.6072C95.8224 40.8675 95.9375 41.0854 96.0769 41.2609C96.2164 41.4365 96.3815 41.5548 96.5722 41.616C96.763 41.6771 96.9781 41.666 97.2174 41.5825Z" fill="white"/>
<path fill-rule="evenodd" clip-rule="evenodd" d="M103.256 34.5955C103.349 34.4042 103.579 34.324 103.77 34.4163L106.219 35.5984C106.41 35.6907 106.49 35.9206 106.398 36.1119L105.216 38.5608C105.123 38.752 104.894 38.8322 104.702 38.7399C104.511 38.6476 104.431 38.4177 104.523 38.2264L105.538 36.1239L103.436 35.109C103.244 35.0166 103.164 34.7867 103.256 34.5955Z" fill="white"/>
</svg>
