<svg width="19" height="20" viewBox="0 0 19 20" fill="none" xmlns="http://www.w3.org/2000/svg">
<rect x="0.164307" y="5.80804" width="14.7671" height="14.7671" rx="1.84589" transform="rotate(-19.2332 0.164307 5.80804)" fill="#059669"/>
<path d="M9.04444 7.67885C8.97448 7.47832 8.7552 7.37247 8.55467 7.44244C8.35413 7.5124 8.24829 7.73168 8.31825 7.93221L9.07833 10.1108L6.89975 10.8709C6.69922 10.9408 6.59337 11.1601 6.66334 11.3606C6.7333 11.5612 6.95258 11.667 7.15311 11.5971L9.33168 10.837L10.0918 13.0156C10.1617 13.2161 10.381 13.3219 10.5815 13.252C10.7821 13.182 10.8879 12.9627 10.818 12.7622L10.0579 10.5836L12.2364 9.82354C12.437 9.75358 12.5428 9.5343 12.4729 9.33377C12.4029 9.13324 12.1836 9.02739 11.9831 9.09735L9.80452 9.85743L9.04444 7.67885Z" fill="white"/>
</svg>
