<svg width="41" height="30" viewBox="0 0 41 30" fill="none" xmlns="http://www.w3.org/2000/svg">
<rect x="0.00217438" y="12.5612" width="36.0753" height="18.4589" rx="1.84589" transform="rotate(-19.2332 0.00217438 12.5612)" fill="#059669"/>
<path d="M11.363 20.6081C11.0028 20.7338 10.656 20.7857 10.3225 20.7639C9.99061 20.7389 9.69039 20.6443 9.4219 20.4799C9.15492 20.3123 8.93801 20.0791 8.77117 19.7802L9.49092 19.4001C9.67462 19.6801 9.91847 19.8635 10.2225 19.9503C10.5257 20.0348 10.8399 20.0203 11.1652 19.9068C11.3674 19.8363 11.5424 19.7401 11.6901 19.6181C11.8371 19.4939 11.941 19.3547 12.0019 19.2005C12.0643 19.0432 12.0663 18.8808 12.0079 18.7135C11.9763 18.6229 11.9321 18.5484 11.8752 18.49C11.8207 18.4309 11.7566 18.3854 11.683 18.3538C11.6109 18.319 11.5289 18.2968 11.4369 18.2871C11.3464 18.2744 11.2499 18.2703 11.1472 18.2748L9.72839 18.3436C9.58993 18.3502 9.4455 18.3472 9.2951 18.3345C9.14389 18.3195 8.99705 18.2834 8.85459 18.2262C8.71365 18.1659 8.58475 18.0766 8.4679 17.9584C8.35025 17.8378 8.25575 17.6753 8.1844 17.4708C8.07657 17.1617 8.06437 16.8727 8.1478 16.6038C8.23274 16.3318 8.39211 16.0937 8.62589 15.8896C8.85886 15.6832 9.14382 15.5212 9.48077 15.4037C9.82167 15.29 10.146 15.2446 10.4538 15.2675C10.7639 15.2897 11.0453 15.3792 11.2982 15.536C11.5525 15.6897 11.7673 15.9093 11.9425 16.1949L11.2079 16.5997C11.1074 16.4237 10.9767 16.2881 10.8158 16.193C10.6541 16.0957 10.4782 16.0397 10.288 16.0253C10.0971 16.0085 9.90479 16.0325 9.71111 16.0975C9.52358 16.1577 9.36251 16.2452 9.22789 16.3599C9.0956 16.4739 9.00203 16.6017 8.94718 16.7433C8.89466 16.8841 8.89313 17.0254 8.94258 17.1672C8.99123 17.3066 9.07121 17.4051 9.18255 17.4627C9.29388 17.5203 9.41772 17.554 9.55407 17.5638C9.69193 17.5705 9.8258 17.5694 9.95566 17.5606L10.9741 17.4985C11.1016 17.4905 11.2483 17.4888 11.4142 17.4935C11.5815 17.4951 11.7508 17.5208 11.922 17.5705C12.0954 17.6195 12.2559 17.7095 12.4033 17.8405C12.5498 17.9692 12.6657 18.1556 12.7508 18.3996C12.8392 18.6529 12.8659 18.8938 12.8309 19.1224C12.7952 19.3486 12.7105 19.558 12.577 19.7506C12.445 19.94 12.2741 20.1078 12.0644 20.2539C11.8547 20.4 11.6209 20.5181 11.363 20.6081ZM15.6996 19.0951C15.3255 19.2257 14.9683 19.259 14.628 19.1953C14.2893 19.1284 13.9898 18.9761 13.7296 18.7384C13.471 18.4976 13.274 18.1832 13.1386 17.7951C12.9951 17.3838 12.9473 17.0003 12.9953 16.6447C13.0456 16.2883 13.1802 15.9794 13.3992 15.7179C13.6181 15.4564 13.9112 15.2617 14.2784 15.1336C14.6618 14.9998 15.0195 14.9753 15.3515 15.0602C15.6827 15.1428 15.9717 15.3248 16.2184 15.6062C16.4675 15.8869 16.6568 16.2575 16.7862 16.718L16.0577 16.9722L15.9652 16.7073C15.8082 16.272 15.6118 15.9782 15.3762 15.8258C15.1429 15.6726 14.8612 15.6536 14.5312 15.7687C14.1664 15.896 13.9323 16.1067 13.829 16.4008C13.7257 16.6949 13.7498 17.0592 13.9014 17.4938C14.0458 17.9074 14.2494 18.1961 14.5125 18.3598C14.7747 18.5211 15.0789 18.5414 15.4252 18.4206C15.6529 18.3411 15.8314 18.2215 15.9608 18.0617C16.0916 17.8988 16.1698 17.7046 16.1955 17.4793L16.9891 17.4566C16.9603 17.8446 16.8296 18.1835 16.597 18.4732C16.3636 18.7605 16.0644 18.9678 15.6996 19.0951ZM13.7362 17.7821L13.5379 17.214L16.2254 16.2763L16.4237 16.8445L13.7362 17.7821ZM19.1847 17.8792C18.9059 17.9765 18.6545 18.0069 18.4306 17.9703C18.2059 17.9314 18.0151 17.8441 17.8583 17.7085C17.7031 17.5698 17.5898 17.3982 17.5184 17.1937C17.4519 17.0032 17.4273 16.8241 17.4444 16.6565C17.4615 16.4889 17.5189 16.3321 17.6165 16.1859C17.7132 16.0375 17.8471 15.8982 18.0181 15.7682C18.1684 15.661 18.3428 15.5519 18.5413 15.441C18.7398 15.33 18.9496 15.2177 19.1706 15.1041C19.3939 14.9897 19.615 14.8761 19.8337 14.7633L19.6198 15.0021C19.5215 14.7054 19.3826 14.5088 19.203 14.4125C19.0249 14.313 18.779 14.318 18.4653 14.4274C18.2678 14.4963 18.1027 14.6061 17.9702 14.7566C17.8368 14.9048 17.7745 15.0959 17.7832 15.3301L17.0305 15.3581C17.0107 15.0027 17.0978 14.6843 17.2916 14.4029C17.4877 14.1208 17.803 13.9039 18.2376 13.7523C18.5745 13.6347 18.8876 13.5906 19.1768 13.6201C19.4675 13.6464 19.7143 13.7636 19.9172 13.9717C20.0206 14.0738 20.1032 14.191 20.165 14.3232C20.2267 14.4554 20.2852 14.6006 20.3403 14.7586L21.149 17.0766L20.5042 17.3016L20.2038 16.4406L20.3682 16.5084C20.313 16.8508 20.1894 17.1351 19.9971 17.3612C19.8064 17.5841 19.5356 17.7568 19.1847 17.8792ZM19.1057 17.2382C19.3126 17.166 19.4778 17.068 19.6014 16.944C19.7241 16.8178 19.811 16.6819 19.8619 16.5364C19.9128 16.3909 19.9307 16.2518 19.9156 16.1189C19.9162 15.9935 19.8945 15.8603 19.8505 15.7193C19.8088 15.5774 19.7734 15.4647 19.7442 15.381L20.0116 15.3855C19.7937 15.5006 19.5955 15.6049 19.417 15.6985C19.2385 15.792 19.0775 15.8795 18.9338 15.9609C18.7917 16.0392 18.6679 16.1176 18.5623 16.1961C18.4746 16.2658 18.3997 16.3389 18.3377 16.4152C18.278 16.4908 18.2371 16.5715 18.215 16.6574C18.1952 16.7426 18.2027 16.8351 18.2375 16.935C18.2716 17.0326 18.3276 17.1147 18.4056 17.1814C18.4828 17.2457 18.5798 17.2848 18.6968 17.2987C18.8137 17.3127 18.95 17.2925 19.1057 17.2382ZM22.0542 16.7608L20.7408 12.9962L21.3891 12.77L21.7077 13.6833L21.5758 13.5964C21.5801 13.4593 21.602 13.3279 21.6415 13.202C21.6802 13.0738 21.737 12.9602 21.8119 12.861C21.8828 12.7581 21.9699 12.6677 22.0731 12.59C22.1779 12.5092 22.2906 12.4438 22.4113 12.3938C22.5312 12.3416 22.6518 12.306 22.773 12.2872L23.0113 12.9704C22.8768 12.9809 22.7365 13.0194 22.5903 13.086C22.4464 13.1519 22.3259 13.2473 22.2288 13.3725C22.1371 13.4905 22.0754 13.6163 22.0438 13.7498C22.0145 13.8825 22.0082 14.0216 22.0251 14.1669C22.0411 14.3099 22.075 14.4557 22.1269 14.6045L22.7897 16.5042L22.0542 16.7608ZM26.329 15.3867C25.9432 15.5213 25.5856 15.5496 25.256 15.4717C24.9265 15.3938 24.6373 15.23 24.3887 14.9805C24.1423 14.7302 23.9515 14.4149 23.8162 14.0346C23.6832 13.6457 23.6379 13.277 23.6806 12.9285C23.7224 12.5777 23.8496 12.27 24.0623 12.0055C24.275 11.741 24.572 11.5423 24.9531 11.4093C25.3644 11.2658 25.7509 11.2456 26.1128 11.3488C26.4769 11.4511 26.7675 11.6638 26.9845 11.987L26.3324 12.4491C26.1866 12.2627 26.0109 12.1402 25.8054 12.0816C25.6014 12.0199 25.3936 12.0259 25.1822 12.0996C24.9428 12.1831 24.7663 12.3086 24.6527 12.476C24.5382 12.641 24.4779 12.8341 24.4716 13.0553C24.4653 13.2764 24.5048 13.5129 24.5901 13.7646C24.7278 14.1519 24.9255 14.4348 25.1833 14.6134C25.4435 14.7911 25.7455 14.82 26.0894 14.7C26.3241 14.6181 26.4949 14.4986 26.6016 14.3414C26.7099 14.1811 26.7672 13.9865 26.7733 13.7576L27.5731 13.674C27.578 14.0842 27.4732 14.4375 27.2586 14.7339C27.0432 15.028 26.7333 15.2456 26.329 15.3867ZM31.2865 13.5397L30.6408 11.6888C30.5897 11.5424 30.5246 11.397 30.4456 11.2525C30.368 11.105 30.2713 10.9771 30.1553 10.869C30.0417 10.76 29.908 10.6868 29.7541 10.6492C29.6026 10.6108 29.4269 10.6265 29.2271 10.6963C29.0969 10.7417 28.9815 10.8067 28.8807 10.8914C28.7791 10.9738 28.7008 11.078 28.6457 11.2041C28.5929 11.3293 28.5682 11.4787 28.5714 11.6523C28.5769 11.825 28.6186 12.0229 28.6964 12.246L28.1837 12.2333C28.0645 11.8917 28.0234 11.5685 28.0604 11.2636C28.0966 10.9564 28.2088 10.6879 28.3971 10.458C28.5854 10.2281 28.8492 10.0539 29.1884 9.93555C29.4487 9.84474 29.6817 9.81036 29.8875 9.8324C30.0933 9.85444 30.2748 9.91496 30.4318 10.014C30.5904 10.1098 30.7267 10.2278 30.8407 10.3679C30.9548 10.5079 31.049 10.651 31.1234 10.7971C31.1978 10.9432 31.2553 11.0743 31.2958 11.1905L32.0255 13.2819L31.2865 13.5397ZM28.6409 14.4628L26.8897 9.44334L27.5415 9.21593L28.4864 11.9243L28.5736 11.8939L29.3799 14.205L28.6409 14.4628Z" fill="white"/>
</svg>
