<svg width="351" height="112" viewBox="0 0 351 112" fill="none" xmlns="http://www.w3.org/2000/svg">
<rect width="351" height="112" fill="#2B365C"/>
<path d="M54.0139 29.846H44.6469V48H42.2399V27.7H56.4209V48H54.0139V29.846ZM71.7091 46.84C71.1291 47.304 70.3944 47.6713 69.5051 47.942C68.6351 48.2127 67.7071 48.348 66.7211 48.348C65.6191 48.348 64.6621 48.174 63.8501 47.826C63.0381 47.4587 62.3711 46.9463 61.8491 46.289C61.3271 45.6123 60.9404 44.81 60.6891 43.882C60.4378 42.954 60.3121 41.91 60.3121 40.75C60.3121 38.2753 60.8631 36.3903 61.9651 35.095C63.0671 33.7997 64.6428 33.152 66.6921 33.152C67.3494 33.152 68.0068 33.2293 68.6641 33.384C69.3214 33.5193 69.9111 33.79 70.4331 34.196C70.9551 34.602 71.3804 35.182 71.7091 35.936C72.0378 36.6707 72.2021 37.647 72.2021 38.865C72.2021 39.503 72.1441 40.2087 72.0281 40.982H62.7191C62.7191 41.8327 62.8061 42.5867 62.9801 43.244C63.1541 43.9013 63.4248 44.462 63.7921 44.926C64.1594 45.3707 64.6331 45.7187 65.2131 45.97C65.8124 46.202 66.5374 46.318 67.3881 46.318C68.0454 46.318 68.7028 46.202 69.3601 45.97C70.0174 45.738 70.5104 45.4673 70.8391 45.158L71.7091 46.84ZM66.7211 35.182C65.5804 35.182 64.6621 35.4817 63.9661 36.081C63.2894 36.6803 62.8834 37.705 62.7481 39.155H69.9401C69.9401 37.6857 69.6598 36.661 69.0991 36.081C68.5384 35.4817 67.7458 35.182 66.7211 35.182ZM75.8507 33.5H77.4457L77.8807 35.24H77.9967C78.4413 34.5633 79.0117 34.051 79.7077 33.703C80.423 33.3357 81.235 33.152 82.1437 33.152C84.077 33.152 85.5173 33.7223 86.4647 34.863C87.412 36.0037 87.8857 37.8693 87.8857 40.46C87.8857 41.678 87.7213 42.78 87.3927 43.766C87.0833 44.7327 86.6387 45.5543 86.0587 46.231C85.4787 46.9077 84.773 47.4297 83.9417 47.797C83.1297 48.1643 82.221 48.348 81.2157 48.348C80.5003 48.348 79.93 48.2997 79.5047 48.203C79.0987 48.1257 78.654 47.9807 78.1707 47.768V53.8H75.8507V33.5ZM81.7087 35.182C80.7227 35.182 79.9397 35.443 79.3597 35.965C78.799 36.4677 78.4027 37.241 78.1707 38.285V45.477C78.5187 45.7477 78.915 45.9603 79.3597 46.115C79.8043 46.2503 80.394 46.318 81.1287 46.318C82.4627 46.318 83.5163 45.825 84.2897 44.839C85.0823 43.8337 85.4787 42.3643 85.4787 40.431C85.4787 39.6383 85.411 38.923 85.2757 38.285C85.1403 37.6277 84.918 37.0767 84.6087 36.632C84.3187 36.168 83.932 35.8103 83.4487 35.559C82.9847 35.3077 82.4047 35.182 81.7087 35.182ZM102.125 46.84C101.545 47.304 100.81 47.6713 99.9211 47.942C99.0511 48.2127 98.1231 48.348 97.1371 48.348C96.0351 48.348 95.0781 48.174 94.2661 47.826C93.4541 47.4587 92.7871 46.9463 92.2651 46.289C91.7431 45.6123 91.3565 44.81 91.1051 43.882C90.8538 42.954 90.7281 41.91 90.7281 40.75C90.7281 38.2753 91.2791 36.3903 92.3811 35.095C93.4831 33.7997 95.0588 33.152 97.1081 33.152C97.7655 33.152 98.4228 33.2293 99.0801 33.384C99.7375 33.5193 100.327 33.79 100.849 34.196C101.371 34.602 101.796 35.182 102.125 35.936C102.454 36.6707 102.618 37.647 102.618 38.865C102.618 39.503 102.56 40.2087 102.444 40.982H93.1351C93.1351 41.8327 93.2221 42.5867 93.3961 43.244C93.5701 43.9013 93.8408 44.462 94.2081 44.926C94.5755 45.3707 95.0491 45.7187 95.6291 45.97C96.2285 46.202 96.9535 46.318 97.8041 46.318C98.4615 46.318 99.1188 46.202 99.7761 45.97C100.433 45.738 100.926 45.4673 101.255 45.158L102.125 46.84ZM97.1371 35.182C95.9965 35.182 95.0781 35.4817 94.3821 36.081C93.7055 36.6803 93.2995 37.705 93.1641 39.155H100.356C100.356 37.6857 100.076 36.661 99.5151 36.081C98.9545 35.4817 98.1618 35.182 97.1371 35.182ZM106.267 33.529C106.943 33.4903 107.649 33.442 108.384 33.384C109.138 33.326 110.066 33.297 111.168 33.297C113.082 33.297 114.454 33.5967 115.286 34.196C116.117 34.776 116.533 35.6653 116.533 36.864C116.533 37.5407 116.33 38.2077 115.924 38.865C115.537 39.503 114.889 39.9767 113.981 40.286V40.402C115.121 40.6147 115.924 41.011 116.388 41.591C116.852 42.171 117.084 42.9443 117.084 43.911C117.084 45.419 116.542 46.5113 115.46 47.188C114.377 47.8647 112.753 48.203 110.588 48.203C109.776 48.203 109.022 48.174 108.326 48.116C107.63 48.0773 106.943 48.029 106.267 47.971V33.529ZM108.587 46.057C108.954 46.0957 109.312 46.1247 109.66 46.144C110.027 46.1633 110.452 46.173 110.936 46.173C112.231 46.173 113.188 45.9893 113.807 45.622C114.445 45.2547 114.764 44.6263 114.764 43.737C114.764 43.041 114.493 42.4803 113.952 42.055C113.43 41.6103 112.492 41.388 111.139 41.388H108.587V46.057ZM111.429 39.619C111.777 39.619 112.115 39.561 112.444 39.445C112.772 39.329 113.062 39.1743 113.314 38.981C113.584 38.7683 113.797 38.5267 113.952 38.256C114.126 37.9853 114.213 37.6953 114.213 37.386C114.213 36.6127 113.981 36.081 113.517 35.791C113.053 35.4817 112.241 35.327 111.081 35.327C110.462 35.327 109.969 35.3367 109.602 35.356C109.254 35.3753 108.915 35.3947 108.587 35.414V39.619H111.429ZM121.231 33.5H123.551V48H121.231V33.5ZM120.738 29.092C120.738 28.6473 120.883 28.2703 121.173 27.961C121.483 27.6323 121.869 27.468 122.333 27.468C122.797 27.468 123.194 27.6323 123.522 27.961C123.851 28.2703 124.015 28.6473 124.015 29.092C124.015 29.5367 123.851 29.904 123.522 30.194C123.194 30.484 122.797 30.629 122.333 30.629C121.869 30.629 121.483 30.484 121.173 30.194C120.883 29.904 120.738 29.5367 120.738 29.092ZM128.498 33.5H130.093L130.528 35.24H130.644C131.089 34.5633 131.659 34.051 132.355 33.703C133.07 33.3357 133.882 33.152 134.791 33.152C136.724 33.152 138.165 33.7223 139.112 34.863C140.059 36.0037 140.533 37.8693 140.533 40.46C140.533 41.678 140.369 42.78 140.04 43.766C139.731 44.7327 139.286 45.5543 138.706 46.231C138.126 46.9077 137.42 47.4297 136.589 47.797C135.777 48.1643 134.868 48.348 133.863 48.348C133.148 48.348 132.577 48.2997 132.152 48.203C131.746 48.1257 131.301 47.9807 130.818 47.768V53.8H128.498V33.5ZM134.356 35.182C133.37 35.182 132.587 35.443 132.007 35.965C131.446 36.4677 131.05 37.241 130.818 38.285V45.477C131.166 45.7477 131.562 45.9603 132.007 46.115C132.452 46.2503 133.041 46.318 133.776 46.318C135.11 46.318 136.164 45.825 136.937 44.839C137.73 43.8337 138.126 42.3643 138.126 40.431C138.126 39.6383 138.058 38.923 137.923 38.285C137.788 37.6277 137.565 37.0767 137.256 36.632C136.966 36.168 136.579 35.8103 136.096 35.559C135.632 35.3077 135.052 35.182 134.356 35.182ZM153.236 39.416L153.323 37.618H153.236L152.047 39.474L145.522 48H144.188V33.5H146.508V42.345L146.421 44.056H146.537L147.668 42.258L154.193 33.5H155.556V48H153.236V39.416ZM169.27 35.53H164.717V48H162.397V35.53H157.844V33.5H169.27V35.53ZM180.621 39.416L180.708 37.618H180.621L179.432 39.474L172.907 48H171.573V33.5H173.893V42.345L173.806 44.056H173.922L175.053 42.258L181.578 33.5H182.941V48H180.621V39.416ZM204.01 41.591H197.456V48H195.136V33.5H197.456V39.561H204.01V33.5H206.33V48H204.01V41.591ZM210.565 34.573C211.3 34.1283 212.15 33.7997 213.117 33.587C214.103 33.3743 215.128 33.268 216.191 33.268C217.196 33.268 217.999 33.4033 218.598 33.674C219.217 33.9447 219.681 34.3023 219.99 34.747C220.319 35.1723 220.531 35.646 220.628 36.168C220.744 36.69 220.802 37.212 220.802 37.734C220.802 38.894 220.773 40.025 220.715 41.127C220.657 42.229 220.628 43.273 220.628 44.259C220.628 44.9743 220.657 45.651 220.715 46.289C220.773 46.927 220.879 47.5167 221.034 48.058H219.323L218.714 46.028H218.569C218.395 46.2987 218.173 46.5693 217.902 46.84C217.651 47.0913 217.341 47.3233 216.974 47.536C216.607 47.7293 216.181 47.8937 215.698 48.029C215.215 48.1643 214.664 48.232 214.045 48.232C213.426 48.232 212.846 48.1353 212.305 47.942C211.783 47.7487 211.329 47.478 210.942 47.13C210.555 46.7627 210.246 46.3277 210.014 45.825C209.801 45.3223 209.695 44.752 209.695 44.114C209.695 43.2633 209.869 42.5577 210.217 41.997C210.565 41.417 211.048 40.9627 211.667 40.634C212.305 40.286 213.059 40.0443 213.929 39.909C214.818 39.7543 215.795 39.677 216.858 39.677C217.129 39.677 217.39 39.677 217.641 39.677C217.912 39.677 218.182 39.6963 218.453 39.735C218.511 39.155 218.54 38.633 218.54 38.169C218.54 37.1057 218.327 36.3613 217.902 35.936C217.477 35.5107 216.703 35.298 215.582 35.298C215.253 35.298 214.896 35.327 214.509 35.385C214.142 35.4237 213.755 35.4913 213.349 35.588C212.962 35.6653 212.585 35.7717 212.218 35.907C211.87 36.023 211.561 36.1583 211.29 36.313L210.565 34.573ZM214.683 46.202C215.224 46.202 215.708 46.1343 216.133 45.999C216.558 45.8443 216.926 45.6607 217.235 45.448C217.544 45.216 217.796 44.9647 217.989 44.694C218.202 44.4233 218.356 44.1623 218.453 43.911V41.504C218.182 41.4847 217.902 41.475 217.612 41.475C217.341 41.4557 217.071 41.446 216.8 41.446C216.201 41.446 215.611 41.4847 215.031 41.562C214.47 41.62 213.968 41.7457 213.523 41.939C213.098 42.113 212.75 42.3643 212.479 42.693C212.228 43.0023 212.102 43.3987 212.102 43.882C212.102 44.5587 212.344 45.1193 212.827 45.564C213.31 45.9893 213.929 46.202 214.683 46.202ZM232.405 41.997L230.172 42.345L226.344 48H223.531L227.011 43.041L228.171 41.968C227.165 41.8133 226.305 41.4073 225.59 40.75C224.894 40.0927 224.546 39.2033 224.546 38.082C224.546 37.212 224.691 36.4677 224.981 35.849C225.29 35.2303 225.725 34.718 226.286 34.312C226.846 33.906 227.513 33.616 228.287 33.442C229.06 33.2487 229.93 33.152 230.897 33.152C231.612 33.152 232.279 33.2003 232.898 33.297C233.516 33.3937 234.125 33.5 234.725 33.616V48H232.405V41.997ZM232.405 35.472C232.153 35.3753 231.873 35.3077 231.564 35.269C231.254 35.211 230.984 35.182 230.752 35.182C229.514 35.182 228.567 35.4043 227.91 35.849C227.272 36.2937 226.953 36.9993 226.953 37.966C226.953 38.836 227.291 39.5127 227.968 39.996C228.664 40.46 229.572 40.692 230.694 40.692C230.713 40.692 230.742 40.692 230.781 40.692C230.819 40.692 230.897 40.692 231.013 40.692C231.129 40.692 231.293 40.692 231.506 40.692C231.718 40.6727 232.018 40.6533 232.405 40.634V35.472ZM238.947 33.529C239.624 33.4903 240.33 33.442 241.064 33.384C241.818 33.326 242.746 33.297 243.848 33.297C245.762 33.297 247.135 33.5967 247.966 34.196C248.798 34.776 249.213 35.6653 249.213 36.864C249.213 37.5407 249.01 38.2077 248.604 38.865C248.218 39.503 247.57 39.9767 246.661 40.286V40.402C247.802 40.6147 248.604 41.011 249.068 41.591C249.532 42.171 249.764 42.9443 249.764 43.911C249.764 45.419 249.223 46.5113 248.14 47.188C247.058 47.8647 245.434 48.203 243.268 48.203C242.456 48.203 241.702 48.174 241.006 48.116C240.31 48.0773 239.624 48.029 238.947 47.971V33.529ZM241.267 46.057C241.635 46.0957 241.992 46.1247 242.34 46.144C242.708 46.1633 243.133 46.173 243.616 46.173C244.912 46.173 245.869 45.9893 246.487 45.622C247.125 45.2547 247.444 44.6263 247.444 43.737C247.444 43.041 247.174 42.4803 246.632 42.055C246.11 41.6103 245.173 41.388 243.819 41.388H241.267V46.057ZM244.109 39.619C244.457 39.619 244.796 39.561 245.124 39.445C245.453 39.329 245.743 39.1743 245.994 38.981C246.265 38.7683 246.478 38.5267 246.632 38.256C246.806 37.9853 246.893 37.6953 246.893 37.386C246.893 36.6127 246.661 36.081 246.197 35.791C245.733 35.4817 244.921 35.327 243.761 35.327C243.143 35.327 242.65 35.3367 242.282 35.356C241.934 35.3753 241.596 35.3947 241.267 35.414V39.619H244.109ZM262.293 41.591H255.739V48H253.419V33.5H255.739V39.561H262.293V33.5H264.613V48H262.293V41.591ZM269.573 33.5H271.893V48H269.573V33.5ZM269.08 29.092C269.08 28.6473 269.225 28.2703 269.515 27.961C269.825 27.6323 270.211 27.468 270.675 27.468C271.139 27.468 271.536 27.6323 271.864 27.961C272.193 28.2703 272.357 28.6473 272.357 29.092C272.357 29.5367 272.193 29.904 271.864 30.194C271.536 30.484 271.139 30.629 270.675 30.629C270.211 30.629 269.825 30.484 269.515 30.194C269.225 29.904 269.08 29.5367 269.08 29.092ZM286.729 47.043C286.149 47.4683 285.463 47.7873 284.67 48C283.877 48.232 283.046 48.348 282.176 48.348C281.055 48.348 280.107 48.174 279.334 47.826C278.561 47.4587 277.923 46.9463 277.42 46.289C276.937 45.6123 276.579 44.81 276.347 43.882C276.134 42.9347 276.028 41.8907 276.028 40.75C276.028 38.2947 276.569 36.4193 277.652 35.124C278.735 33.8093 280.291 33.152 282.321 33.152C283.249 33.152 284.032 33.2293 284.67 33.384C285.327 33.5193 285.917 33.7223 286.439 33.993L285.772 35.994C285.327 35.7427 284.834 35.5493 284.293 35.414C283.752 35.2593 283.172 35.182 282.553 35.182C279.808 35.182 278.435 37.038 278.435 40.75C278.435 41.4847 278.503 42.1903 278.638 42.867C278.793 43.5243 279.034 44.114 279.363 44.636C279.711 45.1387 280.156 45.5447 280.697 45.854C281.258 46.1633 281.944 46.318 282.756 46.318C283.452 46.318 284.071 46.2117 284.612 45.999C285.173 45.7863 285.627 45.5447 285.975 45.274L286.729 47.043ZM298.722 35.53H294.169V48H291.849V35.53H287.296V33.5H298.722V35.53ZM303.345 45.97C304.061 46.086 304.747 46.144 305.404 46.144C306.622 46.144 307.521 45.912 308.101 45.448C308.681 44.9647 308.971 44.288 308.971 43.418C308.971 42.6447 308.691 42.0067 308.13 41.504C307.57 41.0013 306.69 40.75 305.491 40.75C305.163 40.75 304.805 40.7597 304.418 40.779C304.032 40.7983 303.674 40.8563 303.345 40.953V45.97ZM303.345 39.039C303.809 38.9617 304.254 38.9133 304.679 38.894C305.105 38.8553 305.511 38.836 305.897 38.836C306.903 38.836 307.753 38.952 308.449 39.184C309.145 39.3967 309.706 39.6963 310.131 40.083C310.576 40.4697 310.895 40.9337 311.088 41.475C311.282 41.997 311.378 42.5577 311.378 43.157C311.378 44.9163 310.847 46.1923 309.783 46.985C308.739 47.7777 307.106 48.174 304.882 48.174C303.645 48.174 302.359 48.116 301.025 48V33.5H303.345V39.039ZM91.4835 71.529C92.1602 71.4903 92.8658 71.442 93.6005 71.384C94.3545 71.326 95.2825 71.297 96.3845 71.297C98.2985 71.297 99.6712 71.5967 100.502 72.196C101.334 72.776 101.749 73.6653 101.749 74.864C101.749 75.5407 101.546 76.2077 101.14 76.865C100.754 77.503 100.106 77.9767 99.1975 78.286V78.402C100.338 78.6147 101.14 79.011 101.604 79.591C102.068 80.171 102.3 80.9443 102.3 81.911C102.3 83.419 101.759 84.5113 100.676 85.188C99.5938 85.8647 97.9698 86.203 95.8045 86.203C94.9925 86.203 94.2385 86.174 93.5425 86.116C92.8465 86.0773 92.1602 86.029 91.4835 85.971V71.529ZM93.8035 84.057C94.1708 84.0957 94.5285 84.1247 94.8765 84.144C95.2438 84.1633 95.6692 84.173 96.1525 84.173C97.4478 84.173 98.4048 83.9893 99.0235 83.622C99.6615 83.2547 99.9805 82.6263 99.9805 81.737C99.9805 81.041 99.7098 80.4803 99.1685 80.055C98.6465 79.6103 97.7088 79.388 96.3555 79.388H93.8035V84.057ZM96.6455 77.619C96.9935 77.619 97.3318 77.561 97.6605 77.445C97.9892 77.329 98.2792 77.1743 98.5305 76.981C98.8012 76.7683 99.0138 76.5267 99.1685 76.256C99.3425 75.9853 99.4295 75.6953 99.4295 75.386C99.4295 74.6127 99.1975 74.081 98.7335 73.791C98.2695 73.4817 97.4575 73.327 96.2975 73.327C95.6788 73.327 95.1858 73.3367 94.8185 73.356C94.4705 73.3753 94.1322 73.3947 93.8035 73.414V77.619H96.6455ZM106.448 71.5H108.768V86H106.448V71.5ZM105.955 67.092C105.955 66.6473 106.1 66.2703 106.39 65.961C106.7 65.6323 107.086 65.468 107.55 65.468C108.014 65.468 108.411 65.6323 108.739 65.961C109.068 66.2703 109.232 66.6473 109.232 67.092C109.232 67.5367 109.068 67.904 108.739 68.194C108.411 68.484 108.014 68.629 107.55 68.629C107.086 68.629 106.7 68.484 106.39 68.194C106.1 67.904 105.955 67.5367 105.955 67.092ZM121.516 73.53H117.311C117.253 74.342 117.195 75.2217 117.137 76.169C117.079 77.097 116.992 78.0347 116.876 78.982C116.76 79.91 116.605 80.809 116.412 81.679C116.219 82.5297 115.967 83.2837 115.658 83.941C115.368 84.5983 115.001 85.13 114.556 85.536C114.131 85.9227 113.618 86.116 113.019 86.116C112.652 86.116 112.333 86.0967 112.062 86.058C111.791 86.0193 111.55 85.9517 111.337 85.855L111.685 83.912C111.917 83.9893 112.168 84.028 112.439 84.028C112.826 84.028 113.174 83.8637 113.483 83.535C113.792 83.2063 114.063 82.5877 114.295 81.679C114.527 80.751 114.72 79.475 114.875 77.851C115.03 76.227 115.136 74.11 115.194 71.5H123.836V86H121.516V73.53ZM130.62 83.97C131.335 84.086 132.022 84.144 132.679 84.144C133.897 84.144 134.796 83.912 135.376 83.448C135.956 82.9647 136.246 82.288 136.246 81.418C136.246 80.6447 135.966 80.0067 135.405 79.504C134.844 79.0013 133.965 78.75 132.766 78.75C132.437 78.75 132.08 78.7597 131.693 78.779C131.306 78.7983 130.949 78.8563 130.62 78.953V83.97ZM130.62 77.039C131.084 76.9617 131.529 76.9133 131.954 76.894C132.379 76.8553 132.785 76.836 133.172 76.836C134.177 76.836 135.028 76.952 135.724 77.184C136.42 77.3967 136.981 77.6963 137.406 78.083C137.851 78.4697 138.17 78.9337 138.363 79.475C138.556 79.997 138.653 80.5577 138.653 81.157C138.653 82.9163 138.121 84.1923 137.058 84.985C136.014 85.7777 134.38 86.174 132.157 86.174C130.92 86.174 129.634 86.116 128.3 86V71.5H130.62V77.039ZM150.626 79.591H144.072V86H141.752V71.5H144.072V77.561H150.626V71.5H152.946V86H150.626V79.591ZM166.461 77.416L166.548 75.618H166.461L165.272 77.474L158.747 86H157.413V71.5H159.733V80.345L159.646 82.056H159.762L160.893 80.258L167.418 71.5H168.781V86H166.461V77.416ZM177.043 78.576L172.171 71.5H175.013L177.768 75.502L178.58 77.155L179.421 75.502L182.234 71.5H184.844L179.943 78.46L185.134 86H182.379L179.305 81.592L178.435 79.852L177.536 81.592L174.404 86H171.823L177.043 78.576ZM207.085 77.387L207.259 74.632H207.114L206.07 76.865L202.561 82.549H201.749L198.095 76.865L197.138 74.632H197.022L197.254 77.358V86H195.108V71.5H197.399L201.459 77.996L202.3 79.678H202.358L203.228 77.938L207.027 71.5H209.347V86H207.085V77.387ZM214.292 71.5H216.612V86H214.292V71.5ZM213.799 67.092C213.799 66.6473 213.944 66.2703 214.234 65.961C214.543 65.6323 214.93 65.468 215.394 65.468C215.858 65.468 216.254 65.6323 216.583 65.961C216.912 66.2703 217.076 66.6473 217.076 67.092C217.076 67.5367 216.912 67.904 216.583 68.194C216.254 68.484 215.858 68.629 215.394 68.629C214.93 68.629 214.543 68.484 214.234 68.194C213.944 67.904 213.799 67.5367 213.799 67.092ZM231.448 85.043C230.868 85.4683 230.181 85.7873 229.389 86C228.596 86.232 227.765 86.348 226.895 86.348C225.773 86.348 224.826 86.174 224.053 85.826C223.279 85.4587 222.641 84.9463 222.139 84.289C221.655 83.6123 221.298 82.81 221.066 81.882C220.853 80.9347 220.747 79.8907 220.747 78.75C220.747 76.2947 221.288 74.4193 222.371 73.124C223.453 71.8093 225.01 71.152 227.04 71.152C227.968 71.152 228.751 71.2293 229.389 71.384C230.046 71.5193 230.636 71.7223 231.158 71.993L230.491 73.994C230.046 73.7427 229.553 73.5493 229.012 73.414C228.47 73.2593 227.89 73.182 227.272 73.182C224.526 73.182 223.154 75.038 223.154 78.75C223.154 79.4847 223.221 80.1903 223.357 80.867C223.511 81.5243 223.753 82.114 224.082 82.636C224.43 83.1387 224.874 83.5447 225.416 83.854C225.976 84.1633 226.663 84.318 227.475 84.318C228.171 84.318 228.789 84.2117 229.331 83.999C229.891 83.7863 230.346 83.5447 230.694 83.274L231.448 85.043ZM247.664 89.683H246.098L245.663 86H234.643V71.5H236.963V83.97H243.256V71.5H245.576V83.97H247.664V89.683ZM252.85 83.97C253.566 84.086 254.252 84.144 254.909 84.144C256.127 84.144 257.026 83.912 257.606 83.448C258.186 82.9647 258.476 82.288 258.476 81.418C258.476 80.6447 258.196 80.0067 257.635 79.504C257.075 79.0013 256.195 78.75 254.996 78.75C254.668 78.75 254.31 78.7597 253.923 78.779C253.537 78.7983 253.179 78.8563 252.85 78.953V83.97ZM252.85 77.039C253.314 76.9617 253.759 76.9133 254.184 76.894C254.61 76.8553 255.016 76.836 255.402 76.836C256.408 76.836 257.258 76.952 257.954 77.184C258.65 77.3967 259.211 77.6963 259.636 78.083C260.081 78.4697 260.4 78.9337 260.593 79.475C260.787 79.997 260.883 80.5577 260.883 81.157C260.883 82.9163 260.352 84.1923 259.288 84.985C258.244 85.7777 256.611 86.174 254.387 86.174C253.15 86.174 251.864 86.116 250.53 86V71.5H252.85V77.039Z" fill="white"/>
</svg>
