<svg width="180" height="63" viewBox="0 0 180 63" fill="none" xmlns="http://www.w3.org/2000/svg">
<ellipse cx="151.552" cy="31.406" rx="28.4483" ry="30.7583" fill="#202846"/>
<ellipse cx="28.4483" cy="31.406" rx="28.4483" ry="30.7583" fill="#202846"/>
<rect x="30" y="0.647705" width="124.138" height="61.5166" fill="#202846"/>
<path d="M31.9393 30.3453C31.3536 30.9311 31.3536 31.8809 31.9393 32.4667L41.4853 42.0126C42.0711 42.5984 43.0208 42.5984 43.6066 42.0126C44.1924 41.4268 44.1924 40.4771 43.6066 39.8913L35.1213 31.406L43.6066 22.9207C44.1924 22.3349 44.1924 21.3852 43.6066 20.7994C43.0208 20.2136 42.0711 20.2136 41.4853 20.7994L31.9393 30.3453ZM69 29.906L33 29.906V32.906L69 32.906V29.906Z" fill="white"/>
<path d="M97.3382 32.296H89.2742V40H87.2822V23.2H89.2742V30.52H97.3382V23.2H99.3302V40H97.3382V32.296ZM103.023 28.888C103.631 28.52 104.335 28.248 105.135 28.072C105.951 27.896 106.799 27.808 107.679 27.808C108.511 27.808 109.175 27.92 109.671 28.144C110.183 28.368 110.567 28.664 110.823 29.032C111.095 29.384 111.271 29.776 111.351 30.208C111.447 30.64 111.495 31.072 111.495 31.504C111.495 32.464 111.471 33.4 111.423 34.312C111.375 35.224 111.351 36.088 111.351 36.904C111.351 37.496 111.375 38.056 111.423 38.584C111.471 39.112 111.559 39.6 111.687 40.048H110.271L109.767 38.368H109.647C109.503 38.592 109.319 38.816 109.095 39.04C108.887 39.248 108.631 39.44 108.327 39.616C108.023 39.776 107.671 39.912 107.271 40.024C106.871 40.136 106.415 40.192 105.903 40.192C105.391 40.192 104.911 40.112 104.463 39.952C104.031 39.792 103.655 39.568 103.335 39.28C103.015 38.976 102.759 38.616 102.567 38.2C102.391 37.784 102.303 37.312 102.303 36.784C102.303 36.08 102.447 35.496 102.735 35.032C103.023 34.552 103.423 34.176 103.935 33.904C104.463 33.616 105.087 33.416 105.807 33.304C106.543 33.176 107.351 33.112 108.231 33.112C108.455 33.112 108.671 33.112 108.879 33.112C109.103 33.112 109.327 33.128 109.551 33.16C109.599 32.68 109.623 32.248 109.623 31.864C109.623 30.984 109.447 30.368 109.095 30.016C108.743 29.664 108.103 29.488 107.175 29.488C106.903 29.488 106.607 29.512 106.287 29.56C105.983 29.592 105.663 29.648 105.327 29.728C105.007 29.792 104.695 29.88 104.391 29.992C104.103 30.088 103.847 30.2 103.623 30.328L103.023 28.888ZM106.431 38.512C106.879 38.512 107.279 38.456 107.631 38.344C107.983 38.216 108.287 38.064 108.543 37.888C108.799 37.696 109.007 37.488 109.167 37.264C109.343 37.04 109.471 36.824 109.551 36.616V34.624C109.327 34.608 109.095 34.6 108.855 34.6C108.631 34.584 108.407 34.576 108.183 34.576C107.687 34.576 107.199 34.608 106.719 34.672C106.255 34.72 105.839 34.824 105.471 34.984C105.119 35.128 104.831 35.336 104.607 35.608C104.399 35.864 104.295 36.192 104.295 36.592C104.295 37.152 104.495 37.616 104.895 37.984C105.295 38.336 105.807 38.512 106.431 38.512ZM116.273 34.648V33.088H117.953C118.241 33.088 118.521 33.04 118.793 32.944C119.081 32.848 119.337 32.72 119.561 32.56C119.785 32.384 119.961 32.184 120.089 31.96C120.233 31.72 120.305 31.472 120.305 31.216C120.305 30.592 120.089 30.152 119.657 29.896C119.225 29.64 118.577 29.512 117.713 29.512C117.089 29.512 116.513 29.608 115.985 29.8C115.473 29.992 115.073 30.176 114.785 30.352L114.233 28.864C114.713 28.592 115.273 28.352 115.913 28.144C116.569 27.936 117.345 27.832 118.241 27.832C120.897 27.832 122.225 28.816 122.225 30.784C122.225 31.344 122.041 31.896 121.673 32.44C121.321 32.968 120.809 33.344 120.137 33.568V33.664C121.081 33.84 121.737 34.176 122.105 34.672C122.489 35.168 122.681 35.824 122.681 36.64C122.681 37.152 122.577 37.624 122.369 38.056C122.161 38.488 121.849 38.864 121.433 39.184C121.017 39.504 120.489 39.76 119.849 39.952C119.225 40.128 118.497 40.216 117.665 40.216C116.849 40.216 116.169 40.144 115.625 40C115.097 39.856 114.617 39.68 114.185 39.472L114.737 37.888C115.105 38.096 115.545 38.256 116.057 38.368C116.585 38.48 117.153 38.536 117.761 38.536C118.737 38.536 119.481 38.368 119.993 38.032C120.505 37.696 120.761 37.184 120.761 36.496C120.761 35.92 120.521 35.472 120.041 35.152C119.561 34.816 118.769 34.648 117.665 34.648H116.273ZM125.523 28.888C126.131 28.52 126.835 28.248 127.635 28.072C128.451 27.896 129.299 27.808 130.179 27.808C131.011 27.808 131.675 27.92 132.171 28.144C132.683 28.368 133.067 28.664 133.323 29.032C133.595 29.384 133.771 29.776 133.851 30.208C133.947 30.64 133.995 31.072 133.995 31.504C133.995 32.464 133.971 33.4 133.923 34.312C133.875 35.224 133.851 36.088 133.851 36.904C133.851 37.496 133.875 38.056 133.923 38.584C133.971 39.112 134.059 39.6 134.187 40.048H132.771L132.267 38.368H132.147C132.003 38.592 131.819 38.816 131.595 39.04C131.387 39.248 131.131 39.44 130.827 39.616C130.523 39.776 130.171 39.912 129.771 40.024C129.371 40.136 128.915 40.192 128.403 40.192C127.891 40.192 127.411 40.112 126.963 39.952C126.531 39.792 126.155 39.568 125.835 39.28C125.515 38.976 125.259 38.616 125.067 38.2C124.891 37.784 124.803 37.312 124.803 36.784C124.803 36.08 124.947 35.496 125.235 35.032C125.523 34.552 125.923 34.176 126.435 33.904C126.963 33.616 127.587 33.416 128.307 33.304C129.043 33.176 129.851 33.112 130.731 33.112C130.955 33.112 131.171 33.112 131.379 33.112C131.603 33.112 131.827 33.128 132.051 33.16C132.099 32.68 132.123 32.248 132.123 31.864C132.123 30.984 131.947 30.368 131.595 30.016C131.243 29.664 130.603 29.488 129.675 29.488C129.403 29.488 129.107 29.512 128.787 29.56C128.483 29.592 128.163 29.648 127.827 29.728C127.507 29.792 127.195 29.88 126.891 29.992C126.603 30.088 126.347 30.2 126.123 30.328L125.523 28.888ZM128.931 38.512C129.379 38.512 129.779 38.456 130.131 38.344C130.483 38.216 130.787 38.064 131.043 37.888C131.299 37.696 131.507 37.488 131.667 37.264C131.843 37.04 131.971 36.824 132.051 36.616V34.624C131.827 34.608 131.595 34.6 131.355 34.6C131.131 34.584 130.907 34.576 130.683 34.576C130.187 34.576 129.699 34.608 129.219 34.672C128.755 34.72 128.339 34.824 127.971 34.984C127.619 35.128 127.331 35.336 127.107 35.608C126.899 35.864 126.795 36.192 126.795 36.592C126.795 37.152 126.995 37.616 127.395 37.984C127.795 38.336 128.307 38.512 128.931 38.512ZM148.229 43.048H146.933L146.573 40H137.549L137.189 43.048H135.893V38.32H137.309C137.437 38.144 137.605 37.832 137.813 37.384C138.021 36.92 138.221 36.28 138.413 35.464C138.621 34.632 138.797 33.608 138.941 32.392C139.101 31.16 139.197 29.696 139.229 28H146.477V38.32H148.229V43.048ZM144.557 38.32V29.68H140.957C140.925 30.352 140.869 31.088 140.789 31.888C140.709 32.672 140.597 33.464 140.453 34.264C140.325 35.048 140.157 35.792 139.949 36.496C139.741 37.2 139.501 37.808 139.229 38.32H144.557Z" fill="white"/>
</svg>
