<svg width="22" height="22" viewBox="0 0 22 22" fill="none" xmlns="http://www.w3.org/2000/svg">
<rect x="0.770569" y="6.05109" width="16.1515" height="16.1515" rx="8.07575" transform="rotate(-19.2332 0.770569 6.05109)" fill="#F7F8F9"/>
<g clip-path="url(#clip0_4_39407)">
<path d="M6.71992 10.0369L13.8679 7.17788C13.9401 7.14894 14.0191 7.14104 14.0956 7.15509C14.1721 7.16913 14.2431 7.20455 14.3003 7.25724C14.3575 7.30994 14.3986 7.37775 14.4189 7.45285C14.4392 7.52795 14.4379 7.60725 14.415 7.6816L12.1539 15.0407C12.1307 15.1161 12.0864 15.1834 12.0262 15.2344C11.9659 15.2854 11.8923 15.318 11.814 15.3283C11.7357 15.3387 11.6561 15.3263 11.5847 15.2928C11.5133 15.2592 11.453 15.2058 11.411 15.1389L10.0078 12.9023C9.99058 12.8749 9.98182 12.843 9.98261 12.8106C9.98339 12.7783 9.99367 12.7469 10.0122 12.7204L11.9556 9.93495C11.9636 9.92324 11.9685 9.90965 11.9698 9.8955C11.971 9.88135 11.9686 9.86711 11.9627 9.85417L11.9517 9.83596C11.9399 9.82158 11.9237 9.81161 11.9055 9.80766C11.8873 9.8037 11.8684 9.80601 11.8517 9.81419L11.8358 9.82418L9.22197 11.9878C9.19704 12.0083 9.16662 12.0211 9.13449 12.0245C9.10237 12.0279 9.06995 12.0218 9.04127 12.0069L6.68336 10.7856C6.6132 10.7493 6.55495 10.6936 6.51553 10.6252C6.47612 10.5567 6.45722 10.4784 6.46107 10.3995C6.46492 10.3206 6.49137 10.2445 6.53726 10.1802C6.58315 10.1159 6.64656 10.0662 6.71992 10.0369Z" fill="#191D23"/>
</g>
<defs>
<clipPath id="clip0_4_39407">
<rect width="9.22943" height="9.22943" fill="white" transform="translate(5.19812 10.337) rotate(-47.3603)"/>
</clipPath>
</defs>
</svg>
