<svg width="20" height="20" viewBox="0 0 20 20" fill="none" xmlns="http://www.w3.org/2000/svg">
<rect x="1.20042" y="5.78052" width="14.3056" height="14.3056" rx="7.15281" transform="rotate(-19.2332 1.20042 5.78052)" stroke="#E7EAEE" stroke-width="0.461471"/>
<path fill-rule="evenodd" clip-rule="evenodd" d="M6.5002 9.06342C6.33229 8.58214 6.58632 8.05587 7.0676 7.88796L7.93903 7.58393C8.4203 7.41601 8.94657 7.67005 9.11449 8.15132L10.6346 12.5085C10.8025 12.9898 10.5485 13.516 10.0672 13.6839L9.19581 13.988C8.71453 14.1559 8.18826 13.9018 8.02035 13.4206L6.5002 9.06342Z" fill="#191D23"/>
<path fill-rule="evenodd" clip-rule="evenodd" d="M9.98592 7.84729C9.818 7.36602 10.072 6.83975 10.5533 6.67183L11.4247 6.3678C11.906 6.19989 12.4323 6.45393 12.6002 6.9352L14.1204 11.2924C14.2883 11.7736 14.0342 12.2999 13.553 12.4678L12.6815 12.7718C12.2002 12.9398 11.674 12.6857 11.5061 12.2044L9.98592 7.84729Z" fill="#191D23"/>
</svg>
