<svg width="12" height="12" viewBox="0 0 12 12" fill="none" xmlns="http://www.w3.org/2000/svg">
<path fill-rule="evenodd" clip-rule="evenodd" d="M7.79557 4.46297L7.83115 4.47766L8.87332 4.98568L8.90684 5.00468C9.02388 5.08101 9.07522 5.22817 9.03107 5.36074L9.01664 5.39647L8.99791 5.43011C8.9226 5.54749 8.77657 5.59844 8.64458 5.55338L8.609 5.53869L8.24612 5.36158C8.33033 5.70505 8.33953 6.05888 8.27505 6.40257C8.11452 7.25833 7.5157 7.97056 6.68307 8.26105C5.96554 8.51139 5.18581 8.41015 4.55683 8.00361C4.41455 7.91165 4.37276 7.72142 4.46349 7.57871C4.55421 7.43601 4.7431 7.39488 4.88538 7.48684C5.35774 7.79215 5.94186 7.86799 6.48038 7.6801C7.10512 7.46214 7.55404 6.9282 7.67455 6.28576C7.72049 6.04086 7.71654 5.78935 7.66166 5.54366L7.47451 5.9345L7.45578 5.96814C7.37362 6.09619 7.20731 6.14518 7.06687 6.07672C6.92642 6.00826 6.86095 5.84628 6.90911 5.70166L6.92354 5.66593L7.42351 4.61988L7.44224 4.58624C7.51755 4.46886 7.66358 4.41791 7.79557 4.46297ZM5.08711 3.60452C5.80464 3.35419 6.58437 3.45542 7.21335 3.86196C7.35563 3.95392 7.39742 4.14416 7.3067 4.28686C7.21597 4.42956 7.02708 4.4707 6.8848 4.37873C6.41244 4.07343 5.82832 3.99759 5.2898 4.18547C4.66506 4.40344 4.21615 4.93737 4.09563 5.57981C4.06698 5.73256 4.05773 5.88788 4.06815 6.04275L4.2132 5.73991L4.23192 5.70628C4.31408 5.57822 4.4804 5.52923 4.62084 5.59769C4.76128 5.66615 4.82676 5.82813 4.77859 5.97276L4.76416 6.00849L4.26419 7.05454L4.24546 7.08818C4.17015 7.20556 4.02412 7.25651 3.89213 7.21145L3.85655 7.19676L2.81438 6.68874L2.78086 6.66974C2.66382 6.5934 2.61248 6.44625 2.65663 6.31368L2.67106 6.27794L2.68979 6.24431C2.7651 6.12692 2.91113 6.07598 3.04312 6.12103L3.0787 6.13572L3.48894 6.33579C3.43881 6.04578 3.44113 5.75083 3.49513 5.46301C3.65566 4.60725 4.25448 3.89502 5.08711 3.60452Z" fill="#191D23"/>
</svg>
