<svg width="37" height="24" viewBox="0 0 37 24" fill="none" xmlns="http://www.w3.org/2000/svg">
<rect x="0.360008" y="12.1923" width="34.3065" height="11.5368" rx="1.84589" transform="rotate(-19.2332 0.360008 12.1923)" fill="#059669"/>
<path d="M7.83678 18.3409L6.30447 13.9489L8.07957 13.3296C8.12227 13.3147 8.17585 13.2983 8.2403 13.2804C8.30404 13.2604 8.36615 13.2456 8.42663 13.2359C8.68411 13.1894 8.91653 13.2018 9.12389 13.2732C9.33328 13.3438 9.5127 13.4625 9.66213 13.6293C9.81157 13.7962 9.92743 13.9975 10.0097 14.2334C10.0927 14.4713 10.1276 14.702 10.1144 14.9256C10.1011 15.1492 10.0345 15.3537 9.91452 15.5393C9.79655 15.7242 9.6223 15.8785 9.39178 16.0022C9.33768 16.0302 9.27881 16.0576 9.21516 16.0844C9.15355 16.1104 9.10241 16.1306 9.06174 16.1447L7.92409 16.5417L8.47423 18.1185L7.83678 18.3409ZM7.71339 15.9378L8.82665 15.5494C8.86731 15.5352 8.91134 15.5175 8.95872 15.4964C9.00813 15.4746 9.05343 15.4508 9.09462 15.4251C9.21411 15.3492 9.29932 15.2567 9.35024 15.1477C9.40046 15.0367 9.42405 14.9213 9.42102 14.8014C9.41799 14.6816 9.39767 14.5678 9.36007 14.46C9.32247 14.3523 9.26795 14.2516 9.19649 14.1579C9.12433 14.0622 9.03441 13.9875 8.92673 13.9338C8.81834 13.8781 8.69376 13.8577 8.55299 13.8726C8.504 13.876 8.45338 13.8846 8.40113 13.8982C8.35091 13.9112 8.30546 13.9248 8.2648 13.939L7.15155 14.3274L7.71339 15.9378ZM13.0453 16.6264C12.7159 16.7413 12.4043 16.7667 12.1105 16.7027C11.8168 16.6387 11.5584 16.4996 11.3355 16.2855C11.1138 16.0686 10.9434 15.7893 10.8242 15.4477C10.7043 15.1041 10.6661 14.7787 10.7095 14.4716C10.7522 14.1625 10.8693 13.8936 11.0609 13.6648C11.2518 13.434 11.5089 13.2622 11.8322 13.1494C12.1616 13.0344 12.4732 13.009 12.7669 13.073C13.0607 13.137 13.319 13.2761 13.542 13.4903C13.765 13.7044 13.9357 13.9813 14.0542 14.3208C14.1741 14.6645 14.2127 14.9909 14.17 15.3C14.1286 15.6063 14.0128 15.876 13.8227 16.1088C13.6318 16.3396 13.3726 16.5122 13.0453 16.6264ZM12.8356 16.0255C13.1508 15.9156 13.3488 15.7279 13.4295 15.4625C13.5116 15.1944 13.4941 14.8926 13.3771 14.5571C13.2572 14.2134 13.0821 13.9666 12.8519 13.8166C12.6229 13.6638 12.3529 13.6417 12.0418 13.7502C11.8283 13.8247 11.6695 13.9349 11.5652 14.0807C11.4603 14.2245 11.4041 14.3935 11.3966 14.5877C11.3884 14.7799 11.4233 14.9878 11.5013 15.2115C11.6219 15.5572 11.7977 15.806 12.0287 15.9581C12.2596 16.1102 12.5286 16.1326 12.8356 16.0255ZM16.6039 15.3848C16.2968 15.4919 16.0049 15.5083 15.728 15.4338C15.4532 15.3586 15.209 15.2112 14.9955 14.9914C14.7833 14.769 14.6197 14.493 14.5048 14.1636C14.3892 13.8322 14.347 13.5151 14.3782 13.2122C14.4086 12.9074 14.5095 12.6407 14.6806 12.4122C14.8531 12.1809 15.0939 12.0114 15.403 11.9036C15.7141 11.795 16.002 11.7801 16.2666 11.8588C16.5326 11.9348 16.7653 12.0852 16.9646 12.3099C17.1659 12.5339 17.324 12.8105 17.4389 13.1399C17.5538 13.4693 17.6022 13.7844 17.5839 14.085C17.5656 14.3856 17.4766 14.6504 17.3171 14.8794C17.1568 15.1064 16.919 15.2749 16.6039 15.3848ZM16.4912 14.7775C16.7006 14.7044 16.8541 14.595 16.9515 14.4493C17.0489 14.3035 17.0976 14.1326 17.0976 13.9365C17.0975 13.7403 17.0578 13.5284 16.9784 13.3006C16.8989 13.0729 16.7972 12.8826 16.6731 12.7297C16.5511 12.5761 16.408 12.4732 16.2438 12.421C16.0817 12.3681 15.901 12.3764 15.7017 12.446C15.4902 12.5197 15.3345 12.6322 15.2344 12.7835C15.1344 12.9347 15.0813 13.1095 15.0752 13.3077C15.0711 13.5053 15.1067 13.7119 15.1819 13.9274C15.2578 14.145 15.3592 14.3308 15.4859 14.485C15.6141 14.6365 15.7623 14.741 15.9306 14.7986C16.101 14.8555 16.2879 14.8485 16.4912 14.7775ZM17.554 14.9507L16.7272 12.5808L16.654 12.6064L15.9485 10.5842L16.589 10.3608L18.1213 14.7528L17.554 14.9507ZM20.3791 14.0677C20.0416 14.1854 19.7287 14.2102 19.4403 14.1421C19.1519 14.0739 18.899 13.9306 18.6814 13.7123C18.4658 13.4933 18.2989 13.2174 18.1805 12.8846C18.0641 12.5444 18.0245 12.2217 18.0618 11.9168C18.0984 11.6098 18.2097 11.3406 18.3958 11.1091C18.582 10.8777 18.8418 10.7038 19.1752 10.5875C19.5351 10.4619 19.8734 10.4443 20.19 10.5345C20.5086 10.6241 20.7628 10.8102 20.9527 11.0929L20.3822 11.4973C20.2546 11.3342 20.1009 11.227 19.921 11.1758C19.7425 11.1217 19.5607 11.127 19.3757 11.1915C19.1663 11.2646 19.0118 11.3744 18.9124 11.5208C18.8122 11.6652 18.7594 11.8342 18.7539 12.0277C18.7485 12.2212 18.783 12.4281 18.8576 12.6484C18.9781 12.9873 19.1511 13.2348 19.3767 13.391C19.6043 13.5466 19.8686 13.5718 20.1695 13.4668C20.3749 13.3952 20.5243 13.2906 20.6177 13.1531C20.7125 13.0128 20.7626 12.8425 20.7679 12.6422L21.4677 12.5691C21.4721 12.928 21.3803 13.2371 21.1926 13.4965C21.0041 13.7538 20.733 13.9442 20.3791 14.0677ZM23.289 13.0525C23.045 13.1376 22.825 13.1642 22.6291 13.1322C22.4325 13.0981 22.2656 13.0218 22.1284 12.9031C21.9925 12.7818 21.8934 12.6316 21.831 12.4527C21.7728 12.2859 21.7512 12.1292 21.7662 11.9826C21.7812 11.836 21.8314 11.6987 21.9168 11.5708C22.0014 11.4409 22.1186 11.3191 22.2682 11.2053C22.3997 11.1115 22.5523 11.0161 22.726 10.919C22.8997 10.8219 23.0832 10.7237 23.2766 10.6243C23.4721 10.5242 23.6655 10.4247 23.8568 10.3261L23.6697 10.535C23.5837 10.2754 23.4621 10.1034 23.305 10.0191C23.1491 9.93204 22.934 9.9364 22.6595 10.0322C22.4867 10.0925 22.3422 10.1885 22.2263 10.3202C22.1096 10.4498 22.055 10.6171 22.0626 10.822L21.404 10.8465C21.3868 10.5355 21.4629 10.2569 21.6325 10.0107C21.8041 9.76382 22.08 9.57404 22.4602 9.44139C22.755 9.33852 23.029 9.29997 23.282 9.32573C23.5364 9.34875 23.7524 9.45131 23.9299 9.6334C24.0204 9.72273 24.0926 9.82524 24.1467 9.94095C24.2008 10.0567 24.2519 10.1837 24.3001 10.3219L25.0078 12.3502L24.4435 12.547L24.1807 11.7937L24.3245 11.853C24.2763 12.1526 24.168 12.4014 23.9999 12.5992C23.833 12.7943 23.596 12.9453 23.289 13.0525ZM23.2199 12.4915C23.4009 12.4284 23.5454 12.3426 23.6535 12.2342C23.761 12.1237 23.837 12.0048 23.8815 11.8775C23.926 11.7502 23.9417 11.6284 23.9285 11.5122C23.929 11.4025 23.91 11.286 23.8715 11.1625C23.8351 11.0384 23.8041 10.9398 23.7785 10.8666L24.0125 10.8704C23.8219 10.9712 23.6485 11.0625 23.4923 11.1443C23.3361 11.2262 23.1951 11.3027 23.0695 11.374C22.9451 11.4424 22.8367 11.511 22.7444 11.5797C22.6676 11.6407 22.6021 11.7047 22.5478 11.7715C22.4956 11.8376 22.4599 11.9082 22.4405 11.9834C22.4231 12.0579 22.4297 12.1389 22.4602 12.2263C22.49 12.3117 22.539 12.3835 22.6072 12.4418C22.6748 12.4981 22.7597 12.5324 22.862 12.5445C22.9644 12.5567 23.0837 12.5391 23.2199 12.4915ZM27.0537 11.7356C26.6531 11.8753 26.2959 11.9008 25.9821 11.8118C25.6682 11.7229 25.4268 11.5277 25.2578 11.2263L25.8753 10.8979C25.9756 11.0546 26.1163 11.1571 26.2975 11.2057C26.4799 11.2515 26.681 11.2361 26.9006 11.1595C27.0999 11.09 27.2412 10.995 27.3247 10.8747C27.4102 10.7536 27.4281 10.6219 27.3784 10.4796C27.3493 10.3962 27.3056 10.3362 27.2472 10.2996C27.1901 10.2602 27.0904 10.2391 26.948 10.2363C26.8056 10.2335 26.5933 10.2426 26.3109 10.2636C26.0027 10.289 25.7507 10.2891 25.5549 10.2639C25.3604 10.236 25.2081 10.1785 25.0979 10.0915C24.989 10.0017 24.9066 9.87656 24.8505 9.71592C24.781 9.51665 24.7732 9.32436 24.8272 9.13904C24.8811 8.95371 24.9895 8.78704 25.1522 8.63903C25.317 8.4903 25.5285 8.37089 25.7868 8.2808C26.0389 8.19283 26.2774 8.15409 26.5023 8.16458C26.7272 8.17507 26.9262 8.23223 27.0993 8.33606C27.2717 8.43787 27.4041 8.58211 27.4966 8.7688L26.8854 9.11547C26.8077 8.96467 26.6898 8.86551 26.5319 8.818C26.3739 8.77048 26.1928 8.77777 25.9887 8.83987C25.7927 8.89913 25.6474 8.98629 25.553 9.10134C25.4579 9.21436 25.4323 9.33391 25.4763 9.45997C25.5018 9.53317 25.5458 9.58739 25.6083 9.62261C25.6728 9.65713 25.7793 9.67472 25.9278 9.67537C26.0763 9.67603 26.291 9.66384 26.5719 9.63881C26.8733 9.6135 27.1205 9.61619 27.3137 9.64687C27.5062 9.67552 27.6579 9.73776 27.7689 9.83361C27.8812 9.92671 27.9668 10.0576 28.0257 10.2264C28.1392 10.5517 28.1092 10.8484 27.9359 11.1165C27.7646 11.3838 27.4705 11.5902 27.0537 11.7356ZM30.8819 10.3008C30.6887 10.4138 30.4914 10.502 30.29 10.5654C30.0886 10.6289 29.8972 10.6523 29.7158 10.6358C29.5344 10.6192 29.3774 10.5485 29.2449 10.4237C29.1262 10.3123 29.0394 10.1875 28.9843 10.0493C28.9306 9.90842 28.8725 9.74849 28.8101 9.56956L27.7939 6.6568L28.4344 6.43334L29.44 9.3156C29.4861 9.44776 29.5272 9.56229 29.5632 9.65918C29.6014 9.75536 29.6514 9.83026 29.7135 9.88389C29.8307 9.98441 29.9718 10.0162 30.1367 9.97913C30.3031 9.93935 30.4887 9.86662 30.6935 9.76092L30.8819 10.3008ZM27.6605 8.30448L27.4818 7.79208L29.7327 7.00677L29.9114 7.51917L27.6605 8.30448Z" fill="white"/>
</svg>
